<svg width="370" height="369" viewBox="0 0 370 369" fill="none" xmlns="http://www.w3.org/2000/svg">
<path d="M68.9914 209.902L67.3801 204.775H59.9533L58.342 209.902H53.801L61.1399 188.765H66.3401L73.6936 209.902H68.9914ZM63.6154 192.808L60.9055 201.465H66.4279L63.718 192.808H63.6154ZM89.177 200.044H85.2072C85.0803 199.194 84.7434 198.511 84.1965 197.993C83.6594 197.476 82.9612 197.217 82.1018 197.217C81.0373 197.217 80.1975 197.646 79.5822 198.506C78.9768 199.355 78.674 200.532 78.674 202.036C78.674 203.569 78.9768 204.761 79.5822 205.61C80.1975 206.46 81.0422 206.885 82.1164 206.885C82.966 206.885 83.6594 206.646 84.1965 206.167C84.7336 205.679 85.0705 205.005 85.2072 204.146H89.1916C89.0842 206.001 88.386 207.48 87.0969 208.584C85.8078 209.688 84.133 210.239 82.0725 210.239C79.6897 210.239 77.8049 209.512 76.4182 208.057C75.0315 206.592 74.3381 204.585 74.3381 202.036C74.3381 199.526 75.0315 197.539 76.4182 196.074C77.8147 194.6 79.6897 193.862 82.0432 193.862C84.133 193.862 85.8176 194.438 87.0969 195.591C88.386 196.743 89.0793 198.228 89.177 200.044ZM105.525 200.044H101.555C101.428 199.194 101.091 198.511 100.544 197.993C100.007 197.476 99.3088 197.217 98.4494 197.217C97.385 197.217 96.5451 197.646 95.9299 198.506C95.3244 199.355 95.0217 200.532 95.0217 202.036C95.0217 203.569 95.3244 204.761 95.9299 205.61C96.5451 206.46 97.3899 206.885 98.4641 206.885C99.3137 206.885 100.007 206.646 100.544 206.167C101.081 205.679 101.418 205.005 101.555 204.146H105.539C105.432 206.001 104.734 207.48 103.445 208.584C102.155 209.688 100.481 210.239 98.4201 210.239C96.0373 210.239 94.1526 209.512 92.7658 208.057C91.3791 206.592 90.6858 204.585 90.6858 202.036C90.6858 199.526 91.3791 197.539 92.7658 196.074C94.1623 194.6 96.0373 193.862 98.3908 193.862C100.481 193.862 102.165 194.438 103.445 195.591C104.734 196.743 105.427 198.228 105.525 200.044ZM114.651 197.026C113.723 197.026 112.947 197.344 112.322 197.979C111.706 198.613 111.36 199.424 111.281 200.41H117.947C117.898 199.404 117.571 198.589 116.965 197.964C116.369 197.339 115.598 197.026 114.651 197.026ZM118.005 205.098H121.931C121.697 206.641 120.925 207.886 119.616 208.833C118.318 209.771 116.701 210.239 114.768 210.239C112.356 210.239 110.461 209.517 109.084 208.071C107.717 206.626 107.033 204.644 107.033 202.124C107.033 199.614 107.717 197.612 109.084 196.118C110.451 194.614 112.292 193.862 114.607 193.862C116.882 193.862 118.694 194.575 120.041 196.001C121.389 197.427 122.063 199.336 122.063 201.729V203.032H111.238V203.296C111.238 204.419 111.565 205.332 112.219 206.035C112.883 206.729 113.757 207.075 114.841 207.075C115.622 207.075 116.296 206.899 116.863 206.548C117.429 206.187 117.81 205.703 118.005 205.098ZM124.377 209.902V188.765H128.655V209.902H124.377ZM138.586 197.026C137.658 197.026 136.882 197.344 136.257 197.979C135.642 198.613 135.295 199.424 135.217 200.41H141.882C141.833 199.404 141.506 198.589 140.901 197.964C140.305 197.339 139.533 197.026 138.586 197.026ZM141.941 205.098H145.866C145.632 206.641 144.861 207.886 143.552 208.833C142.253 209.771 140.637 210.239 138.703 210.239C136.291 210.239 134.397 209.517 133.02 208.071C131.653 206.626 130.969 204.644 130.969 202.124C130.969 199.614 131.653 197.612 133.02 196.118C134.387 194.614 136.228 193.862 138.542 193.862C140.818 193.862 142.629 194.575 143.977 196.001C145.324 197.427 145.998 199.336 145.998 201.729V203.032H135.173V203.296C135.173 204.419 135.5 205.332 136.155 206.035C136.819 206.729 137.693 207.075 138.777 207.075C139.558 207.075 140.232 206.899 140.798 206.548C141.364 206.187 141.745 205.703 141.941 205.098ZM148.21 209.902V194.199H152.341V197.026H152.429C152.702 196.03 153.161 195.269 153.806 194.741C154.45 194.214 155.237 193.95 156.164 193.95C156.613 193.95 157.019 194.004 157.38 194.111V197.876C156.98 197.71 156.462 197.627 155.827 197.627C154.773 197.627 153.952 197.935 153.366 198.55C152.78 199.165 152.488 200.024 152.488 201.128V209.902H148.21ZM164.822 207.061C165.769 207.061 166.57 206.787 167.224 206.24C167.888 205.684 168.22 204.985 168.22 204.146V203.003L164.909 203.208C164.109 203.267 163.488 203.467 163.049 203.809C162.619 204.15 162.405 204.6 162.405 205.156C162.405 205.742 162.624 206.206 163.064 206.548C163.503 206.89 164.089 207.061 164.822 207.061ZM163.415 210.151C161.902 210.151 160.647 209.707 159.651 208.818C158.655 207.93 158.156 206.787 158.156 205.391C158.156 203.965 158.684 202.847 159.738 202.036C160.793 201.226 162.302 200.762 164.265 200.645L168.22 200.41V199.37C168.22 198.647 167.981 198.081 167.502 197.671C167.033 197.261 166.394 197.056 165.583 197.056C164.802 197.056 164.162 197.231 163.664 197.583C163.176 197.935 162.878 198.408 162.771 199.004H158.86C158.938 197.461 159.597 196.221 160.837 195.283C162.077 194.336 163.723 193.862 165.774 193.862C167.785 193.862 169.397 194.341 170.608 195.298C171.819 196.255 172.424 197.524 172.424 199.106V209.902H168.293V207.5H168.205C167.776 208.32 167.121 208.97 166.242 209.448C165.363 209.917 164.421 210.151 163.415 210.151ZM176.335 190.581H180.613V194.199H183.513V197.422H180.613V204.937C180.613 206.118 181.228 206.709 182.458 206.709C182.859 206.709 183.205 206.685 183.498 206.636V209.785C183 209.902 182.322 209.961 181.462 209.961C179.616 209.961 178.298 209.629 177.507 208.965C176.726 208.301 176.335 207.202 176.335 205.669V197.422H174.123V194.199H176.335V190.581ZM192.668 197.026C191.74 197.026 190.964 197.344 190.339 197.979C189.724 198.613 189.377 199.424 189.299 200.41H195.964C195.915 199.404 195.588 198.589 194.983 197.964C194.387 197.339 193.615 197.026 192.668 197.026ZM196.023 205.098H199.948C199.714 206.641 198.943 207.886 197.634 208.833C196.335 209.771 194.719 210.239 192.785 210.239C190.373 210.239 188.479 209.517 187.102 208.071C185.735 206.626 185.051 204.644 185.051 202.124C185.051 199.614 185.735 197.612 187.102 196.118C188.469 194.614 190.31 193.862 192.624 193.862C194.9 193.862 196.711 194.575 198.059 196.001C199.406 197.427 200.08 199.336 200.08 201.729V203.032H189.255V203.296C189.255 204.419 189.582 205.332 190.237 206.035C190.901 206.729 191.775 207.075 192.859 207.075C193.64 207.075 194.314 206.899 194.88 206.548C195.447 206.187 195.827 205.703 196.023 205.098ZM208.606 188.765H217.204C219.382 188.765 221.145 189.429 222.492 190.757C223.85 192.085 224.529 193.833 224.529 196.001C224.529 198.159 223.83 199.907 222.434 201.245C221.037 202.573 219.221 203.237 216.985 203.237H213.03V209.902H208.606V188.765ZM213.03 192.266V199.78H216.018C217.287 199.78 218.274 199.453 218.977 198.799C219.68 198.145 220.031 197.217 220.031 196.016C220.031 194.814 219.68 193.892 218.977 193.247C218.283 192.593 217.302 192.266 216.032 192.266H213.03ZM231.823 207.061C232.771 207.061 233.572 206.787 234.226 206.24C234.89 205.684 235.222 204.985 235.222 204.146V203.003L231.911 203.208C231.111 203.267 230.49 203.467 230.051 203.809C229.621 204.15 229.406 204.6 229.406 205.156C229.406 205.742 229.626 206.206 230.066 206.548C230.505 206.89 231.091 207.061 231.823 207.061ZM230.417 210.151C228.904 210.151 227.649 209.707 226.653 208.818C225.656 207.93 225.158 206.787 225.158 205.391C225.158 203.965 225.686 202.847 226.74 202.036C227.795 201.226 229.304 200.762 231.267 200.645L235.222 200.41V199.37C235.222 198.647 234.983 198.081 234.504 197.671C234.035 197.261 233.396 197.056 232.585 197.056C231.804 197.056 231.164 197.231 230.666 197.583C230.178 197.935 229.88 198.408 229.773 199.004H225.862C225.94 197.461 226.599 196.221 227.839 195.283C229.079 194.336 230.725 193.862 232.776 193.862C234.787 193.862 236.399 194.341 237.61 195.298C238.821 196.255 239.426 197.524 239.426 199.106V209.902H235.295V207.5H235.207C234.778 208.32 234.123 208.97 233.244 209.448C232.365 209.917 231.423 210.151 230.417 210.151ZM244.113 215.718C243.176 215.718 242.639 215.703 242.502 215.674V212.378C242.59 212.397 242.947 212.407 243.572 212.407C244.363 212.407 244.963 212.271 245.373 211.997C245.783 211.733 246.062 211.289 246.208 210.664C246.208 210.654 246.233 210.532 246.281 210.298C246.33 210.063 246.35 209.937 246.34 209.917L240.876 194.199H245.578L248.918 206.475H248.991L252.331 194.199H256.843L251.438 210.254C250.764 212.266 249.875 213.677 248.772 214.487C247.678 215.308 246.125 215.718 244.113 215.718ZM270.847 208.071C269.45 209.517 267.556 210.239 265.163 210.239C262.771 210.239 260.876 209.512 259.48 208.057C258.083 206.602 257.385 204.595 257.385 202.036C257.385 199.507 258.088 197.515 259.494 196.06C260.91 194.595 262.8 193.862 265.163 193.862C267.536 193.862 269.426 194.595 270.832 196.06C272.238 197.515 272.942 199.507 272.942 202.036C272.942 204.604 272.243 206.616 270.847 208.071ZM265.163 206.973C266.218 206.973 267.053 206.543 267.668 205.684C268.283 204.824 268.591 203.613 268.591 202.051C268.591 200.508 268.283 199.302 267.668 198.433C267.053 197.563 266.218 197.129 265.163 197.129C264.109 197.129 263.269 197.563 262.644 198.433C262.029 199.302 261.721 200.508 261.721 202.051C261.721 203.613 262.029 204.824 262.644 205.684C263.259 206.543 264.099 206.973 265.163 206.973ZM289.655 194.199V209.902H285.525V207.075H285.437C284.616 209.155 283.049 210.195 280.735 210.195C279.016 210.195 277.644 209.673 276.618 208.628C275.593 207.573 275.08 206.138 275.08 204.321V194.199H279.358V203.428C279.358 204.473 279.607 205.269 280.105 205.815C280.613 206.362 281.34 206.636 282.287 206.636C283.235 206.636 283.987 206.323 284.543 205.698C285.1 205.073 285.378 204.238 285.378 203.193V194.199H289.655ZM293.581 190.581H297.859V194.199H300.759V197.422H297.859V204.937C297.859 206.118 298.474 206.709 299.704 206.709C300.105 206.709 300.451 206.685 300.744 206.636V209.785C300.246 209.902 299.568 209.961 298.708 209.961C296.863 209.961 295.544 209.629 294.753 208.965C293.972 208.301 293.581 207.202 293.581 205.669V197.422H291.369V194.199H293.581V190.581ZM302.839 198.813C302.839 197.319 303.44 196.123 304.641 195.225C305.842 194.316 307.448 193.862 309.46 193.862C311.423 193.862 313 194.321 314.192 195.239C315.383 196.157 315.993 197.378 316.023 198.901H312.082C312.033 198.267 311.77 197.769 311.291 197.407C310.822 197.046 310.193 196.865 309.402 196.865C308.659 196.865 308.064 197.021 307.614 197.334C307.175 197.637 306.955 198.042 306.955 198.55C306.955 199.312 307.639 199.854 309.006 200.176L312.009 200.82C313.581 201.172 314.709 201.685 315.393 202.358C316.086 203.022 316.433 203.94 316.433 205.112C316.433 206.655 315.788 207.896 314.499 208.833C313.21 209.771 311.526 210.239 309.446 210.239C307.375 210.239 305.72 209.78 304.48 208.862C303.239 207.944 302.561 206.709 302.444 205.156H306.618C306.726 205.82 307.029 206.333 307.527 206.694C308.034 207.056 308.713 207.236 309.563 207.236C310.373 207.236 311.008 207.09 311.467 206.797C311.936 206.494 312.17 206.084 312.17 205.566C312.17 205.166 312.024 204.849 311.731 204.614C311.438 204.37 310.94 204.165 310.237 203.999L307.336 203.354C304.338 202.671 302.839 201.157 302.839 198.813Z" fill="#313236"/>
<path d="M11.587 295.899L10.3126 292.27H5.26764L3.99323 295.899H2.33209L7.00787 283.217H8.57233L13.2481 295.899H11.587ZM7.76373 285.142L5.73346 290.925H9.84674L7.81647 285.142H7.76373ZM21.879 289.756H20.3848C20.2676 289.229 20.0069 288.795 19.6026 288.455C19.2042 288.115 18.6856 287.945 18.0469 287.945C17.2501 287.945 16.6085 288.253 16.1221 288.868C15.6358 289.478 15.3926 290.298 15.3926 291.329C15.3926 292.378 15.6358 293.204 16.1221 293.808C16.6143 294.411 17.2618 294.713 18.0645 294.713C18.6797 294.713 19.1866 294.561 19.585 294.256C19.9893 293.945 20.2589 293.512 20.3936 292.955H21.8965C21.7794 293.869 21.3663 294.616 20.6573 295.196C19.9542 295.771 19.087 296.058 18.0557 296.058C16.7784 296.058 15.7559 295.636 14.9883 294.792C14.2208 293.942 13.837 292.788 13.837 291.329C13.837 289.894 14.2208 288.748 14.9883 287.893C15.7559 287.031 16.7725 286.601 18.0381 286.601C19.128 286.601 20.0128 286.908 20.6924 287.523C21.378 288.139 21.7735 288.883 21.879 289.756ZM30.8965 289.756H29.4024C29.2852 289.229 29.0245 288.795 28.6202 288.455C28.2217 288.115 27.7032 287.945 27.0645 287.945C26.2676 287.945 25.626 288.253 25.1397 288.868C24.6534 289.478 24.4102 290.298 24.4102 291.329C24.4102 292.378 24.6534 293.204 25.1397 293.808C25.6319 294.411 26.2794 294.713 27.0821 294.713C27.6973 294.713 28.2042 294.561 28.6026 294.256C29.0069 293.945 29.2764 293.512 29.4112 292.955H30.9141C30.7969 293.869 30.3839 294.616 29.6749 295.196C28.9717 295.771 28.1046 296.058 27.0733 296.058C25.796 296.058 24.7735 295.636 24.0059 294.792C23.2383 293.942 22.8546 292.788 22.8546 291.329C22.8546 289.894 23.2383 288.748 24.0059 287.893C24.7735 287.031 25.7901 286.601 27.0557 286.601C28.1456 286.601 29.0303 286.908 29.71 287.523C30.3956 288.139 30.7911 288.883 30.8965 289.756ZM35.9854 287.928C35.2764 287.928 34.6876 288.174 34.2188 288.666C33.7559 289.152 33.501 289.779 33.4542 290.547H38.42C38.4024 289.773 38.171 289.144 37.7256 288.657C37.2803 288.171 36.7003 287.928 35.9854 287.928ZM38.3848 293.28H39.8878C39.753 294.089 39.3311 294.754 38.6221 295.275C37.919 295.797 37.0723 296.058 36.0821 296.058C34.7755 296.058 33.7471 295.636 32.9971 294.792C32.2471 293.948 31.8721 292.806 31.8721 291.364C31.8721 289.935 32.2471 288.783 32.9971 287.91C33.753 287.037 34.7579 286.601 36.0118 286.601C37.2422 286.601 38.2149 287.014 38.9297 287.84C39.6446 288.666 40.002 289.773 40.002 291.162V291.742H33.4454V291.83C33.4454 292.709 33.6856 293.412 34.1661 293.939C34.6465 294.467 35.2969 294.73 36.1172 294.73C36.6915 294.73 37.1807 294.599 37.585 294.335C37.9893 294.071 38.2559 293.72 38.3848 293.28ZM41.628 295.899V283.217H43.1573V295.899H41.628ZM48.8878 287.928C48.1788 287.928 47.5899 288.174 47.1212 288.666C46.6583 289.152 46.4034 289.779 46.3565 290.547H51.3223C51.3047 289.773 51.0733 289.144 50.628 288.657C50.1827 288.171 49.6026 287.928 48.8878 287.928ZM51.2872 293.28H52.7901C52.6553 294.089 52.2335 294.754 51.5245 295.275C50.8214 295.797 49.9747 296.058 48.9844 296.058C47.6778 296.058 46.6495 295.636 45.8995 294.792C45.1495 293.948 44.7745 292.806 44.7745 291.364C44.7745 289.935 45.1495 288.783 45.8995 287.91C46.6553 287.037 47.6602 286.601 48.9141 286.601C50.1446 286.601 51.1172 287.014 51.8321 287.84C52.5469 288.666 52.9044 289.773 52.9044 291.162V291.742H46.3477V291.83C46.3477 292.709 46.588 293.412 47.0684 293.939C47.5489 294.467 48.1993 294.73 49.0196 294.73C49.5938 294.73 50.0831 294.599 50.4874 294.335C50.8917 294.071 51.1583 293.72 51.2872 293.28ZM54.4512 295.899V286.759H55.8926V288.253H55.9278C56.0801 287.743 56.3526 287.342 56.7452 287.049C57.1436 286.75 57.6094 286.601 58.1426 286.601C58.2657 286.601 58.4708 286.621 58.7579 286.662V288.147C58.5938 288.089 58.3214 288.06 57.9405 288.06C57.3487 288.06 56.8741 288.256 56.5167 288.648C56.1592 289.041 55.9805 289.56 55.9805 290.204V295.899H54.4512ZM62.8448 294.757C63.5655 294.757 64.169 294.534 64.6553 294.089C65.1475 293.638 65.3936 293.084 65.3936 292.428V291.681L62.9503 291.83C62.335 291.871 61.8575 292.021 61.5176 292.278C61.1837 292.536 61.0167 292.882 61.0167 293.315C61.0167 293.749 61.1837 294.098 61.5176 294.361C61.8516 294.625 62.294 294.757 62.8448 294.757ZM62.502 296.058C61.5938 296.058 60.8585 295.806 60.296 295.302C59.7393 294.798 59.461 294.136 59.461 293.315C59.461 292.53 59.7481 291.903 60.3223 291.435C60.9024 290.966 61.7198 290.702 62.7745 290.644L65.3936 290.494V289.729C65.3936 289.173 65.2178 288.736 64.8663 288.42C64.5147 288.104 64.0225 287.945 63.3897 287.945C62.8096 287.945 62.338 288.074 61.9747 288.332C61.6114 288.584 61.3799 288.938 61.2803 289.396H59.8038C59.8565 288.581 60.2081 287.913 60.8585 287.392C61.5147 286.864 62.3702 286.601 63.4249 286.601C64.4971 286.601 65.3467 286.87 65.9737 287.409C66.6065 287.948 66.9229 288.672 66.9229 289.58V295.899H65.4727V294.326H65.4376C65.1622 294.848 64.7579 295.267 64.2247 295.583C63.6915 295.899 63.1172 296.058 62.502 296.058ZM69.3575 284.553H70.8868V286.759H72.6622V288.016H70.8868V293.447C70.8868 293.863 70.9776 294.171 71.1592 294.37C71.3409 294.563 71.628 294.66 72.0206 294.66C72.2667 294.66 72.4776 294.646 72.6534 294.616V295.899C72.4542 295.946 72.1319 295.97 71.6866 295.97C70.8487 295.97 70.251 295.782 69.8936 295.407C69.5362 295.032 69.3575 294.405 69.3575 293.526V288.016H67.9952V286.759H69.3575V284.553ZM77.6983 287.928C76.9893 287.928 76.4005 288.174 75.9317 288.666C75.4688 289.152 75.2139 289.779 75.1671 290.547H80.1329C80.1153 289.773 79.8839 289.144 79.4385 288.657C78.9932 288.171 78.4131 287.928 77.6983 287.928ZM80.0977 293.28H81.6006C81.4659 294.089 81.044 294.754 80.335 295.275C79.6319 295.797 78.7852 296.058 77.795 296.058C76.4883 296.058 75.46 295.636 74.71 294.792C73.96 293.948 73.585 292.806 73.585 291.364C73.585 289.935 73.96 288.783 74.71 287.91C75.4659 287.037 76.4708 286.601 77.7247 286.601C78.9551 286.601 79.9278 287.014 80.6426 287.84C81.3575 288.666 81.7149 289.773 81.7149 291.162V291.742H75.1583V291.83C75.1583 292.709 75.3985 293.412 75.879 293.939C76.3594 294.467 77.0098 294.73 77.8301 294.73C78.4044 294.73 78.8936 294.599 79.2979 294.335C79.7022 294.071 79.9688 293.72 80.0977 293.28ZM86.9532 295.899V286.759H88.3946V288.253H88.4297C88.5821 287.743 88.8546 287.342 89.2471 287.049C89.6456 286.75 90.1114 286.601 90.6446 286.601C90.7676 286.601 90.9727 286.621 91.2598 286.662V288.147C91.0958 288.089 90.8233 288.06 90.4424 288.06C89.8506 288.06 89.376 288.256 89.0186 288.648C88.6612 289.041 88.4825 289.56 88.4825 290.204V295.899H86.9532ZM95.7335 287.928C95.0245 287.928 94.4356 288.174 93.9669 288.666C93.504 289.152 93.2491 289.779 93.2022 290.547H98.168C98.1505 289.773 97.919 289.144 97.4737 288.657C97.0284 288.171 96.4483 287.928 95.7335 287.928ZM98.1329 293.28H99.6358C99.501 294.089 99.0792 294.754 98.3702 295.275C97.6671 295.797 96.8204 296.058 95.8301 296.058C94.5235 296.058 93.4952 295.636 92.7452 294.792C91.9952 293.948 91.6202 292.806 91.6202 291.364C91.6202 289.935 91.9952 288.783 92.7452 287.91C93.501 287.037 94.5059 286.601 95.7598 286.601C96.9903 286.601 97.963 287.014 98.6778 287.84C99.3926 288.666 99.7501 289.773 99.7501 291.162V291.742H93.1934V291.83C93.1934 292.709 93.4337 293.412 93.9141 293.939C94.3946 294.467 95.045 294.73 95.8653 294.73C96.4395 294.73 96.9288 294.599 97.3331 294.335C97.7374 294.071 98.004 293.72 98.1329 293.28ZM108.891 289.756H107.397C107.279 289.229 107.019 288.795 106.614 288.455C106.216 288.115 105.697 287.945 105.059 287.945C104.262 287.945 103.62 288.253 103.134 288.868C102.648 289.478 102.404 290.298 102.404 291.329C102.404 292.378 102.648 293.204 103.134 293.808C103.626 294.411 104.273 294.713 105.076 294.713C105.691 294.713 106.198 294.561 106.597 294.256C107.001 293.945 107.271 293.512 107.405 292.955H108.908C108.791 293.869 108.378 294.616 107.669 295.196C106.966 295.771 106.099 296.058 105.067 296.058C103.79 296.058 102.768 295.636 102 294.792C101.232 293.942 100.849 292.788 100.849 291.329C100.849 289.894 101.232 288.748 102 287.893C102.768 287.031 103.784 286.601 105.05 286.601C106.14 286.601 107.024 286.908 107.704 287.523C108.39 288.139 108.785 288.883 108.891 289.756ZM113.98 287.928C113.271 287.928 112.682 288.174 112.213 288.666C111.75 289.152 111.495 289.779 111.448 290.547H116.414C116.397 289.773 116.165 289.144 115.72 288.657C115.274 288.171 114.694 287.928 113.98 287.928ZM116.379 293.28H117.882C117.747 294.089 117.325 294.754 116.616 295.275C115.913 295.797 115.066 296.058 114.076 296.058C112.77 296.058 111.741 295.636 110.991 294.792C110.241 293.948 109.866 292.806 109.866 291.364C109.866 289.935 110.241 288.783 110.991 287.91C111.747 287.037 112.752 286.601 114.006 286.601C115.236 286.601 116.209 287.014 116.924 287.84C117.639 288.666 117.996 289.773 117.996 291.162V291.742H111.44V291.83C111.44 292.709 111.68 293.412 112.16 293.939C112.641 294.467 113.291 294.73 114.111 294.73C114.686 294.73 115.175 294.599 115.579 294.335C115.983 294.071 116.25 293.72 116.379 293.28ZM119.622 295.899V286.759H121.151V295.899H119.622ZM120.387 285.221C120.129 285.221 119.906 285.127 119.719 284.939C119.531 284.752 119.438 284.529 119.438 284.271C119.438 284.008 119.531 283.785 119.719 283.604C119.906 283.416 120.129 283.322 120.387 283.322C120.65 283.322 120.876 283.416 121.064 283.604C121.251 283.785 121.345 284.008 121.345 284.271C121.345 284.529 121.251 284.752 121.064 284.939C120.876 285.127 120.65 285.221 120.387 285.221ZM130.714 286.759L127.357 295.899H125.792L122.426 286.759H124.034L126.557 294.273H126.592L129.123 286.759H130.714ZM134.757 294.757C135.478 294.757 136.081 294.534 136.567 294.089C137.06 293.638 137.306 293.084 137.306 292.428V291.681L134.862 291.83C134.247 291.871 133.77 292.021 133.43 292.278C133.096 292.536 132.929 292.882 132.929 293.315C132.929 293.749 133.096 294.098 133.43 294.361C133.764 294.625 134.206 294.757 134.757 294.757ZM134.414 296.058C133.506 296.058 132.771 295.806 132.208 295.302C131.651 294.798 131.373 294.136 131.373 293.315C131.373 292.53 131.66 291.903 132.234 291.435C132.815 290.966 133.632 290.702 134.687 290.644L137.306 290.494V289.729C137.306 289.173 137.13 288.736 136.778 288.42C136.427 288.104 135.935 287.945 135.302 287.945C134.722 287.945 134.25 288.074 133.887 288.332C133.523 288.584 133.292 288.938 133.192 289.396H131.716C131.769 288.581 132.12 287.913 132.771 287.392C133.427 286.864 134.282 286.601 135.337 286.601C136.409 286.601 137.259 286.87 137.886 287.409C138.519 287.948 138.835 288.672 138.835 289.58V295.899H137.385V294.326H137.35C137.074 294.848 136.67 295.267 136.137 295.583C135.604 295.899 135.029 296.058 134.414 296.058ZM145.321 296.058C144.665 296.058 144.079 295.908 143.564 295.609C143.054 295.311 142.649 294.892 142.351 294.353H142.315V295.899H140.857V283.217H142.386V288.288H142.421C142.708 287.761 143.107 287.348 143.616 287.049C144.132 286.75 144.709 286.601 145.348 286.601C146.502 286.601 147.434 287.031 148.143 287.893C148.852 288.754 149.206 289.899 149.206 291.329C149.206 292.765 148.852 293.913 148.143 294.774C147.434 295.63 146.493 296.058 145.321 296.058ZM145.023 287.945C144.243 287.945 143.607 288.259 143.115 288.886C142.623 289.507 142.377 290.321 142.377 291.329C142.377 292.343 142.623 293.16 143.115 293.781C143.607 294.402 144.243 294.713 145.023 294.713C145.831 294.713 146.47 294.411 146.939 293.808C147.407 293.198 147.642 292.372 147.642 291.329C147.642 290.292 147.407 289.469 146.939 288.859C146.47 288.25 145.831 287.945 145.023 287.945ZM150.841 295.899V283.217H152.37V295.899H150.841ZM158.101 287.928C157.392 287.928 156.803 288.174 156.334 288.666C155.871 289.152 155.616 289.779 155.569 290.547H160.535C160.518 289.773 160.286 289.144 159.841 288.657C159.396 288.171 158.815 287.928 158.101 287.928ZM160.5 293.28H162.003C161.868 294.089 161.446 294.754 160.737 295.275C160.034 295.797 159.188 296.058 158.197 296.058C156.891 296.058 155.862 295.636 155.112 294.792C154.362 293.948 153.987 292.806 153.987 291.364C153.987 289.935 154.362 288.783 155.112 287.91C155.868 287.037 156.873 286.601 158.127 286.601C159.357 286.601 160.33 287.014 161.045 287.84C161.76 288.666 162.117 289.773 162.117 291.162V291.742H155.561V291.83C155.561 292.709 155.801 293.412 156.281 293.939C156.762 294.467 157.412 294.73 158.232 294.73C158.807 294.73 159.296 294.599 159.7 294.335C160.105 294.071 160.371 293.72 160.5 293.28ZM163.506 289.281C163.506 288.496 163.822 287.854 164.455 287.356C165.094 286.853 165.914 286.601 166.916 286.601C167.859 286.601 168.645 286.853 169.272 287.356C169.898 287.86 170.23 288.499 170.265 289.272H168.806C168.753 288.827 168.554 288.479 168.208 288.227C167.868 287.975 167.42 287.849 166.863 287.849C166.307 287.849 165.858 287.975 165.519 288.227C165.179 288.473 165.009 288.798 165.009 289.202C165.009 289.823 165.516 290.263 166.529 290.521L167.944 290.863C168.864 291.098 169.512 291.402 169.887 291.777C170.268 292.146 170.458 292.668 170.458 293.342C170.458 294.139 170.118 294.792 169.439 295.302C168.759 295.806 167.886 296.058 166.819 296.058C165.823 296.058 165 295.812 164.35 295.319C163.705 294.821 163.342 294.165 163.26 293.351H164.789C164.959 294.323 165.668 294.81 166.916 294.81C167.531 294.81 168.018 294.689 168.375 294.449C168.738 294.203 168.92 293.872 168.92 293.456C168.92 293.128 168.812 292.867 168.595 292.674C168.384 292.48 168.023 292.316 167.514 292.182L165.905 291.769C164.306 291.358 163.506 290.529 163.506 289.281ZM176.232 284.553H177.762V286.759H179.537V288.016H177.762V293.447C177.762 293.863 177.853 294.171 178.034 294.37C178.216 294.563 178.503 294.66 178.896 294.66C179.142 294.66 179.353 294.646 179.528 294.616V295.899C179.329 295.946 179.007 295.97 178.562 295.97C177.724 295.97 177.126 295.782 176.769 295.407C176.411 295.032 176.232 294.405 176.232 293.526V288.016H174.87V286.759H176.232V284.553ZM181.251 295.899V283.217H182.78V288.218H182.815C183.073 287.702 183.448 287.304 183.94 287.022C184.439 286.741 185.03 286.601 185.716 286.601C186.712 286.601 187.497 286.908 188.071 287.523C188.646 288.139 188.933 288.962 188.933 289.993V295.899H187.403V290.274C187.403 289.536 187.219 288.965 186.85 288.561C186.486 288.156 185.95 287.954 185.241 287.954C184.485 287.954 183.885 288.191 183.44 288.666C183 289.141 182.78 289.776 182.78 290.573V295.899H181.251ZM190.875 295.899V286.759H192.316V288.253H192.352C192.504 287.743 192.776 287.342 193.169 287.049C193.567 286.75 194.033 286.601 194.566 286.601C194.69 286.601 194.895 286.621 195.182 286.662V288.147C195.018 288.089 194.745 288.06 194.364 288.06C193.773 288.06 193.298 288.256 192.94 288.648C192.583 289.041 192.404 289.56 192.404 290.204V295.899H190.875ZM199.778 296.058C198.501 296.058 197.476 295.633 196.702 294.783C195.929 293.928 195.542 292.776 195.542 291.329C195.542 289.882 195.929 288.733 196.702 287.884C197.476 287.028 198.501 286.601 199.778 286.601C201.05 286.601 202.072 287.028 202.846 287.884C203.619 288.733 204.006 289.882 204.006 291.329C204.006 292.771 203.619 293.919 202.846 294.774C202.072 295.63 201.05 296.058 199.778 296.058ZM197.818 293.816C198.305 294.414 198.958 294.713 199.778 294.713C200.599 294.713 201.249 294.417 201.73 293.825C202.21 293.228 202.45 292.396 202.45 291.329C202.45 290.263 202.21 289.434 201.73 288.842C201.249 288.244 200.599 287.945 199.778 287.945C198.958 287.945 198.305 288.244 197.818 288.842C197.338 289.439 197.098 290.269 197.098 291.329C197.098 292.39 197.338 293.219 197.818 293.816ZM213.059 286.759V295.899H211.608V294.414H211.573C211.005 295.51 210.038 296.058 208.673 296.058C207.683 296.058 206.906 295.759 206.344 295.161C205.787 294.558 205.509 293.734 205.509 292.691V286.759H207.038V292.419C207.038 293.942 207.741 294.704 209.148 294.704C209.886 294.704 210.466 294.473 210.888 294.01C211.315 293.541 211.529 292.914 211.529 292.129V286.759H213.059ZM218.763 294.625C219.56 294.625 220.201 294.32 220.688 293.711C221.174 293.102 221.417 292.296 221.417 291.294C221.417 290.286 221.174 289.478 220.688 288.868C220.201 288.253 219.56 287.945 218.763 287.945C217.972 287.945 217.339 288.25 216.864 288.859C216.396 289.463 216.161 290.274 216.161 291.294C216.161 292.313 216.396 293.125 216.864 293.729C217.339 294.326 217.972 294.625 218.763 294.625ZM218.815 299.345C217.814 299.345 216.952 299.09 216.232 298.58C215.511 298.076 215.086 297.435 214.957 296.655H216.53C216.683 297.077 216.97 297.414 217.392 297.666C217.814 297.918 218.309 298.044 218.877 298.044C219.662 298.044 220.28 297.836 220.732 297.42C221.189 297.004 221.417 296.453 221.417 295.768V294.326H221.382C221.095 294.83 220.693 295.231 220.178 295.53C219.662 295.823 219.088 295.97 218.455 295.97C217.289 295.97 216.355 295.545 215.651 294.695C214.948 293.846 214.597 292.712 214.597 291.294C214.597 289.864 214.948 288.725 215.651 287.875C216.36 287.025 217.307 286.601 218.49 286.601C219.135 286.601 219.715 286.75 220.231 287.049C220.746 287.348 221.156 287.764 221.461 288.297H221.487V286.759H222.946V295.715C222.946 296.811 222.571 297.689 221.821 298.352C221.071 299.014 220.069 299.345 218.815 299.345ZM225.021 295.899V283.217H226.55V288.218H226.585C226.843 287.702 227.218 287.304 227.71 287.022C228.208 286.741 228.8 286.601 229.485 286.601C230.482 286.601 231.267 286.908 231.841 287.523C232.415 288.139 232.702 288.962 232.702 289.993V295.899H231.173V290.274C231.173 289.536 230.988 288.965 230.619 288.561C230.256 288.156 229.72 287.954 229.011 287.954C228.255 287.954 227.654 288.191 227.209 288.666C226.77 289.141 226.55 289.776 226.55 290.573V295.899H225.021ZM241.351 294.757C242.071 294.757 242.675 294.534 243.161 294.089C243.653 293.638 243.899 293.084 243.899 292.428V291.681L241.456 291.83C240.841 291.871 240.363 292.021 240.023 292.278C239.69 292.536 239.523 292.882 239.523 293.315C239.523 293.749 239.69 294.098 240.023 294.361C240.357 294.625 240.8 294.757 241.351 294.757ZM241.008 296.058C240.1 296.058 239.364 295.806 238.802 295.302C238.245 294.798 237.967 294.136 237.967 293.315C237.967 292.53 238.254 291.903 238.828 291.435C239.408 290.966 240.226 290.702 241.28 290.644L243.899 290.494V289.729C243.899 289.173 243.724 288.736 243.372 288.42C243.021 288.104 242.528 287.945 241.896 287.945C241.315 287.945 240.844 288.074 240.481 288.332C240.117 288.584 239.886 288.938 239.786 289.396H238.31C238.362 288.581 238.714 287.913 239.364 287.392C240.021 286.864 240.876 286.601 241.931 286.601C243.003 286.601 243.853 286.87 244.48 287.409C245.112 287.948 245.429 288.672 245.429 289.58V295.899H243.979V294.326H243.943C243.668 294.848 243.264 295.267 242.731 295.583C242.197 295.899 241.623 296.058 241.008 296.058ZM258.656 289.756H257.162C257.045 289.229 256.784 288.795 256.38 288.455C255.982 288.115 255.463 287.945 254.824 287.945C254.027 287.945 253.386 288.253 252.899 288.868C252.413 289.478 252.17 290.298 252.17 291.329C252.17 292.378 252.413 293.204 252.899 293.808C253.392 294.411 254.039 294.713 254.842 294.713C255.457 294.713 255.964 294.561 256.362 294.256C256.767 293.945 257.036 293.512 257.171 292.955H258.674C258.557 293.869 258.144 294.616 257.435 295.196C256.732 295.771 255.864 296.058 254.833 296.058C253.556 296.058 252.533 295.636 251.766 294.792C250.998 293.942 250.614 292.788 250.614 291.329C250.614 289.894 250.998 288.748 251.766 287.893C252.533 287.031 253.55 286.601 254.815 286.601C255.905 286.601 256.79 286.908 257.47 287.523C258.155 288.139 258.551 288.883 258.656 289.756ZM260.159 295.899V283.217H261.689V295.899H260.159ZM263.833 295.899V286.759H265.362V295.899H263.833ZM264.598 285.221C264.34 285.221 264.117 285.127 263.93 284.939C263.742 284.752 263.648 284.529 263.648 284.271C263.648 284.008 263.742 283.785 263.93 283.604C264.117 283.416 264.34 283.322 264.598 283.322C264.861 283.322 265.087 283.416 265.274 283.604C265.462 283.785 265.556 284.008 265.556 284.271C265.556 284.529 265.462 284.752 265.274 284.939C265.087 285.127 264.861 285.221 264.598 285.221ZM275.022 289.756H273.527C273.41 289.229 273.149 288.795 272.745 288.455C272.347 288.115 271.828 287.945 271.19 287.945C270.393 287.945 269.751 288.253 269.265 288.868C268.778 289.478 268.535 290.298 268.535 291.329C268.535 292.378 268.778 293.204 269.265 293.808C269.757 294.411 270.404 294.713 271.207 294.713C271.822 294.713 272.329 294.561 272.728 294.256C273.132 293.945 273.401 293.512 273.536 292.955H275.039C274.922 293.869 274.509 294.616 273.8 295.196C273.097 295.771 272.23 296.058 271.198 296.058C269.921 296.058 268.898 295.636 268.131 294.792C267.363 293.942 266.98 292.788 266.98 291.329C266.98 289.894 267.363 288.748 268.131 287.893C268.898 287.031 269.915 286.601 271.181 286.601C272.271 286.601 273.155 286.908 273.835 287.523C274.521 288.139 274.916 288.883 275.022 289.756ZM278.054 290.819L282.097 286.759H283.951L279.987 290.705L284.074 295.899H282.299L278.906 291.646L278.054 292.454V295.899H276.524V283.217H278.054V290.819ZM292.661 296.058C291.384 296.058 290.358 295.633 289.585 294.783C288.812 293.928 288.425 292.776 288.425 291.329C288.425 289.882 288.812 288.733 289.585 287.884C290.358 287.028 291.384 286.601 292.661 286.601C293.933 286.601 294.955 287.028 295.729 287.884C296.502 288.733 296.889 289.882 296.889 291.329C296.889 292.771 296.502 293.919 295.729 294.774C294.955 295.63 293.933 296.058 292.661 296.058ZM290.701 293.816C291.188 294.414 291.841 294.713 292.661 294.713C293.482 294.713 294.132 294.417 294.612 293.825C295.093 293.228 295.333 292.396 295.333 291.329C295.333 290.263 295.093 289.434 294.612 288.842C294.132 288.244 293.482 287.945 292.661 287.945C291.841 287.945 291.188 288.244 290.701 288.842C290.221 289.439 289.981 290.269 289.981 291.329C289.981 292.39 290.221 293.219 290.701 293.816ZM298.928 295.899V288.016H297.653V286.759H298.928V285.739C298.928 284.86 299.133 284.21 299.543 283.788C299.959 283.36 300.589 283.146 301.433 283.146C301.761 283.146 302.071 283.17 302.364 283.217V284.456C302.118 284.421 301.887 284.403 301.67 284.403C300.856 284.403 300.448 284.852 300.448 285.748V286.759H302.32V288.016H300.457V295.899H298.928ZM310.608 294.757C311.329 294.757 311.933 294.534 312.419 294.089C312.911 293.638 313.157 293.084 313.157 292.428V291.681L310.714 291.83C310.099 291.871 309.621 292.021 309.281 292.278C308.947 292.536 308.78 292.882 308.78 293.315C308.78 293.749 308.947 294.098 309.281 294.361C309.615 294.625 310.058 294.757 310.608 294.757ZM310.266 296.058C309.357 296.058 308.622 295.806 308.06 295.302C307.503 294.798 307.225 294.136 307.225 293.315C307.225 292.53 307.512 291.903 308.086 291.435C308.666 290.966 309.483 290.702 310.538 290.644L313.157 290.494V289.729C313.157 289.173 312.982 288.736 312.63 288.42C312.278 288.104 311.786 287.945 311.153 287.945C310.573 287.945 310.102 288.074 309.738 288.332C309.375 288.584 309.144 288.938 309.044 289.396H307.567C307.62 288.581 307.972 287.913 308.622 287.392C309.278 286.864 310.134 286.601 311.189 286.601C312.261 286.601 313.11 286.87 313.737 287.409C314.37 287.948 314.687 288.672 314.687 289.58V295.899H313.236V294.326H313.201C312.926 294.848 312.522 295.267 311.988 295.583C311.455 295.899 310.881 296.058 310.266 296.058ZM324.864 296.058C324.208 296.058 323.622 295.908 323.107 295.609C322.597 295.311 322.192 294.892 321.894 294.353H321.858V295.899H320.399V283.217H321.929V288.288H321.964C322.251 287.761 322.649 287.348 323.159 287.049C323.675 286.75 324.252 286.601 324.891 286.601C326.045 286.601 326.977 287.031 327.686 287.893C328.395 288.754 328.749 289.899 328.749 291.329C328.749 292.765 328.395 293.913 327.686 294.774C326.977 295.63 326.036 296.058 324.864 296.058ZM324.565 287.945C323.786 287.945 323.15 288.259 322.658 288.886C322.166 289.507 321.92 290.321 321.92 291.329C321.92 292.343 322.166 293.16 322.658 293.781C323.15 294.402 323.786 294.713 324.565 294.713C325.374 294.713 326.013 294.411 326.482 293.808C326.95 293.198 327.185 292.372 327.185 291.329C327.185 290.292 326.95 289.469 326.482 288.859C326.013 288.25 325.374 287.945 324.565 287.945ZM337.811 286.759V295.899H336.36V294.414H336.325C335.757 295.51 334.79 296.058 333.425 296.058C332.435 296.058 331.658 295.759 331.096 295.161C330.539 294.558 330.261 293.734 330.261 292.691V286.759H331.79V292.419C331.79 293.942 332.493 294.704 333.899 294.704C334.638 294.704 335.218 294.473 335.64 294.01C336.067 293.541 336.281 292.914 336.281 292.129V286.759H337.811ZM340.289 284.553H341.818V286.759H343.594V288.016H341.818V293.447C341.818 293.863 341.909 294.171 342.091 294.37C342.273 294.563 342.56 294.66 342.952 294.66C343.198 294.66 343.409 294.646 343.585 294.616V295.899C343.386 295.946 343.064 295.97 342.618 295.97C341.78 295.97 341.183 295.782 340.825 295.407C340.468 295.032 340.289 294.405 340.289 293.526V288.016H338.927V286.759H340.289V284.553ZM345.721 284.553H347.25V286.759H349.025V288.016H347.25V293.447C347.25 293.863 347.341 294.171 347.523 294.37C347.704 294.563 347.991 294.66 348.384 294.66C348.63 294.66 348.841 294.646 349.017 294.616V295.899C348.817 295.946 348.495 295.97 348.05 295.97C347.212 295.97 346.614 295.782 346.257 295.407C345.899 295.032 345.721 294.405 345.721 293.526V288.016H344.358V286.759H345.721V284.553ZM354.185 296.058C352.907 296.058 351.882 295.633 351.108 294.783C350.335 293.928 349.948 292.776 349.948 291.329C349.948 289.882 350.335 288.733 351.108 287.884C351.882 287.028 352.907 286.601 354.185 286.601C355.456 286.601 356.479 287.028 357.252 287.884C358.025 288.733 358.412 289.882 358.412 291.329C358.412 292.771 358.025 293.919 357.252 294.774C356.479 295.63 355.456 296.058 354.185 296.058ZM352.225 293.816C352.711 294.414 353.364 294.713 354.185 294.713C355.005 294.713 355.655 294.417 356.136 293.825C356.616 293.228 356.857 292.396 356.857 291.329C356.857 290.263 356.616 289.434 356.136 288.842C355.655 288.244 355.005 287.945 354.185 287.945C353.364 287.945 352.711 288.244 352.225 288.842C351.744 289.439 351.504 290.269 351.504 291.329C351.504 292.39 351.744 293.219 352.225 293.816ZM359.959 295.899V286.759H361.4V288.218H361.436C361.699 287.708 362.077 287.312 362.569 287.031C363.062 286.744 363.65 286.601 364.336 286.601C365.332 286.601 366.108 286.902 366.665 287.506C367.222 288.104 367.5 288.924 367.5 289.967V295.899H365.971V290.239C365.971 289.495 365.795 288.93 365.443 288.543C365.092 288.15 364.567 287.954 363.87 287.954C363.149 287.954 362.572 288.188 362.139 288.657C361.705 289.126 361.488 289.747 361.488 290.521V295.899H359.959ZM75.7999 324.757C76.5206 324.757 77.1241 324.534 77.6104 324.089C78.1026 323.638 78.3487 323.084 78.3487 322.428V321.681L75.9053 321.83C75.2901 321.871 74.8126 322.021 74.4727 322.278C74.1387 322.536 73.9717 322.882 73.9717 323.315C73.9717 323.749 74.1387 324.098 74.4727 324.361C74.8067 324.625 75.2491 324.757 75.7999 324.757ZM75.4571 326.058C74.5489 326.058 73.8135 325.806 73.251 325.302C72.6944 324.798 72.4161 324.136 72.4161 323.315C72.4161 322.53 72.7032 321.903 73.2774 321.435C73.8575 320.966 74.6749 320.702 75.7296 320.644L78.3487 320.494V319.729C78.3487 319.173 78.1729 318.736 77.8214 318.42C77.4698 318.104 76.9776 317.945 76.3448 317.945C75.7647 317.945 75.293 318.074 74.9297 318.332C74.5665 318.584 74.335 318.938 74.2354 319.396H72.7589C72.8116 318.581 73.1631 317.913 73.8135 317.392C74.4698 316.864 75.3253 316.601 76.3799 316.601C77.4522 316.601 78.3018 316.87 78.9288 317.409C79.5616 317.948 79.878 318.672 79.878 319.58V325.899H78.4278V324.326H78.3926C78.1172 324.848 77.713 325.267 77.1797 325.583C76.6465 325.899 76.0723 326.058 75.4571 326.058ZM81.8204 325.899V316.759H83.2618V318.218H83.2969C83.5606 317.708 83.9385 317.312 84.4307 317.031C84.9229 316.744 85.5118 316.601 86.1973 316.601C87.1934 316.601 87.9698 316.902 88.5264 317.506C89.0831 318.104 89.3614 318.924 89.3614 319.967V325.899H87.8321V320.239C87.8321 319.495 87.6563 318.93 87.3047 318.543C86.9532 318.15 86.4288 317.954 85.7315 317.954C85.0108 317.954 84.4337 318.188 84.0001 318.657C83.5665 319.126 83.3497 319.747 83.3497 320.521V325.899H81.8204ZM94.7755 326.058C93.6036 326.058 92.6573 325.627 91.9366 324.766C91.2217 323.904 90.8643 322.759 90.8643 321.329C90.8643 319.905 91.2217 318.763 91.9366 317.901C92.6514 317.034 93.586 316.601 94.7403 316.601C95.3848 316.601 95.962 316.747 96.4717 317.04C96.9815 317.333 97.3741 317.734 97.6495 318.244H97.6846V313.217H99.2139V325.899H97.7549V324.353H97.7286C97.4297 324.886 97.0255 325.305 96.5157 325.609C96.0059 325.908 95.4258 326.058 94.7755 326.058ZM95.0655 317.945C94.2569 317.945 93.6153 318.253 93.1407 318.868C92.6661 319.478 92.4288 320.298 92.4288 321.329C92.4288 322.366 92.6661 323.189 93.1407 323.799C93.6153 324.408 94.2569 324.713 95.0655 324.713C95.8565 324.713 96.4922 324.405 96.9727 323.79C97.4532 323.169 97.6934 322.349 97.6934 321.329C97.6934 320.31 97.4503 319.492 96.9639 318.877C96.4835 318.256 95.8506 317.945 95.0655 317.945ZM104.971 325.899V316.759H106.412V318.253H106.447C106.6 317.743 106.872 317.342 107.265 317.049C107.663 316.75 108.129 316.601 108.662 316.601C108.785 316.601 108.99 316.621 109.277 316.662V318.147C109.113 318.089 108.841 318.06 108.46 318.06C107.868 318.06 107.394 318.256 107.036 318.648C106.679 319.041 106.5 319.56 106.5 320.204V325.899H104.971ZM113.751 317.928C113.042 317.928 112.453 318.174 111.984 318.666C111.522 319.152 111.267 319.779 111.22 320.547H116.186C116.168 319.773 115.937 319.144 115.491 318.657C115.046 318.171 114.466 317.928 113.751 317.928ZM116.15 323.28H117.653C117.519 324.089 117.097 324.754 116.388 325.275C115.685 325.797 114.838 326.058 113.848 326.058C112.541 326.058 111.513 325.636 110.763 324.792C110.013 323.948 109.638 322.806 109.638 321.364C109.638 319.935 110.013 318.783 110.763 317.91C111.519 317.037 112.523 316.601 113.777 316.601C115.008 316.601 115.981 317.014 116.695 317.84C117.41 318.666 117.768 319.773 117.768 321.162V321.742H111.211V321.83C111.211 322.709 111.451 323.412 111.932 323.939C112.412 324.467 113.063 324.73 113.883 324.73C114.457 324.73 114.946 324.599 115.351 324.335C115.755 324.071 116.022 323.72 116.15 323.28ZM126.908 319.756H125.414C125.297 319.229 125.036 318.795 124.632 318.455C124.233 318.115 123.715 317.945 123.076 317.945C122.279 317.945 121.638 318.253 121.151 318.868C120.665 319.478 120.422 320.298 120.422 321.329C120.422 322.378 120.665 323.204 121.151 323.808C121.644 324.411 122.291 324.713 123.094 324.713C123.709 324.713 124.216 324.561 124.614 324.256C125.019 323.945 125.288 323.512 125.423 322.955H126.926C126.809 323.869 126.396 324.616 125.687 325.196C124.983 325.771 124.116 326.058 123.085 326.058C121.808 326.058 120.785 325.636 120.018 324.792C119.25 323.942 118.866 322.788 118.866 321.329C118.866 319.894 119.25 318.748 120.018 317.893C120.785 317.031 121.802 316.601 123.067 316.601C124.157 316.601 125.042 316.908 125.722 317.523C126.407 318.139 126.803 318.883 126.908 319.756ZM131.997 317.928C131.288 317.928 130.699 318.174 130.231 318.666C129.768 319.152 129.513 319.779 129.466 320.547H134.432C134.414 319.773 134.183 319.144 133.737 318.657C133.292 318.171 132.712 317.928 131.997 317.928ZM134.397 323.28H135.899C135.765 324.089 135.343 324.754 134.634 325.275C133.931 325.797 133.084 326.058 132.094 326.058C130.787 326.058 129.759 325.636 129.009 324.792C128.259 323.948 127.884 322.806 127.884 321.364C127.884 319.935 128.259 318.783 129.009 317.91C129.765 317.037 130.77 316.601 132.023 316.601C133.254 316.601 134.227 317.014 134.941 317.84C135.656 318.666 136.014 319.773 136.014 321.162V321.742H129.457V321.83C129.457 322.709 129.697 323.412 130.178 323.939C130.658 324.467 131.309 324.73 132.129 324.73C132.703 324.73 133.192 324.599 133.597 324.335C134.001 324.071 134.268 323.72 134.397 323.28ZM137.64 325.899V316.759H139.169V325.899H137.64ZM138.404 315.221C138.147 315.221 137.924 315.127 137.736 314.939C137.549 314.752 137.455 314.529 137.455 314.271C137.455 314.008 137.549 313.785 137.736 313.604C137.924 313.416 138.147 313.322 138.404 313.322C138.668 313.322 138.894 313.416 139.081 313.604C139.269 313.785 139.362 314.008 139.362 314.271C139.362 314.529 139.269 314.752 139.081 314.939C138.894 315.127 138.668 315.221 138.404 315.221ZM148.732 316.759L145.374 325.899H143.81L140.443 316.759H142.052L144.574 324.273H144.609L147.141 316.759H148.732ZM153.337 317.928C152.628 317.928 152.039 318.174 151.57 318.666C151.107 319.152 150.853 319.779 150.806 320.547H155.772C155.754 319.773 155.523 319.144 155.077 318.657C154.632 318.171 154.052 317.928 153.337 317.928ZM155.736 323.28H157.239C157.105 324.089 156.683 324.754 155.974 325.275C155.271 325.797 154.424 326.058 153.434 326.058C152.127 326.058 151.099 325.636 150.349 324.792C149.599 323.948 149.224 322.806 149.224 321.364C149.224 319.935 149.599 318.783 150.349 317.91C151.105 317.037 152.109 316.601 153.363 316.601C154.594 316.601 155.566 317.014 156.281 317.84C156.996 318.666 157.354 319.773 157.354 321.162V321.742H150.797V321.83C150.797 322.709 151.037 323.412 151.518 323.939C151.998 324.467 152.648 324.73 153.469 324.73C154.043 324.73 154.532 324.599 154.937 324.335C155.341 324.071 155.607 323.72 155.736 323.28ZM170.186 319.756H168.691C168.574 319.229 168.314 318.795 167.909 318.455C167.511 318.115 166.992 317.945 166.354 317.945C165.557 317.945 164.915 318.253 164.429 318.868C163.942 319.478 163.699 320.298 163.699 321.329C163.699 322.378 163.942 323.204 164.429 323.808C164.921 324.411 165.568 324.713 166.371 324.713C166.986 324.713 167.493 324.561 167.892 324.256C168.296 323.945 168.565 323.512 168.7 322.955H170.203C170.086 323.869 169.673 324.616 168.964 325.196C168.261 325.771 167.394 326.058 166.362 326.058C165.085 326.058 164.063 325.636 163.295 324.792C162.527 323.942 162.144 322.788 162.144 321.329C162.144 319.894 162.527 318.748 163.295 317.893C164.063 317.031 165.079 316.601 166.345 316.601C167.435 316.601 168.319 316.908 168.999 317.523C169.685 318.139 170.08 318.883 170.186 319.756ZM174.624 324.757C175.345 324.757 175.948 324.534 176.435 324.089C176.927 323.638 177.173 323.084 177.173 322.428V321.681L174.73 321.83C174.114 321.871 173.637 322.021 173.297 322.278C172.963 322.536 172.796 322.882 172.796 323.315C172.796 323.749 172.963 324.098 173.297 324.361C173.631 324.625 174.073 324.757 174.624 324.757ZM174.281 326.058C173.373 326.058 172.638 325.806 172.075 325.302C171.519 324.798 171.24 324.136 171.24 323.315C171.24 322.53 171.527 321.903 172.102 321.435C172.682 320.966 173.499 320.702 174.554 320.644L177.173 320.494V319.729C177.173 319.173 176.997 318.736 176.646 318.42C176.294 318.104 175.802 317.945 175.169 317.945C174.589 317.945 174.117 318.074 173.754 318.332C173.391 318.584 173.159 318.938 173.06 319.396H171.583C171.636 318.581 171.987 317.913 172.638 317.392C173.294 316.864 174.149 316.601 175.204 316.601C176.276 316.601 177.126 316.87 177.753 317.409C178.386 317.948 178.702 318.672 178.702 319.58V325.899H177.252V324.326H177.217C176.941 324.848 176.537 325.267 176.004 325.583C175.471 325.899 174.897 326.058 174.281 326.058ZM185.083 316.601C186.255 316.601 187.198 317.031 187.913 317.893C188.634 318.754 188.994 319.899 188.994 321.329C188.994 322.753 188.637 323.898 187.922 324.766C187.207 325.627 186.273 326.058 185.118 326.058C184.474 326.058 183.897 325.911 183.387 325.618C182.877 325.325 182.484 324.924 182.209 324.414H182.174V328.949H180.645V316.759H182.095V318.306H182.13C182.417 317.778 182.818 317.362 183.334 317.058C183.85 316.753 184.433 316.601 185.083 316.601ZM184.784 324.713C185.599 324.713 186.243 324.408 186.718 323.799C187.192 323.189 187.43 322.366 187.43 321.329C187.43 320.292 187.192 319.469 186.718 318.859C186.243 318.25 185.599 317.945 184.784 317.945C183.999 317.945 183.366 318.256 182.886 318.877C182.405 319.498 182.165 320.315 182.165 321.329C182.165 322.349 182.405 323.169 182.886 323.79C183.366 324.405 183.999 324.713 184.784 324.713ZM190.62 325.899V316.759H192.149V325.899H190.62ZM191.385 315.221C191.127 315.221 190.904 315.127 190.717 314.939C190.529 314.752 190.436 314.529 190.436 314.271C190.436 314.008 190.529 313.785 190.717 313.604C190.904 313.416 191.127 313.322 191.385 313.322C191.648 313.322 191.874 313.416 192.062 313.604C192.249 313.785 192.343 314.008 192.343 314.271C192.343 314.529 192.249 314.752 192.062 314.939C191.874 315.127 191.648 315.221 191.385 315.221ZM194.707 314.553H196.236V316.759H198.012V318.016H196.236V323.447C196.236 323.863 196.327 324.171 196.509 324.37C196.69 324.563 196.978 324.66 197.37 324.66C197.616 324.66 197.827 324.646 198.003 324.616V325.899C197.804 325.946 197.482 325.97 197.036 325.97C196.198 325.97 195.601 325.782 195.243 325.407C194.886 325.032 194.707 324.405 194.707 323.526V318.016H193.345V316.759H194.707V314.553ZM202.485 324.757C203.206 324.757 203.81 324.534 204.296 324.089C204.788 323.638 205.034 323.084 205.034 322.428V321.681L202.591 321.83C201.976 321.871 201.498 322.021 201.158 322.278C200.824 322.536 200.657 322.882 200.657 323.315C200.657 323.749 200.824 324.098 201.158 324.361C201.492 324.625 201.935 324.757 202.485 324.757ZM202.143 326.058C201.234 326.058 200.499 325.806 199.937 325.302C199.38 324.798 199.102 324.136 199.102 323.315C199.102 322.53 199.389 321.903 199.963 321.435C200.543 320.966 201.36 320.702 202.415 320.644L205.034 320.494V319.729C205.034 319.173 204.858 318.736 204.507 318.42C204.155 318.104 203.663 317.945 203.03 317.945C202.45 317.945 201.979 318.074 201.615 318.332C201.252 318.584 201.021 318.938 200.921 319.396H199.444C199.497 318.581 199.849 317.913 200.499 317.392C201.155 316.864 202.011 316.601 203.065 316.601C204.138 316.601 204.987 316.87 205.614 317.409C206.247 317.948 206.564 318.672 206.564 319.58V325.899H205.113V324.326H205.078C204.803 324.848 204.398 325.267 203.865 325.583C203.332 325.899 202.758 326.058 202.143 326.058ZM208.585 325.899V313.217H210.114V325.899H208.585ZM215.95 325.899V316.759H217.48V325.899H215.95ZM216.715 315.221C216.457 315.221 216.234 315.127 216.047 314.939C215.859 314.752 215.766 314.529 215.766 314.271C215.766 314.008 215.859 313.785 216.047 313.604C216.234 313.416 216.457 313.322 216.715 313.322C216.979 313.322 217.204 313.416 217.392 313.604C217.579 313.785 217.673 314.008 217.673 314.271C217.673 314.529 217.579 314.752 217.392 314.939C217.204 315.127 216.979 315.221 216.715 315.221ZM219.545 325.899V316.759H220.986V318.218H221.022C221.285 317.708 221.663 317.312 222.155 317.031C222.648 316.744 223.236 316.601 223.922 316.601C224.918 316.601 225.694 316.902 226.251 317.506C226.808 318.104 227.086 318.924 227.086 319.967V325.899H225.557V320.239C225.557 319.495 225.381 318.93 225.029 318.543C224.678 318.15 224.153 317.954 223.456 317.954C222.735 317.954 222.158 318.188 221.725 318.657C221.291 319.126 221.074 319.747 221.074 320.521V325.899H219.545ZM232.685 316.873C232.685 315.766 233.083 314.846 233.88 314.113C234.677 313.375 235.673 313.006 236.868 313.006C237.999 313.006 238.957 313.343 239.742 314.017C240.527 314.69 240.92 315.514 240.92 316.486C240.92 317.189 240.727 317.866 240.34 318.517C239.953 319.167 239.227 320.043 238.16 321.145L234.952 324.458V324.493H241.131V325.899H232.764V324.81L237.229 320.107C238.078 319.211 238.641 318.531 238.916 318.068C239.197 317.605 239.338 317.11 239.338 316.583C239.338 315.974 239.092 315.455 238.6 315.027C238.113 314.6 237.522 314.386 236.824 314.386C236.08 314.386 235.459 314.623 234.961 315.098C234.463 315.572 234.214 316.164 234.214 316.873V316.882H232.685V316.873ZM248.549 325.899V323.263H242.177V321.83C242.722 320.816 243.413 319.659 244.251 318.358C245.095 317.058 246.258 315.344 247.74 313.217H250.078V321.874H251.871V323.263H250.078V325.899H248.549ZM243.741 321.839V321.874H248.549V314.535H248.523C246.302 317.705 244.708 320.14 243.741 321.839ZM257.153 325.899V313.217H258.683V318.218H258.718C258.976 317.702 259.351 317.304 259.843 317.022C260.341 316.741 260.933 316.601 261.618 316.601C262.614 316.601 263.399 316.908 263.974 317.523C264.548 318.139 264.835 318.962 264.835 319.993V325.899H263.306V320.274C263.306 319.536 263.121 318.965 262.752 318.561C262.389 318.156 261.853 317.954 261.144 317.954C260.388 317.954 259.787 318.191 259.342 318.666C258.902 319.141 258.683 319.776 258.683 320.573V325.899H257.153ZM270.565 326.058C269.288 326.058 268.263 325.633 267.489 324.783C266.716 323.928 266.329 322.776 266.329 321.329C266.329 319.882 266.716 318.733 267.489 317.884C268.263 317.028 269.288 316.601 270.565 316.601C271.837 316.601 272.859 317.028 273.633 317.884C274.406 318.733 274.793 319.882 274.793 321.329C274.793 322.771 274.406 323.919 273.633 324.774C272.859 325.63 271.837 326.058 270.565 326.058ZM268.606 323.816C269.092 324.414 269.745 324.713 270.565 324.713C271.386 324.713 272.036 324.417 272.517 323.825C272.997 323.228 273.237 322.396 273.237 321.329C273.237 320.263 272.997 319.434 272.517 318.842C272.036 318.244 271.386 317.945 270.565 317.945C269.745 317.945 269.092 318.244 268.606 318.842C268.125 319.439 267.885 320.269 267.885 321.329C267.885 322.39 268.125 323.219 268.606 323.816ZM283.846 316.759V325.899H282.396V324.414H282.36C281.792 325.51 280.825 326.058 279.46 326.058C278.47 326.058 277.693 325.759 277.131 325.161C276.574 324.558 276.296 323.734 276.296 322.691V316.759H277.825V322.419C277.825 323.942 278.528 324.704 279.935 324.704C280.673 324.704 281.253 324.473 281.675 324.01C282.103 323.541 282.316 322.914 282.316 322.129V316.759H283.846ZM285.832 325.899V316.759H287.273V318.253H287.309C287.461 317.743 287.733 317.342 288.126 317.049C288.524 316.75 288.99 316.601 289.523 316.601C289.647 316.601 289.852 316.621 290.139 316.662V318.147C289.975 318.089 289.702 318.06 289.321 318.06C288.73 318.06 288.255 318.256 287.898 318.648C287.54 319.041 287.361 319.56 287.361 320.204V325.899H285.832ZM291.229 319.281C291.229 318.496 291.545 317.854 292.178 317.356C292.816 316.853 293.637 316.601 294.639 316.601C295.582 316.601 296.367 316.853 296.994 317.356C297.621 317.86 297.952 318.499 297.987 319.272H296.528C296.476 318.827 296.276 318.479 295.931 318.227C295.591 317.975 295.143 317.849 294.586 317.849C294.029 317.849 293.581 317.975 293.241 318.227C292.901 318.473 292.732 318.798 292.732 319.202C292.732 319.823 293.238 320.263 294.252 320.521L295.667 320.863C296.587 321.098 297.234 321.402 297.609 321.777C297.99 322.146 298.181 322.668 298.181 323.342C298.181 324.139 297.841 324.792 297.161 325.302C296.482 325.806 295.608 326.058 294.542 326.058C293.546 326.058 292.723 325.812 292.072 325.319C291.428 324.821 291.065 324.165 290.982 323.351H292.512C292.682 324.323 293.391 324.81 294.639 324.81C295.254 324.81 295.74 324.689 296.098 324.449C296.461 324.203 296.643 323.872 296.643 323.456C296.643 323.128 296.534 322.867 296.317 322.674C296.107 322.48 295.746 322.316 295.236 322.182L293.628 321.769C292.028 321.358 291.229 320.529 291.229 319.281Z" fill="#7C7D8D"/>
<rect x="145.812" y="235.9" width="79.9433" height="3" fill="#FFC747"/>
<path d="M254.734 72.9052C254.734 111.014 223.863 141.903 185.785 141.903C147.707 141.903 116.836 111.014 116.836 72.9052C116.836 34.7968 147.707 3.90723 185.785 3.90723C223.863 3.90723 254.734 34.7968 254.734 72.9052Z" fill="white" stroke="#159E99" stroke-width="6"/>
<path fill-rule="evenodd" clip-rule="evenodd" d="M201.483 83.6742H217.626V80.9821H201.483V83.6742Z" fill="#159E99"/>
<path fill-rule="evenodd" clip-rule="evenodd" d="M200.137 52.7141H210.899V50.0219H200.137V52.7141Z" fill="#159E99"/>
<path fill-rule="evenodd" clip-rule="evenodd" d="M213.59 52.7141H217.626V50.0219H213.59V52.7141Z" fill="#159E99"/>
<path fill-rule="evenodd" clip-rule="evenodd" d="M151.711 51.3676H154.401V48.6753H151.711V51.3676Z" fill="#159E99"/>
<path fill-rule="evenodd" clip-rule="evenodd" d="M151.711 56.7518H154.401V54.0596H151.711V56.7518Z" fill="#159E99"/>
<path fill-rule="evenodd" clip-rule="evenodd" d="M217.169 71.5604H225.24V68.8672H217.169V71.5604Z" fill="#159E99"/>
<mask id="mask0" mask-type="alpha" maskUnits="userSpaceOnUse" x="146" y="37" width="52" height="71">
<path fill-rule="evenodd" clip-rule="evenodd" d="M146.33 37.9065H197.449V107.904H146.33V37.9065Z" fill="white"/>
</mask>
<g mask="url(#mask0)">
<path fill-rule="evenodd" clip-rule="evenodd" d="M193.412 107.905H150.366C148.141 107.905 146.33 106.092 146.33 103.865V41.9439C146.33 39.7187 148.141 37.9065 150.366 37.9065H193.412C195.638 37.9065 197.449 39.7187 197.449 41.9439V52.7138H194.757V41.9439C194.757 41.2018 194.154 40.5977 193.412 40.5977H150.366C149.623 40.5977 149.02 41.2018 149.02 41.9439V103.865C149.02 104.608 149.623 105.212 150.366 105.212H193.412C194.154 105.212 194.757 104.608 194.757 103.865V80.9822H197.449V103.865C197.449 106.092 195.638 107.905 193.412 107.905Z" fill="#159E99"/>
</g>
<mask id="mask1" mask-type="alpha" maskUnits="userSpaceOnUse" x="146" y="37" width="80" height="71">
<path fill-rule="evenodd" clip-rule="evenodd" d="M146.33 107.904H225.24V37.9062H146.33V107.904Z" fill="white"/>
</mask>
<g mask="url(#mask1)">
<path fill-rule="evenodd" clip-rule="evenodd" d="M169.199 102.52H174.58V99.8271H169.199V102.52Z" fill="#159E99"/>
<path fill-rule="evenodd" clip-rule="evenodd" d="M147.676 97.1346H196.104V94.4434H147.676V97.1346Z" fill="#159E99"/>
<path fill-rule="evenodd" clip-rule="evenodd" d="M147.676 45.9828H196.104V43.2905H147.676V45.9828Z" fill="#159E99"/>
<path fill-rule="evenodd" clip-rule="evenodd" d="M162.473 76.9442H154.402V74.252H162.473C164.628 74.252 165.289 72.8034 166.389 69.2479C167.397 65.9891 168.651 61.935 173.087 60.2627L176.769 58.7836L177.769 61.2797L174.061 62.7687C170.831 63.9877 169.879 67.0652 168.959 70.0412C167.958 73.2764 166.825 76.9442 162.473 76.9442Z" fill="#159E99"/>
<path fill-rule="evenodd" clip-rule="evenodd" d="M154.545 86.3634L154.506 83.6722C158.074 83.618 164.585 83.4889 166.349 83.3479C170.995 82.9774 175.993 80.8085 180.426 77.2412C183.453 74.8042 186.165 72.6185 186.323 72.4894C186.528 72.2913 186.687 71.9247 186.687 71.5601C186.687 70.6722 185.761 70.008 184.918 70.282C184.605 70.4032 184.272 70.5875 183.903 70.7836C182.233 71.6793 179.947 72.9052 173.235 72.9052V70.213C179.271 70.213 181.136 69.2147 182.632 68.4106C183.084 68.1672 183.511 67.9386 184.01 67.7484C186.871 66.7846 189.377 68.8964 189.377 71.5601C189.377 72.6677 188.915 73.7379 188.11 74.5006C188.045 74.5588 188.025 74.5785 182.113 79.3392C177.265 83.2425 171.742 85.6194 166.561 86.0343C164.308 86.2136 155.539 86.3486 154.545 86.3634Z" fill="#159E99"/>
<path fill-rule="evenodd" clip-rule="evenodd" d="M180.074 60.6917H187.027V58.7452H180.074V60.6917Z" fill="#159E99"/>
<path fill-rule="evenodd" clip-rule="evenodd" d="M205.307 75.316H207.878V72.7432H205.307V75.316Z" fill="#159E99"/>
<path fill-rule="evenodd" clip-rule="evenodd" d="M201.312 75.316H203.884V72.7432H201.312V75.316Z" fill="#159E99"/>
<path fill-rule="evenodd" clip-rule="evenodd" d="M210.515 75.7512C210.505 76.2636 209.915 76.7071 209.215 76.6874L179.2 76.2636C178.825 76.2636 178.471 76.1355 178.225 75.9187C178.106 75.8103 177.919 75.5935 177.919 75.2979L178.166 57.6672C178.175 57.3627 178.372 57.1558 178.49 57.0573C178.737 56.8503 179.081 56.7321 179.446 56.7321H179.465L209.481 57.1558C210.181 57.1657 210.771 57.6091 210.762 58.1215L210.515 75.7512ZM209.521 54.9875L179.495 54.5637C178.599 54.5637 177.752 54.8495 177.102 55.3915C176.413 55.963 176.009 56.781 175.999 57.6383L175.753 75.2679C175.743 76.1153 176.118 76.953 176.797 77.5442C177.427 78.1059 178.274 78.4213 179.161 78.4311L209.186 78.8539H209.235C211.116 78.8539 212.653 77.4851 212.682 75.7803L212.928 58.1507C212.948 56.4351 211.422 55.0072 209.521 54.9875Z" fill="#159E99"/>
<path fill-rule="evenodd" clip-rule="evenodd" d="M195.537 68.025C195.32 68.8715 193.883 68.4093 193.41 68.2999L193.794 66.7823C194.257 66.9006 195.754 67.1282 195.537 68.025Z" fill="#159E99"/>
<path fill-rule="evenodd" clip-rule="evenodd" d="M195.744 65.8073C195.548 66.5749 194.356 66.1817 193.962 66.093L194.307 64.7135C194.701 64.8111 195.951 64.9894 195.744 65.8073Z" fill="#159E99"/>
<path fill-rule="evenodd" clip-rule="evenodd" d="M197.566 65.6694C197.458 66.3799 197.064 66.7239 196.542 66.8421C197.261 67.2166 197.626 67.798 197.28 68.7933C196.848 70.0359 195.814 70.1335 194.444 69.8783L194.109 71.2076L193.313 71.0106L193.638 69.7009C193.431 69.6408 193.224 69.5915 192.996 69.5324L192.672 70.8539L191.875 70.6469L192.2 69.3156C192.012 69.2663 191.826 69.218 191.629 69.1688L190.584 68.9017L190.988 67.9862C190.988 67.9862 191.54 68.133 191.569 68.133C191.796 68.1932 191.894 68.0444 191.933 67.9468L192.839 64.3302C192.849 64.1627 192.79 63.9449 192.465 63.8562L191.875 63.7192L192.09 62.8609L193.194 63.1378C193.361 63.1772 193.538 63.2167 193.716 63.2561L194.041 61.9454L194.838 62.1415L194.523 63.4325C194.741 63.4817 194.957 63.531 195.164 63.5803L195.479 62.2992L196.286 62.4963L195.961 63.8168C196.966 64.1716 197.714 64.6948 197.566 65.6694ZM196.11 59.6092C192.19 58.6327 188.222 61.0175 187.247 64.9406C186.272 68.8617 188.655 72.8341 192.575 73.8097C196.493 74.7843 200.462 72.3995 201.438 68.4784C202.413 64.5553 200.029 60.5849 196.11 59.6092Z" fill="#159E99"/>
<path fill-rule="evenodd" clip-rule="evenodd" d="M195.537 68.025C195.32 68.8715 193.883 68.4093 193.41 68.2999L193.794 66.7823C194.257 66.9006 195.754 67.1282 195.537 68.025Z" fill="#159E99"/>
<path fill-rule="evenodd" clip-rule="evenodd" d="M195.744 65.8073C195.548 66.5749 194.356 66.1817 193.962 66.093L194.307 64.7135C194.701 64.8111 195.951 64.9894 195.744 65.8073Z" fill="#159E99"/>
<path fill-rule="evenodd" clip-rule="evenodd" d="M195.744 65.8073C195.548 66.5749 194.356 66.1817 193.962 66.093L194.307 64.7135C194.701 64.8111 195.951 64.9894 195.744 65.8073Z" fill="#159E99"/>
<path fill-rule="evenodd" clip-rule="evenodd" d="M195.537 68.025C195.32 68.8715 193.883 68.4093 193.41 68.2999L193.794 66.7823C194.257 66.9006 195.754 67.1282 195.537 68.025Z" fill="#159E99"/>
</g>
<circle cx="194.934" cy="66.7818" r="4.81498" fill="#159E99"/>
</svg>
