<svg width="265" height="239" viewBox="0 0 265 239" fill="none" xmlns="http://www.w3.org/2000/svg">
<path d="M15.9914 209.902L14.3801 204.775H6.95334L5.34201 209.902H0.800995L8.13986 188.765H13.3401L20.6936 209.902H15.9914ZM10.6154 192.808L7.90549 201.465H13.4279L10.718 192.808H10.6154ZM36.177 200.044H32.2072C32.0803 199.194 31.7434 198.511 31.1965 197.993C30.6594 197.476 29.9612 197.217 29.1018 197.217C28.0373 197.217 27.1975 197.646 26.5822 198.506C25.9768 199.355 25.674 200.532 25.674 202.036C25.674 203.569 25.9768 204.761 26.5822 205.61C27.1975 206.46 28.0422 206.885 29.1164 206.885C29.966 206.885 30.6594 206.646 31.1965 206.167C31.7336 205.679 32.0705 205.005 32.2072 204.146H36.1916C36.0842 206.001 35.386 207.48 34.0969 208.584C32.8078 209.688 31.133 210.239 29.0725 210.239C26.6897 210.239 24.8049 209.512 23.4182 208.057C22.0315 206.592 21.3381 204.585 21.3381 202.036C21.3381 199.526 22.0315 197.539 23.4182 196.074C24.8147 194.6 26.6897 193.862 29.0432 193.862C31.133 193.862 32.8176 194.438 34.0969 195.591C35.386 196.743 36.0793 198.228 36.177 200.044ZM52.5246 200.044H48.5549C48.4279 199.194 48.091 198.511 47.5442 197.993C47.007 197.476 46.3088 197.217 45.4494 197.217C44.385 197.217 43.5451 197.646 42.9299 198.506C42.3244 199.355 42.0217 200.532 42.0217 202.036C42.0217 203.569 42.3244 204.761 42.9299 205.61C43.5451 206.46 44.3899 206.885 45.4641 206.885C46.3137 206.885 47.007 206.646 47.5442 206.167C48.0813 205.679 48.4182 205.005 48.5549 204.146H52.5393C52.4319 206.001 51.7336 207.48 50.4445 208.584C49.1555 209.688 47.4807 210.239 45.4201 210.239C43.0373 210.239 41.1526 209.512 39.7658 208.057C38.3791 206.592 37.6858 204.585 37.6858 202.036C37.6858 199.526 38.3791 197.539 39.7658 196.074C41.1623 194.6 43.0373 193.862 45.3908 193.862C47.4807 193.862 49.1653 194.438 50.4445 195.591C51.7336 196.743 52.427 198.228 52.5246 200.044ZM61.6506 197.026C60.7229 197.026 59.9465 197.344 59.3215 197.979C58.7063 198.613 58.3596 199.424 58.2815 200.41H64.9465C64.8977 199.404 64.5705 198.589 63.9651 197.964C63.3694 197.339 62.5979 197.026 61.6506 197.026ZM65.0051 205.098H68.9309C68.6965 206.641 67.925 207.886 66.6164 208.833C65.3176 209.771 63.7014 210.239 61.7678 210.239C59.3557 210.239 57.4612 209.517 56.0842 208.071C54.717 206.626 54.0334 204.644 54.0334 202.124C54.0334 199.614 54.717 197.612 56.0842 196.118C57.4514 194.614 59.2922 193.862 61.6067 193.862C63.882 193.862 65.6936 194.575 67.0412 196.001C68.3889 197.427 69.0627 199.336 69.0627 201.729V203.032H58.2375V203.296C58.2375 204.419 58.5647 205.332 59.219 206.035C59.883 206.729 60.757 207.075 61.841 207.075C62.6223 207.075 63.2961 206.899 63.8625 206.548C64.4289 206.187 64.8098 205.703 65.0051 205.098ZM71.3772 209.902V188.765H75.6545V209.902H71.3772ZM85.5862 197.026C84.6584 197.026 83.882 197.344 83.257 197.979C82.6418 198.613 82.2951 199.424 82.217 200.41H88.882C88.8332 199.404 88.5061 198.589 87.9006 197.964C87.3049 197.339 86.5334 197.026 85.5862 197.026ZM88.9406 205.098H92.8664C92.632 206.641 91.8606 207.886 90.552 208.833C89.2531 209.771 87.6369 210.239 85.7033 210.239C83.2912 210.239 81.3967 209.517 80.0197 208.071C78.6526 206.626 77.969 204.644 77.969 202.124C77.969 199.614 78.6526 197.612 80.0197 196.118C81.3869 194.614 83.2278 193.862 85.5422 193.862C87.8176 193.862 89.6291 194.575 90.9768 196.001C92.3244 197.427 92.9983 199.336 92.9983 201.729V203.032H82.1731V203.296C82.1731 204.419 82.5002 205.332 83.1545 206.035C83.8186 206.729 84.6926 207.075 85.7766 207.075C86.5578 207.075 87.2317 206.899 87.7981 206.548C88.3645 206.187 88.7453 205.703 88.9406 205.098ZM95.2102 209.902V194.199H99.341V197.026H99.4289C99.7024 196.03 100.161 195.269 100.806 194.741C101.45 194.214 102.237 193.95 103.164 193.95C103.613 193.95 104.019 194.004 104.38 194.111V197.876C103.98 197.71 103.462 197.627 102.827 197.627C101.773 197.627 100.952 197.935 100.366 198.55C99.7805 199.165 99.4875 200.024 99.4875 201.128V209.902H95.2102ZM111.822 207.061C112.769 207.061 113.57 206.787 114.224 206.24C114.888 205.684 115.22 204.985 115.22 204.146V203.003L111.909 203.208C111.109 203.267 110.488 203.467 110.049 203.809C109.619 204.15 109.405 204.6 109.405 205.156C109.405 205.742 109.624 206.206 110.064 206.548C110.503 206.89 111.089 207.061 111.822 207.061ZM110.415 210.151C108.902 210.151 107.647 209.707 106.651 208.818C105.655 207.93 105.156 206.787 105.156 205.391C105.156 203.965 105.684 202.847 106.738 202.036C107.793 201.226 109.302 200.762 111.265 200.645L115.22 200.41V199.37C115.22 198.647 114.981 198.081 114.502 197.671C114.033 197.261 113.394 197.056 112.583 197.056C111.802 197.056 111.162 197.231 110.664 197.583C110.176 197.935 109.878 198.408 109.771 199.004H105.86C105.938 197.461 106.597 196.221 107.837 195.283C109.077 194.336 110.723 193.862 112.774 193.862C114.785 193.862 116.397 194.341 117.608 195.298C118.819 196.255 119.424 197.524 119.424 199.106V209.902H115.293V207.5H115.205C114.776 208.32 114.121 208.97 113.242 209.448C112.363 209.917 111.421 210.151 110.415 210.151ZM123.335 190.581H127.613V194.199H130.513V197.422H127.613V204.937C127.613 206.118 128.228 206.709 129.458 206.709C129.859 206.709 130.205 206.685 130.498 206.636V209.785C130 209.902 129.322 209.961 128.462 209.961C126.616 209.961 125.298 209.629 124.507 208.965C123.726 208.301 123.335 207.202 123.335 205.669V197.422H121.123V194.199H123.335V190.581ZM139.668 197.026C138.74 197.026 137.964 197.344 137.339 197.979C136.724 198.613 136.377 199.424 136.299 200.41H142.964C142.915 199.404 142.588 198.589 141.983 197.964C141.387 197.339 140.615 197.026 139.668 197.026ZM143.023 205.098H146.948C146.714 206.641 145.943 207.886 144.634 208.833C143.335 209.771 141.719 210.239 139.785 210.239C137.373 210.239 135.479 209.517 134.102 208.071C132.735 206.626 132.051 204.644 132.051 202.124C132.051 199.614 132.735 197.612 134.102 196.118C135.469 194.614 137.31 193.862 139.624 193.862C141.9 193.862 143.711 194.575 145.059 196.001C146.406 197.427 147.08 199.336 147.08 201.729V203.032H136.255V203.296C136.255 204.419 136.582 205.332 137.237 206.035C137.901 206.729 138.775 207.075 139.859 207.075C140.64 207.075 141.314 206.899 141.88 206.548C142.447 206.187 142.827 205.703 143.023 205.098ZM155.606 188.765H164.204C166.382 188.765 168.145 189.429 169.492 190.757C170.85 192.085 171.529 193.833 171.529 196.001C171.529 198.159 170.83 199.907 169.434 201.245C168.037 202.573 166.221 203.237 163.985 203.237H160.03V209.902H155.606V188.765ZM160.03 192.266V199.78H163.018C164.287 199.78 165.274 199.453 165.977 198.799C166.68 198.145 167.031 197.217 167.031 196.016C167.031 194.814 166.68 193.892 165.977 193.247C165.283 192.593 164.302 192.266 163.032 192.266H160.03ZM178.823 207.061C179.771 207.061 180.572 206.787 181.226 206.24C181.89 205.684 182.222 204.985 182.222 204.146V203.003L178.911 203.208C178.111 203.267 177.49 203.467 177.051 203.809C176.621 204.15 176.406 204.6 176.406 205.156C176.406 205.742 176.626 206.206 177.066 206.548C177.505 206.89 178.091 207.061 178.823 207.061ZM177.417 210.151C175.904 210.151 174.649 209.707 173.653 208.818C172.656 207.93 172.158 206.787 172.158 205.391C172.158 203.965 172.686 202.847 173.74 202.036C174.795 201.226 176.304 200.762 178.267 200.645L182.222 200.41V199.37C182.222 198.647 181.983 198.081 181.504 197.671C181.035 197.261 180.396 197.056 179.585 197.056C178.804 197.056 178.164 197.231 177.666 197.583C177.178 197.935 176.88 198.408 176.773 199.004H172.862C172.94 197.461 173.599 196.221 174.839 195.283C176.079 194.336 177.725 193.862 179.776 193.862C181.787 193.862 183.399 194.341 184.61 195.298C185.821 196.255 186.426 197.524 186.426 199.106V209.902H182.295V207.5H182.207C181.778 208.32 181.123 208.97 180.244 209.448C179.365 209.917 178.423 210.151 177.417 210.151ZM191.113 215.718C190.176 215.718 189.639 215.703 189.502 215.674V212.378C189.59 212.397 189.947 212.407 190.572 212.407C191.363 212.407 191.963 212.271 192.373 211.997C192.783 211.733 193.062 211.289 193.208 210.664C193.208 210.654 193.233 210.532 193.281 210.298C193.33 210.063 193.35 209.937 193.34 209.917L187.876 194.199H192.578L195.918 206.475H195.991L199.331 194.199H203.843L198.438 210.254C197.764 212.266 196.875 213.677 195.772 214.487C194.678 215.308 193.125 215.718 191.113 215.718ZM217.847 208.071C216.45 209.517 214.556 210.239 212.163 210.239C209.771 210.239 207.876 209.512 206.48 208.057C205.083 206.602 204.385 204.595 204.385 202.036C204.385 199.507 205.088 197.515 206.494 196.06C207.91 194.595 209.8 193.862 212.163 193.862C214.536 193.862 216.426 194.595 217.832 196.06C219.238 197.515 219.942 199.507 219.942 202.036C219.942 204.604 219.243 206.616 217.847 208.071ZM212.163 206.973C213.218 206.973 214.053 206.543 214.668 205.684C215.283 204.824 215.591 203.613 215.591 202.051C215.591 200.508 215.283 199.302 214.668 198.433C214.053 197.563 213.218 197.129 212.163 197.129C211.109 197.129 210.269 197.563 209.644 198.433C209.029 199.302 208.721 200.508 208.721 202.051C208.721 203.613 209.029 204.824 209.644 205.684C210.259 206.543 211.099 206.973 212.163 206.973ZM236.655 194.199V209.902H232.525V207.075H232.437C231.616 209.155 230.049 210.195 227.735 210.195C226.016 210.195 224.644 209.673 223.618 208.628C222.593 207.573 222.08 206.138 222.08 204.321V194.199H226.358V203.428C226.358 204.473 226.607 205.269 227.105 205.815C227.613 206.362 228.34 206.636 229.287 206.636C230.235 206.636 230.987 206.323 231.543 205.698C232.1 205.073 232.378 204.238 232.378 203.193V194.199H236.655ZM240.581 190.581H244.859V194.199H247.759V197.422H244.859V204.937C244.859 206.118 245.474 206.709 246.704 206.709C247.105 206.709 247.451 206.685 247.744 206.636V209.785C247.246 209.902 246.568 209.961 245.708 209.961C243.863 209.961 242.544 209.629 241.753 208.965C240.972 208.301 240.581 207.202 240.581 205.669V197.422H238.369V194.199H240.581V190.581ZM249.839 198.813C249.839 197.319 250.44 196.123 251.641 195.225C252.842 194.316 254.448 193.862 256.46 193.862C258.423 193.862 260 194.321 261.192 195.239C262.383 196.157 262.993 197.378 263.023 198.901H259.082C259.033 198.267 258.77 197.769 258.291 197.407C257.822 197.046 257.193 196.865 256.402 196.865C255.659 196.865 255.064 197.021 254.614 197.334C254.175 197.637 253.955 198.042 253.955 198.55C253.955 199.312 254.639 199.854 256.006 200.176L259.009 200.82C260.581 201.172 261.709 201.685 262.393 202.358C263.086 203.022 263.433 203.94 263.433 205.112C263.433 206.655 262.788 207.896 261.499 208.833C260.21 209.771 258.526 210.239 256.446 210.239C254.375 210.239 252.72 209.78 251.48 208.862C250.239 207.944 249.561 206.709 249.444 205.156H253.618C253.726 205.82 254.029 206.333 254.527 206.694C255.034 207.056 255.713 207.236 256.563 207.236C257.373 207.236 258.008 207.09 258.467 206.797C258.936 206.494 259.17 206.084 259.17 205.566C259.17 205.166 259.024 204.849 258.731 204.614C258.438 204.37 257.94 204.165 257.237 203.999L254.336 203.354C251.338 202.671 249.839 201.157 249.839 198.813Z" fill="#313236"/>
<rect x="92.8125" y="235.9" width="79.9433" height="3" fill="#FFC747"/>
<path d="M201.734 72.9052C201.734 111.014 170.863 141.903 132.785 141.903C94.7074 141.903 63.8359 111.014 63.8359 72.9052C63.8359 34.7968 94.7074 3.90723 132.785 3.90723C170.863 3.90723 201.734 34.7968 201.734 72.9052Z" fill="white" stroke="#159E99" stroke-width="6"/>
<path fill-rule="evenodd" clip-rule="evenodd" d="M148.483 83.6741H164.626V80.9819H148.483V83.6741Z" fill="#159E99"/>
<path fill-rule="evenodd" clip-rule="evenodd" d="M147.137 52.7142H157.899V50.022H147.137V52.7142Z" fill="#159E99"/>
<path fill-rule="evenodd" clip-rule="evenodd" d="M160.59 52.7142H164.626V50.022H160.59V52.7142Z" fill="#159E99"/>
<path fill-rule="evenodd" clip-rule="evenodd" d="M98.7112 51.3676H101.401V48.6753H98.7112V51.3676Z" fill="#159E99"/>
<path fill-rule="evenodd" clip-rule="evenodd" d="M98.7112 56.7518H101.401V54.0596H98.7112V56.7518Z" fill="#159E99"/>
<path fill-rule="evenodd" clip-rule="evenodd" d="M164.169 71.5604H172.24V68.8672H164.169V71.5604Z" fill="#159E99"/>
<mask id="mask0" mask-type="alpha" maskUnits="userSpaceOnUse" x="93" y="37" width="52" height="71">
<path fill-rule="evenodd" clip-rule="evenodd" d="M93.3301 37.9065H144.449V107.904H93.3301V37.9065Z" fill="white"/>
</mask>
<g mask="url(#mask0)">
<path fill-rule="evenodd" clip-rule="evenodd" d="M140.412 107.905H97.3655C95.1409 107.905 93.3299 106.092 93.3299 103.865V41.9439C93.3299 39.7187 95.1409 37.9065 97.3655 37.9065H140.412C142.638 37.9065 144.449 39.7187 144.449 41.9439V52.7138H141.757V41.9439C141.757 41.2018 141.154 40.5977 140.412 40.5977H97.3655C96.623 40.5977 96.0203 41.2018 96.0203 41.9439V103.865C96.0203 104.608 96.623 105.212 97.3655 105.212H140.412C141.154 105.212 141.757 104.608 141.757 103.865V80.9822H144.449V103.865C144.449 106.092 142.638 107.905 140.412 107.905Z" fill="#159E99"/>
</g>
<mask id="mask1" mask-type="alpha" maskUnits="userSpaceOnUse" x="93" y="37" width="80" height="71">
<path fill-rule="evenodd" clip-rule="evenodd" d="M93.3301 107.904H172.24V37.9062H93.3301V107.904Z" fill="white"/>
</mask>
<g mask="url(#mask1)">
<path fill-rule="evenodd" clip-rule="evenodd" d="M116.199 102.52H121.58V99.8271H116.199V102.52Z" fill="#159E99"/>
<path fill-rule="evenodd" clip-rule="evenodd" d="M94.6763 97.1346H143.104V94.4434H94.6763V97.1346Z" fill="#159E99"/>
<path fill-rule="evenodd" clip-rule="evenodd" d="M94.6763 45.9828H143.104V43.2905H94.6763V45.9828Z" fill="#159E99"/>
<path fill-rule="evenodd" clip-rule="evenodd" d="M109.473 76.9443H101.402V74.2521H109.473C111.628 74.2521 112.289 72.8035 113.389 69.2481C114.397 65.9892 115.651 61.9351 120.087 60.2628L123.769 58.7837L124.769 61.2798L121.061 62.7688C117.831 63.9878 116.879 67.0653 115.959 70.0413C114.958 73.2765 113.825 76.9443 109.473 76.9443Z" fill="#159E99"/>
<path fill-rule="evenodd" clip-rule="evenodd" d="M101.545 86.3635L101.506 83.6723C105.074 83.6181 111.585 83.489 113.349 83.3481C117.995 82.9775 122.993 80.8086 127.426 77.2413C130.453 74.8043 133.165 72.6186 133.323 72.4895C133.528 72.2914 133.687 71.9248 133.687 71.5602C133.687 70.6723 132.761 70.0081 131.918 70.2821C131.605 70.4033 131.272 70.5876 130.903 70.7837C129.233 71.6794 126.947 72.9053 120.235 72.9053V70.2131C126.271 70.2131 128.136 69.2149 129.632 68.4107C130.084 68.1673 130.511 67.9387 131.01 67.7485C133.871 66.7848 136.377 68.8966 136.377 71.5602C136.377 72.6678 135.915 73.738 135.11 74.5008C135.045 74.5589 135.025 74.5786 129.113 79.3393C124.265 83.2426 118.742 85.6195 113.561 86.0344C111.308 86.2137 102.539 86.3487 101.545 86.3635Z" fill="#159E99"/>
<path fill-rule="evenodd" clip-rule="evenodd" d="M127.074 60.6915H134.027V58.7451H127.074V60.6915Z" fill="#159E99"/>
<path fill-rule="evenodd" clip-rule="evenodd" d="M152.307 75.316H154.878V72.7432H152.307V75.316Z" fill="#159E99"/>
<path fill-rule="evenodd" clip-rule="evenodd" d="M148.312 75.316H150.884V72.7432H148.312V75.316Z" fill="#159E99"/>
<path fill-rule="evenodd" clip-rule="evenodd" d="M157.515 75.7512C157.505 76.2636 156.915 76.7071 156.215 76.6874L126.2 76.2636C125.825 76.2636 125.471 76.1355 125.225 75.9187C125.106 75.8103 124.919 75.5935 124.919 75.2979L125.166 57.6672C125.175 57.3627 125.372 57.1558 125.49 57.0573C125.737 56.8503 126.081 56.7321 126.446 56.7321H126.465L156.481 57.1558C157.181 57.1657 157.771 57.6091 157.762 58.1215L157.515 75.7512ZM156.521 54.9875L126.495 54.5637C125.599 54.5637 124.752 54.8495 124.102 55.3915C123.413 55.963 123.009 56.781 122.999 57.6383L122.753 75.2679C122.743 76.1153 123.118 76.953 123.797 77.5442C124.427 78.1059 125.274 78.4213 126.161 78.4311L156.186 78.8539H156.235C158.116 78.8539 159.653 77.4851 159.682 75.7803L159.928 58.1507C159.948 56.4351 158.422 55.0072 156.521 54.9875Z" fill="#159E99"/>
<path fill-rule="evenodd" clip-rule="evenodd" d="M142.537 68.0249C142.32 68.8714 140.883 68.4092 140.41 68.2998L140.794 66.7822C141.257 66.9005 142.754 67.1281 142.537 68.0249Z" fill="#159E99"/>
<path fill-rule="evenodd" clip-rule="evenodd" d="M142.744 65.8071C142.548 66.5747 141.356 66.1816 140.962 66.0929L141.307 64.7134C141.701 64.8109 142.951 64.9893 142.744 65.8071Z" fill="#159E99"/>
<path fill-rule="evenodd" clip-rule="evenodd" d="M144.566 65.6696C144.458 66.3801 144.064 66.724 143.542 66.8422C144.261 67.2167 144.626 67.7981 144.28 68.7934C143.848 70.0361 142.814 70.1336 141.444 69.8784L141.109 71.2078L140.313 71.0107L140.638 69.701C140.431 69.6409 140.224 69.5916 139.996 69.5325L139.672 70.854L138.875 70.647L139.2 69.3157C139.012 69.2664 138.826 69.2181 138.629 69.1689L137.584 68.9018L137.988 67.9863C137.988 67.9863 138.54 68.1332 138.569 68.1332C138.796 68.1933 138.894 68.0445 138.933 67.9469L139.839 64.3303C139.849 64.1628 139.79 63.945 139.465 63.8563L138.875 63.7194L139.09 62.861L140.194 63.1379C140.361 63.1774 140.538 63.2168 140.716 63.2562L141.041 61.9456L141.838 62.1417L141.523 63.4326C141.741 63.4819 141.957 63.5311 142.164 63.5804L142.479 62.2993L143.286 62.4964L142.961 63.8169C143.966 64.1717 144.714 64.695 144.566 65.6696ZM143.11 59.6094C139.19 58.6328 135.222 61.0176 134.247 64.9407C133.272 68.8619 135.655 72.8342 139.575 73.8098C143.493 74.7845 147.462 72.3997 148.438 68.4785C149.413 64.5554 147.029 60.585 143.11 59.6094Z" fill="#159E99"/>
<path fill-rule="evenodd" clip-rule="evenodd" d="M142.537 68.0249C142.32 68.8714 140.883 68.4092 140.41 68.2998L140.794 66.7822C141.257 66.9005 142.754 67.1281 142.537 68.0249Z" fill="#159E99"/>
<path fill-rule="evenodd" clip-rule="evenodd" d="M142.744 65.8071C142.548 66.5747 141.356 66.1816 140.962 66.0929L141.307 64.7134C141.701 64.8109 142.951 64.9893 142.744 65.8071Z" fill="#159E99"/>
<path fill-rule="evenodd" clip-rule="evenodd" d="M142.744 65.8071C142.548 66.5747 141.356 66.1816 140.962 66.0929L141.307 64.7134C141.701 64.8109 142.951 64.9893 142.744 65.8071Z" fill="#159E99"/>
<path fill-rule="evenodd" clip-rule="evenodd" d="M142.537 68.0249C142.32 68.8714 140.883 68.4092 140.41 68.2998L140.794 66.7822C141.257 66.9005 142.754 67.1281 142.537 68.0249Z" fill="#159E99"/>
</g>
<circle cx="141.934" cy="66.7818" r="4.81498" fill="#159E99"/>
</svg>
