<svg width="144" height="239" viewBox="0 0 144 239" fill="none" xmlns="http://www.w3.org/2000/svg">
<path d="M30.1549 209.006L28.5436 203.879H21.1168L19.5055 209.006H14.9645L22.3033 187.869H27.5035L34.8571 209.006H30.1549ZM24.7789 191.912L22.069 200.569H27.5914L24.8815 191.912H24.7789ZM41.903 209.255C39.9401 209.255 38.3824 208.528 37.2301 207.073C36.0778 205.618 35.5016 203.635 35.5016 201.125C35.5016 198.635 36.0778 196.667 37.2301 195.222C38.3922 193.777 39.9596 193.054 41.9323 193.054C43.0455 193.054 44.0221 193.323 44.8619 193.86C45.7115 194.397 46.3317 195.11 46.7223 195.999H46.8102V187.869H51.0875V209.006H46.8688V206.311H46.7955C46.4049 207.2 45.775 207.913 44.9059 208.45C44.0367 208.987 43.0358 209.255 41.903 209.255ZM43.3531 196.482C42.2789 196.482 41.4293 196.902 40.8043 197.742C40.1891 198.582 39.8815 199.719 39.8815 201.155C39.8815 202.6 40.1891 203.738 40.8043 204.568C41.4293 205.398 42.2789 205.813 43.3531 205.813C44.4176 205.813 45.2623 205.398 45.8873 204.568C46.5221 203.728 46.8395 202.59 46.8395 201.155C46.8395 199.729 46.5221 198.596 45.8873 197.756C45.2623 196.907 44.4176 196.482 43.3531 196.482ZM59.774 209.255C57.8112 209.255 56.2535 208.528 55.1012 207.073C53.9489 205.618 53.3727 203.635 53.3727 201.125C53.3727 198.635 53.9489 196.667 55.1012 195.222C56.2633 193.777 57.8307 193.054 59.8033 193.054C60.9166 193.054 61.8932 193.323 62.733 193.86C63.5826 194.397 64.2028 195.11 64.5934 195.999H64.6813V187.869H68.9586V209.006H64.7399V206.311H64.6666C64.276 207.2 63.6461 207.913 62.777 208.45C61.9078 208.987 60.9069 209.255 59.774 209.255ZM61.2242 196.482C60.15 196.482 59.3004 196.902 58.6754 197.742C58.0602 198.582 57.7526 199.719 57.7526 201.155C57.7526 202.6 58.0602 203.738 58.6754 204.568C59.3004 205.398 60.15 205.813 61.2242 205.813C62.2887 205.813 63.1334 205.398 63.7584 204.568C64.3932 203.728 64.7106 202.59 64.7106 201.155C64.7106 199.729 64.3932 198.596 63.7584 197.756C63.1334 196.907 62.2887 196.482 61.2242 196.482ZM71.8151 209.006V193.303H75.9459V196.13H76.0338C76.3073 195.134 76.7662 194.373 77.4108 193.845C78.0553 193.318 78.8414 193.054 79.7692 193.054C80.2184 193.054 80.6237 193.108 80.985 193.215V196.98C80.5846 196.814 80.067 196.731 79.4323 196.731C78.3776 196.731 77.5573 197.039 76.9713 197.654C76.3854 198.269 76.0924 199.128 76.0924 200.232V209.006H71.8151ZM89.2614 196.13C88.3336 196.13 87.5573 196.448 86.9323 197.083C86.317 197.717 85.9703 198.528 85.8922 199.514H92.5573C92.5084 198.508 92.1813 197.693 91.5758 197.068C90.9801 196.443 90.2086 196.13 89.2614 196.13ZM92.6158 204.202H96.5416C96.3073 205.745 95.5358 206.99 94.2272 207.937C92.9283 208.875 91.3121 209.343 89.3785 209.343C86.9664 209.343 85.0719 208.621 83.6949 207.175C82.3278 205.73 81.6442 203.748 81.6442 201.228C81.6442 198.718 82.3278 196.716 83.6949 195.222C85.0621 193.718 86.903 192.966 89.2174 192.966C91.4928 192.966 93.3043 193.679 94.652 195.105C95.9996 196.531 96.6735 198.44 96.6735 200.833V202.136H85.8483V202.4C85.8483 203.523 86.1754 204.436 86.8297 205.139C87.4938 205.833 88.3678 206.179 89.4518 206.179C90.233 206.179 90.9069 206.003 91.4733 205.652C92.0397 205.291 92.4205 204.807 92.6158 204.202ZM98.6217 197.917C98.6217 196.423 99.2223 195.227 100.423 194.329C101.625 193.42 103.231 192.966 105.243 192.966C107.206 192.966 108.783 193.425 109.974 194.343C111.166 195.261 111.776 196.482 111.805 198.005H107.865C107.816 197.371 107.552 196.873 107.074 196.511C106.605 196.15 105.975 195.969 105.184 195.969C104.442 195.969 103.846 196.125 103.397 196.438C102.958 196.741 102.738 197.146 102.738 197.654C102.738 198.416 103.422 198.958 104.789 199.28L107.792 199.924C109.364 200.276 110.492 200.789 111.175 201.462C111.869 202.126 112.215 203.044 112.215 204.216C112.215 205.759 111.571 207 110.282 207.937C108.993 208.875 107.308 209.343 105.228 209.343C103.158 209.343 101.503 208.884 100.262 207.966C99.0221 207.048 98.3434 205.813 98.2262 204.26H102.401C102.508 204.924 102.811 205.437 103.309 205.798C103.817 206.16 104.496 206.34 105.345 206.34C106.156 206.34 106.791 206.194 107.25 205.901C107.718 205.598 107.953 205.188 107.953 204.67C107.953 204.27 107.806 203.953 107.513 203.718C107.22 203.474 106.722 203.269 106.019 203.103L103.119 202.458C100.121 201.775 98.6217 200.261 98.6217 197.917ZM114.09 197.917C114.09 196.423 114.691 195.227 115.892 194.329C117.093 193.42 118.7 192.966 120.712 192.966C122.674 192.966 124.252 193.425 125.443 194.343C126.634 195.261 127.245 196.482 127.274 198.005H123.334C123.285 197.371 123.021 196.873 122.543 196.511C122.074 196.15 121.444 195.969 120.653 195.969C119.911 195.969 119.315 196.125 118.866 196.438C118.426 196.741 118.207 197.146 118.207 197.654C118.207 198.416 118.89 198.958 120.257 199.28L123.26 199.924C124.833 200.276 125.961 200.789 126.644 201.462C127.338 202.126 127.684 203.044 127.684 204.216C127.684 205.759 127.04 207 125.751 207.937C124.462 208.875 122.777 209.343 120.697 209.343C118.627 209.343 116.971 208.884 115.731 207.966C114.491 207.048 113.812 205.813 113.695 204.26H117.87C117.977 204.924 118.28 205.437 118.778 205.798C119.286 206.16 119.964 206.34 120.814 206.34C121.625 206.34 122.259 206.194 122.718 205.901C123.187 205.598 123.422 205.188 123.422 204.67C123.422 204.27 123.275 203.953 122.982 203.718C122.689 203.474 122.191 203.269 121.488 203.103L118.588 202.458C115.589 201.775 114.09 200.261 114.09 197.917Z" fill="#313236"/>
<rect x="32.0215" y="235.005" width="79.9433" height="3" fill="#FFC747"/>
<path d="M140.941 72.0095C140.941 110.118 110.07 141.008 71.992 141.008C33.9144 141.008 3.04297 110.118 3.04297 72.0095C3.04297 33.9009 33.9144 3.01123 71.992 3.01123C110.07 3.01123 140.941 33.9009 140.941 72.0095Z" fill="white" stroke="#159E99" stroke-width="6"/>
<path d="M80.1904 72.5562C79.4363 72.5562 78.8242 73.1687 78.8242 73.9233C78.8242 74.678 79.4363 75.2905 80.1904 75.2905C80.9445 75.2905 81.5566 74.678 81.5566 73.9233C81.5566 73.1687 80.9445 72.5562 80.1904 72.5562Z" fill="#159E99"/>
<path d="M50.9759 87.5659L37.3137 104.792C36.9876 105.203 36.9257 105.764 37.1536 106.236C37.3815 106.709 37.8596 107.009 38.3837 107.009H105.602C106.126 107.009 106.604 106.709 106.832 106.236C107.06 105.764 106.998 105.203 106.672 104.792L93.0095 87.5659C92.7507 87.2391 92.3563 87.0484 91.9395 87.0484H79.9718L90.1891 71.0122C92.5858 67.4165 93.8522 63.2232 93.8522 58.8851C93.8522 46.8238 84.0464 37.0107 71.9927 37.0107C59.939 37.0107 50.1332 46.8238 50.1332 58.8851C50.1332 63.2232 51.3996 67.4159 53.7964 71.0122L64.0137 87.0484H52.0459C51.6291 87.0484 51.2352 87.2391 50.9759 87.5659ZM45.875 98.3957H54.1358L49.4736 104.274H41.2122L45.875 98.3957ZM65.7561 89.7827L69.5015 95.6614H59.7928L64.4556 89.7827H65.7561ZM78.2298 89.7827H79.5304L84.1926 95.6614H74.4845L78.2298 89.7827ZM86.3615 98.3957L91.0237 104.274H52.9617L57.6245 98.3957H86.3615ZM94.5124 104.274L89.8496 98.3957H98.111L102.773 104.274H94.5124ZM95.9421 95.6614H87.6813L83.0185 89.7827H91.2799L95.9421 95.6614ZM56.0773 69.5062C53.9762 66.3585 52.8656 62.6859 52.8656 58.8851C52.8656 48.3314 61.4461 39.745 71.9927 39.745C82.5393 39.745 91.1198 48.3314 91.1198 58.8851C91.1198 62.6859 90.0092 66.3585 87.9086 69.5062C87.9028 69.5142 87.898 69.5222 87.8926 69.5302C86.9955 70.9385 72.6838 93.4014 71.9927 94.4855C70.2545 91.7571 57.863 72.3083 56.0928 69.5302C56.088 69.5222 56.0827 69.5142 56.0773 69.5062ZM60.9669 89.7827L56.3047 95.6614H48.0433L52.7061 89.7827H60.9669Z" fill="#159E99"/>
<path d="M71.9923 72.5562C79.4926 72.5562 85.6545 66.4783 85.6545 58.8848C85.6545 51.3463 79.5257 45.2134 71.9923 45.2134C64.4589 45.2134 58.3301 51.3463 58.3301 58.8848C58.3301 66.4804 64.4941 72.5562 71.9923 72.5562ZM71.9923 47.9477C78.0191 47.9477 82.922 52.8539 82.922 58.8848C82.922 64.9717 77.9796 69.8219 71.9923 69.8219C66.0033 69.8219 61.0625 64.9717 61.0625 58.8848C61.0625 52.8539 65.9654 47.9477 71.9923 47.9477Z" fill="#159E99"/>
<path d="M77.7483 77.2219C77.1025 76.832 76.2625 77.0403 75.873 77.6871L70.8233 86.0708C70.4337 86.7175 70.6419 87.5576 71.2881 87.9474C71.9371 88.3389 72.7755 88.1264 73.1635 87.4823L78.2131 79.0986C78.6027 78.4518 78.3946 77.6118 77.7483 77.2219Z" fill="#159E99"/>
</svg>
