<svg width="1919" height="912" viewBox="0 0 1919 912" fill="none" xmlns="http://www.w3.org/2000/svg">
<mask id="mask0" mask-type="alpha" maskUnits="userSpaceOnUse" x="0" y="0" width="1919" height="912">
<rect width="1918.64" height="911.975" fill="white"/>
</mask>
<g mask="url(#mask0)">
<path fill-rule="evenodd" clip-rule="evenodd" d="M-11.3023 669.318C220.737 835.977 486.929 928.119 704.571 789.323C922.214 650.527 836.238 475.987 1324.32 516.986C1616.97 541.568 1503.84 296.716 1590.45 143.346C1686.24 -26.2836 1916.28 24.5891 1928.53 -9.69629C1929.92 -8.6573 -11.3023 -9.69629 -11.3023 -9.69629C-11.3023 -9.69629 -12.3293 670.394 -11.3023 669.318Z" fill="white"/>
<path fill-rule="evenodd" clip-rule="evenodd" d="M-2.99786 148.87C0.767026 151.495 8.43114 151.595 14.1939 148.508C22.5366 144.042 29.5876 133.672 37.6065 121.209C53.5306 96.4492 64.8149 71.1953 96.708 62.0994C130.406 52.4958 215.917 53.1346 256.559 45.5132C297.604 37.8228 309.826 11.4707 333.435 -4H-2.99786V148.87Z" fill="#48CA9A" fill-opacity="0.06"/>
</g>
</svg>
