<svg width="145" height="239" viewBox="0 0 145 239" fill="none" xmlns="http://www.w3.org/2000/svg">
<path d="M51.9695 205.344V209.006H37.9656V187.869H51.9695V191.516H42.3894V196.614H51.4275V200.012H42.3894V205.344H51.9695ZM54.7967 209.006V193.303H58.9275V196.145H59.0154C59.3474 195.188 59.9138 194.426 60.7146 193.86C61.5154 193.293 62.4431 193.01 63.4978 193.01C64.6306 193.01 65.5779 193.293 66.3396 193.86C67.1013 194.417 67.614 195.208 67.8777 196.233H67.9656C68.3172 195.247 68.9275 194.465 69.7967 193.889C70.6756 193.303 71.6912 193.01 72.8435 193.01C74.3865 193.01 75.6267 193.494 76.5642 194.46C77.5115 195.427 77.9851 196.702 77.9851 198.284V209.006H73.7078V199.353C73.7078 198.445 73.4881 197.751 73.0486 197.273C72.6092 196.785 71.9744 196.541 71.1443 196.541C70.3338 196.541 69.6795 196.809 69.1814 197.346C68.6931 197.883 68.449 198.591 68.449 199.47V209.006H64.3328V199.221C64.3328 198.381 64.1082 197.727 63.659 197.258C63.2097 196.78 62.5896 196.541 61.7986 196.541C60.9881 196.541 60.3289 196.819 59.8211 197.375C59.323 197.932 59.074 198.65 59.074 199.529V209.006H54.7967ZM86.7596 206.165C87.7068 206.165 88.5076 205.891 89.1619 205.344C89.826 204.788 90.158 204.089 90.158 203.25V202.107L86.8474 202.312C86.0467 202.371 85.4265 202.571 84.9871 202.913C84.5574 203.254 84.3426 203.704 84.3426 204.26C84.3426 204.846 84.5623 205.31 85.0017 205.652C85.4412 205.994 86.0271 206.165 86.7596 206.165ZM85.3533 209.255C83.8396 209.255 82.5847 208.811 81.5887 207.922C80.5926 207.034 80.0945 205.891 80.0945 204.495C80.0945 203.069 80.6219 201.951 81.6765 201.14C82.7312 200.33 84.24 199.866 86.2029 199.749L90.158 199.514V198.474C90.158 197.751 89.9187 197.185 89.4402 196.775C88.9715 196.365 88.3318 196.16 87.5213 196.16C86.74 196.16 86.1004 196.335 85.6023 196.687C85.114 197.039 84.8162 197.512 84.7088 198.108H80.7976C80.8758 196.565 81.5349 195.325 82.7752 194.387C84.0154 193.44 85.6609 192.966 87.7117 192.966C89.7234 192.966 91.3347 193.445 92.5457 194.402C93.7566 195.359 94.3621 196.628 94.3621 198.21V209.006H90.2312V206.604H90.1433C89.7137 207.424 89.0594 208.074 88.1805 208.552C87.3015 209.021 86.3592 209.255 85.3533 209.255ZM97.2039 209.006V193.303H101.481V209.006H97.2039ZM100.969 190.93C100.529 191.36 99.9871 191.575 99.3426 191.575C98.698 191.575 98.156 191.36 97.7166 190.93C97.2771 190.5 97.0574 189.978 97.0574 189.363C97.0574 188.738 97.2771 188.215 97.7166 187.795C98.156 187.366 98.698 187.151 99.3426 187.151C99.9871 187.151 100.529 187.366 100.969 187.795C101.408 188.215 101.628 188.738 101.628 189.363C101.628 189.978 101.408 190.5 100.969 190.93ZM104.44 209.006V187.869H108.718V209.006H104.44Z" fill="#313236"/>
<rect x="33.7383" y="235.005" width="79.9433" height="3" fill="#FFC747"/>
<path d="M141.66 72.0095C141.66 110.118 110.788 141.008 72.7107 141.008C34.6332 141.008 3.76172 110.118 3.76172 72.0095C3.76172 33.9009 34.6332 3.01123 72.7107 3.01123C110.788 3.01123 141.66 33.9009 141.66 72.0095Z" fill="white" stroke="#159E99" stroke-width="6"/>
<g clip-path="url(#clip0)">
<path d="M109.368 63.938C109.361 63.8576 109.345 63.7782 109.32 63.7012C109.304 63.6324 109.282 63.5653 109.254 63.5005C109.221 63.4372 109.182 63.3773 109.137 63.3219C109.092 63.2562 109.04 63.1956 108.982 63.141C108.963 63.1248 108.955 63.1025 108.935 63.0862L97.7149 54.372V45.3404C97.7149 43.4074 96.1478 41.8403 94.2147 41.8403H81.5709L76.5083 37.9095C75.2577 36.9341 73.5039 36.9341 72.2533 37.9095L67.1897 41.8403H54.5458C52.6128 41.8403 51.0456 43.4073 51.0456 45.3404V54.3721L39.8288 63.0863C39.809 63.1027 39.8008 63.1249 39.7822 63.1412C39.7241 63.1956 39.672 63.2563 39.627 63.3221C39.5822 63.3774 39.5431 63.4372 39.5104 63.5006C39.4821 63.5653 39.4599 63.6326 39.4439 63.7013C39.4196 63.7772 39.4036 63.8554 39.3961 63.9347C39.3961 63.9592 39.3821 63.9802 39.3821 64.0047V103.677C39.3838 104.419 39.6239 105.141 40.067 105.736C40.074 105.746 40.0752 105.759 40.0833 105.769C40.0915 105.778 40.109 105.788 40.1206 105.801C40.776 106.664 41.7955 107.172 42.8787 107.177H105.882C106.969 107.174 107.993 106.663 108.649 105.795C108.659 105.784 108.673 105.78 108.681 105.769C108.689 105.757 108.69 105.747 108.697 105.736C109.14 105.141 109.38 104.419 109.382 103.677V64.008C109.382 63.9835 109.369 63.9625 109.368 63.938ZM73.6802 39.7505C74.0876 39.4268 74.6646 39.4268 75.072 39.7505L77.7636 41.8401H70.9967L73.6802 39.7505ZM43.1727 104.843L73.6803 81.146C74.088 80.8228 74.6646 80.8228 75.0722 81.146L105.588 104.843H43.1727ZM107.049 103.024L76.5083 79.3049C75.2574 78.3303 73.5042 78.3303 72.2533 79.3049L41.7119 103.024V65.7849L60.8311 80.6315C61.3405 81.0265 62.0737 80.9338 62.4687 80.4244C62.8637 79.915 62.771 79.1818 62.2615 78.7868L42.8379 63.7046L51.0458 57.3261V66.3414C51.0458 66.9858 51.5682 67.508 52.2125 67.508C52.8569 67.508 53.3791 66.9856 53.3791 66.3414V45.3403C53.3791 44.6959 53.9014 44.1736 54.5458 44.1736H94.2145C94.8588 44.1736 95.3811 44.6959 95.3811 45.3403V66.3414C95.3811 66.9858 95.9034 67.508 96.5478 67.508C97.1922 67.508 97.7145 66.9856 97.7145 66.3414V57.3261L105.922 63.7046L86.465 78.8138C86.1303 79.0674 85.9576 79.4814 86.0131 79.8977C86.0686 80.3141 86.3436 80.6684 86.7331 80.8255C87.1226 80.9826 87.5666 80.9184 87.8954 80.6571L107.048 65.7849V103.024H107.049Z" fill="#159E99"/>
<path d="M88.3815 65.1747V60.5078C88.3815 52.7754 82.1132 46.5071 74.3808 46.5071C66.6484 46.5071 60.3801 52.7754 60.3801 60.5078C60.3801 68.2402 66.6484 74.5085 74.3808 74.5085C75.0252 74.5085 75.5475 73.9862 75.5475 73.3418C75.5475 72.6974 75.0252 72.1751 74.3808 72.1751C67.9372 72.1751 62.7136 66.9515 62.7136 60.5079C62.7136 54.0643 67.9372 48.8407 74.3808 48.8407C80.8244 48.8407 86.048 54.0643 86.048 60.5079V65.1748C86.048 66.4636 85.0033 67.5083 83.7145 67.5083C82.4258 67.5083 81.381 66.4636 81.381 65.1748V60.5079C81.381 59.8635 80.8588 59.3412 80.2144 59.3412C79.57 59.3412 79.0477 59.8635 79.0477 60.5079C79.0477 63.0853 76.9582 65.1748 74.3808 65.1748C71.8034 65.1748 69.714 63.0853 69.714 60.5079C69.714 57.9305 71.8034 55.8411 74.3808 55.8411C75.0252 55.8411 75.5475 55.3188 75.5475 54.6744C75.5475 54.03 75.0252 53.5077 74.3808 53.5077C71.2478 53.5007 68.4915 55.5764 67.6329 58.5895C66.7742 61.6027 68.0221 64.8194 70.6883 66.4651C73.3544 68.1107 76.7893 67.7845 79.0979 65.6662C79.3519 68.1335 81.4964 69.9681 83.9734 69.837C86.4504 69.7057 88.3893 67.6551 88.3815 65.1747Z" fill="#159E99"/>
</g>
<defs>
<clipPath id="clip0">
<rect width="70" height="70" fill="white" transform="translate(39.3828 37.1772)"/>
</clipPath>
</defs>
</svg>
