<svg width="189" height="239" viewBox="0 0 189 239" fill="none" xmlns="http://www.w3.org/2000/svg">
<path d="M6.88455 209.902H2.46072V188.765H16.3035V192.412H6.88455V198.081H15.4832V201.582H6.88455V209.902ZM23.95 207.061C24.8972 207.061 25.698 206.787 26.3523 206.24C27.0164 205.684 27.3484 204.985 27.3484 204.146V203.003L24.0379 203.208C23.2371 203.267 22.617 203.467 22.1775 203.809C21.7478 204.15 21.533 204.6 21.533 205.156C21.533 205.742 21.7527 206.206 22.1922 206.548C22.6316 206.89 23.2176 207.061 23.95 207.061ZM22.5437 210.151C21.0301 210.151 19.7752 209.707 18.7791 208.818C17.783 207.93 17.2849 206.787 17.2849 205.391C17.2849 203.965 17.8123 202.847 18.867 202.036C19.9217 201.226 21.4305 200.762 23.3933 200.645L27.3484 200.41V199.37C27.3484 198.647 27.1092 198.081 26.6306 197.671C26.1619 197.261 25.5222 197.056 24.7117 197.056C23.9305 197.056 23.2908 197.231 22.7928 197.583C22.3045 197.935 22.0066 198.408 21.8992 199.004H17.9881C18.0662 197.461 18.7254 196.221 19.9656 195.283C21.2058 194.336 22.8513 193.862 24.9021 193.862C26.9138 193.862 28.5252 194.341 29.7361 195.298C30.9471 196.255 31.5525 197.524 31.5525 199.106V209.902H27.4217V207.5H27.3338C26.9041 208.32 26.2498 208.97 25.3709 209.448C24.492 209.917 23.5496 210.151 22.5437 210.151ZM34.0574 198.813C34.0574 197.319 34.658 196.123 35.8592 195.225C37.0603 194.316 38.6668 193.862 40.6785 193.862C42.6414 193.862 44.2185 194.321 45.4099 195.239C46.6013 196.157 47.2117 197.378 47.241 198.901H43.3006C43.2517 198.267 42.9881 197.769 42.5096 197.407C42.0408 197.046 41.4109 196.865 40.6199 196.865C39.8777 196.865 39.282 197.021 38.8328 197.334C38.3933 197.637 38.1736 198.042 38.1736 198.55C38.1736 199.312 38.8572 199.854 40.2244 200.176L43.2273 200.82C44.7996 201.172 45.9275 201.685 46.6111 202.358C47.3045 203.022 47.6512 203.94 47.6512 205.112C47.6512 206.655 47.0066 207.896 45.7176 208.833C44.4285 209.771 42.7439 210.239 40.6638 210.239C38.5935 210.239 36.9383 209.78 35.698 208.862C34.4578 207.944 33.7791 206.709 33.6619 205.156H37.8367C37.9441 205.82 38.2469 206.333 38.7449 206.694C39.2527 207.056 39.9314 207.236 40.781 207.236C41.5916 207.236 42.2263 207.09 42.6853 206.797C43.1541 206.494 43.3885 206.084 43.3885 205.566C43.3885 205.166 43.242 204.849 42.949 204.614C42.656 204.37 42.158 204.165 41.4549 203.999L38.5545 203.354C35.5564 202.671 34.0574 201.157 34.0574 198.813ZM50.9324 190.581H55.2097V194.199H58.1101V197.422H55.2097V204.937C55.2097 206.118 55.825 206.709 57.0555 206.709C57.4558 206.709 57.8025 206.685 58.0955 206.636V209.785C57.5974 209.902 56.9187 209.961 56.0594 209.961C54.2137 209.961 52.8953 209.629 52.1043 208.965C51.323 208.301 50.9324 207.202 50.9324 205.669V197.422H48.7205V194.199H50.9324V190.581ZM80.6101 209.902L78.9988 204.775H71.5721L69.9607 209.902H65.4197L72.7586 188.765H77.9588L85.3123 209.902H80.6101ZM75.2342 192.808L72.5242 201.465H78.0467L75.3367 192.808H75.2342ZM96.284 193.95C98.2762 193.95 99.8435 194.668 100.986 196.104C102.138 197.539 102.715 199.521 102.715 202.051C102.715 204.57 102.148 206.553 101.015 207.998C99.8826 209.434 98.3299 210.151 96.3572 210.151C95.2342 210.151 94.243 209.897 93.3836 209.39C92.534 208.872 91.8992 208.164 91.4793 207.266H91.3914V215.029H87.114V194.199H91.3328V196.938H91.4207C91.8504 196.001 92.4851 195.269 93.325 194.741C94.1746 194.214 95.1609 193.95 96.284 193.95ZM94.8484 206.709C95.9129 206.709 96.7576 206.289 97.3826 205.449C98.0174 204.609 98.3347 203.477 98.3347 202.051C98.3347 200.625 98.0174 199.492 97.3826 198.652C96.7576 197.803 95.9129 197.378 94.8484 197.378C93.8035 197.378 92.9637 197.808 92.3289 198.667C91.6941 199.517 91.3767 200.645 91.3767 202.051C91.3767 203.467 91.6892 204.6 92.3142 205.449C92.949 206.289 93.7937 206.709 94.8484 206.709ZM114.096 193.95C116.089 193.95 117.656 194.668 118.799 196.104C119.951 197.539 120.527 199.521 120.527 202.051C120.527 204.57 119.961 206.553 118.828 207.998C117.695 209.434 116.142 210.151 114.17 210.151C113.047 210.151 112.055 209.897 111.196 209.39C110.346 208.872 109.712 208.164 109.292 207.266H109.204V215.029H104.927V194.199H109.145V196.938H109.233C109.663 196.001 110.298 195.269 111.137 194.741C111.987 194.214 112.973 193.95 114.096 193.95ZM112.661 206.709C113.725 206.709 114.57 206.289 115.195 205.449C115.83 204.609 116.147 203.477 116.147 202.051C116.147 200.625 115.83 199.492 115.195 198.652C114.57 197.803 113.725 197.378 112.661 197.378C111.616 197.378 110.776 197.808 110.141 198.667C109.507 199.517 109.189 200.645 109.189 202.051C109.189 203.467 109.502 204.6 110.127 205.449C110.762 206.289 111.606 206.709 112.661 206.709ZM122.739 209.902V194.199H126.87V197.026H126.958C127.231 196.03 127.69 195.269 128.335 194.741C128.979 194.214 129.765 193.95 130.693 193.95C131.142 193.95 131.548 194.004 131.909 194.111V197.876C131.509 197.71 130.991 197.627 130.356 197.627C129.302 197.627 128.481 197.935 127.895 198.55C127.309 199.165 127.016 200.024 127.016 201.128V209.902H122.739ZM146.03 208.071C144.634 209.517 142.739 210.239 140.346 210.239C137.954 210.239 136.059 209.512 134.663 208.057C133.266 206.602 132.568 204.595 132.568 202.036C132.568 199.507 133.271 197.515 134.678 196.06C136.094 194.595 137.983 193.862 140.346 193.862C142.72 193.862 144.609 194.595 146.015 196.06C147.422 197.515 148.125 199.507 148.125 202.036C148.125 204.604 147.427 206.616 146.03 208.071ZM140.346 206.973C141.401 206.973 142.236 206.543 142.851 205.684C143.467 204.824 143.774 203.613 143.774 202.051C143.774 200.508 143.467 199.302 142.851 198.433C142.236 197.563 141.401 197.129 140.346 197.129C139.292 197.129 138.452 197.563 137.827 198.433C137.212 199.302 136.904 200.508 136.904 202.051C136.904 203.613 137.212 204.824 137.827 205.684C138.442 206.543 139.282 206.973 140.346 206.973ZM164.311 194.199L158.921 209.902H154.087L148.652 194.199H153.237L156.504 206.123H156.592L159.844 194.199H164.311ZM171.489 207.061C172.436 207.061 173.237 206.787 173.891 206.24C174.555 205.684 174.887 204.985 174.887 204.146V203.003L171.577 203.208C170.776 203.267 170.156 203.467 169.717 203.809C169.287 204.15 169.072 204.6 169.072 205.156C169.072 205.742 169.292 206.206 169.731 206.548C170.171 206.89 170.757 207.061 171.489 207.061ZM170.083 210.151C168.569 210.151 167.314 209.707 166.318 208.818C165.322 207.93 164.824 206.787 164.824 205.391C164.824 203.965 165.351 202.847 166.406 202.036C167.461 201.226 168.97 200.762 170.932 200.645L174.887 200.41V199.37C174.887 198.647 174.648 198.081 174.17 197.671C173.701 197.261 173.061 197.056 172.251 197.056C171.47 197.056 170.83 197.231 170.332 197.583C169.844 197.935 169.546 198.408 169.438 199.004H165.527C165.605 197.461 166.264 196.221 167.505 195.283C168.745 194.336 170.39 193.862 172.441 193.862C174.453 193.862 176.064 194.341 177.275 195.298C178.486 196.255 179.092 197.524 179.092 199.106V209.902H174.961V207.5H174.873C174.443 208.32 173.789 208.97 172.91 209.448C172.031 209.917 171.089 210.151 170.083 210.151ZM181.963 209.902V188.765H186.24V209.902H181.963Z" fill="#313236"/>
<rect x="52.0957" y="235.9" width="79.9433" height="3" fill="#FFC747"/>
<path d="M161.017 72.9052C161.017 111.014 130.146 141.903 92.0681 141.903C53.9906 141.903 23.1191 111.014 23.1191 72.9052C23.1191 34.7967 53.9906 3.90723 92.0681 3.90723C130.146 3.90723 161.017 34.7967 161.017 72.9052Z" fill="white" stroke="#159E99" stroke-width="6"/>
<path d="M58.166 56.2201H70.5163C71.163 56.2201 71.6873 55.6956 71.6873 55.0483C71.6873 54.401 71.163 53.8765 70.5163 53.8765H58.166C57.5192 53.8765 56.9949 54.401 56.9949 55.0483C56.9949 55.6956 57.5191 56.2201 58.166 56.2201Z" fill="#159E99"/>
<path d="M70.0924 61.8618H65.2136C64.5669 61.8618 64.0426 62.3863 64.0426 63.0336C64.0426 63.6809 64.5669 64.2054 65.2136 64.2054H70.0924C70.7391 64.2054 71.2634 63.6809 71.2634 63.0336C71.2634 62.3863 70.7391 61.8618 70.0924 61.8618Z" fill="#159E99"/>
<path d="M53.2667 69.9891H65.2133C65.86 69.9891 66.3843 69.4646 66.3843 68.8173C66.3843 68.17 65.86 67.6455 65.2133 67.6455H53.2667C52.62 67.6455 52.0957 68.17 52.0957 68.8173C52.0957 69.4646 52.62 69.9891 53.2667 69.9891Z" fill="#159E99"/>
<path d="M71.6873 90.7625C71.6873 90.1152 71.163 89.5907 70.5163 89.5907H58.166C57.5192 89.5907 56.9949 90.1152 56.9949 90.7625C56.9949 91.4098 57.5192 91.9343 58.166 91.9343H70.5163C71.163 91.9343 71.6873 91.4098 71.6873 90.7625Z" fill="#159E99"/>
<path d="M70.0924 81.6062H65.2136C64.5669 81.6062 64.0426 82.1307 64.0426 82.778C64.0426 83.4253 64.5669 83.9498 65.2136 83.9498H70.0924C70.7391 83.9498 71.2634 83.4253 71.2634 82.778C71.2634 82.1307 70.7391 81.6062 70.0924 81.6062Z" fill="#159E99"/>
<path d="M66.3843 76.996C66.3843 76.3487 65.86 75.8242 65.2133 75.8242H53.2667C52.62 75.8242 52.0957 76.3487 52.0957 76.996C52.0957 77.6433 52.62 78.1678 53.2667 78.1678H65.2133C65.86 78.1678 66.3843 77.6433 66.3843 76.996Z" fill="#159E99"/>
<path d="M101.986 58.817C102.633 58.817 103.158 58.2925 103.158 57.6452V55.8564C103.158 55.2091 102.633 54.6846 101.986 54.6846C101.34 54.6846 100.815 55.2091 100.815 55.8564V57.6452C100.815 58.2925 101.34 58.817 101.986 58.817Z" fill="#159E99"/>
<path d="M114.862 60.0213C114.404 59.5639 113.663 59.5639 113.205 60.0213L111.941 61.2861C111.484 61.7439 111.484 62.4858 111.941 62.9434C112.399 63.4011 113.14 63.4009 113.598 62.9434L114.862 61.6786C115.319 61.221 115.319 60.4791 114.862 60.0213Z" fill="#159E99"/>
<path d="M117.237 71.7336C116.59 71.7336 116.066 72.2581 116.066 72.9055C116.066 73.5528 116.59 74.0773 117.237 74.0773H119.024C119.671 74.0773 120.195 73.5528 120.195 72.9055C120.195 72.2581 119.671 71.7336 119.024 71.7336H117.237Z" fill="#159E99"/>
<path d="M113.598 82.8675C113.14 82.41 112.399 82.41 111.941 82.8675C111.484 83.3253 111.484 84.0671 111.941 84.5248L113.205 85.7895C113.663 86.2472 114.404 86.247 114.862 85.7895C115.319 85.3317 115.319 84.5899 114.862 84.1323L113.598 82.8675Z" fill="#159E99"/>
<path d="M100.815 88.166V89.9545C100.815 90.6018 101.34 91.1263 101.986 91.1263C102.633 91.1263 103.158 90.6018 103.158 89.9545V88.166C103.158 87.5187 102.633 86.9941 101.986 86.9941C101.34 86.9941 100.815 87.5188 100.815 88.166Z" fill="#159E99"/>
<path d="M90.374 82.8675L89.1101 84.1323C88.6528 84.5901 88.6528 85.3319 89.1101 85.7895C89.5676 86.2472 90.3089 86.247 90.7661 85.7895L92.03 84.5248C92.4873 84.067 92.4873 83.3251 92.03 82.8675C91.5728 82.41 90.8313 82.41 90.374 82.8675Z" fill="#159E99"/>
<path d="M84.9501 71.7336C84.3034 71.7336 83.7791 72.2581 83.7791 72.9055C83.7791 73.5528 84.3034 74.0773 84.9501 74.0773H86.7375C87.3843 74.0773 87.9086 73.5528 87.9086 72.9055C87.9086 72.2581 87.3843 71.7336 86.7375 71.7336H84.9501Z" fill="#159E99"/>
<path d="M92.0315 61.2861L90.7675 60.0213C90.3102 59.5639 89.5687 59.5639 89.1116 60.0213C88.6542 60.4791 88.6542 61.221 89.1116 61.6786L90.3755 62.9434C90.833 63.4011 91.5743 63.4009 92.0315 62.9434C92.4888 62.4858 92.4888 61.7439 92.0315 61.2861Z" fill="#159E99"/>
<path d="M108.284 72.9054C108.284 72.2581 107.759 71.7336 107.113 71.7336H103.158V63.0332C103.158 62.3858 102.633 61.8613 101.986 61.8613C101.34 61.8613 100.815 62.3858 100.815 63.0332V72.9054C100.815 73.5528 101.34 74.0773 101.986 74.0773H107.113C107.759 74.0773 108.284 73.5528 108.284 72.9054Z" fill="#159E99"/>
<path d="M124.192 72.7123C124.837 72.6731 125.329 72.1176 125.29 71.4717C124.545 59.1747 114.309 49.542 101.987 49.542C89.1126 49.542 78.6388 60.023 78.6388 72.9059C78.6388 85.7887 89.1126 96.2697 101.987 96.2697C113.52 96.2697 123.362 87.8133 125.074 76.4019C125.17 75.7619 124.73 75.1652 124.09 75.0691C123.452 74.9733 122.854 75.4138 122.758 76.0541C121.22 86.306 112.374 93.9261 101.987 93.9261C90.404 93.9261 80.9809 84.4965 80.9809 72.9061C80.9809 61.3156 90.404 51.8858 101.987 51.8858C113.073 51.8858 122.282 60.5514 122.952 71.6139C122.991 72.2595 123.545 72.7498 124.192 72.7123Z" fill="#159E99"/>
<path d="M101.986 42.833C97.8667 42.833 93.8309 43.6881 90.1164 45.2873H69.4546C68.8079 45.2873 68.2836 45.8118 68.2836 46.4592C68.2836 47.1065 68.8079 47.631 69.4546 47.631H85.7108C83.5128 49.0466 81.4894 50.754 79.7053 52.7252C79.2713 53.2048 79.3078 53.9458 79.7871 54.3803C80.2666 54.8149 81.0069 54.7781 81.4413 54.2985C86.6879 48.5014 94.1762 45.1767 101.986 45.1767C117.265 45.1767 129.696 57.6159 129.696 72.9058C129.696 88.1955 117.265 100.635 101.986 100.635C86.7063 100.635 74.2756 88.1956 74.2756 72.9058C74.2756 67.5515 75.804 62.3548 78.6954 57.8771C79.0464 57.3335 78.8906 56.6082 78.3474 56.257C77.8042 55.9059 77.0794 56.0615 76.7282 56.6053C73.5914 61.4626 71.9335 67.0992 71.9335 72.9058C71.9335 83.4939 77.4305 92.8205 85.7182 98.1805H69.4548C68.808 98.1805 68.2837 98.705 68.2837 99.3524C68.2837 99.9997 68.808 100.524 69.4548 100.524H90.1003C93.7477 102.102 97.7663 102.979 101.986 102.979C118.557 102.979 132.038 89.488 132.038 72.9058C132.038 56.3236 118.557 42.833 101.986 42.833Z" fill="#159E99"/>
</svg>
