<svg width="369" height="369" viewBox="0 0 369 369" fill="none" xmlns="http://www.w3.org/2000/svg">
<path d="M99.8846 209.902H95.4607V188.765H109.303V192.412H99.8846V198.081H108.483V201.582H99.8846V209.902ZM116.95 207.061C117.897 207.061 118.698 206.787 119.352 206.24C120.016 205.684 120.348 204.985 120.348 204.146V203.003L117.038 203.208C116.237 203.267 115.617 203.467 115.178 203.809C114.748 204.15 114.533 204.6 114.533 205.156C114.533 205.742 114.753 206.206 115.192 206.548C115.632 206.89 116.218 207.061 116.95 207.061ZM115.544 210.151C114.03 210.151 112.775 209.707 111.779 208.818C110.783 207.93 110.285 206.787 110.285 205.391C110.285 203.965 110.812 202.847 111.867 202.036C112.922 201.226 114.43 200.762 116.393 200.645L120.348 200.41V199.37C120.348 198.647 120.109 198.081 119.631 197.671C119.162 197.261 118.522 197.056 117.712 197.056C116.93 197.056 116.291 197.231 115.793 197.583C115.304 197.935 115.007 198.408 114.899 199.004H110.988C111.066 197.461 111.725 196.221 112.966 195.283C114.206 194.336 115.851 193.862 117.902 193.862C119.914 193.862 121.525 194.341 122.736 195.298C123.947 196.255 124.553 197.524 124.553 199.106V209.902H120.422V207.5H120.334C119.904 208.32 119.25 208.97 118.371 209.448C117.492 209.917 116.55 210.151 115.544 210.151ZM127.057 198.813C127.057 197.319 127.658 196.123 128.859 195.225C130.06 194.316 131.667 193.862 133.678 193.862C135.641 193.862 137.219 194.321 138.41 195.239C139.601 196.157 140.212 197.378 140.241 198.901H136.301C136.252 198.267 135.988 197.769 135.51 197.407C135.041 197.046 134.411 196.865 133.62 196.865C132.878 196.865 132.282 197.021 131.833 197.334C131.393 197.637 131.174 198.042 131.174 198.55C131.174 199.312 131.857 199.854 133.224 200.176L136.227 200.82C137.8 201.172 138.928 201.685 139.611 202.358C140.304 203.022 140.651 203.94 140.651 205.112C140.651 206.655 140.007 207.896 138.718 208.833C137.428 209.771 135.744 210.239 133.664 210.239C131.594 210.239 129.938 209.78 128.698 208.862C127.458 207.944 126.779 206.709 126.662 205.156H130.837C130.944 205.82 131.247 206.333 131.745 206.694C132.253 207.056 132.931 207.236 133.781 207.236C134.592 207.236 135.226 207.09 135.685 206.797C136.154 206.494 136.388 206.084 136.388 205.566C136.388 205.166 136.242 204.849 135.949 204.614C135.656 204.37 135.158 204.165 134.455 203.999L131.554 203.354C128.556 202.671 127.057 201.157 127.057 198.813ZM143.932 190.581H148.21V194.199H151.11V197.422H148.21V204.937C148.21 206.118 148.825 206.709 150.055 206.709C150.456 206.709 150.803 206.685 151.095 206.636V209.785C150.597 209.902 149.919 209.961 149.059 209.961C147.214 209.961 145.895 209.629 145.104 208.965C144.323 208.301 143.932 207.202 143.932 205.669V197.422H141.72V194.199H143.932V190.581ZM173.61 209.902L171.999 204.775H164.572L162.961 209.902H158.42L165.759 188.765H170.959L178.312 209.902H173.61ZM168.234 192.808L165.524 201.465H171.047L168.337 192.808H168.234ZM189.284 193.95C191.276 193.95 192.844 194.668 193.986 196.104C195.138 197.539 195.715 199.521 195.715 202.051C195.715 204.57 195.148 206.553 194.015 207.998C192.883 209.434 191.33 210.151 189.357 210.151C188.234 210.151 187.243 209.897 186.384 209.39C185.534 208.872 184.899 208.164 184.479 207.266H184.391V215.029H180.114V194.199H184.333V196.938H184.421C184.85 196.001 185.485 195.269 186.325 194.741C187.175 194.214 188.161 193.95 189.284 193.95ZM187.848 206.709C188.913 206.709 189.758 206.289 190.383 205.449C191.017 204.609 191.335 203.477 191.335 202.051C191.335 200.625 191.017 199.492 190.383 198.652C189.758 197.803 188.913 197.378 187.848 197.378C186.803 197.378 185.964 197.808 185.329 198.667C184.694 199.517 184.377 200.645 184.377 202.051C184.377 203.467 184.689 204.6 185.314 205.449C185.949 206.289 186.794 206.709 187.848 206.709ZM207.096 193.95C209.089 193.95 210.656 194.668 211.799 196.104C212.951 197.539 213.527 199.521 213.527 202.051C213.527 204.57 212.961 206.553 211.828 207.998C210.695 209.434 209.142 210.151 207.17 210.151C206.047 210.151 205.055 209.897 204.196 209.39C203.346 208.872 202.712 208.164 202.292 207.266H202.204V215.029H197.927V194.199H202.145V196.938H202.233C202.663 196.001 203.298 195.269 204.137 194.741C204.987 194.214 205.973 193.95 207.096 193.95ZM205.661 206.709C206.725 206.709 207.57 206.289 208.195 205.449C208.83 204.609 209.147 203.477 209.147 202.051C209.147 200.625 208.83 199.492 208.195 198.652C207.57 197.803 206.725 197.378 205.661 197.378C204.616 197.378 203.776 197.808 203.141 198.667C202.507 199.517 202.189 200.645 202.189 202.051C202.189 203.467 202.502 204.6 203.127 205.449C203.762 206.289 204.606 206.709 205.661 206.709ZM215.739 209.902V194.199H219.87V197.026H219.958C220.231 196.03 220.69 195.269 221.335 194.741C221.979 194.214 222.765 193.95 223.693 193.95C224.142 193.95 224.548 194.004 224.909 194.111V197.876C224.509 197.71 223.991 197.627 223.356 197.627C222.302 197.627 221.481 197.935 220.895 198.55C220.309 199.165 220.016 200.024 220.016 201.128V209.902H215.739ZM239.03 208.071C237.634 209.517 235.739 210.239 233.346 210.239C230.954 210.239 229.059 209.512 227.663 208.057C226.266 206.602 225.568 204.595 225.568 202.036C225.568 199.507 226.271 197.515 227.678 196.06C229.094 194.595 230.983 193.862 233.346 193.862C235.72 193.862 237.609 194.595 239.015 196.06C240.422 197.515 241.125 199.507 241.125 202.036C241.125 204.604 240.427 206.616 239.03 208.071ZM233.346 206.973C234.401 206.973 235.236 206.543 235.851 205.684C236.467 204.824 236.774 203.613 236.774 202.051C236.774 200.508 236.467 199.302 235.851 198.433C235.236 197.563 234.401 197.129 233.346 197.129C232.292 197.129 231.452 197.563 230.827 198.433C230.212 199.302 229.904 200.508 229.904 202.051C229.904 203.613 230.212 204.824 230.827 205.684C231.442 206.543 232.282 206.973 233.346 206.973ZM257.311 194.199L251.921 209.902H247.087L241.652 194.199H246.237L249.504 206.123H249.592L252.844 194.199H257.311ZM264.489 207.061C265.436 207.061 266.237 206.787 266.891 206.24C267.555 205.684 267.887 204.985 267.887 204.146V203.003L264.577 203.208C263.776 203.267 263.156 203.467 262.717 203.809C262.287 204.15 262.072 204.6 262.072 205.156C262.072 205.742 262.292 206.206 262.731 206.548C263.171 206.89 263.757 207.061 264.489 207.061ZM263.083 210.151C261.569 210.151 260.314 209.707 259.318 208.818C258.322 207.93 257.824 206.787 257.824 205.391C257.824 203.965 258.351 202.847 259.406 202.036C260.461 201.226 261.97 200.762 263.932 200.645L267.887 200.41V199.37C267.887 198.647 267.648 198.081 267.17 197.671C266.701 197.261 266.061 197.056 265.251 197.056C264.47 197.056 263.83 197.231 263.332 197.583C262.844 197.935 262.546 198.408 262.438 199.004H258.527C258.605 197.461 259.264 196.221 260.505 195.283C261.745 194.336 263.39 193.862 265.441 193.862C267.453 193.862 269.064 194.341 270.275 195.298C271.486 196.255 272.092 197.524 272.092 199.106V209.902H267.961V207.5H267.873C267.443 208.32 266.789 208.97 265.91 209.448C265.031 209.917 264.089 210.151 263.083 210.151ZM274.963 209.902V188.765H279.24V209.902H274.963Z" fill="#313236"/>
<path d="M42.6339 295.899H41.0518V283.217H42.6339V295.899ZM44.8575 295.899V286.759H46.2989V288.218H46.3341C46.5977 287.708 46.9757 287.312 47.4679 287.031C47.9601 286.744 48.5489 286.601 49.2345 286.601C50.2306 286.601 51.0069 286.902 51.5636 287.506C52.1202 288.104 52.3985 288.924 52.3985 289.967V295.899H50.8692V290.239C50.8692 289.495 50.6935 288.93 50.3419 288.543C49.9903 288.15 49.4659 287.954 48.7686 287.954C48.0479 287.954 47.4708 288.188 47.0372 288.657C46.6036 289.126 46.3868 289.747 46.3868 290.521V295.899H44.8575ZM54.8419 284.553H56.3712V286.759H58.1466V288.016H56.3712V293.447C56.3712 293.863 56.462 294.171 56.6436 294.37C56.8253 294.563 57.1124 294.66 57.505 294.66C57.7511 294.66 57.962 294.646 58.1378 294.616V295.899C57.9386 295.946 57.6163 295.97 57.171 295.97C56.3331 295.97 55.7354 295.782 55.378 295.407C55.0206 295.032 54.8419 294.405 54.8419 293.526V288.016H53.4796V286.759H54.8419V284.553ZM63.1827 287.928C62.4737 287.928 61.8849 288.174 61.4161 288.666C60.9532 289.152 60.6983 289.779 60.6515 290.547H65.6173C65.5997 289.773 65.3683 289.144 64.9229 288.657C64.4776 288.171 63.8976 287.928 63.1827 287.928ZM65.5821 293.28H67.0851C66.9503 294.089 66.5284 294.754 65.8194 295.275C65.1163 295.797 64.2696 296.058 63.2794 296.058C61.9727 296.058 60.9444 295.636 60.1944 294.792C59.4444 293.948 59.0694 292.806 59.0694 291.364C59.0694 289.935 59.4444 288.783 60.1944 287.91C60.9503 287.037 61.9552 286.601 63.2091 286.601C64.4395 286.601 65.4122 287.014 66.127 287.84C66.8419 288.666 67.1993 289.773 67.1993 291.162V291.742H60.6427V291.83C60.6427 292.709 60.8829 293.412 61.3634 293.939C61.8438 294.467 62.4942 294.73 63.3145 294.73C63.8888 294.73 64.378 294.599 64.7823 294.335C65.1866 294.071 65.4532 293.72 65.5821 293.28ZM72.464 294.625C73.2608 294.625 73.9024 294.32 74.3888 293.711C74.8751 293.102 75.1183 292.296 75.1183 291.294C75.1183 290.286 74.8751 289.478 74.3888 288.868C73.9024 288.253 73.2608 287.945 72.464 287.945C71.6729 287.945 71.0401 288.25 70.5655 288.859C70.0968 289.463 69.8624 290.274 69.8624 291.294C69.8624 292.313 70.0968 293.125 70.5655 293.729C71.0401 294.326 71.6729 294.625 72.464 294.625ZM72.5167 299.345C71.5147 299.345 70.6534 299.09 69.9327 298.58C69.212 298.076 68.7872 297.435 68.6583 296.655H70.2315C70.3839 297.077 70.671 297.414 71.0929 297.666C71.5147 297.918 72.0099 298.044 72.5782 298.044C73.3634 298.044 73.9815 297.836 74.4327 297.42C74.8897 297.004 75.1183 296.453 75.1183 295.768V294.326H75.0831C74.796 294.83 74.3946 295.231 73.879 295.53C73.3634 295.823 72.7892 295.97 72.1563 295.97C70.9903 295.97 70.0558 295.545 69.3526 294.695C68.6495 293.846 68.2979 292.712 68.2979 291.294C68.2979 289.864 68.6495 288.725 69.3526 287.875C70.0616 287.025 71.0079 286.601 72.1915 286.601C72.836 286.601 73.4161 286.75 73.9317 287.049C74.4474 287.348 74.8575 287.764 75.1622 288.297H75.1886V286.759H76.6476V295.715C76.6476 296.811 76.2726 297.689 75.5226 298.352C74.7726 299.014 73.7706 299.345 72.5167 299.345ZM78.6427 295.899V286.759H80.0841V288.253H80.1192C80.2716 287.743 80.544 287.342 80.9366 287.049C81.3351 286.75 81.8009 286.601 82.3341 286.601C82.4571 286.601 82.6622 286.621 82.9493 286.662V288.147C82.7852 288.089 82.5128 288.06 82.1319 288.06C81.5401 288.06 81.0655 288.256 80.7081 288.648C80.3507 289.041 80.172 289.56 80.172 290.204V295.899H78.6427ZM87.0362 294.757C87.7569 294.757 88.3604 294.534 88.8468 294.089C89.339 293.638 89.5851 293.084 89.5851 292.428V291.681L87.1417 291.83C86.5265 291.871 86.0489 292.021 85.7091 292.278C85.3751 292.536 85.2081 292.882 85.2081 293.315C85.2081 293.749 85.3751 294.098 85.7091 294.361C86.0431 294.625 86.4854 294.757 87.0362 294.757ZM86.6935 296.058C85.7852 296.058 85.0499 295.806 84.4874 295.302C83.9308 294.798 83.6524 294.136 83.6524 293.315C83.6524 292.53 83.9395 291.903 84.5138 291.435C85.0938 290.966 85.9112 290.702 86.9659 290.644L89.5851 290.494V289.729C89.5851 289.173 89.4093 288.736 89.0577 288.42C88.7061 288.104 88.214 287.945 87.5811 287.945C87.0011 287.945 86.5294 288.074 86.1661 288.332C85.8028 288.584 85.5714 288.938 85.4718 289.396H83.9952C84.0479 288.581 84.3995 287.913 85.0499 287.392C85.7061 286.864 86.5616 286.601 87.6163 286.601C88.6886 286.601 89.5382 286.87 90.1651 287.409C90.7979 287.948 91.1143 288.672 91.1143 289.58V295.899H89.6642V294.326H89.629C89.3536 294.848 88.9493 295.267 88.4161 295.583C87.8829 295.899 87.3087 296.058 86.6935 296.058ZM93.5489 284.553H95.0782V286.759H96.8536V288.016H95.0782V293.447C95.0782 293.863 95.169 294.171 95.3507 294.37C95.5323 294.563 95.8194 294.66 96.212 294.66C96.4581 294.66 96.669 294.646 96.8448 294.616V295.899C96.6456 295.946 96.3233 295.97 95.878 295.97C95.0401 295.97 94.4425 295.782 94.0851 295.407C93.7276 295.032 93.5489 294.405 93.5489 293.526V288.016H92.1866V286.759H93.5489V284.553ZM101.89 287.928C101.181 287.928 100.592 288.174 100.123 288.666C99.6602 289.152 99.4054 289.779 99.3585 290.547H104.324C104.307 289.773 104.075 289.144 103.63 288.657C103.185 288.171 102.605 287.928 101.89 287.928ZM104.289 293.28H105.792C105.657 294.089 105.235 294.754 104.526 295.275C103.823 295.797 102.977 296.058 101.986 296.058C100.68 296.058 99.6515 295.636 98.9015 294.792C98.1515 293.948 97.7765 292.806 97.7765 291.364C97.7765 289.935 98.1515 288.783 98.9015 287.91C99.6573 287.037 100.662 286.601 101.916 286.601C103.147 286.601 104.119 287.014 104.834 287.84C105.549 288.666 105.906 289.773 105.906 291.162V291.742H99.3497V291.83C99.3497 292.709 99.5899 293.412 100.07 293.939C100.551 294.467 101.201 294.73 102.022 294.73C102.596 294.73 103.085 294.599 103.489 294.335C103.894 294.071 104.16 293.72 104.289 293.28ZM111.9 299.318C111.631 299.318 111.411 299.301 111.241 299.266V297.982C111.382 298.012 111.581 298.026 111.839 298.026C112.267 298.026 112.609 297.912 112.867 297.684C113.125 297.461 113.342 297.083 113.518 296.55L113.729 295.908L110.354 286.759H111.988L114.52 294.37H114.546L117.077 286.759H118.686L115.091 296.541C114.698 297.607 114.274 298.337 113.816 298.729C113.365 299.122 112.727 299.318 111.9 299.318ZM123.423 296.058C122.146 296.058 121.12 295.633 120.347 294.783C119.573 293.928 119.187 292.776 119.187 291.329C119.187 289.882 119.573 288.733 120.347 287.884C121.12 287.028 122.146 286.601 123.423 286.601C124.694 286.601 125.717 287.028 126.49 287.884C127.264 288.733 127.65 289.882 127.65 291.329C127.65 292.771 127.264 293.919 126.49 294.774C125.717 295.63 124.694 296.058 123.423 296.058ZM121.463 293.816C121.949 294.414 122.603 294.713 123.423 294.713C124.243 294.713 124.894 294.417 125.374 293.825C125.855 293.228 126.095 292.396 126.095 291.329C126.095 290.263 125.855 289.434 125.374 288.842C124.894 288.244 124.243 287.945 123.423 287.945C122.603 287.945 121.949 288.244 121.463 288.842C120.983 289.439 120.742 290.269 120.742 291.329C120.742 292.39 120.983 293.219 121.463 293.816ZM136.703 286.759V295.899H135.253V294.414H135.218C134.65 295.51 133.683 296.058 132.317 296.058C131.327 296.058 130.551 295.759 129.988 295.161C129.432 294.558 129.153 293.734 129.153 292.691V286.759H130.683V292.419C130.683 293.942 131.386 294.704 132.792 294.704C133.53 294.704 134.11 294.473 134.532 294.01C134.96 293.541 135.174 292.914 135.174 292.129V286.759H136.703ZM138.69 295.899V286.759H140.131V288.253H140.166C140.318 287.743 140.591 287.342 140.983 287.049C141.382 286.75 141.848 286.601 142.381 286.601C142.504 286.601 142.709 286.621 142.996 286.662V288.147C142.832 288.089 142.56 288.06 142.179 288.06C141.587 288.06 141.112 288.256 140.755 288.648C140.398 289.041 140.219 289.56 140.219 290.204V295.899H138.69ZM151.724 296.058C150.446 296.058 149.421 295.633 148.648 294.783C147.874 293.928 147.487 292.776 147.487 291.329C147.487 289.882 147.874 288.733 148.648 287.884C149.421 287.028 150.446 286.601 151.724 286.601C152.995 286.601 154.018 287.028 154.791 287.884C155.565 288.733 155.951 289.882 155.951 291.329C155.951 292.771 155.565 293.919 154.791 294.774C154.018 295.63 152.995 296.058 151.724 296.058ZM149.764 293.816C150.25 294.414 150.903 294.713 151.724 294.713C152.544 294.713 153.194 294.417 153.675 293.825C154.155 293.228 154.396 292.396 154.396 291.329C154.396 290.263 154.155 289.434 153.675 288.842C153.194 288.244 152.544 287.945 151.724 287.945C150.903 287.945 150.25 288.244 149.764 288.842C149.283 289.439 149.043 290.269 149.043 291.329C149.043 292.39 149.283 293.219 149.764 293.816ZM157.498 295.899V286.759H158.94V288.218H158.975C159.238 287.708 159.616 287.312 160.108 287.031C160.601 286.744 161.19 286.601 161.875 286.601C162.871 286.601 163.648 286.902 164.204 287.506C164.761 288.104 165.039 288.924 165.039 289.967V295.899H163.51V290.239C163.51 289.495 163.334 288.93 162.983 288.543C162.631 288.15 162.107 287.954 161.409 287.954C160.689 287.954 160.111 288.188 159.678 288.657C159.244 289.126 159.027 289.747 159.027 290.521V295.899H157.498ZM167.069 295.899V283.217H168.599V295.899H167.069ZM170.743 295.899V286.759H172.273V295.899H170.743ZM171.508 285.221C171.25 285.221 171.027 285.127 170.84 284.939C170.652 284.752 170.559 284.529 170.559 284.271C170.559 284.008 170.652 283.785 170.84 283.604C171.027 283.416 171.25 283.322 171.508 283.322C171.772 283.322 171.997 283.416 172.185 283.604C172.372 283.785 172.466 284.008 172.466 284.271C172.466 284.529 172.372 284.752 172.185 284.939C171.997 285.127 171.772 285.221 171.508 285.221ZM174.338 295.899V286.759H175.779V288.218H175.815C176.078 287.708 176.456 287.312 176.948 287.031C177.441 286.744 178.029 286.601 178.715 286.601C179.711 286.601 180.487 286.902 181.044 287.506C181.601 288.104 181.879 288.924 181.879 289.967V295.899H180.35V290.239C180.35 289.495 180.174 288.93 179.822 288.543C179.471 288.15 178.946 287.954 178.249 287.954C177.528 287.954 176.951 288.188 176.518 288.657C176.084 289.126 175.867 289.747 175.867 290.521V295.899H174.338ZM187.495 287.928C186.786 287.928 186.197 288.174 185.729 288.666C185.266 289.152 185.011 289.779 184.964 290.547H189.93C189.912 289.773 189.681 289.144 189.235 288.657C188.79 288.171 188.21 287.928 187.495 287.928ZM189.895 293.28H191.398C191.263 294.089 190.841 294.754 190.132 295.275C189.429 295.797 188.582 296.058 187.592 296.058C186.285 296.058 185.257 295.636 184.507 294.792C183.757 293.948 183.382 292.806 183.382 291.364C183.382 289.935 183.757 288.783 184.507 287.91C185.263 287.037 186.268 286.601 187.522 286.601C188.752 286.601 189.725 287.014 190.44 287.84C191.154 288.666 191.512 289.773 191.512 291.162V291.742H184.955V291.83C184.955 292.709 185.195 293.412 185.676 293.939C186.156 294.467 186.807 294.73 187.627 294.73C188.201 294.73 188.691 294.599 189.095 294.335C189.499 294.071 189.766 293.72 189.895 293.28ZM199.765 294.757C200.485 294.757 201.089 294.534 201.575 294.089C202.067 293.638 202.314 293.084 202.314 292.428V291.681L199.87 291.83C199.255 291.871 198.777 292.021 198.438 292.278C198.104 292.536 197.937 292.882 197.937 293.315C197.937 293.749 198.104 294.098 198.438 294.361C198.772 294.625 199.214 294.757 199.765 294.757ZM199.422 296.058C198.514 296.058 197.778 295.806 197.216 295.302C196.659 294.798 196.381 294.136 196.381 293.315C196.381 292.53 196.668 291.903 197.242 291.435C197.822 290.966 198.64 290.702 199.694 290.644L202.314 290.494V289.729C202.314 289.173 202.138 288.736 201.786 288.42C201.435 288.104 200.942 287.945 200.31 287.945C199.73 287.945 199.258 288.074 198.895 288.332C198.531 288.584 198.3 288.938 198.2 289.396H196.724C196.776 288.581 197.128 287.913 197.778 287.392C198.435 286.864 199.29 286.601 200.345 286.601C201.417 286.601 202.267 286.87 202.894 287.409C203.526 287.948 203.843 288.672 203.843 289.58V295.899H202.393V294.326H202.358C202.082 294.848 201.678 295.267 201.145 295.583C200.611 295.899 200.037 296.058 199.422 296.058ZM213.379 289.756H211.885C211.768 289.229 211.507 288.795 211.103 288.455C210.704 288.115 210.186 287.945 209.547 287.945C208.75 287.945 208.108 288.253 207.622 288.868C207.136 289.478 206.893 290.298 206.893 291.329C206.893 292.378 207.136 293.204 207.622 293.808C208.114 294.411 208.762 294.713 209.565 294.713C210.18 294.713 210.687 294.561 211.085 294.256C211.489 293.945 211.759 293.512 211.894 292.955H213.397C213.279 293.869 212.866 294.616 212.157 295.196C211.454 295.771 210.587 296.058 209.556 296.058C208.278 296.058 207.256 295.636 206.488 294.792C205.721 293.942 205.337 292.788 205.337 291.329C205.337 289.894 205.721 288.748 206.488 287.893C207.256 287.031 208.273 286.601 209.538 286.601C210.628 286.601 211.513 286.908 212.192 287.523C212.878 288.139 213.274 288.883 213.379 289.756ZM222.397 289.756H220.902C220.785 289.229 220.525 288.795 220.12 288.455C219.722 288.115 219.203 287.945 218.565 287.945C217.768 287.945 217.126 288.253 216.64 288.868C216.153 289.478 215.91 290.298 215.91 291.329C215.91 292.378 216.153 293.204 216.64 293.808C217.132 294.411 217.779 294.713 218.582 294.713C219.197 294.713 219.704 294.561 220.103 294.256C220.507 293.945 220.776 293.512 220.911 292.955H222.414C222.297 293.869 221.884 294.616 221.175 295.196C220.472 295.771 219.605 296.058 218.573 296.058C217.296 296.058 216.274 295.636 215.506 294.792C214.738 293.942 214.355 292.788 214.355 291.329C214.355 289.894 214.738 288.748 215.506 287.893C216.274 287.031 217.29 286.601 218.556 286.601C219.646 286.601 220.53 286.908 221.21 287.523C221.896 288.139 222.291 288.883 222.397 289.756ZM227.608 296.058C226.331 296.058 225.306 295.633 224.532 294.783C223.759 293.928 223.372 292.776 223.372 291.329C223.372 289.882 223.759 288.733 224.532 287.884C225.306 287.028 226.331 286.601 227.608 286.601C228.88 286.601 229.902 287.028 230.676 287.884C231.449 288.733 231.836 289.882 231.836 291.329C231.836 292.771 231.449 293.919 230.676 294.774C229.902 295.63 228.88 296.058 227.608 296.058ZM225.649 293.816C226.135 294.414 226.788 294.713 227.608 294.713C228.429 294.713 229.079 294.417 229.56 293.825C230.04 293.228 230.28 292.396 230.28 291.329C230.28 290.263 230.04 289.434 229.56 288.842C229.079 288.244 228.429 287.945 227.608 287.945C226.788 287.945 226.135 288.244 225.649 288.842C225.168 289.439 224.928 290.269 224.928 291.329C224.928 292.39 225.168 293.219 225.649 293.816ZM240.889 286.759V295.899H239.439V294.414H239.403C238.835 295.51 237.868 296.058 236.503 296.058C235.513 296.058 234.736 295.759 234.174 295.161C233.617 294.558 233.339 293.734 233.339 292.691V286.759H234.868V292.419C234.868 293.942 235.571 294.704 236.978 294.704C237.716 294.704 238.296 294.473 238.718 294.01C239.146 293.541 239.359 292.914 239.359 292.129V286.759H240.889ZM242.875 295.899V286.759H244.316V288.218H244.352C244.615 287.708 244.993 287.312 245.485 287.031C245.978 286.744 246.566 286.601 247.252 286.601C248.248 286.601 249.025 286.902 249.581 287.506C250.138 288.104 250.416 288.924 250.416 289.967V295.899H248.887V290.239C248.887 289.495 248.711 288.93 248.359 288.543C248.008 288.15 247.483 287.954 246.786 287.954C246.066 287.954 245.488 288.188 245.055 288.657C244.621 289.126 244.404 289.747 244.404 290.521V295.899H242.875ZM252.859 284.553H254.389V286.759H256.164V288.016H254.389V293.447C254.389 293.863 254.48 294.171 254.661 294.37C254.843 294.563 255.13 294.66 255.523 294.66C255.769 294.66 255.98 294.646 256.155 294.616V295.899C255.956 295.946 255.634 295.97 255.189 295.97C254.351 295.97 253.753 295.782 253.396 295.407C253.038 295.032 252.859 294.405 252.859 293.526V288.016H251.497V286.759H252.859V284.553ZM257.641 289.281C257.641 288.496 257.957 287.854 258.59 287.356C259.229 286.853 260.049 286.601 261.051 286.601C261.994 286.601 262.779 286.853 263.406 287.356C264.033 287.86 264.364 288.499 264.4 289.272H262.941C262.888 288.827 262.689 288.479 262.343 288.227C262.003 287.975 261.555 287.849 260.998 287.849C260.441 287.849 259.993 287.975 259.653 288.227C259.314 288.473 259.144 288.798 259.144 289.202C259.144 289.823 259.65 290.263 260.664 290.521L262.079 290.863C262.999 291.098 263.647 291.402 264.022 291.777C264.402 292.146 264.593 292.668 264.593 293.342C264.593 294.139 264.253 294.792 263.573 295.302C262.894 295.806 262.021 296.058 260.954 296.058C259.958 296.058 259.135 295.812 258.484 295.319C257.84 294.821 257.477 294.165 257.395 293.351H258.924C259.094 294.323 259.803 294.81 261.051 294.81C261.666 294.81 262.152 294.689 262.51 294.449C262.873 294.203 263.055 293.872 263.055 293.456C263.055 293.128 262.946 292.867 262.73 292.674C262.519 292.48 262.158 292.316 261.649 292.182L260.04 291.769C258.441 291.358 257.641 290.529 257.641 289.281ZM272.89 294.757C273.61 294.757 274.214 294.534 274.7 294.089C275.192 293.638 275.439 293.084 275.439 292.428V291.681L272.995 291.83C272.38 291.871 271.902 292.021 271.563 292.278C271.229 292.536 271.062 292.882 271.062 293.315C271.062 293.749 271.229 294.098 271.563 294.361C271.897 294.625 272.339 294.757 272.89 294.757ZM272.547 296.058C271.639 296.058 270.903 295.806 270.341 295.302C269.784 294.798 269.506 294.136 269.506 293.315C269.506 292.53 269.793 291.903 270.367 291.435C270.947 290.966 271.765 290.702 272.819 290.644L275.439 290.494V289.729C275.439 289.173 275.263 288.736 274.911 288.42C274.56 288.104 274.067 287.945 273.435 287.945C272.855 287.945 272.383 288.074 272.02 288.332C271.656 288.584 271.425 288.938 271.325 289.396H269.849C269.901 288.581 270.253 287.913 270.903 287.392C271.56 286.864 272.415 286.601 273.47 286.601C274.542 286.601 275.392 286.87 276.019 287.409C276.651 287.948 276.968 288.672 276.968 289.58V295.899H275.518V294.326H275.483C275.207 294.848 274.803 295.267 274.27 295.583C273.736 295.899 273.162 296.058 272.547 296.058ZM278.91 295.899V286.759H280.352V288.218H280.387C280.65 287.708 281.028 287.312 281.521 287.031C282.013 286.744 282.602 286.601 283.287 286.601C284.283 286.601 285.06 286.902 285.616 287.506C286.173 288.104 286.451 288.924 286.451 289.967V295.899H284.922V290.239C284.922 289.495 284.746 288.93 284.395 288.543C284.043 288.15 283.519 287.954 282.821 287.954C282.101 287.954 281.524 288.188 281.09 288.657C280.656 289.126 280.44 289.747 280.44 290.521V295.899H278.91ZM291.865 296.058C290.693 296.058 289.747 295.627 289.026 294.766C288.312 293.904 287.954 292.759 287.954 291.329C287.954 289.905 288.312 288.763 289.026 287.901C289.741 287.034 290.676 286.601 291.83 286.601C292.475 286.601 293.052 286.747 293.562 287.04C294.071 287.333 294.464 287.734 294.739 288.244H294.775V283.217H296.304V295.899H294.845V294.353H294.818C294.52 294.886 294.115 295.305 293.606 295.609C293.096 295.908 292.516 296.058 291.865 296.058ZM292.155 287.945C291.347 287.945 290.705 288.253 290.231 288.868C289.756 289.478 289.519 290.298 289.519 291.329C289.519 292.366 289.756 293.189 290.231 293.799C290.705 294.408 291.347 294.713 292.155 294.713C292.946 294.713 293.582 294.405 294.063 293.79C294.543 293.169 294.783 292.349 294.783 291.329C294.783 290.31 294.54 289.492 294.054 288.877C293.573 288.256 292.941 287.945 292.155 287.945ZM305.778 294.625C306.575 294.625 307.217 294.32 307.703 293.711C308.19 293.102 308.433 292.296 308.433 291.294C308.433 290.286 308.19 289.478 307.703 288.868C307.217 288.253 306.575 287.945 305.778 287.945C304.987 287.945 304.355 288.25 303.88 288.859C303.411 289.463 303.177 290.274 303.177 291.294C303.177 292.313 303.411 293.125 303.88 293.729C304.355 294.326 304.987 294.625 305.778 294.625ZM305.831 299.345C304.829 299.345 303.968 299.09 303.247 298.58C302.526 298.076 302.102 297.435 301.973 296.655H303.546C303.698 297.077 303.985 297.414 304.407 297.666C304.829 297.918 305.324 298.044 305.893 298.044C306.678 298.044 307.296 297.836 307.747 297.42C308.204 297.004 308.433 296.453 308.433 295.768V294.326H308.398C308.11 294.83 307.709 295.231 307.193 295.53C306.678 295.823 306.104 295.97 305.471 295.97C304.305 295.97 303.37 295.545 302.667 294.695C301.964 293.846 301.612 292.712 301.612 291.294C301.612 289.864 301.964 288.725 302.667 287.875C303.376 287.025 304.322 286.601 305.506 286.601C306.15 286.601 306.731 286.75 307.246 287.049C307.762 287.348 308.172 287.764 308.477 288.297H308.503V286.759H309.962V295.715C309.962 296.811 309.587 297.689 308.837 298.352C308.087 299.014 307.085 299.345 305.831 299.345ZM315.622 287.928C314.913 287.928 314.324 288.174 313.856 288.666C313.393 289.152 313.138 289.779 313.091 290.547H318.057C318.039 289.773 317.808 289.144 317.362 288.657C316.917 288.171 316.337 287.928 315.622 287.928ZM318.022 293.28H319.525C319.39 294.089 318.968 294.754 318.259 295.275C317.556 295.797 316.709 296.058 315.719 296.058C314.412 296.058 313.384 295.636 312.634 294.792C311.884 293.948 311.509 292.806 311.509 291.364C311.509 289.935 311.884 288.783 312.634 287.91C313.39 287.037 314.395 286.601 315.649 286.601C316.879 286.601 317.852 287.014 318.566 287.84C319.281 288.666 319.639 289.773 319.639 291.162V291.742H313.082V291.83C313.082 292.709 313.322 293.412 313.803 293.939C314.283 294.467 314.934 294.73 315.754 294.73C316.328 294.73 316.817 294.599 317.222 294.335C317.626 294.071 317.893 293.72 318.022 293.28ZM321.678 284.553H323.207V286.759H324.983V288.016H323.207V293.447C323.207 293.863 323.298 294.171 323.48 294.37C323.661 294.563 323.948 294.66 324.341 294.66C324.587 294.66 324.798 294.646 324.974 294.616V295.899C324.775 295.946 324.452 295.97 324.007 295.97C323.169 295.97 322.571 295.782 322.214 295.407C321.857 295.032 321.678 294.405 321.678 293.526V288.016H320.316V286.759H321.678V284.553ZM122.623 324.757C123.344 324.757 123.947 324.534 124.434 324.089C124.926 323.638 125.172 323.084 125.172 322.428V321.681L122.729 321.83C122.113 321.871 121.636 322.021 121.296 322.278C120.962 322.536 120.795 322.882 120.795 323.315C120.795 323.749 120.962 324.098 121.296 324.361C121.63 324.625 122.072 324.757 122.623 324.757ZM122.28 326.058C121.372 326.058 120.637 325.806 120.074 325.302C119.518 324.798 119.239 324.136 119.239 323.315C119.239 322.53 119.526 321.903 120.101 321.435C120.681 320.966 121.498 320.702 122.553 320.644L125.172 320.494V319.729C125.172 319.173 124.996 318.736 124.645 318.42C124.293 318.104 123.801 317.945 123.168 317.945C122.588 317.945 122.116 318.074 121.753 318.332C121.39 318.584 121.158 318.938 121.059 319.396H119.582C119.635 318.581 119.986 317.913 120.637 317.392C121.293 316.864 122.149 316.601 123.203 316.601C124.275 316.601 125.125 316.87 125.752 317.409C126.385 317.948 126.701 318.672 126.701 319.58V325.899H125.251V324.326H125.216C124.941 324.848 124.536 325.267 124.003 325.583C123.47 325.899 122.896 326.058 122.28 326.058ZM133.082 316.601C134.254 316.601 135.197 317.031 135.912 317.893C136.633 318.754 136.993 319.899 136.993 321.329C136.993 322.753 136.636 323.898 135.921 324.766C135.206 325.627 134.272 326.058 133.117 326.058C132.473 326.058 131.896 325.911 131.386 325.618C130.876 325.325 130.483 324.924 130.208 324.414H130.173V328.949H128.644V316.759H130.094V318.306H130.129C130.416 317.778 130.817 317.362 131.333 317.058C131.849 316.753 132.432 316.601 133.082 316.601ZM132.783 324.713C133.598 324.713 134.242 324.408 134.717 323.799C135.191 323.189 135.429 322.366 135.429 321.329C135.429 320.292 135.191 319.469 134.717 318.859C134.242 318.25 133.598 317.945 132.783 317.945C131.998 317.945 131.365 318.256 130.885 318.877C130.404 319.498 130.164 320.315 130.164 321.329C130.164 322.349 130.404 323.169 130.885 323.79C131.365 324.405 131.998 324.713 132.783 324.713ZM142.979 316.601C144.15 316.601 145.094 317.031 145.809 317.893C146.529 318.754 146.89 319.899 146.89 321.329C146.89 322.753 146.532 323.898 145.817 324.766C145.103 325.627 144.168 326.058 143.014 326.058C142.369 326.058 141.792 325.911 141.282 325.618C140.773 325.325 140.38 324.924 140.105 324.414H140.069V328.949H138.54V316.759H139.99V318.306H140.025C140.313 317.778 140.714 317.362 141.23 317.058C141.745 316.753 142.328 316.601 142.979 316.601ZM142.68 324.713C143.494 324.713 144.139 324.408 144.613 323.799C145.088 323.189 145.325 322.366 145.325 321.329C145.325 320.292 145.088 319.469 144.613 318.859C144.139 318.25 143.494 317.945 142.68 317.945C141.895 317.945 141.262 318.256 140.781 318.877C140.301 319.498 140.061 320.315 140.061 321.329C140.061 322.349 140.301 323.169 140.781 323.79C141.262 324.405 141.895 324.713 142.68 324.713ZM148.437 325.899V316.759H149.878V318.253H149.913C150.066 317.743 150.338 317.342 150.731 317.049C151.129 316.75 151.595 316.601 152.128 316.601C152.251 316.601 152.456 316.621 152.743 316.662V318.147C152.579 318.089 152.307 318.06 151.926 318.06C151.334 318.06 150.859 318.256 150.502 318.648C150.145 319.041 149.966 319.56 149.966 320.204V325.899H148.437ZM157.34 326.058C156.063 326.058 155.037 325.633 154.264 324.783C153.49 323.928 153.104 322.776 153.104 321.329C153.104 319.882 153.49 318.733 154.264 317.884C155.037 317.028 156.063 316.601 157.34 316.601C158.611 316.601 159.634 317.028 160.407 317.884C161.181 318.733 161.567 319.882 161.567 321.329C161.567 322.771 161.181 323.919 160.407 324.774C159.634 325.63 158.611 326.058 157.34 326.058ZM155.38 323.816C155.866 324.414 156.52 324.713 157.34 324.713C158.16 324.713 158.811 324.417 159.291 323.825C159.772 323.228 160.012 322.396 160.012 321.329C160.012 320.263 159.772 319.434 159.291 318.842C158.811 318.244 158.16 317.945 157.34 317.945C156.52 317.945 155.866 318.244 155.38 318.842C154.9 319.439 154.659 320.269 154.659 321.329C154.659 322.39 154.9 323.219 155.38 323.816ZM170.348 316.759L166.99 325.899H165.426L162.06 316.759H163.668L166.191 324.273H166.226L168.757 316.759H170.348ZM174.953 317.928C174.244 317.928 173.655 318.174 173.187 318.666C172.724 319.152 172.469 319.779 172.422 320.547H177.388C177.37 319.773 177.139 319.144 176.693 318.657C176.248 318.171 175.668 317.928 174.953 317.928ZM177.353 323.28H178.856C178.721 324.089 178.299 324.754 177.59 325.275C176.887 325.797 176.04 326.058 175.05 326.058C173.743 326.058 172.715 325.636 171.965 324.792C171.215 323.948 170.84 322.806 170.84 321.364C170.84 319.935 171.215 318.783 171.965 317.91C172.721 317.037 173.726 316.601 174.98 316.601C176.21 316.601 177.183 317.014 177.898 317.84C178.612 318.666 178.97 319.773 178.97 321.162V321.742H172.413V321.83C172.413 322.709 172.653 323.412 173.134 323.939C173.614 324.467 174.265 324.73 175.085 324.73C175.659 324.73 176.149 324.599 176.553 324.335C176.957 324.071 177.224 323.72 177.353 323.28ZM183.98 326.058C182.808 326.058 181.861 325.627 181.141 324.766C180.426 323.904 180.068 322.759 180.068 321.329C180.068 319.905 180.426 318.763 181.141 317.901C181.856 317.034 182.79 316.601 183.944 316.601C184.589 316.601 185.166 316.747 185.676 317.04C186.186 317.333 186.578 317.734 186.854 318.244H186.889V313.217H188.418V325.899H186.959V324.353H186.933C186.634 324.886 186.23 325.305 185.72 325.609C185.21 325.908 184.63 326.058 183.98 326.058ZM184.27 317.945C183.461 317.945 182.819 318.253 182.345 318.868C181.87 319.478 181.633 320.298 181.633 321.329C181.633 322.366 181.87 323.189 182.345 323.799C182.819 324.408 183.461 324.713 184.27 324.713C185.061 324.713 185.696 324.405 186.177 323.79C186.657 323.169 186.898 322.349 186.898 321.329C186.898 320.31 186.654 319.492 186.168 318.877C185.688 318.256 185.055 317.945 184.27 317.945ZM194.254 325.899V316.759H195.783V325.899H194.254ZM195.019 315.221C194.761 315.221 194.538 315.127 194.351 314.939C194.163 314.752 194.069 314.529 194.069 314.271C194.069 314.008 194.163 313.785 194.351 313.604C194.538 313.416 194.761 313.322 195.019 313.322C195.282 313.322 195.508 313.416 195.695 313.604C195.883 313.785 195.977 314.008 195.977 314.271C195.977 314.529 195.883 314.752 195.695 314.939C195.508 315.127 195.282 315.221 195.019 315.221ZM197.849 325.899V316.759H199.29V318.218H199.325C199.589 317.708 199.967 317.312 200.459 317.031C200.951 316.744 201.54 316.601 202.226 316.601C203.222 316.601 203.998 316.902 204.555 317.506C205.111 318.104 205.39 318.924 205.39 319.967V325.899H203.86V320.239C203.86 319.495 203.685 318.93 203.333 318.543C202.982 318.15 202.457 317.954 201.76 317.954C201.039 317.954 200.462 318.188 200.028 318.657C199.595 319.126 199.378 319.747 199.378 320.521V325.899H197.849ZM214.047 324.757C214.768 324.757 215.371 324.534 215.858 324.089C216.35 323.638 216.596 323.084 216.596 322.428V321.681L214.152 321.83C213.537 321.871 213.06 322.021 212.72 322.278C212.386 322.536 212.219 322.882 212.219 323.315C212.219 323.749 212.386 324.098 212.72 324.361C213.054 324.625 213.496 324.757 214.047 324.757ZM213.704 326.058C212.796 326.058 212.061 325.806 211.498 325.302C210.941 324.798 210.663 324.136 210.663 323.315C210.663 322.53 210.95 321.903 211.525 321.435C212.105 320.966 212.922 320.702 213.977 320.644L216.596 320.494V319.729C216.596 319.173 216.42 318.736 216.068 318.42C215.717 318.104 215.225 317.945 214.592 317.945C214.012 317.945 213.54 318.074 213.177 318.332C212.814 318.584 212.582 318.938 212.483 319.396H211.006C211.059 318.581 211.41 317.913 212.061 317.392C212.717 316.864 213.572 316.601 214.627 316.601C215.699 316.601 216.549 316.87 217.176 317.409C217.809 317.948 218.125 318.672 218.125 319.58V325.899H216.675V324.326H216.64C216.364 324.848 215.96 325.267 215.427 325.583C214.894 325.899 214.319 326.058 213.704 326.058ZM227.222 326.058C226.05 326.058 225.104 325.627 224.383 324.766C223.668 323.904 223.311 322.759 223.311 321.329C223.311 319.905 223.668 318.763 224.383 317.901C225.098 317.034 226.032 316.601 227.187 316.601C227.831 316.601 228.408 316.747 228.918 317.04C229.428 317.333 229.82 317.734 230.096 318.244H230.131V313.217H231.66V325.899H230.201V324.353H230.175C229.876 324.886 229.472 325.305 228.962 325.609C228.452 325.908 227.872 326.058 227.222 326.058ZM227.512 317.945C226.703 317.945 226.062 318.253 225.587 318.868C225.112 319.478 224.875 320.298 224.875 321.329C224.875 322.366 225.112 323.189 225.587 323.799C226.062 324.408 226.703 324.713 227.512 324.713C228.303 324.713 228.939 324.405 229.419 323.79C229.9 323.169 230.14 322.349 230.14 321.329C230.14 320.31 229.897 319.492 229.41 318.877C228.93 318.256 228.297 317.945 227.512 317.945ZM236.74 324.757C237.461 324.757 238.065 324.534 238.551 324.089C239.043 323.638 239.289 323.084 239.289 322.428V321.681L236.846 321.83C236.231 321.871 235.753 322.021 235.413 322.278C235.079 322.536 234.912 322.882 234.912 323.315C234.912 323.749 235.079 324.098 235.413 324.361C235.747 324.625 236.19 324.757 236.74 324.757ZM236.398 326.058C235.489 326.058 234.754 325.806 234.191 325.302C233.635 324.798 233.357 324.136 233.357 323.315C233.357 322.53 233.644 321.903 234.218 321.435C234.798 320.966 235.615 320.702 236.67 320.644L239.289 320.494V319.729C239.289 319.173 239.113 318.736 238.762 318.42C238.41 318.104 237.918 317.945 237.285 317.945C236.705 317.945 236.233 318.074 235.87 318.332C235.507 318.584 235.275 318.938 235.176 319.396H233.699C233.752 318.581 234.104 317.913 234.754 317.392C235.41 316.864 236.266 316.601 237.32 316.601C238.393 316.601 239.242 316.87 239.869 317.409C240.502 317.948 240.818 318.672 240.818 319.58V325.899H239.368V324.326H239.333C239.058 324.848 238.653 325.267 238.12 325.583C237.587 325.899 237.013 326.058 236.398 326.058ZM243.517 329.318C243.247 329.318 243.027 329.301 242.858 329.266V327.982C242.998 328.012 243.197 328.026 243.455 328.026C243.883 328.026 244.226 327.912 244.483 327.684C244.741 327.461 244.958 327.083 245.134 326.55L245.345 325.908L241.97 316.759H243.605L246.136 324.37H246.162L248.693 316.759H250.302L246.707 326.541C246.315 327.607 245.89 328.337 245.433 328.729C244.982 329.122 244.343 329.318 243.517 329.318Z" fill="#7C7D8D"/>
<rect x="145.096" y="235.9" width="79.9433" height="3" fill="#FFC747"/>
<path d="M254.017 72.9052C254.017 111.014 223.146 141.903 185.068 141.903C146.991 141.903 116.119 111.014 116.119 72.9052C116.119 34.7967 146.991 3.90723 185.068 3.90723C223.146 3.90723 254.017 34.7967 254.017 72.9052Z" fill="white" stroke="#159E99" stroke-width="6"/>
<path d="M151.166 56.22H163.516C164.163 56.22 164.687 55.6955 164.687 55.0482C164.687 54.4008 164.163 53.8763 163.516 53.8763H151.166C150.519 53.8763 149.995 54.4008 149.995 55.0482C149.995 55.6955 150.519 56.22 151.166 56.22Z" fill="#159E99"/>
<path d="M163.092 61.8617H158.214C157.567 61.8617 157.043 62.3862 157.043 63.0335C157.043 63.6808 157.567 64.2053 158.214 64.2053H163.092C163.739 64.2053 164.263 63.6808 164.263 63.0335C164.263 62.3862 163.739 61.8617 163.092 61.8617Z" fill="#159E99"/>
<path d="M146.267 69.989H158.213C158.86 69.989 159.384 69.4645 159.384 68.8172C159.384 68.1699 158.86 67.6454 158.213 67.6454H146.267C145.62 67.6454 145.096 68.1699 145.096 68.8172C145.096 69.4645 145.62 69.989 146.267 69.989Z" fill="#159E99"/>
<path d="M164.687 90.7625C164.687 90.1152 164.163 89.5907 163.516 89.5907H151.166C150.519 89.5907 149.995 90.1152 149.995 90.7625C149.995 91.4098 150.519 91.9343 151.166 91.9343H163.516C164.163 91.9343 164.687 91.4098 164.687 90.7625Z" fill="#159E99"/>
<path d="M163.092 81.6062H158.214C157.567 81.6062 157.043 82.1307 157.043 82.778C157.043 83.4253 157.567 83.9498 158.214 83.9498H163.092C163.739 83.9498 164.263 83.4253 164.263 82.778C164.263 82.1307 163.739 81.6062 163.092 81.6062Z" fill="#159E99"/>
<path d="M159.384 76.996C159.384 76.3487 158.86 75.8242 158.213 75.8242H146.267C145.62 75.8242 145.096 76.3487 145.096 76.996C145.096 77.6433 145.62 78.1678 146.267 78.1678H158.213C158.86 78.1678 159.384 77.6433 159.384 76.996Z" fill="#159E99"/>
<path d="M194.986 58.817C195.633 58.817 196.158 58.2925 196.158 57.6452V55.8564C196.158 55.2091 195.633 54.6846 194.986 54.6846C194.34 54.6846 193.815 55.2091 193.815 55.8564V57.6452C193.815 58.2925 194.34 58.817 194.986 58.817Z" fill="#159E99"/>
<path d="M207.862 60.0215C207.404 59.564 206.663 59.564 206.205 60.0215L204.941 61.2863C204.484 61.7441 204.484 62.4859 204.941 62.9436C205.399 63.4012 206.14 63.4011 206.598 62.9436L207.862 61.6788C208.319 61.2211 208.319 60.4793 207.862 60.0215Z" fill="#159E99"/>
<path d="M210.237 71.7336C209.59 71.7336 209.066 72.2581 209.066 72.9055C209.066 73.5528 209.59 74.0773 210.237 74.0773H212.024C212.671 74.0773 213.195 73.5528 213.195 72.9055C213.195 72.2581 212.671 71.7336 212.024 71.7336H210.237Z" fill="#159E99"/>
<path d="M206.598 82.8675C206.14 82.41 205.399 82.41 204.941 82.8675C204.484 83.3253 204.484 84.0671 204.941 84.5248L206.205 85.7895C206.663 86.2472 207.404 86.247 207.862 85.7895C208.319 85.3317 208.319 84.5899 207.862 84.1323L206.598 82.8675Z" fill="#159E99"/>
<path d="M193.815 88.1661V89.9546C193.815 90.602 194.34 91.1265 194.986 91.1265C195.633 91.1265 196.158 90.602 196.158 89.9546V88.1661C196.158 87.5188 195.633 86.9943 194.986 86.9943C194.34 86.9943 193.815 87.5189 193.815 88.1661Z" fill="#159E99"/>
<path d="M183.374 82.8675L182.11 84.1323C181.653 84.5901 181.653 85.3319 182.11 85.7895C182.568 86.2472 183.309 86.247 183.766 85.7895L185.03 84.5248C185.487 84.067 185.487 83.3251 185.03 82.8675C184.573 82.41 183.831 82.41 183.374 82.8675Z" fill="#159E99"/>
<path d="M177.95 71.7336C177.303 71.7336 176.779 72.2581 176.779 72.9055C176.779 73.5528 177.303 74.0773 177.95 74.0773H179.738C180.384 74.0773 180.909 73.5528 180.909 72.9055C180.909 72.2581 180.384 71.7336 179.738 71.7336H177.95Z" fill="#159E99"/>
<path d="M185.031 61.2863L183.768 60.0215C183.31 59.564 182.569 59.564 182.112 60.0215C181.654 60.4793 181.654 61.2211 182.112 61.6788L183.375 62.9436C183.833 63.4012 184.574 63.4011 185.031 62.9436C185.489 62.4859 185.489 61.7441 185.031 61.2863Z" fill="#159E99"/>
<path d="M201.284 72.9055C201.284 72.2582 200.759 71.7337 200.113 71.7337H196.158V63.0333C196.158 62.386 195.633 61.8615 194.986 61.8615C194.34 61.8615 193.815 62.386 193.815 63.0333V72.9055C193.815 73.5529 194.34 74.0774 194.986 74.0774H200.113C200.759 74.0774 201.284 73.5529 201.284 72.9055Z" fill="#159E99"/>
<path d="M217.192 72.7122C217.837 72.673 218.329 72.1175 218.29 71.4716C217.545 59.1746 207.309 49.5419 194.987 49.5419C182.113 49.5419 171.639 60.0228 171.639 72.9058C171.639 85.7886 182.113 96.2695 194.987 96.2695C206.52 96.2695 216.362 87.8132 218.074 76.4018C218.17 75.7618 217.73 75.1651 217.09 75.069C216.452 74.9732 215.854 75.4137 215.758 76.054C214.22 86.3059 205.374 93.926 194.987 93.926C183.404 93.926 173.981 84.4964 173.981 72.9059C173.981 61.3155 183.404 51.8857 194.987 51.8857C206.073 51.8857 215.282 60.5513 215.952 71.6138C215.991 72.2594 216.545 72.7497 217.192 72.7122Z" fill="#159E99"/>
<path d="M194.986 42.833C190.867 42.833 186.831 43.6881 183.116 45.2873H162.455C161.808 45.2873 161.284 45.8118 161.284 46.4592C161.284 47.1065 161.808 47.631 162.455 47.631H178.711C176.513 49.0466 174.489 50.754 172.705 52.7252C172.271 53.2048 172.308 53.9458 172.787 54.3803C173.267 54.8149 174.007 54.7781 174.441 54.2985C179.688 48.5014 187.176 45.1767 194.986 45.1767C210.265 45.1767 222.696 57.6159 222.696 72.9058C222.696 88.1955 210.265 100.635 194.986 100.635C179.706 100.635 167.276 88.1956 167.276 72.9058C167.276 67.5515 168.804 62.3548 171.695 57.8771C172.046 57.3335 171.891 56.6082 171.347 56.257C170.804 55.9059 170.079 56.0615 169.728 56.6053C166.591 61.4626 164.933 67.0992 164.933 72.9058C164.933 83.4939 170.431 92.8205 178.718 98.1805H162.455C161.808 98.1805 161.284 98.705 161.284 99.3524C161.284 99.9997 161.808 100.524 162.455 100.524H183.1C186.748 102.102 190.766 102.979 194.986 102.979C211.557 102.979 225.038 89.488 225.038 72.9058C225.038 56.3236 211.557 42.833 194.986 42.833Z" fill="#159E99"/>
</svg>
