<svg width="380" height="281" viewBox="0 0 380 281" fill="none" xmlns="http://www.w3.org/2000/svg">
<path d="M334.495 132.635C332.69 147.274 321.833 155.302 309.695 162.095C291.867 172.091 271.227 179.547 272.232 201.848C273.764 235.837 241.307 260.608 143.638 262.667C133.695 262.896 123.112 262.896 111.798 262.621C43.7976 260.997 -22.694 195.993 22.5861 155.279C35.9119 143.294 48.0033 136.386 58.1519 131.857C60.1633 130.988 62.0834 130.165 63.9348 129.456C71.6834 126.391 78.0377 124.63 82.5177 122.663C92.6206 118.157 93.4206 112.484 80.3005 88.2619C78.8605 85.6315 77.6034 83.0469 76.552 80.5767C57.0091 35.6774 93.2377 17.1732 121.398 38.6279C121.421 38.6508 121.489 38.6737 121.512 38.7194C135.181 49.1723 152.438 38.7652 171.135 26.208C193.124 11.3864 217.124 -6.45435 239.615 2.90062C281.33 20.1925 259.89 50.9335 283.981 69.9408C308.118 88.8795 338.975 96.4046 334.495 132.635Z" fill="#EFF8F2"/>
<path d="M34.7687 209.968C34.5173 210.998 33.3516 212.187 31.9344 213.171C30.4487 214.223 28.6887 215.046 27.5916 215.138C26.6773 216.945 25.9458 218.797 25.4201 220.673C27.7973 217.654 32.7345 216.83 34.2659 217.677C34.3802 217.745 34.4944 217.814 34.563 217.905L34.4716 218.134C33.3744 221.176 26.4716 225.133 24.6202 224.332C24.0487 228.518 24.3459 232.841 25.3287 237.118C26.3116 231.217 34.1973 227.489 36.163 228.61C36.5287 232.704 29.0773 240.915 26.3116 240.641C26.6773 241.853 27.1344 243.065 27.5916 244.255C28.3687 246.199 29.2602 248.074 30.2659 249.927C30.883 251.117 31.5687 252.26 32.2544 253.404C32.5516 247.8 37.9916 243.546 42.0145 242.105C43.683 241.464 45.0773 241.35 45.8316 241.762C46.0145 243.683 44.803 246.313 43.0888 248.829C43.043 248.875 42.9973 248.944 42.9745 248.989C41.8545 250.613 40.5287 252.146 39.1573 253.427C37.443 255.096 35.7287 256.309 34.4259 256.652C34.8602 257.269 35.2944 257.887 35.7744 258.527C37.9687 261.455 40.3687 264.246 42.9516 266.784C42.9287 267.013 42.9059 267.242 42.8373 267.493C42.7916 267.768 42.7459 268.065 42.7001 268.385C41.0544 266.762 39.4773 265.069 37.9459 263.285C37.3287 264.932 32.8487 266.121 28.2316 266.304C26.7459 266.373 25.1916 266.327 23.7744 266.144C21.5573 265.892 19.6144 265.321 18.5173 264.36C18.7458 262.278 24.3916 258.87 29.9687 258.916C31.8887 258.916 33.7859 259.328 35.4773 260.311C34.3116 258.802 33.1916 257.224 32.1401 255.645C31.2716 254.319 30.4487 252.969 29.6944 251.574C28.6202 249.698 27.6601 247.708 26.8144 245.764C26.7687 245.719 26.7687 245.65 26.7459 245.627C25.603 246.816 21.9458 247.594 18.403 247.617C17.3973 247.64 16.4373 247.594 15.5001 247.48C13.6944 247.251 12.163 246.748 11.2487 245.993C11.363 244.895 13.3744 243.34 15.9801 242.402C17.1001 241.99 18.2887 241.693 19.5001 241.624C21.6716 241.418 23.9344 241.807 25.763 243.18C24.2087 238.948 23.2259 234.671 23.043 230.417C20.8487 232.132 12.3458 232.75 9.83154 230.554C10.0601 228.404 18.4487 224.264 22.9973 228.61C22.9973 225.682 23.4087 222.8 24.1859 219.987C22.563 220.719 18.6316 220.902 17.3744 219.827C17.4887 218.637 22.0601 216.373 24.5973 218.729C25.1001 217.219 25.763 215.709 26.563 214.268C26.5401 214.268 26.5401 214.268 26.5401 214.268C26.883 212.233 28.4602 210.906 30.1516 210.22C32.163 209.397 34.243 209.397 34.7687 209.968Z" fill="#47E8AD"/>
<path d="M35.7957 258.596C36.7786 259.442 37.7614 260.357 38.6757 261.295C37.5786 258.756 38.1043 255.851 39.1786 253.518C40.23 251.162 41.8757 249.378 42.9957 249.081C43.0414 249.058 43.0872 249.058 43.11 249.058C43.1786 249.058 43.2243 249.035 43.2929 249.035C44.4357 250.728 44.2986 254.364 43.59 257.521C42.9728 260.517 41.8071 263.102 40.6414 263.376C41.4414 264.291 42.2643 265.229 43.0186 266.19C42.9957 266.395 42.9729 266.624 42.9271 266.853C42.9043 267.082 42.8814 267.31 42.8129 267.562C40.8243 264.932 38.4928 262.416 36.0243 260.128C35.2471 262.027 31.6129 264.886 28.23 266.35C26.5614 267.082 24.9843 267.448 23.8185 267.173C23.7043 266.922 23.7042 266.578 23.7728 266.19C24.0928 264.131 26.5843 260.494 29.9671 258.939C31.1557 258.367 32.4357 258.093 33.7843 258.184C30.9728 255.92 27.9557 253.953 24.87 252.489C24.7786 254.593 17.9214 259.351 14.9271 258.664C14.2642 257.109 17.8299 251.597 22.31 251.414C19.2014 250.27 16.0014 249.63 12.8471 249.675C13.2814 251.162 9.44136 256.171 7.08707 256.446C6.30993 255.577 7.36136 251.459 10.0357 249.881C8.57279 250.087 7.13279 250.453 5.71564 250.979C5.37279 252.512 2.81277 255.622 1.18991 255.828C0.435626 254.982 1.85278 250.27 5.21278 250.179C6.35564 249.744 7.54422 249.401 8.73279 249.149C7.22422 247.045 9.32707 243.866 10.2414 243.889C10.9499 244.918 10.4014 247.868 9.71565 248.989C11.9099 248.669 14.0814 248.669 16.2528 248.944C15.9328 248.509 15.7042 248.051 15.5442 247.571C15.0185 245.879 15.3385 244.003 16.0471 242.493C16.8928 240.641 18.1957 239.291 18.9957 239.314C19.3614 239.863 19.5442 240.732 19.5671 241.716C19.6585 243.66 19.1557 246.107 18.4471 247.708C18.1957 248.349 17.8985 248.829 17.6014 249.149C20.7557 249.721 23.8643 250.865 26.8585 252.42C25.67 250.339 25.99 247.868 26.8585 245.856C27.0871 245.307 27.3386 244.781 27.6128 244.323C28.5271 242.859 29.6471 241.83 30.3557 241.853C31.4071 243.454 31.1557 247.182 30.2871 249.996C30.1271 250.59 29.9214 251.162 29.7157 251.665C29.3728 252.466 28.9843 253.061 28.5728 253.358C29.7843 254.067 31.0185 254.868 32.1614 255.737C33.4185 256.606 34.63 257.589 35.7957 258.596Z" fill="#159E99"/>
<path d="M303.293 219.712C307.476 225.362 327.27 232.452 334.699 228.747C335.453 223.692 320.322 209.739 307.247 214.108C312.276 207.383 317.945 201.322 324.139 196.29C325.51 200.933 343.522 207.818 349.945 204.593C350.516 200.705 339.453 190.297 329.282 192.447C335.613 188.124 342.402 184.899 349.556 183.207C349.419 186.775 360.87 195.924 366.31 195.215C367.545 192.836 362.905 184.19 355.979 182.109C359.362 181.743 362.813 181.743 366.333 182.132C367.933 185.38 375.453 190.961 379.248 190.48C380.436 188.17 374.608 178.358 367.065 180.005C364.208 179.661 361.373 179.547 358.585 179.684C360.779 174.126 354.219 168.133 352.23 168.682C351.247 171.427 354.059 177.717 356.299 179.867C351.202 180.348 346.287 181.56 341.533 183.39C345.67 173.257 333.67 162.278 330.013 163.262C328.047 168.751 334.447 182.109 338.653 184.602C331.887 187.644 325.533 191.967 319.682 197.159C322.836 185.906 309.922 174.309 305.876 175.384C303.522 181.949 311.522 198.234 316.345 200.27C309.396 207.086 303.247 215.16 298.082 223.783C300.23 210.54 285.51 197.548 280.779 198.829C277.693 207.452 289.167 229.73 294.79 229.616C291.773 235.288 289.19 241.121 287.064 246.954L289.144 247.823C292.642 238.148 297.442 228.518 303.293 219.712Z" fill="#48CA9A"/>
<path d="M285.031 257.475C295.477 249.561 313.008 239.269 310.06 234.397C307.088 229.525 300.711 236.592 299.157 232.635C297.602 228.678 302.905 225.476 312.825 220.581C322.745 215.687 323.134 205.325 319.271 201.849C315.408 198.372 306.22 213.399 301.305 211.409C296.391 209.42 312.802 199.767 310.722 189.246C308.642 178.724 304.734 176.574 301.122 183.665C297.511 190.755 294.562 195.261 291.248 190.389C287.934 185.517 287.957 174.813 280.437 177.695C272.917 180.577 282.951 191.121 276.779 195.124C270.608 199.15 263.362 190.183 259.682 192.425C255.979 194.667 259.248 204.09 265.854 206.835C272.459 209.58 278.562 211.318 275.979 216.213C273.397 221.085 267.454 211.798 261.785 213.788C256.117 215.778 267.957 230.623 275.408 234.946C282.859 239.269 278.608 240.984 273.877 239.36C265.694 236.547 270.311 244.323 276.299 247.937C282.448 251.551 278.791 262.21 285.031 257.475Z" fill="#73EFC2"/>
<path d="M291.156 242.47C291.728 242.562 292.299 242.447 292.825 242.287C292.939 242.241 293.076 242.219 293.191 242.173C294.059 241.944 294.905 241.67 295.728 241.372C297.671 240.686 299.545 239.977 301.099 238.879C301.259 238.765 301.305 238.513 301.191 238.353C301.076 238.193 300.825 238.147 300.665 238.262C299.179 239.314 297.373 240 295.476 240.663C294.676 240.938 293.831 241.212 292.985 241.441C292.871 241.464 292.733 241.509 292.596 241.555C292.162 241.692 291.751 241.761 291.362 241.738C291.956 239.771 292.436 237.713 292.848 235.631C292.848 235.631 292.871 235.631 292.871 235.608V235.585C293.282 233.39 293.648 231.171 293.831 228.884C294.036 226.391 293.968 224.035 293.853 221.885C295.019 222.319 296.322 222.182 297.488 221.93C301.808 220.993 305.945 219.094 309.465 216.441C309.625 216.327 309.671 216.098 309.533 215.915C309.396 215.755 309.168 215.709 309.008 215.846C305.556 218.431 301.533 220.284 297.328 221.198C296.162 221.45 294.859 221.61 293.831 221.084C293.808 220.878 293.808 220.65 293.808 220.467C293.442 214.84 292.779 208.733 291.293 202.694C293.168 201.825 295.111 200.933 296.688 199.515C297.282 198.989 297.808 198.417 298.311 197.845L300.756 195.124C300.893 194.963 300.893 194.735 300.733 194.575C300.573 194.437 300.345 194.437 300.185 194.597L297.739 197.319C297.236 197.868 296.733 198.44 296.185 198.943C294.722 200.247 292.893 201.116 291.111 201.917C290.036 197.731 288.551 193.614 286.425 189.771C286.333 189.588 286.082 189.52 285.899 189.634C285.716 189.726 285.648 189.954 285.739 190.137C289.031 196.061 290.791 202.603 291.819 209.053C291.385 209.19 290.905 209.19 290.425 209.19C287.636 209.099 284.733 209.03 282.082 208.047C281.259 207.749 280.391 207.315 279.431 206.766C276.962 205.348 274.745 203.541 272.848 201.391C272.71 201.231 272.459 201.231 272.322 201.368C272.185 201.482 272.162 201.688 272.231 201.825C272.253 201.848 272.253 201.871 272.276 201.894C274.219 204.09 276.505 205.942 279.042 207.406C280.048 207.978 280.939 208.413 281.808 208.733C284.573 209.762 287.522 209.831 290.379 209.922C290.859 209.945 291.385 209.922 291.911 209.785C292.459 213.445 292.779 217.059 293.008 220.489C293.168 222.937 293.305 225.842 293.053 228.815C292.871 230.942 292.551 233.001 292.185 235.037C289.236 234.282 285.922 233.321 282.928 231.72C280.665 230.508 277.602 228.358 275.819 224.995C275.796 224.927 275.728 224.858 275.728 224.812C275.636 224.629 275.408 224.561 275.225 224.652C275.042 224.744 274.973 224.972 275.065 225.155C275.088 225.224 275.133 225.27 275.156 225.338C276.642 228.129 279.202 230.576 282.585 232.383C285.671 234.03 289.053 235.014 292.048 235.791C290.173 245.261 286.196 253.724 280.505 260.059C280.391 260.174 280.39 260.357 280.459 260.494C280.482 260.54 280.505 260.563 280.551 260.608C280.711 260.745 280.939 260.746 281.076 260.585C285.533 255.645 288.939 249.423 291.156 242.47Z" fill="#FDFDFD"/>
<path d="M284.799 260.722C294.468 262.621 309.005 267.31 310.262 263.192C311.52 259.075 304.342 259.053 305.805 256.193C307.245 253.334 311.68 254.707 319.405 257.817C327.131 260.928 333.12 255.965 333.12 252.053C333.12 248.142 320.114 250.521 318.765 246.77C317.417 243.019 331.062 247.387 335.908 240.96C340.754 234.533 340 231.239 334.217 232.772C328.434 234.304 324.434 234.899 325.485 230.599C326.56 226.299 332.571 220.947 327.2 218.179C321.828 215.411 320.937 226.322 315.611 224.858C310.285 223.417 311.657 214.862 308.548 213.902C305.44 212.941 301.782 219.506 303.565 224.583C305.348 229.661 307.405 233.961 303.405 234.968C299.382 235.974 301.6 227.969 297.645 225.796C293.691 223.623 291.314 237.689 292.617 244.048C293.92 250.407 290.834 248.874 289.371 245.398C286.857 239.405 284.799 245.878 285.782 251.047C286.811 256.308 279.017 259.579 284.799 260.722Z" fill="#159E99"/>
<path d="M296.252 256.652C296.48 257.018 296.846 257.292 297.189 257.498C297.28 257.544 297.349 257.589 297.44 257.658C298.012 258.024 298.583 258.367 299.155 258.687C300.503 259.442 301.852 260.128 303.246 260.449C303.406 260.471 303.543 260.38 303.589 260.243C303.635 260.083 303.52 259.945 303.383 259.9C302.057 259.602 300.755 258.916 299.429 258.184C298.857 257.887 298.309 257.544 297.737 257.178C297.646 257.132 297.577 257.063 297.486 257.018C297.212 256.835 296.937 256.652 296.755 256.423C298.172 255.76 299.543 255.028 300.914 254.204H300.937C300.937 254.204 300.937 254.181 300.96 254.181C302.4 253.312 303.817 252.397 305.189 251.368C306.697 250.247 307.977 249.012 309.12 247.869C309.463 248.738 310.195 249.401 310.926 249.927C313.623 251.871 316.755 253.244 320 253.884C320.16 253.907 320.297 253.815 320.343 253.655C320.366 253.495 320.275 253.358 320.115 253.312C316.937 252.672 313.875 251.345 311.246 249.447C310.515 248.921 309.783 248.28 309.555 247.411C309.669 247.297 309.783 247.182 309.897 247.091C312.869 244.072 315.955 240.618 318.583 236.775C320 237.393 321.486 238.033 323.063 238.216C323.657 238.285 324.252 238.285 324.823 238.285H327.589C327.749 238.285 327.863 238.17 327.886 238.01C327.886 237.85 327.749 237.713 327.612 237.713H324.846C324.297 237.713 323.726 237.713 323.155 237.644C321.692 237.484 320.297 236.89 318.949 236.295C320.755 233.596 322.309 230.714 323.406 227.58C323.452 227.42 323.383 227.26 323.223 227.214C323.086 227.169 322.926 227.237 322.857 227.375C321.189 232.178 318.4 236.455 315.315 240.252C315.017 240.069 314.766 239.817 314.537 239.543C313.189 237.942 311.795 236.272 310.995 234.305C310.743 233.687 310.537 233.001 310.377 232.178C309.943 230.074 309.829 227.923 310.08 225.796C310.103 225.636 309.989 225.499 309.829 225.476C309.692 225.453 309.577 225.545 309.532 225.659C309.532 225.682 309.509 225.705 309.509 225.728C309.257 227.923 309.349 230.119 309.806 232.292C309.989 233.138 310.195 233.87 310.446 234.511C311.269 236.569 312.686 238.262 314.08 239.909C314.309 240.183 314.583 240.481 314.926 240.686C313.143 242.837 311.292 244.826 309.486 246.656C308.206 247.983 306.652 249.492 304.846 250.865C303.566 251.825 302.263 252.695 300.914 253.495C299.863 251.46 298.743 249.126 298.149 246.633C297.692 244.758 297.372 241.944 298.355 239.268C298.377 239.223 298.4 239.154 298.4 239.131C298.446 238.994 298.377 238.811 298.24 238.765C298.103 238.719 297.92 238.788 297.874 238.925C297.852 238.971 297.829 239.017 297.829 239.062C297.006 241.304 296.937 243.957 297.6 246.748C298.217 249.309 299.383 251.688 300.435 253.77C294.194 257.452 287.474 259.465 281.052 259.442C280.937 259.442 280.823 259.511 280.777 259.625C280.777 259.648 280.754 259.694 280.754 259.717C280.754 259.877 280.892 259.991 281.029 259.991C286.057 260.06 291.246 258.893 296.252 256.652Z" fill="#FDFDFD"/>
<path d="M300.459 99.7212L298.219 122.594L295.111 155.028L291.156 195.833V195.855L288.391 224.446L286.151 247.479L285.991 249.286C285.968 249.744 285.876 250.201 285.785 250.613C285.511 251.962 285.054 253.312 284.436 254.57C284.071 255.37 283.614 256.148 283.111 256.926C279.911 261.889 274.494 265.983 269.008 267.356C269.008 267.379 268.985 267.379 268.985 267.379C268.642 267.47 268.345 267.539 268.002 267.607C267.042 267.813 266.082 267.882 265.122 267.882L264.482 267.859H263.454L214.562 266.326L198.082 265.823C189.031 265.823 182.265 258.847 182.676 250.11V250.087C182.699 249.812 182.722 249.538 182.768 249.286L185.122 216.67L190.151 147.914L190.173 147.48L190.196 147.136L193.556 100.796V100.773L193.693 98.3259C193.922 96.0387 194.836 93.9344 196.208 92.1274C196.436 91.8529 196.665 91.5785 196.939 91.2583C198.516 89.3598 200.642 87.7358 203.019 86.5007C206.951 84.3735 211.636 83.207 215.751 83.207H285.145C286.996 83.207 288.734 83.5273 290.356 84.0305C292.802 84.831 294.859 86.1805 296.528 87.9188C297.076 88.5135 297.579 89.1311 298.059 89.7944C298.905 91.121 299.614 92.6535 300.048 94.2775C300.505 95.9472 300.665 97.8227 300.459 99.7212Z" fill="#159E99"/>
<path d="M295.295 101.802L293.627 118.614L293.238 122.594L292.187 133.39L291.844 137.53L290.518 151.093L290.13 155.027L287.204 185.128L283.638 221.93L282.77 230.828L282.313 235.562L282.175 236.912L281.947 239.451L281.787 241.052L281.513 243.545L281.421 244.506L281.17 246.953L280.758 251.322C280.713 252.008 280.575 252.648 280.438 253.312V253.358C280.027 255.187 279.341 256.903 278.381 258.481C275.478 263.49 270.221 267.081 264.393 267.745C264.118 267.767 263.821 267.79 263.524 267.836H263.41C263.067 267.859 262.633 267.859 262.267 267.859H192.849C185.147 267.859 179.135 262.85 177.741 255.965V255.942C177.421 254.455 177.352 252.923 177.489 251.322L177.672 249.286L178.655 239.474L180.118 224.515L180.461 220.764L180.758 217.722L181.649 208.367L182.038 204.57L183.021 194.757L183.364 191.052L191.981 101.825C192.095 101.093 192.232 100.361 192.37 99.6523C192.987 96.8847 194.358 94.323 196.164 92.1501C196.415 91.8756 196.621 91.6011 196.895 91.2809C200.37 87.6441 205.284 85.2654 210.541 85.2654H279.935C285.238 85.2654 289.741 87.6899 292.484 91.3495C294.61 94.1857 295.684 97.8225 295.295 101.802Z" fill="#47E8AD"/>
<path d="M292.164 108.367L286.861 163.239L286.656 165.229L286.45 167.173L286.199 169.849L283.821 193.957L283.57 196.839L283.501 197.891L283.159 201.505L281.581 217.767L278.93 244.78C278.724 246.953 277.536 248.897 275.799 250.132C274.45 251.185 272.827 251.779 271.09 251.779H187.113C183.158 251.779 180.278 248.646 180.667 244.78L193.901 108.367C194.244 104.501 197.764 101.368 201.673 101.368H285.696C289.65 101.368 292.507 104.501 292.164 108.367Z" fill="white"/>
<path d="M259.663 94.3235H229.126C228.463 94.3235 228.006 93.7974 228.052 93.1798C228.12 92.5394 228.692 92.0361 229.355 92.0361H259.892C260.555 92.0361 261.012 92.5622 260.966 93.1798C260.898 93.8203 260.326 94.3235 259.663 94.3235Z" fill="white"/>
<path d="M272.619 160.54H203.042C199.568 160.54 197.053 157.727 197.396 154.227L200.871 120.078C201.236 116.601 204.322 113.765 207.796 113.765H277.374C280.848 113.765 283.362 116.578 283.019 120.078L279.545 154.227C279.179 157.727 276.094 160.54 272.619 160.54Z" fill="#F0EFF4"/>
<path d="M208.619 143.042L208.779 141.441C207.75 141.419 206.744 141.121 206.196 140.709L206.79 139.177C207.384 139.543 208.276 139.909 209.282 139.909C210.31 139.909 211.064 139.406 211.156 138.605C211.224 137.873 210.699 137.393 209.533 136.936C207.887 136.318 206.836 135.517 206.996 133.985C207.133 132.567 208.23 131.492 209.922 131.195L210.082 129.571H211.43L211.27 131.103C212.299 131.126 212.984 131.377 213.464 131.652L212.87 133.162C212.504 132.979 211.819 132.613 210.699 132.613C209.556 132.613 209.076 133.207 209.03 133.756C208.962 134.442 209.51 134.808 210.836 135.357C212.596 136.043 213.327 136.936 213.19 138.399C213.053 139.795 211.956 141.03 210.127 141.327L209.944 143.02H208.619V143.042Z" fill="#159E99"/>
<path d="M222.083 132.773H222.061L220.003 133.756L219.821 132.224L222.541 130.943H224.232L223.135 141.647H221.192L222.083 132.773Z" fill="#159E99"/>
<path d="M235.224 130.943L235.087 132.247L229.624 141.647H227.499L232.893 132.658V132.635H227.887L228.047 130.966H235.224V130.943Z" fill="#159E99"/>
<path d="M240.046 141.647L240.321 138.925H235.498L235.635 137.622L240.641 130.966H243.018L242.355 137.416H243.726L243.566 138.948H242.195L241.921 141.67H240.046V141.647ZM240.481 137.393L240.778 134.488C240.846 133.87 240.915 133.253 241.029 132.635H240.961C240.572 133.299 240.229 133.848 239.841 134.442L237.601 137.37L237.578 137.393H240.481Z" fill="#159E99"/>
<path d="M244.549 138.903C244.686 137.576 245.555 136.661 246.835 136.112V136.066C245.783 135.517 245.372 134.625 245.463 133.688C245.646 131.949 247.292 130.76 249.303 130.76C251.589 130.76 252.503 132.132 252.366 133.459C252.275 134.374 251.703 135.289 250.492 135.883V135.929C251.612 136.364 252.389 137.301 252.252 138.628C252.069 140.527 250.332 141.83 248.046 141.83C245.532 141.83 244.389 140.389 244.549 138.903ZM250.172 138.788C250.286 137.713 249.532 137.118 248.389 136.775C247.36 137.073 246.72 137.759 246.629 138.651C246.515 139.543 247.109 140.366 248.229 140.366C249.303 140.389 250.08 139.726 250.172 138.788ZM247.383 133.619C247.292 134.488 247.955 135.014 248.937 135.289C249.692 135.083 250.355 134.488 250.423 133.688C250.492 132.956 250.126 132.178 249.052 132.178C248.046 132.155 247.452 132.841 247.383 133.619Z" fill="#159E99"/>
<path d="M252.436 143.637C253.008 142.379 253.625 140.664 253.968 139.291L256.094 139.131C255.476 140.687 254.562 142.448 253.808 143.5L252.436 143.637Z" fill="#159E99"/>
<path d="M265.143 136.227C264.8 139.658 263.223 141.831 260.686 141.831C258.24 141.831 257.143 139.589 257.463 136.341C257.806 133.024 259.429 130.783 261.92 130.783C264.503 130.76 265.463 133.07 265.143 136.227ZM259.498 136.318C259.223 138.926 259.795 140.275 260.915 140.275C262.103 140.275 262.858 138.834 263.132 136.25C263.383 133.756 262.949 132.293 261.738 132.293C260.64 132.315 259.749 133.642 259.498 136.318Z" fill="#159E99"/>
<path d="M273.941 136.227C273.599 139.658 272.021 141.831 269.484 141.831C267.039 141.831 265.941 139.589 266.261 136.341C266.604 133.024 268.227 130.783 270.719 130.783C273.301 130.76 274.261 133.07 273.941 136.227ZM268.296 136.318C268.021 138.926 268.593 140.275 269.713 140.275C270.901 140.275 271.656 138.834 271.93 136.25C272.181 133.756 271.747 132.293 270.536 132.293C269.439 132.315 268.547 133.642 268.296 136.318Z" fill="#159E99"/>
<path d="M268.506 155.554H260.094C258.609 155.554 257.534 154.341 257.694 152.855C257.854 151.368 259.18 150.156 260.643 150.156H269.054C270.54 150.156 271.614 151.368 271.454 152.855C271.317 154.341 269.991 155.554 268.506 155.554Z" fill="white"/>
<path d="M270.22 195.97H198.197C195.408 195.97 193.374 193.682 193.648 190.892L194.837 179.227C195.134 176.414 197.625 174.149 200.414 174.149H272.437C275.226 174.149 277.26 176.436 276.986 179.227L275.797 190.892C275.523 193.682 273.031 195.97 270.22 195.97Z" fill="#F0EFF4"/>
<path d="M214.192 189.978C217.193 187.014 217.454 182.41 214.776 179.695C212.098 176.98 207.494 177.182 204.493 180.146C201.493 183.11 201.231 187.713 203.909 190.428C206.588 193.143 211.191 192.942 214.192 189.978Z" fill="white"/>
<path d="M234.902 183.893H225.416C224.479 183.893 223.77 183.115 223.884 182.177C223.976 181.217 224.822 180.462 225.782 180.462H235.267C236.204 180.462 236.913 181.24 236.799 182.177C236.685 183.115 235.839 183.893 234.902 183.893Z" fill="white"/>
<path d="M265.924 190.618H224.735C223.798 190.618 223.089 189.84 223.204 188.903C223.295 187.942 224.141 187.187 225.101 187.187H266.289C267.226 187.187 267.935 187.965 267.821 188.903C267.706 189.84 266.861 190.618 265.924 190.618Z" fill="white"/>
<path d="M266.631 231.4H194.608C191.819 231.4 189.785 229.112 190.059 226.322L191.248 214.657C191.545 211.843 194.036 209.579 196.825 209.579H268.848C271.637 209.579 273.671 211.866 273.397 214.657L272.208 226.322C271.911 229.112 269.419 231.4 266.631 231.4Z" fill="#F0EFF4"/>
<path d="M210.572 225.395C213.573 222.431 213.835 217.827 211.156 215.112C208.478 212.397 203.875 212.599 200.874 215.563C197.873 218.527 197.612 223.131 200.29 225.846C202.968 228.561 207.572 228.359 210.572 225.395Z" fill="white"/>
<path d="M231.291 219.3H221.805C220.868 219.3 220.16 218.523 220.274 217.585C220.365 216.624 221.211 215.869 222.171 215.869H231.657C232.594 215.869 233.302 216.647 233.188 217.585C233.074 218.545 232.228 219.3 231.291 219.3Z" fill="white"/>
<path d="M262.311 226.048H221.123C220.185 226.048 219.477 225.27 219.591 224.333C219.683 223.372 220.528 222.617 221.488 222.617H262.677C263.614 222.617 264.323 223.395 264.208 224.333C264.094 225.27 263.248 226.048 262.311 226.048Z" fill="white"/>
<path opacity="0.1" d="M275.863 240.777L261.737 231.536C262.194 230.393 261.829 229.066 260.754 228.357L254.583 224.331C253.371 223.577 251.749 223.897 250.949 225.086L249.006 228.083C248.457 228.906 248.457 229.89 248.891 230.713L246.857 233.824C246.469 234.441 246.629 235.265 247.246 235.676C247.84 236.111 248.686 235.905 249.097 235.31L250.949 232.474L250.994 232.497L250.56 233.115C250.217 233.686 250.354 234.418 250.903 234.784L251.726 235.288C252.274 235.654 253.006 235.493 253.394 234.944L252.091 236.889C251.611 237.643 251.817 238.65 252.549 239.13L253.097 239.473C253.829 239.954 254.857 239.748 255.337 239.016L257.234 236.088C257.394 236.111 257.554 236.111 257.714 236.088L284.069 253.289C283.589 254.455 283.269 255.644 283.109 256.857C283.612 256.102 284.069 255.301 284.434 254.501C285.052 253.22 285.509 251.893 285.783 250.544C285.874 250.109 285.943 249.675 285.989 249.217L286.149 247.41L275.863 240.777Z" fill="black"/>
<path opacity="0.1" d="M280.96 179.684C280.823 179.936 280.571 180.141 280.251 180.302C249.737 194.78 258.88 244.849 238.834 267.836H192.845C185.142 267.836 179.108 262.85 177.737 255.965V255.942C177.394 254.432 177.348 252.9 177.485 251.322L177.691 249.286L178.651 239.451L180.114 224.492L180.48 220.741L180.754 217.676C181.622 217.47 182.445 217.241 183.337 217.058C183.36 217.058 183.36 217.058 183.382 217.035C183.977 216.875 184.48 216.761 185.051 216.647H185.074C190.857 215.297 196.731 214.245 202.514 212.895C208.228 211.614 213.988 209.853 219.223 207.269C221.074 206.285 222.788 205.233 224.525 204.021C226.971 202.374 229.234 200.361 231.154 197.982C235.497 192.79 237.874 186.431 239.108 179.73C239.246 178.975 239.36 178.197 239.474 177.397H279.543C280.869 177.42 281.509 178.746 280.96 179.684Z" fill="black"/>
<path opacity="0.1" d="M124.847 130.234C124.458 132.498 121.601 134.831 121.601 134.831C115.887 146.702 109.533 157.91 103.361 161.821C101.098 163.033 93.2811 161.18 87.704 159.099C88.664 171.427 89.5783 182.932 88.8925 191.647C88.7554 193.637 88.5268 195.49 88.184 197.182C88.1383 197.205 88.0697 197.205 88.024 197.228C91.384 209.076 92.5497 220.535 92.6869 227.489C92.7783 232.315 90.2411 245.146 87.224 259.327C83.9097 258.527 80.6182 257.589 77.3954 256.56C77.9668 246.61 78.5382 236.112 78.5611 232.109C78.5839 227.489 76.3439 222.891 74.1496 216.098C73.8296 220.855 73.3039 225.018 72.7325 228.175C72.0239 232.086 68.5039 240.983 64.0696 251.436C60.5953 249.858 57.2124 248.143 53.9667 246.336C55.7724 239.291 57.3952 232.841 57.9895 229.936C59.5438 222.365 54.9038 213.788 56.5267 195.718C56.161 195.49 55.841 195.261 55.6124 195.009C57.2581 173.074 52.1609 150.407 58.6981 145.375C60.6181 144.346 63.5896 143.751 67.041 143.591C67.4067 143.568 67.7724 143.546 68.1382 143.546C68.6867 142.265 68.9839 140.915 69.121 139.474L63.2924 133.024L63.9096 129.479C71.6582 126.414 78.0125 124.653 82.4925 122.686L80.2754 128.404C80.2754 128.404 80.1839 128.427 80.0239 128.427C80.7554 133.459 80.0468 140.641 76.2753 141.647C76.0239 141.739 75.7954 141.761 75.5439 141.784C75.6353 142.516 75.7496 143.225 75.8868 143.934C79.9096 144.483 83.8182 145.467 86.7668 146.908C86.7897 146.908 86.7897 146.931 86.7897 146.931L100.595 152.557L117.876 132.361C117.876 132.361 117.258 129.021 117.99 128.815C118.744 128.587 118.698 129.913 119.453 129.959C120.253 129.959 119.956 127.901 120.778 126.482C121.853 124.561 125.921 123.966 124.847 130.234Z" fill="black"/>
<path opacity="0.1" d="M122.539 81.1482L120.55 82.9323V79.387C120.55 78.6551 119.979 78.0833 119.247 78.0833H117.853C117.167 78.0833 116.55 78.6551 116.55 79.387V83.0237V86.5461L116.344 86.752L113.921 88.9706C113.441 89.4052 113.716 90.1371 114.31 90.1371H116.573V101.848C116.573 102.191 116.87 102.488 117.213 102.488H117.899H122.744V102.58H129.281V102.488H134.859C135.201 102.488 135.499 102.191 135.499 101.848V90.1371H137.762C138.287 90.1371 138.584 89.5196 138.287 89.1079C138.287 89.0621 138.241 89.0164 138.196 88.9706L129.007 80.645L126.881 78.7466C126.401 78.312 125.67 78.312 125.144 78.7466L122.539 81.1482Z" fill="black"/>
<path opacity="0.1" d="M110.447 79.8446L107.453 80.4851C108.139 79.1356 108.916 77.9233 109.922 76.8025C112.962 73.0742 117.236 70.4667 122.059 69.5746V69.5289C123.362 69.2773 124.71 69.1401 126.036 69.1401V65.8921C125.51 65.8921 125.03 65.8921 124.527 65.9836C119.11 66.2809 114.082 68.4539 110.104 71.9306C110.104 71.9763 110.104 71.9763 110.104 71.9763C107.59 74.195 105.51 76.9626 104.093 80.0734L101.007 77.9919L103.476 90.1375L110.447 79.8446Z" fill="black"/>
<path opacity="0.1" d="M147.999 100.133L149.302 101.002L151.085 102.26L148.616 90.1145L146.148 93.7055L141.645 100.339L144.639 99.7211C141.782 105.233 136.616 109.168 130.65 110.517C129.188 110.86 127.61 111.043 126.056 111.043V114.291C127.565 114.291 129.096 114.154 130.513 113.856C138.17 112.461 144.708 107.338 147.999 100.133Z" fill="black"/>
<path d="M276.21 172.754C276.073 173.005 275.821 173.211 275.501 173.371C235.25 192.47 263.981 273.44 203.821 272.662C151.524 272.022 132.918 272.662 132.918 272.662C132.918 272.662 155.432 264.702 164.004 246.427C180.644 210.905 174.335 184.099 188.118 174.4C191.775 171.816 196.872 170.466 204.141 170.466H274.77C276.118 170.489 276.736 171.816 276.21 172.754Z" fill="#159E99"/>
<path d="M188.233 185.563C187.113 187.85 185.559 190.321 187.639 191.259H216.187C216.187 191.259 218.542 186.455 217.673 185.449C216.827 184.419 188.233 185.563 188.233 185.563Z" fill="white"/>
<path d="M185.078 207.657C182.884 209.647 182.084 212.255 186.129 213.055H242.358C242.358 213.055 245.855 208.893 244.187 208.023C242.495 207.131 185.078 207.657 185.078 207.657Z" fill="white"/>
<path d="M181.259 221.175C179.065 223.165 178.265 225.773 182.311 226.573H238.54C238.54 226.573 242.037 222.41 240.368 221.541C238.7 220.672 181.259 221.175 181.259 221.175Z" fill="white"/>
<path d="M177.466 234.716C175.272 236.706 174.472 239.313 178.518 240.114H234.746C234.746 240.114 238.243 235.951 236.575 235.082C234.883 234.19 177.466 234.716 177.466 234.716Z" fill="white"/>
<path d="M218.723 263.078C218.243 263.055 218.037 262.781 218.014 262.415C218.86 261.934 219.728 261.523 220.506 260.974C221.168 260.494 221.991 259.99 222.151 258.961C222.083 258.252 221.26 258.343 220.94 258.504C220.528 258.664 220.163 258.915 219.82 259.167C219.157 259.693 218.563 260.356 218.174 261.111C218.037 261.363 218.014 261.637 217.946 261.912C217.26 262.278 216.62 262.712 215.911 263.009C212.848 264.313 209.58 265.091 206.288 265.548C204.665 265.777 202.951 265.96 201.488 265.525C199.934 265.137 199.591 263.604 200.094 262.095C200.163 261.889 200.277 261.706 200.345 261.523C202.585 260.814 204.803 259.967 206.883 258.641C208.277 257.634 209.831 256.468 210.197 254.272C210.243 253.678 209.923 252.923 209.328 252.603C208.757 252.282 208.208 252.282 207.705 252.328C206.677 252.465 205.854 252.946 205.123 253.449C202.677 255.324 200.734 257.726 199.523 260.585C195.591 261.957 191.385 262.918 187.454 264.405C191.271 263.581 195.18 262.987 198.997 261.912C198.791 262.735 198.677 263.65 198.997 264.588C199.363 265.571 200.3 266.234 201.191 266.463C202.997 266.921 204.734 266.623 206.403 266.372C209.74 265.8 213.031 264.908 216.117 263.49C216.734 263.215 217.283 262.804 217.877 262.461C217.945 262.872 218.334 263.17 218.7 263.17C220.391 263.33 222.083 263.17 223.728 262.804C222.083 263.147 220.391 263.261 218.723 263.078ZM205.831 254.501C206.951 253.517 209.077 253.312 208.871 254.226C208.688 255.416 207.385 256.674 206.105 257.543C204.528 258.618 202.768 259.418 200.985 260.105C202.105 257.909 203.843 255.942 205.831 254.501ZM218.334 261.203C218.746 260.471 219.317 259.853 219.98 259.373C220.528 258.938 221.694 258.321 221.854 258.961C221.717 259.647 220.963 260.219 220.3 260.654C219.591 261.134 218.814 261.454 218.06 261.866C218.128 261.614 218.22 261.386 218.334 261.203Z" fill="white"/>
<path d="M178.768 258.161C178.768 264.565 174.083 269.872 167.934 270.832H167.911C167.271 270.924 166.608 270.992 165.946 270.992C158.86 270.992 153.123 265.251 153.123 258.161C153.123 255.027 154.243 252.168 156.071 249.949C157.466 248.279 159.248 246.999 161.283 246.198C162.723 245.626 164.3 245.329 165.946 245.329C170.083 245.329 173.763 247.296 176.094 250.315C177.763 252.488 178.768 255.21 178.768 258.161Z" fill="#48CA9A"/>
<path d="M176.049 258.893C176.049 264.314 172.689 268.957 167.935 270.832H167.912C166.472 271.404 164.895 271.702 163.249 271.702C156.163 271.702 150.426 265.961 150.426 258.87C150.426 255.393 151.843 252.191 154.106 249.904C156.003 247.96 158.494 246.61 161.306 246.198C161.946 246.107 162.609 246.038 163.272 246.038C168.414 246.038 172.826 249.08 174.883 253.449C175.615 255.119 176.049 256.949 176.049 258.893Z" fill="#E2F0F1"/>
<path d="M163.227 268.293C168.415 268.293 172.621 264.085 172.621 258.893C172.621 253.701 168.415 249.492 163.227 249.492C158.038 249.492 153.832 253.701 153.832 258.893C153.832 264.085 158.038 268.293 163.227 268.293Z" fill="#48CA9A"/>
<path d="M159.64 259.007C161.354 262.118 164.417 259.556 166.52 256.24C168.623 252.923 168.92 252.992 167.137 257.635C165.354 262.278 160.165 267.127 158.085 261.706C156.28 256.926 159.64 259.007 159.64 259.007Z" fill="white"/>
<path d="M302.906 247.365C302.746 247.068 302.563 246.77 302.357 246.519C301.763 245.695 301.031 244.963 300.163 244.323C300.003 244.209 299.843 244.071 299.683 243.957C296.597 241.944 292.803 241.83 289.717 243.339C289.488 243.431 289.26 243.545 289.031 243.705C288.391 244.094 287.751 244.552 287.157 245.078C286.86 245.352 286.586 245.627 286.334 245.947C286.083 246.244 285.831 246.587 285.625 246.908C285.374 247.274 285.168 247.662 284.985 248.051C284.117 249.813 283.82 251.734 284.025 253.609C284.071 253.998 284.117 254.364 284.208 254.73C284.208 254.753 284.208 254.753 284.231 254.753C284.391 255.508 284.643 256.194 284.985 256.88C285.763 258.481 286.974 259.9 288.574 260.952C293.26 264.017 299.546 262.667 302.608 258.001C304.803 254.707 304.78 250.59 302.906 247.365ZM299.5 255.965C297.58 258.939 293.603 259.762 290.654 257.841C287.683 255.92 286.837 251.94 288.78 248.989C288.78 248.966 288.803 248.966 288.803 248.966C290.7 246.084 294.494 245.215 297.42 246.976C297.511 247.022 297.58 247.068 297.648 247.113C300.62 249.035 301.443 253.015 299.5 255.965Z" fill="#E2F0F1"/>
<path d="M302.907 239.039C302.885 239.039 302.862 239.017 302.839 239.017C296.302 234.785 287.844 235.906 282.633 241.327L271.113 233.824L256.987 224.607C257.444 223.463 257.056 222.159 255.982 221.45L249.81 217.425C248.599 216.647 246.976 216.99 246.199 218.179L244.233 221.176C243.707 221.999 243.707 223.006 244.119 223.806L242.084 226.917C241.696 227.534 241.856 228.358 242.473 228.769C243.09 229.181 243.913 228.998 244.324 228.381L246.176 225.544L246.199 225.567L245.787 226.208C245.421 226.757 245.581 227.511 246.13 227.877L246.93 228.404C247.479 228.769 248.233 228.609 248.599 228.06L247.319 230.028C246.839 230.782 247.044 231.766 247.776 232.246L248.324 232.589C249.056 233.07 250.062 232.887 250.542 232.132L252.439 229.25C252.622 229.25 252.782 229.25 252.942 229.25L279.296 246.45C276.462 253.427 278.839 261.684 285.399 265.961C292.827 270.787 302.747 268.706 307.57 261.295C312.416 253.815 310.336 243.889 302.907 239.039ZM302.633 258.024C299.57 262.69 293.285 264.04 288.599 260.975C286.999 259.922 285.787 258.504 285.01 256.903C284.667 256.217 284.416 255.508 284.256 254.776C284.233 254.776 284.233 254.776 284.233 254.753C284.142 254.387 284.073 254.021 284.05 253.632C283.822 251.78 284.119 249.858 284.987 248.074C285.17 247.663 285.376 247.297 285.627 246.931C285.856 246.588 286.084 246.267 286.359 245.97C286.61 245.65 286.884 245.375 287.182 245.101C287.753 244.552 288.37 244.094 289.056 243.728C289.284 243.591 289.513 243.454 289.742 243.362C292.827 241.83 296.622 241.967 299.707 243.98C299.867 244.094 300.05 244.209 300.21 244.346C301.079 244.986 301.787 245.718 302.382 246.542C302.587 246.793 302.77 247.091 302.93 247.388C304.782 250.59 304.805 254.707 302.633 258.024Z" fill="#47E8AD"/>
<path d="M48.0244 269.597C48.0244 269.597 47.2015 270.97 47.1558 272.754C47.1329 274.538 39.2244 273.051 39.2244 273.051C39.2244 273.051 39.8644 271.176 41.0301 268.911C42.1729 266.67 43.1558 265.686 43.1558 265.686L48.0244 269.597Z" fill="#FBD783"/>
<path d="M52.2979 183.847C49.2808 205.371 54.9265 214.771 53.2122 222.983C51.4979 231.194 41.8979 267.081 41.8979 267.081C42.675 268.66 46.3322 269.986 48.4807 269.575C56.8008 250.361 66.7437 228.129 68.0008 221.244C69.3723 213.491 70.6294 199.721 68.8237 185.654L52.2979 183.847Z" fill="#46E9AE"/>
<path d="M39.453 271.176C38.1044 272.708 37.6015 274.263 37.9901 275.91C43.6358 277.168 49.1215 278.518 54.4472 279.364C54.8815 277.328 50.0358 273.509 47.2015 272.045C44.5044 272.937 41.9215 272.639 39.453 271.176Z" fill="#2B3649"/>
<path d="M77.8555 271.885C77.8555 271.885 77.3069 273.394 77.6269 275.132C77.9469 276.894 69.9011 276.985 69.9011 276.985C69.9011 276.985 70.1754 275.018 70.8611 272.571C71.5469 270.146 72.3012 269.003 72.3012 269.003L77.8555 271.885Z" fill="#FBD783"/>
<path d="M65.2379 186.958C66.4951 208.664 73.8779 216.761 73.8093 225.156C73.7408 233.55 71.3408 270.627 71.3408 270.627C72.415 271.999 76.2551 272.594 78.2665 271.77C82.6551 251.299 88.0493 227.557 87.935 220.558C87.775 212.667 86.3122 198.943 81.7865 185.517L65.2379 186.958Z" fill="#46E9AE"/>
<path d="M69.7435 275.132C68.7149 276.893 68.5321 278.54 69.2406 280.05C75.0235 280.164 80.6692 280.439 86.0635 280.21C86.0864 278.129 80.6007 275.338 77.5378 274.469C75.0692 275.864 72.4635 276.07 69.7435 275.132Z" fill="#2B3649"/>
<path d="M50.8331 188.056C54.9702 192.287 77.1874 193.82 83.4274 190.229C85.6903 178.815 83.3588 159.534 82.0331 139.932C74.1474 136.066 59.4731 135.449 53.9188 138.399C47.4045 143.454 52.4788 166.121 50.8331 188.056Z" fill="#159E99"/>
<path d="M62.8582 137.736C64.1839 135.471 64.4582 132.932 64.5725 130.05H70.6982C70.6068 132.864 70.6753 135.7 71.5211 138.605C70.8811 139.794 63.4525 139.314 62.8582 137.736Z" fill="#FBD783"/>
<path d="M62.4475 130.05C66.0132 131.651 68.299 136.066 71.5447 134.67C76.1161 133.458 76.2075 123.165 74.6532 118.591L62.2418 117.15L62.4475 130.05Z" fill="#FBD783"/>
<path d="M58.538 126.025L65.5551 133.779L70.6751 130.05L67.0637 125.956L68.5265 123.966L70.2637 126.139L71.4066 124.835L70.5151 121.153C73.6923 121.519 75.5208 121.427 75.5208 121.427L79.2694 111.638H68.7322L60.138 116.944L58.538 126.025Z" fill="#2A195B"/>
<path d="M81.1704 139.635L95.8676 145.627L113.148 125.408L116.851 127.878C111.113 139.749 104.782 150.957 98.6334 154.891C95.6391 156.492 82.9533 152.718 78.5647 150.225L81.1704 139.635Z" fill="#159E99"/>
<path d="M116.852 127.877C116.852 127.877 119.709 125.545 120.097 123.28C121.172 117.013 117.103 117.608 116.029 119.506C115.229 120.947 115.503 123.006 114.726 122.983C113.949 122.96 114.017 121.656 113.263 121.862C112.509 122.068 113.149 125.407 113.149 125.407L116.852 127.877Z" fill="#FBD783"/>
<path d="M133.034 83.184H130.772V94.8947C130.772 95.2378 130.474 95.5352 130.132 95.5352H112.463C112.12 95.5352 111.823 95.2378 111.823 94.8947V83.184H109.56C108.943 83.184 108.692 82.4521 109.172 82.0175L111.594 79.7988L111.8 79.593V72.4339C111.8 71.7019 112.417 71.1301 113.103 71.1301H114.497C115.229 71.1301 115.8 71.7019 115.8 72.4339V75.9791L117.789 74.1951L120.44 71.7706C120.966 71.336 121.697 71.336 122.177 71.7706L124.303 73.669L133.492 81.9946C133.537 82.0403 133.583 82.0861 133.583 82.1318C133.857 82.5893 133.56 83.184 133.034 83.184Z" fill="#159E99"/>
<path d="M124.556 85.9288V95.6497H118.019V85.9288C118.019 85.4028 118.408 84.9682 118.934 84.9224C118.979 84.8767 119.025 84.8767 119.071 84.8767H123.505C124.122 84.8767 124.556 85.357 124.556 85.9288Z" fill="#E2F0F1"/>
<path d="M146.334 95.3296L144.551 94.0716L143.248 93.2024C139.957 100.407 133.42 105.508 125.74 106.949C124.3 107.246 122.791 107.384 121.283 107.384V104.136C122.837 104.136 124.391 103.953 125.877 103.61C131.866 102.26 137.008 98.3259 139.866 92.8136L136.871 93.4312L141.374 86.7981L143.843 83.207L146.334 95.3296Z" fill="#48CA9A"/>
<path d="M121.285 58.9614V62.2094C119.936 62.2094 118.587 62.3467 117.307 62.5983V62.644C112.507 63.5589 108.21 66.1665 105.17 69.8719C104.165 70.9927 103.387 72.205 102.702 73.5545L105.696 72.914L98.7246 83.1841L96.256 71.0384L99.3417 73.1199C100.782 70.0092 102.862 67.2186 105.353 65.0228C105.353 65.0228 105.353 65.0228 105.353 64.9771C109.33 61.5003 114.359 59.3503 119.776 59.03C120.302 58.9614 120.782 58.9614 121.285 58.9614Z" fill="#48CA9A"/>
</svg>
