<svg width="379" height="281" viewBox="0 0 379 281" fill="none" xmlns="http://www.w3.org/2000/svg">
<path d="M270.491 259.611C225.986 242.012 171.174 276.16 114.829 279.957C96.6923 281.186 78.3667 279.265 60.159 271.426C44.8286 264.815 33.0832 250.543 26.9039 233.882C16.9038 206.97 21.3614 173.781 48.4843 156.383C68.2487 143.697 75.5129 132.486 76.362 122.056C78.5318 95.5228 38.9795 74.2831 58.3429 47.7727C90.0413 4.39996 145.561 3.93095 173.957 18.2917C186.151 24.4559 193.344 33.3449 191.599 42.7698C188.061 61.9994 201.174 87.8176 231.316 87.8176C254.713 87.8176 245.703 74.5288 283.817 60.5254C287.402 59.23 291.388 57.9123 295.869 56.5723C348.039 41.2735 383.936 93.8031 348.959 124.691C313.982 155.557 336.53 198.371 360.94 229.013C363.251 231.917 364.855 234.775 365.775 237.5C374.714 263.676 323.77 280.65 270.491 259.611Z" fill="#EFF8F2"/>
<path d="M344.324 246.817L331.507 253.218L297.005 270.444C295.375 271.259 292.832 272 290.387 272.346C289.152 272.544 287.917 272.668 286.904 272.668H130.896C126.598 272.668 125.709 265.698 127.364 263.425C127.487 263.252 127.685 263.054 128.006 262.832L145.318 257.148L176.93 246.817C179.4 245.582 183.944 244.593 187.056 244.593L325.53 237.451L342.842 236.536H342.991L343.682 236.512C344.028 236.512 344.324 236.635 344.596 236.858C344.769 236.957 344.892 237.055 344.941 237.179C346.769 239.304 346.374 245.779 344.324 246.817Z" fill="#159E99"/>
<path d="M286.063 264.586H130.054C126.942 264.586 126.35 263.598 128.795 262.362L176.089 238.711C178.558 237.476 183.103 236.487 186.214 236.487H342.223C345.384 236.487 345.928 237.476 343.483 238.711L296.189 262.362C294.534 263.178 291.99 263.894 289.545 264.265C288.31 264.463 287.1 264.586 286.063 264.586Z" fill="#46E9AE"/>
<path d="M276.087 263.647H136.477C134.229 263.647 133.834 262.93 135.588 262.065L181.622 239.057C183.376 238.192 186.611 237.475 188.859 237.475H328.469C330.716 237.475 331.111 238.192 329.358 239.057L283.323 262.065C281.57 262.93 278.334 263.647 276.087 263.647Z" fill="white"/>
<path d="M314.035 251.481C316.188 251.049 317.851 250.287 317.75 249.778C317.648 249.27 315.82 249.207 313.667 249.639C311.514 250.07 309.851 250.833 309.952 251.341C310.054 251.85 311.882 251.912 314.035 251.481Z" fill="white"/>
<path opacity="0.1" d="M303.948 175.741H268.903H215.41C208.248 175.741 202.395 180.634 202.395 186.664V191.657V201.74V203.544V229.197C202.395 235.301 208.248 240.194 215.41 240.194H303.948C304.96 240.194 306.047 240.095 306.985 239.898C312.666 238.736 316.963 234.411 316.963 229.221V203.544V197.538V191.632V186.64C316.963 180.634 311.11 175.741 303.948 175.741Z" fill="black"/>
<path d="M302.045 184.07V234.485C302.045 240.639 297.748 245.779 292.068 247.163C291.105 247.41 290.043 247.534 289.03 247.534H200.468C193.306 247.534 187.453 241.726 187.453 234.51V184.095C187.453 176.928 193.306 171.12 200.468 171.12H289.005C296.192 171.095 302.045 176.878 302.045 184.07Z" fill="#47E8AD"/>
<path d="M302.021 189.977H187.453V204.088H302.021V189.977Z" fill="#159E99"/>
<path d="M285.424 234.955H276.261C272.384 234.955 269.247 231.817 269.247 227.937C269.247 224.057 272.384 220.918 276.261 220.918H285.424C289.301 220.918 292.437 224.057 292.437 227.937C292.437 231.817 289.301 234.955 285.424 234.955Z" fill="#159E99"/>
<path d="M235.317 230.63H204.693C203.187 230.63 201.976 229.419 201.976 227.912C201.976 226.405 203.187 225.194 204.693 225.194H235.317C236.823 225.194 238.034 226.405 238.034 227.912C238.034 229.419 236.823 230.63 235.317 230.63Z" fill="white"/>
<path d="M254.95 230.63H244.503C242.997 230.63 241.787 229.419 241.787 227.912C241.787 226.405 242.997 225.194 244.503 225.194H254.95C256.456 225.194 257.667 226.405 257.667 227.912C257.667 229.419 256.456 230.63 254.95 230.63Z" fill="white"/>
<path d="M196.046 230.63H193.551C192.045 230.63 190.835 229.419 190.835 227.912C190.835 226.405 192.045 225.194 193.551 225.194H196.046C197.552 225.194 198.762 226.405 198.762 227.912C198.762 229.419 197.527 230.63 196.046 230.63Z" fill="white"/>
<g opacity="0.1">
<g opacity="0.1">
<path opacity="0.1" d="M344.724 79.5315H340.698C340.698 62.1332 326.547 47.9724 309.161 47.9724V43.9441C328.77 43.9441 344.724 59.909 344.724 79.5315Z" fill="black"/>
</g>
<g opacity="0.1">
<path opacity="0.1" d="M334.671 79.5315H330.645C330.645 67.6937 321.013 58.0554 309.184 58.0554V54.0271C323.236 54.0271 334.671 65.4695 334.671 79.5315Z" fill="black"/>
</g>
<g opacity="0.1">
<path opacity="0.1" d="M324.596 79.5312H320.57C320.57 73.2292 315.458 68.1133 309.161 68.1133V64.085C317.681 64.085 324.596 71.0049 324.596 79.5312Z" fill="black"/>
</g>
<path opacity="0.1" d="M310.912 82.7449C313.653 82.7449 315.876 80.5208 315.876 77.7773C315.876 75.0339 313.653 72.8098 310.912 72.8098C308.17 72.8098 305.948 75.0339 305.948 77.7773C305.948 80.5208 308.17 82.7449 310.912 82.7449Z" fill="black"/>
</g>
<path d="M48.099 199.172C47.531 200.062 45.9998 200.778 44.3451 201.223C42.567 201.717 40.6406 201.89 39.5787 201.594C38.0969 202.978 36.788 204.485 35.6519 206.092C38.9119 204.041 43.8759 204.955 45.0119 206.265C45.1107 206.388 45.1848 206.462 45.2342 206.586L45.0613 206.784C43.0115 209.28 35.1333 210.664 33.6515 209.304C31.7005 213.061 30.5151 217.238 29.9964 221.612C32.9106 216.373 41.6285 215.508 43.0856 217.262C42.0483 221.266 32.2438 226.48 29.7248 225.294C29.6754 226.579 29.6754 227.864 29.7248 229.149C29.7989 231.25 29.9964 233.326 30.3422 235.427C30.5397 236.761 30.7867 238.071 31.0584 239.381C33.2317 234.191 39.8009 232.016 44.0981 232.016C45.901 231.991 47.2593 232.337 47.8273 232.98C47.3334 234.858 45.3083 236.934 42.8386 238.738C42.7892 238.763 42.7152 238.812 42.6658 238.862C41.0605 239.999 39.2823 241.012 37.5536 241.753C35.3803 242.742 33.3305 243.31 31.9968 243.211C32.2191 243.928 32.392 244.694 32.6389 245.436C33.7256 248.945 35.0592 252.38 36.6151 255.667C36.5163 255.889 36.4175 256.087 36.2693 256.309C36.1212 256.557 35.9977 256.828 35.8495 257.1C34.8369 255.024 33.9232 252.874 33.0835 250.675C31.9475 252.009 27.3045 251.614 22.9085 250.23C21.4761 249.785 20.019 249.217 18.7595 248.574C16.7591 247.586 15.1291 246.399 14.4129 245.114C15.3267 243.236 21.8219 241.902 27.0575 243.854C28.8851 244.496 30.5151 245.534 31.7746 247.042C31.1819 245.213 30.6385 243.36 30.194 241.506C29.8236 239.949 29.5025 238.417 29.2555 236.835C28.8851 234.685 28.6381 232.51 28.5146 230.385C28.4899 230.336 28.5146 230.262 28.4899 230.237C27.0081 230.978 23.3037 230.484 19.9449 229.298C18.9818 228.976 18.0927 228.606 17.253 228.186C15.623 227.345 14.3388 226.381 13.7461 225.344C14.24 224.355 16.6603 223.539 19.4263 223.564C20.6117 223.539 21.8466 223.663 23.0073 224.034C25.1312 224.577 27.1316 225.714 28.3912 227.617C28.3665 223.095 28.8851 218.72 30.1446 214.643C27.4774 215.508 19.2534 213.209 17.6235 210.293C18.5619 208.341 27.8972 207.278 30.7126 212.913C31.7005 210.145 33.0588 207.55 34.7628 205.177C32.9847 205.326 29.2061 204.164 28.3664 202.706C28.8851 201.619 33.9726 201.025 35.5531 204.115C36.541 202.879 37.6771 201.668 38.9119 200.556C38.8872 200.531 38.8872 200.531 38.8872 200.531C39.8998 198.727 41.8507 198.01 43.6783 197.936C45.8516 197.763 47.8026 198.455 48.099 199.172Z" fill="#46E9AE"/>
<path d="M32.6407 245.461C33.2828 246.598 33.9003 247.784 34.4436 248.97C34.246 246.202 35.7278 243.632 37.5554 241.779C39.3582 239.9 41.5069 238.764 42.6676 238.887C42.717 238.887 42.7664 238.887 42.7911 238.912C42.8651 238.936 42.9145 238.937 42.9886 238.961C43.4826 240.938 42.1489 244.324 40.3955 247.092C38.7902 249.711 36.8145 251.763 35.629 251.639C36.0736 252.776 36.5428 253.937 36.938 255.099C36.8639 255.297 36.7651 255.494 36.6416 255.692C36.5428 255.914 36.444 256.112 36.2959 256.335C35.308 253.171 33.9744 250.008 32.3938 247.018C31.0355 248.55 26.6148 250.008 22.9349 250.255C21.1074 250.379 19.5021 250.181 18.4895 249.538C18.4648 249.267 18.5636 248.945 18.7859 248.599C19.7738 246.771 23.3795 244.176 27.084 243.854C28.3929 243.731 29.7018 243.879 30.9367 244.423C29.035 241.309 26.8617 238.467 24.4414 236.02C23.6512 237.973 15.5753 240.147 12.9822 238.492C12.8834 236.786 18.1191 232.783 22.3916 234.142C19.8479 232.017 17.0324 230.336 14.0441 229.298C13.9454 230.831 8.61087 234.29 6.31408 233.747C5.89424 232.659 8.26513 229.15 11.3275 228.532C9.89511 228.236 8.38861 228.087 6.88211 228.087C6.04242 229.422 2.58489 231.498 0.979608 231.127C0.559765 230.089 3.49866 226.11 6.68453 227.148C7.91937 227.124 9.1542 227.198 10.3643 227.371C9.64813 224.875 12.7105 222.576 13.5502 222.898C13.8713 224.109 12.3648 226.703 11.3275 227.544C13.5008 227.989 15.5506 228.705 17.5264 229.694C17.3782 229.175 17.3041 228.656 17.3288 228.162C17.4029 226.382 18.3414 224.726 19.5268 223.54C20.9592 222.082 22.6386 221.242 23.3795 221.538C23.5523 222.181 23.4042 223.071 23.1078 224.01C22.5151 225.888 21.2309 228.013 20.0207 229.298C19.5762 229.817 19.107 230.163 18.7365 230.361C21.5272 231.967 24.071 234.093 26.3678 236.564C25.9479 234.192 27.084 231.967 28.5905 230.386C28.9856 229.941 29.4055 229.545 29.8253 229.199C31.1836 228.112 32.5913 227.544 33.2581 227.791C33.7027 229.669 32.1962 233.104 30.4427 235.477C30.097 235.996 29.7019 236.465 29.3561 236.861C28.7634 237.503 28.1953 237.923 27.7014 238.072C28.6152 239.159 29.4796 240.32 30.2945 241.531C31.0601 242.767 31.8751 244.102 32.6407 245.461Z" fill="#159E99"/>
<path d="M35.8765 183.973C36.4445 185.233 38.2968 186.469 40.3466 187.359C42.5446 188.347 45.0143 188.94 46.4467 188.767C48.1014 190.868 49.4844 193.043 50.6451 195.341C46.8171 192.054 40.2231 192.277 38.4696 193.759C38.3214 193.883 38.2227 194.007 38.1239 194.13L38.2968 194.427C40.4701 198.06 50.3981 201.371 52.5714 199.888C54.3743 205.128 55.1152 210.762 54.9423 216.545C52.1763 209.181 41.0628 206.413 38.8154 208.365C39.4081 213.728 51.0896 222.402 54.5719 221.34C54.399 222.996 54.152 224.676 53.831 226.332C53.3123 229.026 52.6702 231.67 51.8305 234.339C51.3366 236.02 50.7439 237.675 50.1512 239.331C48.3236 232.189 40.2478 228.111 34.691 227.296C32.3695 226.9 30.542 227.098 29.6776 227.839C29.9493 230.36 32.172 233.449 35.0368 236.242C35.1109 236.291 35.185 236.366 35.2344 236.415C37.0866 238.194 39.1858 239.85 41.285 241.135C43.9276 242.84 46.4467 243.977 48.2001 244.076C47.7803 244.966 47.3851 245.905 46.9406 246.819C44.8661 251.144 42.4952 255.346 39.8279 259.3C39.9267 259.596 40.0008 259.893 40.149 260.189C40.2725 260.535 40.396 260.906 40.5442 261.302C42.2482 258.805 43.8535 256.186 45.36 253.517C46.5702 255.469 52.6455 255.84 58.6221 254.901C60.5732 254.604 62.5489 254.135 64.327 253.566C67.1178 252.676 69.464 251.441 70.6247 249.909C69.785 247.289 61.6351 244.348 54.4731 245.831C52.0034 246.325 49.6572 247.338 47.7309 249.044C48.8669 246.795 49.9042 244.496 50.8427 242.173C51.633 240.221 52.3245 238.293 52.9419 236.316C53.831 233.622 54.5719 230.83 55.1646 228.087C55.214 228.012 55.214 227.938 55.214 227.889C56.9921 229.124 61.9068 229.199 66.4757 228.309C67.7846 228.087 69.0194 227.79 70.1802 227.395C72.4523 226.628 74.3045 225.615 75.2677 224.379C74.8232 222.996 71.8348 221.488 68.2291 220.969C66.6979 220.722 65.0927 220.648 63.4874 220.87C60.6226 221.167 57.8071 222.254 55.8314 224.478C56.7452 218.646 56.9181 212.863 56.0784 207.327C59.363 208.958 70.4518 207.574 73.1191 204.114C72.2794 201.421 60.4003 198.233 55.6585 204.979C54.9176 201.223 53.6581 197.59 51.9046 194.18C54.1767 194.723 59.289 193.932 60.6473 192.227C60.178 190.72 53.7075 188.99 51.0649 192.647C50.0277 190.843 48.7928 189.064 47.3851 187.408C47.4098 187.383 47.4098 187.383 47.4098 187.383C46.4467 184.838 44.0758 183.553 41.7049 183.083C39.0624 182.564 36.3704 183.108 35.8765 183.973Z" fill="#48CA9A"/>
<path d="M46.9893 246.869C45.9274 248.203 44.9148 249.637 43.9763 251.07C44.7419 247.536 43.3342 243.928 41.3338 241.185C39.3827 238.417 36.8143 236.538 35.2831 236.464C35.2337 236.44 35.1596 236.464 35.1102 236.489C35.0361 236.489 34.9373 236.514 34.8632 236.514C33.8507 238.985 34.9373 243.631 36.6661 247.536C38.2467 251.243 40.3953 254.258 41.9512 254.332C41.1362 255.716 40.3459 257.125 39.605 258.558C39.6791 258.83 39.7532 259.102 39.8767 259.398C39.9755 259.695 40.0496 259.992 40.1977 260.288C42.0994 256.383 44.4209 252.553 47.0634 248.969C48.5452 251.194 53.9538 253.961 58.6955 254.975C61.0417 255.469 63.1656 255.543 64.598 254.901C64.6968 254.555 64.598 254.11 64.4005 253.64C63.462 251.07 59.313 247.042 54.5465 245.905C52.8671 245.485 51.1383 245.435 49.4343 245.905C52.472 242.247 55.8554 238.985 59.4611 236.267C60.1279 238.96 70.1548 243.335 73.8346 241.679C74.3039 239.504 68.2778 233.301 62.4741 234.24C66.1786 231.966 70.1301 230.335 74.2298 229.569C74.0569 231.596 80.2804 237.057 83.3922 236.81C84.1578 235.476 81.7622 230.459 77.9096 229.1C79.8359 228.976 81.8117 229.1 83.7627 229.396C84.6024 231.274 88.6773 234.635 90.826 234.462C91.5669 233.177 88.5291 227.469 84.2072 228.21C82.6266 227.938 81.0213 227.79 79.4161 227.79C80.7991 224.701 77.2921 221.142 76.1314 221.389C75.4893 222.897 76.9217 226.554 78.1319 227.815C75.2176 227.963 72.4269 228.507 69.6856 229.421C69.9819 228.754 70.1795 228.136 70.2536 227.469C70.5006 225.146 69.5868 222.847 68.3025 221.043C66.7467 218.868 64.7215 217.46 63.6843 217.707C63.3385 218.522 63.3632 219.684 63.5608 220.944C63.9559 223.49 65.2155 226.505 66.5491 228.383C67.043 229.124 67.5617 229.693 68.0062 230.014C64.0794 231.546 60.3749 233.82 56.9174 236.588C57.9052 233.622 56.868 230.508 55.238 228.161C54.7935 227.518 54.3489 226.9 53.8797 226.381C52.3238 224.725 50.6197 223.687 49.7059 223.91C48.7675 226.258 50.0517 230.978 51.8793 234.388C52.225 235.13 52.6449 235.797 53.04 236.39C53.7068 237.329 54.3489 237.997 54.9417 238.268C53.5587 239.504 52.2003 240.839 50.9161 242.247C49.5331 243.705 48.2242 245.262 46.9893 246.869Z" fill="#159E99"/>
<path d="M49.8097 259.398C49.8097 263.476 46.8214 266.837 42.9192 267.455C42.9192 267.455 42.9193 267.455 42.8946 267.455C42.4994 267.529 42.0796 267.554 41.6597 267.554C37.1649 267.554 33.5344 263.921 33.5344 259.423C33.5344 257.421 34.2507 255.617 35.4114 254.209C36.3005 253.146 37.4118 252.33 38.7208 251.836C39.6346 251.49 40.6471 251.268 41.6844 251.268C44.327 251.268 46.6485 252.503 48.1303 254.431C49.1676 255.79 49.8097 257.52 49.8097 259.398Z" fill="#48CA9A"/>
<path d="M48.0781 259.843C48.0781 263.279 45.9295 266.244 42.9166 267.43C42.9166 267.43 42.9166 267.43 42.8919 267.43C41.9781 267.776 40.9656 267.999 39.9283 267.999C35.4335 267.999 31.7784 264.366 31.7784 259.868C31.7784 257.669 32.6675 255.642 34.1246 254.159C35.3347 252.924 36.9153 252.083 38.6935 251.811C39.0886 251.737 39.5085 251.713 39.9283 251.713C43.1882 251.713 46.0036 253.64 47.2879 256.433C47.8065 257.446 48.0781 258.632 48.0781 259.843Z" fill="#E2F0F1"/>
<path d="M39.9304 265.824C43.2312 265.824 45.907 263.146 45.907 259.843C45.907 256.54 43.2312 253.863 39.9304 253.863C36.6296 253.863 33.9537 256.54 33.9537 259.843C33.9537 263.146 36.6296 265.824 39.9304 265.824Z" fill="#48CA9A"/>
<path d="M37.6545 259.917C38.7412 261.894 40.6921 260.263 42.0257 258.163C43.3593 256.062 43.5569 256.111 42.4209 259.052C41.2849 261.993 38.0003 265.082 36.6667 261.647C35.5059 258.607 37.6545 259.917 37.6545 259.917Z" fill="white"/>
<path opacity="0.1" d="M181.67 206.979C177.793 204.681 172.212 202.555 165.741 201.048C155.566 198.725 146.181 198.675 141.711 200.628C140.328 201.221 139.439 201.987 139.093 202.926C139.069 202.975 139.069 203.025 139.044 203.099L138.97 203.272C130.771 204.532 125.115 207.127 125.115 210.142C125.115 210.167 125.115 210.192 125.115 210.192V215.332H125.14C125.14 215.406 125.09 215.48 125.09 215.579C125.09 216.049 125.239 216.494 125.51 216.938C125.263 217.383 125.09 217.828 125.09 218.298C125.09 218.322 125.09 218.347 125.09 218.347V223.488H125.115C125.115 223.562 125.066 223.636 125.066 223.735C125.066 224.204 125.214 224.649 125.486 225.094C125.239 225.539 125.066 225.984 125.066 226.453C125.066 226.478 125.066 226.503 125.066 226.503V231.643H125.09C125.09 231.717 125.041 231.791 125.041 231.89C125.041 232.36 125.189 232.805 125.461 233.249C125.214 233.694 125.041 234.139 125.041 234.609C125.041 234.633 125.041 234.658 125.041 234.658V239.798H125.066C125.066 239.873 125.016 239.947 125.016 240.046C125.016 244.296 136.204 247.731 149.985 247.731C163.79 247.731 174.953 244.296 174.953 240.046C174.953 239.971 174.928 239.897 174.903 239.798H174.953V234.609C174.953 234.139 174.805 233.694 174.533 233.249C174.78 232.805 174.953 232.36 174.953 231.89C174.953 231.816 174.928 231.742 174.903 231.643H174.953V226.453C174.953 225.984 174.805 225.539 174.533 225.094C174.78 224.649 174.953 224.204 174.953 223.735C174.953 223.66 174.928 223.586 174.903 223.488H174.953V222.845C180.46 222.647 184.362 221.387 185.153 219.163C185.177 219.089 185.177 219.014 185.202 218.916H185.251L187.03 213.923C187.869 211.897 185.721 209.351 181.67 206.979Z" fill="black"/>
<path opacity="0.1" d="M276.755 168.772C276.78 168.772 276.804 168.772 276.804 168.747C277.595 164.991 278.336 161.259 279.027 157.601C281.818 155.847 284.164 154.191 285.918 152.683C290.141 148.482 288.708 129.452 282.806 116.799C282.287 115.811 281.62 115.366 280.855 115.292C278.533 112.647 272.581 110.72 266.061 109.879C265.469 108.594 265.049 107.037 264.728 105.307C265.321 104.961 265.889 104.615 266.531 104.195L267.025 103.948L269.074 98.2393L267.84 89.5649L263.616 85.7343L256.331 84.4492L248.971 83.8066L245.884 91.9868L250.527 98.3876L250.7 98.3135C251.095 102.366 252.182 106.296 253.664 108.52C254.405 109.113 255.392 109.385 257.072 108.99C257.072 109.163 257.047 109.336 257.022 109.509C252.305 109.706 248.132 110.646 245.736 112.45C242.056 114.427 237.932 118.109 239.414 123.966L243.365 143.959L236.351 149.001L206.863 147.79C205.604 147.74 204.616 148.828 204.789 150.113L205.382 153.82L208.098 170.897C208.247 171.836 209.037 172.528 210 172.578H210.148L209.679 172.553C209.21 172.528 208.79 172.751 208.543 173.146C208.37 173.319 208.321 173.566 208.296 173.838L208.222 175.963C208.197 176.705 208.74 177.298 209.481 177.347L219.533 177.767C217.285 180.906 215.977 183.798 216.372 185.799C217.384 189.012 226.399 194.968 237.882 201.245L231.14 236.734L231.634 236.808L230.696 240.663L228.621 241.602C228.572 241.578 228.522 241.553 228.473 241.528L220.866 244.667C217.211 247.336 236.006 248.918 238.179 246.718C238.994 245.408 239.019 243.11 237.512 242.171C237.463 242.196 237.389 242.195 237.339 242.22L237.092 241.306L237.784 237.871L238.895 238.068L249.885 207.424C257.566 211.23 265.493 214.838 272.359 217.68L272.581 217.383L275.644 220.052L275.52 222.326C275.471 222.351 275.446 222.4 275.397 222.425L274.705 230.63C275.397 235.103 285.424 219.113 284.485 216.172C283.695 214.838 281.67 213.775 280.163 214.665C280.163 214.714 280.138 214.788 280.138 214.838L279.225 214.64L276.533 212.49L276.953 211.971L254.528 194.548L256.726 188.419C268.309 183.773 273.075 183.624 276.755 168.772ZM245.563 154.166C244.649 156.118 243.242 158.071 241.217 160.073C240.994 160.147 240.797 160.171 240.599 160.27L240.13 157.403C242.081 156.291 243.908 155.204 245.563 154.166ZM235.709 179.917C237.957 179.646 240.081 179.473 242.106 179.275L241.167 184.168L235.709 179.917Z" fill="black"/>
<path opacity="0.1" d="M150.904 71.2093H143.149V21.2138V17.8775C143.149 13.3302 145.989 10.8835 148.237 9.62315C148.755 9.32659 148.533 8.48633 147.916 8.48633H108.154C108.154 8.48633 101.807 10.1916 101.807 17.8775V21.6586V71.2093H94.0522C92.2 71.2093 91.138 73.3099 92.2494 74.8174L100.745 86.1857L120.7 112.95C121.614 114.161 123.392 114.161 124.306 112.95L140.284 91.5485L152.756 74.8174C153.843 73.3099 152.756 71.2093 150.904 71.2093Z" fill="black"/>
<path d="M166.166 234.979H158.856C154.336 233.249 148.088 232.186 141.198 232.186C134.307 232.186 128.059 233.249 123.54 234.979H116.229V241.429H116.254C116.254 241.528 116.205 241.627 116.205 241.726C116.205 246.99 127.392 251.265 141.173 251.265C154.979 251.265 166.141 246.99 166.141 241.726C166.141 241.627 166.117 241.528 166.092 241.429H166.141V234.979H166.166Z" fill="#48CA9A"/>
<path d="M141.196 244.518C154.986 244.518 166.165 240.247 166.165 234.979C166.165 229.71 154.986 225.439 141.196 225.439C127.407 225.439 116.228 229.71 116.228 234.979C116.228 240.247 127.407 244.518 141.196 244.518Z" fill="#73EFC2"/>
<path d="M141.199 241.725C150.951 241.725 158.857 238.705 158.857 234.979C158.857 231.253 150.951 228.232 141.199 228.232C131.447 228.232 123.541 231.253 123.541 234.979C123.541 238.705 131.447 241.725 141.199 241.725Z" fill="#E2F0F1"/>
<path d="M151.667 233.496C151.371 233.323 151 233.101 150.531 232.878C150.333 232.755 150.062 232.68 149.815 232.557L151.864 231.766L149.568 230.901L147.345 231.741C146.703 231.593 146.061 231.445 145.443 231.371C143.468 231.074 141.566 231.148 140.035 231.544C139.763 231.618 139.491 231.692 139.244 231.791C139.022 231.89 138.775 231.964 138.627 232.063C138.528 232.112 138.479 232.161 138.429 232.211C137.466 232.804 137.59 233.521 138.331 234.287C138.479 234.46 138.701 234.657 138.923 234.83C138.997 234.88 139.072 234.954 139.17 235.003C140.232 235.819 140.455 236.313 139.812 236.659C139.763 236.684 139.664 236.733 139.615 236.758C138.676 237.104 137.269 236.956 135.935 236.437C134.429 235.868 133.539 235.152 133.095 234.583L129.662 235.349C130.033 235.893 131.119 236.634 132.626 237.252L130.403 238.093L132.7 238.982L135.071 238.068C137.417 238.686 139.788 238.809 141.714 238.488C142.406 238.364 143.023 238.216 143.566 238.018C145.641 237.228 145.838 236.288 144.036 234.855C143.813 234.657 143.591 234.484 143.443 234.336C142.702 233.644 142.628 233.274 143.245 233.026C143.912 232.779 145.048 232.705 146.555 233.298C147.197 233.521 147.641 233.768 148.012 233.99H148.036C148.605 234.386 148.901 234.682 149.123 234.88L152.432 234.114C152.26 233.965 152.013 233.743 151.667 233.496Z" fill="#159E99"/>
<path d="M166.166 224.847H158.856C154.336 223.117 148.088 222.054 141.198 222.054C134.307 222.054 128.059 223.117 123.54 224.847H116.229V231.297H116.254C116.254 231.396 116.205 231.495 116.205 231.594C116.205 236.858 127.392 241.133 141.173 241.133C154.979 241.133 166.141 236.858 166.141 231.594C166.141 231.495 166.117 231.396 166.092 231.297H166.141V224.847H166.166Z" fill="#48CA9A"/>
<path d="M141.196 234.386C154.986 234.386 166.165 230.115 166.165 224.847C166.165 219.578 154.986 215.307 141.196 215.307C127.407 215.307 116.228 219.578 116.228 224.847C116.228 230.115 127.407 234.386 141.196 234.386Z" fill="#73EFC2"/>
<path d="M141.199 231.594C150.951 231.594 158.857 228.573 158.857 224.847C158.857 221.121 150.951 218.1 141.199 218.1C131.447 218.1 123.541 221.121 123.541 224.847C123.541 228.573 131.447 231.594 141.199 231.594Z" fill="#E2F0F1"/>
<path d="M151.668 223.388C151.372 223.215 151.001 222.993 150.532 222.771C150.335 222.647 150.063 222.573 149.816 222.449L151.866 221.658L149.569 220.793L147.346 221.634C146.704 221.485 146.062 221.337 145.445 221.263C145 221.189 144.556 221.139 144.111 221.115C142.629 220.991 141.221 221.115 140.036 221.436C139.764 221.51 139.493 221.584 139.246 221.683C138.9 221.831 138.628 221.93 138.431 222.103C137.468 222.696 137.591 223.413 138.332 224.179C138.554 224.426 138.826 224.673 139.172 224.945C139.394 225.118 139.591 225.267 139.74 225.415C140.332 225.983 140.308 226.379 139.591 226.651C138.653 226.997 137.245 226.848 135.912 226.329C135.418 226.156 134.998 225.934 134.627 225.736C133.862 225.291 133.368 224.871 133.072 224.476L129.639 225.267C129.836 225.563 130.256 225.909 130.849 226.255C131.318 226.576 131.935 226.873 132.578 227.145L130.355 227.985L132.652 228.875L135.023 227.96C135.763 228.133 136.455 228.306 137.196 228.405C137.937 228.529 138.653 228.553 139.369 228.553C140.431 228.553 141.394 228.43 142.259 228.232C142.728 228.158 143.123 228.035 143.518 227.886C145.198 227.244 145.642 226.502 144.802 225.514C144.605 225.291 144.333 225.019 143.987 224.723C143.765 224.525 143.543 224.352 143.395 224.204C142.654 223.512 142.58 223.141 143.197 222.894C143.864 222.647 145 222.573 146.507 223.166C147.149 223.388 147.593 223.636 147.964 223.858H147.988C148.556 224.253 148.853 224.55 149.075 224.748L152.384 223.982C152.261 223.833 152.014 223.611 151.668 223.388Z" fill="#159E99"/>
<path d="M166.166 214.739H158.856C154.336 213.009 148.088 211.946 141.198 211.946C134.307 211.946 128.059 213.009 123.54 214.739H116.229V221.189H116.254C116.254 221.288 116.205 221.387 116.205 221.486C116.205 226.75 127.392 231.025 141.173 231.025C154.979 231.025 166.141 226.75 166.141 221.486C166.141 221.387 166.117 221.288 166.092 221.189H166.141V214.739H166.166Z" fill="#48CA9A"/>
<path d="M141.196 224.278C154.986 224.278 166.165 220.007 166.165 214.739C166.165 209.47 154.986 205.199 141.196 205.199C127.407 205.199 116.228 209.47 116.228 214.739C116.228 220.007 127.407 224.278 141.196 224.278Z" fill="#73EFC2"/>
<path d="M141.199 221.485C150.951 221.485 158.857 218.465 158.857 214.738C158.857 211.012 150.951 207.992 141.199 207.992C131.447 207.992 123.541 211.012 123.541 214.738C123.541 218.465 131.447 221.485 141.199 221.485Z" fill="#E2F0F1"/>
<path d="M151.667 213.256C151.371 213.083 151 212.861 150.531 212.638C150.333 212.515 150.062 212.44 149.815 212.317L151.544 211.674L151.889 211.526L149.593 210.661L149.025 210.884L148.135 211.205L147.37 211.501C146.728 211.353 146.086 211.205 145.468 211.131C143.493 210.834 141.591 210.908 140.06 211.304C139.788 211.378 139.516 211.452 139.269 211.551C138.924 211.699 138.652 211.798 138.454 211.971C137.788 212.391 137.639 212.836 137.862 213.355V213.38C137.985 213.602 138.133 213.849 138.356 214.072C138.578 214.319 138.85 214.566 139.195 214.838C139.442 215.011 139.64 215.184 139.788 215.332C140.356 215.9 140.331 216.271 139.64 216.543C138.701 216.889 137.294 216.741 135.96 216.246C135.491 216.073 135.071 215.851 134.701 215.653C133.91 215.208 133.416 214.764 133.12 214.368L129.687 215.159C129.885 215.455 130.305 215.801 130.897 216.172C131.367 216.469 131.984 216.765 132.626 217.062L130.403 217.902L132.7 218.767L135.071 217.853C135.812 218.026 136.503 218.199 137.244 218.298C139.072 218.545 140.85 218.471 142.307 218.149C142.776 218.075 143.171 217.952 143.567 217.803C144.431 217.457 144.974 217.111 145.172 216.716C145.345 216.345 145.271 215.925 144.851 215.456C144.678 215.208 144.382 214.961 144.036 214.665C143.814 214.467 143.591 214.294 143.443 214.146C142.702 213.454 142.628 213.083 143.246 212.836C143.912 212.589 145.048 212.539 146.555 213.108C147.148 213.33 147.592 213.553 147.938 213.75C147.987 213.775 148.012 213.8 148.037 213.8H148.061C148.629 214.195 148.926 214.492 149.148 214.689L152.457 213.923C152.26 213.726 152.013 213.478 151.667 213.256Z" fill="#159E99"/>
<path d="M166.166 204.607H158.856C154.336 202.877 148.088 201.814 141.198 201.814C134.307 201.814 128.059 202.877 123.54 204.607H116.229V211.057H116.254C116.254 211.156 116.205 211.255 116.205 211.353C116.205 216.617 127.392 220.893 141.173 220.893C154.979 220.893 166.141 216.617 166.141 211.353C166.141 211.255 166.117 211.156 166.092 211.057H166.141V204.607H166.166Z" fill="#48CA9A"/>
<path d="M141.196 214.146C154.986 214.146 166.165 209.875 166.165 204.607C166.165 199.338 154.986 195.067 141.196 195.067C127.407 195.067 116.228 199.338 116.228 204.607C116.228 209.875 127.407 214.146 141.196 214.146Z" fill="#73EFC2"/>
<path d="M141.199 211.353C150.951 211.353 158.857 208.332 158.857 204.606C158.857 200.88 150.951 197.859 141.199 197.859C131.447 197.859 123.541 200.88 123.541 204.606C123.541 208.332 131.447 211.353 141.199 211.353Z" fill="#E2F0F1"/>
<path d="M150.531 202.506C150.333 202.382 150.062 202.308 149.815 202.184L151.84 201.418L151.864 201.394L151.815 201.369L149.568 200.529L147.419 201.344L147.345 201.369C146.135 201.072 144.925 200.899 143.764 200.85H143.69C141.986 200.776 140.43 200.998 139.22 201.443C139.022 201.517 138.825 201.591 138.676 201.69C138.578 201.74 138.504 201.789 138.405 201.838C137.145 202.629 137.738 203.568 139.17 204.681C139.417 204.854 139.615 205.027 139.763 205.175C140.331 205.743 140.306 206.114 139.615 206.386C139.467 206.46 139.269 206.509 139.096 206.534C138.207 206.682 137.046 206.509 135.935 206.089C135.466 205.916 135.046 205.694 134.676 205.496C133.885 205.051 133.391 204.606 133.095 204.211L129.662 205.002C129.86 205.298 130.28 205.644 130.872 206.015C131.341 206.312 131.959 206.608 132.601 206.905L130.378 207.745L132.675 208.61L135.046 207.696C135.787 207.869 136.478 208.042 137.219 208.141C138.923 208.363 140.553 208.314 141.961 208.042C142.085 208.042 142.159 208.017 142.282 207.968C142.751 207.893 143.147 207.77 143.542 207.622C144.604 207.201 145.172 206.781 145.246 206.238C145.27 205.941 145.147 205.62 144.826 205.249C144.653 205.002 144.357 204.755 144.011 204.458C142.825 203.47 142.48 202.975 143.147 202.679C143.171 202.654 143.196 202.629 143.221 202.629C143.665 202.481 144.307 202.382 145.147 202.53C145.567 202.58 146.036 202.703 146.555 202.901C148.259 203.544 148.777 204.162 149.123 204.483L152.21 203.766H152.284L152.432 203.717C152.111 203.42 151.568 203 150.531 202.506Z" fill="#159E99"/>
<path d="M178.215 209.352L171.176 207.35C167.299 204.458 161.594 201.715 154.95 199.812C148.307 197.909 142.009 197.242 137.193 197.662L130.179 195.66L128.401 201.864H128.426C128.401 201.962 128.327 202.037 128.303 202.135C126.87 207.202 136.452 214.369 149.715 218.15C162.977 221.931 174.905 220.893 176.338 215.827C176.362 215.728 176.362 215.629 176.387 215.53H176.436L178.215 209.352Z" fill="#48CA9A"/>
<path d="M178.217 209.351C177.352 212.416 172.635 213.997 166.091 213.948C165.819 213.948 165.547 213.948 165.276 213.923C163.152 213.874 160.83 213.627 158.41 213.231C157.323 213.058 156.187 212.811 155.051 212.539C154.977 212.539 154.903 212.514 154.804 212.49C153.742 212.243 152.705 211.971 151.618 211.674C151.594 211.674 151.594 211.674 151.569 211.674C150.729 211.427 149.865 211.155 149.05 210.883C148.902 210.834 148.754 210.76 148.605 210.735C148.457 210.686 148.284 210.612 148.136 210.587C145.938 209.821 143.913 208.98 142.036 208.091C141.962 208.041 141.913 208.017 141.888 208.017C140.925 207.547 140.036 207.053 139.171 206.583C138.455 206.163 137.764 205.768 137.121 205.348C135.64 204.359 134.331 203.346 133.269 202.333C132.157 201.27 131.293 200.232 130.774 199.194C130.231 198.131 129.984 197.143 130.108 196.204C130.132 196.154 130.132 196.105 130.132 196.08C130.132 196.055 130.157 196.031 130.157 196.006C130.182 195.882 130.206 195.784 130.231 195.66C130.577 194.498 131.466 193.535 132.849 192.793C137.319 190.371 146.704 190.445 156.879 193.312C163.349 195.166 168.931 197.835 172.808 200.652C176.784 203.593 178.933 206.756 178.217 209.351Z" fill="#73EFC2"/>
<path d="M171.168 207.354C172.188 203.771 165.412 198.698 156.034 196.024C146.655 193.351 138.225 194.088 137.205 197.671C136.184 201.255 142.96 206.327 152.339 209.001C161.718 211.675 170.148 210.938 171.168 207.354Z" fill="#E2F0F1"/>
<path d="M164.164 203.42C164.016 203.296 163.892 203.173 163.719 203.024C163.571 202.876 163.349 202.703 163.151 202.555L165.325 202.382L163.374 200.924L161.003 201.122C158.335 199.565 155.397 198.774 153.198 198.972C152.828 198.996 152.507 199.07 152.26 199.145C152.112 199.169 151.988 199.219 151.89 199.293C151.099 199.713 151.198 200.454 151.815 201.418C151.791 201.443 151.815 201.443 151.84 201.468C151.964 201.641 152.062 201.863 152.235 202.061C152.482 202.407 152.68 202.703 152.779 202.926C153.026 203.469 152.877 203.741 152.26 203.84H152.186C151.198 203.939 149.864 203.37 148.728 202.53C148.58 202.431 148.481 202.357 148.358 202.234C147.987 201.962 147.691 201.665 147.419 201.393C146.95 200.85 146.654 200.355 146.506 199.96L142.974 199.787C143.023 199.935 143.122 200.133 143.246 200.306C143.27 200.331 143.295 200.331 143.27 200.355C143.394 200.528 143.542 200.726 143.715 200.899C143.863 201.072 144.036 201.27 144.234 201.443C144.382 201.591 144.579 201.789 144.752 201.937C144.925 202.085 145.123 202.234 145.296 202.407L144.974 202.431L142.949 202.604L143.122 202.753L144.876 204.087L145.962 203.988L147.395 203.865C150.21 205.545 153.347 206.311 155.569 206.114C157.372 205.965 157.99 205.372 157.471 204.161C157.323 203.889 157.15 203.568 156.903 203.197C156.088 202.011 155.841 201.418 156.434 201.27C156.483 201.245 156.557 201.22 156.631 201.22C157.348 201.146 158.434 201.393 159.743 202.382C161.126 203.395 161.472 204.112 161.744 204.532C161.768 204.557 161.768 204.581 161.793 204.606L165.176 204.779C165.152 204.705 165.102 204.656 165.078 204.606C164.954 204.285 164.658 203.889 164.164 203.42Z" fill="#159E99"/>
<path d="M243.687 140.969C237.019 146.777 221.682 154.438 206.519 162.05L203.703 157.848L234.475 135.755L230.524 115.762C228.153 106.42 240.057 102.614 241.662 102.392C245.687 116.157 247.91 136.768 243.687 140.969Z" fill="#FBD783"/>
<path d="M222.869 228.109L221.807 232.483L215.633 235.276L229.093 236.289L228.253 233.15L229.043 229.196L222.869 228.109Z" fill="#FBD783"/>
<path d="M228.648 234.016C225.858 234.881 222.919 235.103 219.585 233.348L211.978 236.487C208.323 239.156 227.117 240.738 229.29 238.538C230.13 237.253 230.155 234.93 228.648 234.016Z" fill="#2B3649"/>
<path d="M263.394 208.931L266.778 211.897L266.432 218.668L273.495 207.177L270.309 206.46L267.173 203.964L263.394 208.931Z" fill="#FBD783"/>
<path d="M271.274 206.509C270.755 209.4 269.594 212.094 266.532 214.269L265.84 222.474C266.532 226.947 276.559 210.957 275.62 208.016C274.83 206.682 272.78 205.594 271.274 206.509Z" fill="#2B3649"/>
<path d="M254.159 156.811C248.874 171.836 239.637 170.181 226.77 171.738L268.014 203.791L263.47 209.5C241.786 200.529 209.458 183.847 207.482 177.595C206.074 170.7 224.721 153.425 233.266 151.571L254.159 156.811Z" fill="white"/>
<path d="M267.988 159.974C264.258 175.469 259.541 175.519 247.81 180.264L230.029 229.913L222.274 228.554L233.363 170.156C236.376 161.432 247.193 157.577 254.775 154.907L267.988 159.974Z" fill="white"/>
<path d="M231.882 152.288C238.847 158.664 259.518 163.112 267.89 160.567C272.187 139.783 275.62 120.012 272.434 107.631C267.989 100.983 240.353 98.3384 235.439 105.629C230.746 126.314 246.429 138.547 231.882 152.288Z" fill="#48CA9A"/>
<path d="M277.003 144.528C270.335 150.335 254.999 157.997 239.835 165.608L237.019 161.407L267.792 139.313L263.84 119.32C262.704 114.007 270.977 103.034 273.892 108.644C279.819 121.297 281.227 140.326 277.003 144.528Z" fill="#FBD783"/>
<path d="M233.463 163.31C233.66 164.571 232.648 165.683 231.388 165.633L201.11 164.398C200.147 164.348 199.357 163.656 199.208 162.717L196.492 145.64L195.899 141.933C195.702 140.673 196.714 139.561 197.974 139.61L228.252 140.846C229.215 140.895 230.005 141.587 230.153 142.526L230.351 143.836L233.463 163.31Z" fill="#159E99"/>
<path d="M215.904 155.229L213.261 155.13C212.57 155.106 211.928 154.513 211.829 153.796L211.434 151.053C211.335 150.336 211.804 149.792 212.496 149.817L215.138 149.916C215.83 149.941 216.472 150.534 216.571 151.25L216.966 153.994C217.065 154.686 216.595 155.254 215.904 155.229Z" fill="white"/>
<path d="M249.712 167.709L249.638 169.834C249.613 170.576 248.971 171.12 248.255 171.095L200.615 169.142C199.874 169.118 199.306 168.5 199.355 167.758L199.429 165.633C199.429 165.361 199.504 165.114 199.676 164.941C199.899 164.545 200.343 164.323 200.813 164.348L248.452 166.3C249.144 166.35 249.736 166.967 249.712 167.709Z" fill="#159E99"/>
<path d="M239.711 160.468L236.525 159.826L233.71 165.732L241.588 166.227L242.527 164.645L239.711 160.468Z" fill="#FBD783"/>
<path d="M247.468 103.677C248.53 102.317 248.209 98.042 248.085 94.1621L255.247 92.6299C255.569 96.238 256.112 99.5495 257.248 101.922C254.482 106.123 248.851 106.79 247.468 103.677Z" fill="#FBD783"/>
<path d="M244.772 100.34C246.402 101.65 249.02 101.502 257.639 96.04L258.059 80.6434L242.994 79.3831C240.425 84.8942 241.882 95.9164 244.772 100.34Z" fill="#FBD783"/>
<path d="M237.019 83.8067L241.662 90.1828L250.133 86.2039L249.59 90.1581L250.85 90.6277L252.406 87.1925L254.159 89.5156L251.541 93.2226L254.999 97.3745L258.135 95.7928L260.21 90.0593L258.975 81.3848L254.752 77.5541L247.466 76.269L240.131 75.6265L237.019 83.8067Z" fill="#2A195B"/>
<path d="M143.794 66.6124L131.323 83.3434L115.344 104.745C114.43 105.956 112.652 105.956 111.738 104.745L91.7833 77.9806L83.2877 66.6124C82.1763 65.1295 83.263 63.0042 85.0905 63.0042H92.8453V9.69706C92.8453 1.98644 99.1923 0.305908 99.1923 0.305908H138.954C139.571 0.305908 139.794 1.14617 139.275 1.44273C137.028 2.70312 134.187 5.14977 134.187 9.69706V63.0289H141.942C143.819 63.0042 144.906 65.1295 143.794 66.6124Z" fill="#48CA9A"/>
<path d="M107.957 28.4546C107.315 28.2322 106.624 28.1086 105.833 28.1086C102.326 28.1086 99.832 30.9507 99.832 35.2755C99.8567 39.6745 102.475 42.1211 105.66 42.1211C108.501 42.1211 111.069 40.1194 111.538 36.1652C111.538 36.1405 111.538 36.1405 111.538 36.1405C111.563 35.7204 111.588 35.325 111.588 34.8801C111.588 31.6921 110.254 29.3443 107.957 28.4546ZM105.759 39.6992C104.03 39.6992 103.067 37.7716 103.117 35.1273C103.117 32.5571 104.006 30.5306 105.759 30.5306C107.611 30.5306 108.303 32.5571 108.303 35.1025C108.303 37.8952 107.463 39.6992 105.759 39.6992ZM118.947 28.1086L112.353 39.8228L105.685 51.71H108.155L112.773 43.4557L121.417 28.1086H118.947ZM122.775 37.6974C122.355 37.5986 121.96 37.5739 121.516 37.5739C118.058 37.5739 115.539 40.4406 115.539 44.7161C115.539 49.1398 118.182 51.5864 121.343 51.5864C121.565 51.5864 121.787 51.5864 122.01 51.537C124.874 51.2404 127.27 48.7938 127.27 44.3701C127.295 40.7619 125.665 38.2411 122.775 37.6974ZM121.985 49.115C121.812 49.1645 121.639 49.2139 121.466 49.2139C119.738 49.2139 118.799 47.2615 118.824 44.6419C118.824 42.0717 119.713 40.0452 121.466 40.0452C121.886 40.0452 122.232 40.1441 122.528 40.3418C123.615 40.9596 124.059 42.5907 124.059 44.6172C124.035 47.0638 123.393 48.7938 121.985 49.115Z" fill="white"/>
<path d="M335.092 226.379C338.722 229.295 352.577 230.531 356.726 226.923C356.356 223.562 344.353 217.136 336.697 222.153C338.796 217.013 341.414 212.169 344.526 207.918C346.181 210.661 358.85 212.07 362.456 208.931C362.184 206.336 353.343 201.517 347.193 204.606C350.527 200.776 354.33 197.588 358.652 195.289C359.171 197.613 368.012 201.542 371.396 200.183C371.791 198.453 367.37 193.683 362.604 193.51C364.703 192.719 366.926 192.126 369.247 191.78C370.803 193.584 376.557 195.907 378.904 194.968C379.274 193.288 373.915 187.974 369.346 190.297C367.444 190.569 365.617 190.965 363.863 191.508C364.333 187.579 359.146 184.836 357.961 185.528C357.788 187.455 360.628 191.014 362.431 192.027C359.245 193.189 356.282 194.77 353.565 196.748C354.528 189.556 344.995 184.539 342.822 185.775C342.476 189.63 348.798 197.118 351.91 198.008C348.082 201.097 344.723 204.903 341.859 209.228C341.982 201.493 331.782 196.229 329.387 197.588C328.992 202.184 336.821 211.279 340.229 211.773C336.919 217.309 334.326 223.488 332.474 229.888C331.634 221.041 320.051 215.184 317.236 216.79C316.693 222.82 327.757 235.177 331.363 234.164C330.375 238.291 329.683 242.467 329.313 246.545L330.795 246.743C331.338 239.971 332.82 233.002 335.092 226.379Z" fill="#47E8AD"/>
<path d="M329.707 253.613C335.066 246.792 344.599 237.278 341.883 234.658C339.166 232.038 336.277 237.624 334.622 235.35C332.967 233.076 335.832 230.135 341.364 225.341C346.896 220.547 345.414 213.849 342.352 212.268C339.29 210.686 335.931 221.832 332.449 221.387C328.966 220.942 337.882 211.996 334.795 205.62C331.708 199.244 328.843 198.502 327.707 203.643C326.571 208.783 325.435 212.169 322.496 209.599C319.557 207.028 317.779 200.158 313.457 203.272C309.135 206.361 317.31 211.452 314.025 215.036C310.74 218.644 304.615 214.096 302.615 216.148C300.615 218.199 304.27 223.685 308.987 224.352C313.704 225.02 317.878 225.119 317.038 228.653C316.198 232.211 310.839 227.244 307.554 229.468C304.27 231.692 314.321 239.205 319.829 240.737C325.336 242.27 322.891 244.074 319.582 243.827C313.877 243.382 318.125 247.608 322.57 248.918C327.065 250.277 326.497 257.691 329.707 253.613Z" fill="#46E9AE"/>
<path d="M331.113 242.986C331.509 242.937 331.854 242.789 332.151 242.591C332.225 242.542 332.299 242.492 332.373 242.467C332.892 242.171 333.386 241.85 333.855 241.528C334.991 240.762 336.077 239.996 336.892 239.032C336.991 238.933 336.967 238.76 336.868 238.686C336.769 238.587 336.596 238.612 336.522 238.711C335.756 239.625 334.694 240.367 333.608 241.108C333.139 241.43 332.645 241.726 332.151 242.023C332.077 242.072 332.002 242.121 331.928 242.171C331.681 242.319 331.434 242.443 331.163 242.492C331.212 241.133 331.188 239.749 331.089 238.34C331.089 238.34 331.089 238.34 331.089 238.316C331.089 238.316 331.089 238.316 331.089 238.291C330.99 236.808 330.842 235.325 330.595 233.842C330.323 232.211 329.879 230.729 329.434 229.369C330.249 229.443 331.064 229.147 331.756 228.776C334.349 227.442 336.695 225.539 338.522 223.265C338.597 223.166 338.596 223.018 338.473 222.919C338.374 222.82 338.201 222.845 338.127 222.969C336.349 225.193 334.077 227.071 331.533 228.356C330.842 228.702 330.027 229.023 329.261 228.875C329.212 228.751 329.187 228.603 329.138 228.48C327.952 224.946 326.52 221.14 324.569 217.507C325.631 216.642 326.717 215.752 327.508 214.566C327.804 214.121 328.026 213.676 328.273 213.231L329.385 211.081C329.459 210.958 329.409 210.809 329.286 210.735C329.162 210.661 329.014 210.711 328.94 210.834L327.829 212.984C327.606 213.429 327.384 213.874 327.088 214.269C326.372 215.357 325.334 216.197 324.322 217.037C322.939 214.541 321.309 212.144 319.284 210.043C319.185 209.945 319.037 209.945 318.938 210.043C318.839 210.142 318.839 210.291 318.938 210.389C322.05 213.627 324.272 217.532 325.976 221.486C325.73 221.634 325.408 221.733 325.112 221.807C323.309 222.227 321.432 222.647 319.58 222.474C318.987 222.425 318.37 222.301 317.654 222.104C315.826 221.609 314.122 220.818 312.541 219.756C312.418 219.682 312.27 219.706 312.196 219.83C312.122 219.929 312.146 220.052 312.22 220.151C312.245 220.176 312.245 220.176 312.27 220.201C313.875 221.288 315.653 222.104 317.53 222.598C318.271 222.796 318.913 222.919 319.531 222.993C321.482 223.191 323.383 222.746 325.211 222.326C325.532 222.252 325.853 222.153 326.174 221.98C327.137 224.229 327.952 226.503 328.668 228.653C329.187 230.185 329.755 232.038 330.076 233.966C330.323 235.35 330.471 236.734 330.545 238.093C328.545 238.093 326.248 238.044 324.075 237.5C322.42 237.105 320.099 236.24 318.395 234.386C318.37 234.361 318.321 234.312 318.296 234.287C318.197 234.188 318.049 234.188 317.95 234.263C317.851 234.361 317.827 234.51 317.925 234.609C317.95 234.633 317.975 234.683 318.024 234.707C319.432 236.264 321.482 237.376 323.951 237.97C326.199 238.513 328.545 238.563 330.595 238.563C330.965 244.939 329.854 251.018 327.261 256.035C327.211 256.134 327.236 256.258 327.31 256.332C327.335 256.356 327.36 256.381 327.384 256.381C327.508 256.455 327.656 256.406 327.73 256.282C329.706 252.353 330.866 247.806 331.113 242.986Z" fill="#FDFDFD"/>
<path d="M330.079 255.739C336.574 255.343 346.7 255.912 346.798 253.07C346.922 250.228 342.328 251.414 342.773 249.338C343.218 247.262 346.28 247.41 351.763 248.102C357.221 248.794 360.234 244.618 359.591 242.122C358.949 239.626 350.997 243.308 349.515 241.133C348.009 238.958 357.492 239.477 359.517 234.535C361.542 229.592 360.53 227.64 357.072 229.567C353.615 231.52 351.17 232.582 351.12 229.641C351.071 226.7 354.035 222.277 350.133 221.412C346.23 220.547 347.49 227.664 343.835 227.64C340.18 227.615 339.636 221.881 337.488 221.807C335.339 221.733 334.104 226.527 336.08 229.493C338.081 232.459 340.106 234.856 337.71 236.166C335.315 237.476 335.389 231.989 332.499 231.248C329.61 230.506 330.425 239.922 332.326 243.777C334.228 247.633 332.005 247.163 330.474 245.186C327.856 241.776 327.634 246.249 329.116 249.412C330.647 252.575 326.201 255.986 330.079 255.739Z" fill="#159E99"/>
<path d="M336.746 251.216C336.968 251.414 337.24 251.513 337.487 251.612C337.561 251.636 337.61 251.636 337.659 251.661C338.079 251.809 338.499 251.933 338.919 252.032C339.907 252.279 340.87 252.501 341.833 252.477C341.932 252.477 342.031 252.378 342.006 252.279C342.006 252.18 341.907 252.081 341.808 252.106C340.895 252.131 339.956 251.908 338.993 251.661C338.573 251.562 338.153 251.439 337.758 251.29C337.709 251.266 337.635 251.241 337.561 251.241C337.338 251.167 337.141 251.093 336.993 250.969C337.783 250.327 338.549 249.61 339.289 248.844C339.289 248.844 339.289 248.844 339.289 248.819C340.055 248.028 340.821 247.188 341.537 246.298C342.302 245.334 342.92 244.321 343.463 243.407C343.834 243.901 344.402 244.198 344.97 244.42C347.019 245.211 349.267 245.582 351.44 245.433C351.539 245.433 351.613 245.359 351.613 245.236C351.613 245.137 351.514 245.063 351.415 245.063C349.267 245.186 347.093 244.84 345.093 244.074C344.55 243.852 343.957 243.555 343.661 243.061C343.71 242.987 343.784 242.888 343.809 242.789C345.192 240.367 346.624 237.624 347.662 234.732C348.674 234.905 349.736 235.054 350.773 234.905C351.168 234.856 351.539 234.757 351.909 234.658L353.687 234.213C353.786 234.189 353.86 234.09 353.836 233.991C353.811 233.892 353.712 233.818 353.613 233.843L351.835 234.288C351.489 234.386 351.119 234.485 350.749 234.535C349.785 234.683 348.798 234.535 347.834 234.362C348.526 232.335 349.045 230.21 349.242 228.035C349.242 227.936 349.168 227.837 349.069 227.837C348.97 227.837 348.872 227.911 348.872 228.01C348.6 231.371 347.538 234.584 346.18 237.525C345.957 237.451 345.76 237.327 345.562 237.204C344.426 236.388 343.241 235.573 342.426 234.436C342.179 234.09 341.932 233.67 341.685 233.175C341.043 231.89 340.623 230.531 340.425 229.147C340.401 229.048 340.327 228.974 340.203 228.974C340.104 228.974 340.055 229.048 340.03 229.147C340.03 229.172 340.03 229.172 340.03 229.197C340.228 230.655 340.672 232.039 341.314 233.348C341.561 233.867 341.833 234.287 342.105 234.658C342.969 235.844 344.179 236.685 345.34 237.525C345.538 237.673 345.76 237.797 346.007 237.896C345.217 239.576 344.377 241.158 343.512 242.641C342.92 243.703 342.154 244.939 341.24 246.101C340.574 246.941 339.882 247.707 339.166 248.448C338.153 247.312 337.042 246.002 336.252 244.519C335.634 243.382 334.967 241.652 335.165 239.774C335.165 239.749 335.165 239.7 335.165 239.675C335.165 239.576 335.091 239.477 334.992 239.477C334.893 239.477 334.795 239.552 334.795 239.65C334.795 239.675 334.795 239.724 334.795 239.749C334.646 241.331 335.042 243.036 335.931 244.717C336.746 246.249 337.882 247.583 338.919 248.745C335.535 252.155 331.559 254.553 327.46 255.615C327.386 255.64 327.336 255.714 327.312 255.788C327.312 255.813 327.312 255.838 327.312 255.862C327.336 255.961 327.435 256.035 327.534 255.986C330.794 255.121 333.93 253.49 336.746 251.216Z" fill="#FDFDFD"/>
<path d="M337.374 110.472H333.102C333.102 110.102 333.102 109.682 333.077 109.311C332.608 95.1995 323.322 83.2876 310.578 78.9133C307.195 77.7518 303.564 77.1092 299.761 77.1092V72.8091C301.811 72.8091 303.836 72.9821 305.787 73.3033C323.668 76.1701 337.374 91.7643 337.374 110.472Z" fill="#159E99"/>
<path d="M326.731 110.473H322.459C322.459 108.298 322.138 106.172 321.57 104.171C320.113 99.1044 316.927 94.7795 312.704 91.7892C309.024 89.2437 304.578 87.7362 299.738 87.7362V83.4607C304.702 83.4607 309.369 84.8199 313.37 87.1677C319.866 90.9983 324.657 97.4733 326.188 105.11C326.558 106.864 326.731 108.644 326.731 110.473Z" fill="#159E99"/>
<path d="M316.086 110.472H311.813C311.813 108.446 311.319 106.543 310.43 104.887C309.319 102.786 307.59 101.031 305.491 99.8699H305.466C303.762 98.9307 301.811 98.4118 299.761 98.4118V94.1362C303.243 94.1362 306.454 95.2484 309.121 97.1019C311.665 98.8813 313.665 101.377 314.851 104.269C315.641 106.172 316.086 108.273 316.086 110.472Z" fill="#159E99"/>
<path d="M306.876 108.62C306.876 111.512 304.505 113.859 301.615 113.859C298.726 113.859 296.38 111.512 296.38 108.62C296.38 105.729 298.726 103.356 301.615 103.356C303.739 103.356 305.591 104.641 306.406 106.495C306.703 107.137 306.876 107.854 306.876 108.62Z" fill="#159E99"/>
</svg>
