<svg width="1919" height="968" viewBox="0 0 1919 968" fill="none" xmlns="http://www.w3.org/2000/svg">
<path fill-rule="evenodd" clip-rule="evenodd" d="M0.132263 0H959.114H1918.1V934.776H0.132263L0.132263 0Z" fill="#EFF8F2"/>
<path fill-rule="evenodd" clip-rule="evenodd" d="M1917.72 738.59C1701.53 1247.01 1393.93 406.212 959.109 417.117C794.434 421.247 589.958 566.323 405.041 811.308C220.123 1056.29 59.6466 779.504 10.8698 848.813C0.227174 863.936 5.12578 967.1 5 967.5C3.62835 966.353 1917.72 936 1917.72 936C1917.72 936 1918.74 737.402 1917.72 738.59Z" fill="white"/>
<path fill-rule="evenodd" clip-rule="evenodd" d="M10.8684 6.70182H884.597C911.43 6.70182 937.139 17.4863 955.941 36.6308L959.249 39.999L963.544 35.7355C982.276 17.1383 1007.6 6.70182 1034 6.70182H1907.63V0H10.8684V6.70182Z" fill="white"/>
</svg>
