<svg width="161" height="52" viewBox="0 0 161 52" fill="none" xmlns="http://www.w3.org/2000/svg">
<path d="M50.1256 24.9424C50.1302 28.1679 49.5057 31.3982 48.2707 34.386C47.0451 37.3738 45.2369 40.1286 42.9627 42.4312C40.6884 44.7339 37.9715 46.6123 34.9795 47.8848C31.9923 49.1667 28.744 49.8425 25.4772 49.8752C22.2149 49.9078 18.9387 49.3018 15.8956 48.0759C12.857 46.8547 10.0515 45.0275 7.70739 42.7156C5.36791 40.4036 3.47583 37.6302 2.20356 34.5818C0.931296 31.538 0.274192 28.2379 0.269531 24.9377C0.274192 21.6376 0.931296 18.3375 2.20356 15.2937C3.47117 12.2499 5.36791 9.47184 7.70739 7.15989C10.0515 4.84793 12.857 3.02074 15.9002 1.7995C18.9434 0.573603 22.2196 -0.0323543 25.4818 0.000274108C28.744 0.0375637 31.9969 0.713438 34.9842 1.99527C37.9761 3.26778 40.6931 5.14625 42.9673 7.44888C45.2415 9.75152 47.0497 12.5063 48.2754 15.4941C49.5057 18.4866 50.1349 21.7168 50.1256 24.9424ZM50.1256 24.9424C50.1162 21.7168 49.4778 18.4913 48.2335 15.5174C46.9892 12.5436 45.139 9.83076 42.8508 7.57007C40.5579 5.30939 37.813 3.52881 34.8444 2.33088C31.8711 1.13295 28.6695 0.540976 25.4818 0.578266C22.2895 0.615556 19.1158 1.27744 16.1985 2.52665C13.2765 3.77119 10.6201 5.6077 8.39712 7.85907C6.17415 10.1104 4.40789 12.7999 3.21019 15.7179C2.00783 18.6358 1.39267 21.7914 1.39733 24.9424C1.39267 28.098 2.00317 31.2537 3.21019 34.1669C4.40323 37.0848 6.17415 39.779 8.39712 42.0304C10.6154 44.2817 13.2765 46.1182 16.1985 47.3628C19.1158 48.612 22.2942 49.2739 25.4818 49.3112C28.6741 49.3438 31.8758 48.7518 34.849 47.5539C37.8223 46.3606 40.5672 44.5754 42.8555 42.3147C45.1437 40.054 46.9938 37.3412 48.2381 34.3673C49.4778 31.3935 50.1209 28.1726 50.1256 24.9424Z" fill="#38795F"/>
<path d="M0.832484 27.0537C0.827824 23.8281 1.45231 20.5979 2.68729 17.6101C3.91295 14.6222 5.72115 11.8675 7.99539 9.56483C10.2696 7.26219 12.9866 5.38373 15.9785 4.11122C18.9658 2.82938 22.214 2.15351 25.4809 2.12088C28.7431 2.08825 32.0193 2.69421 35.0625 3.92011C38.101 5.14134 40.9065 6.96853 43.2507 9.28049C45.5901 11.5925 47.4822 14.3659 48.7545 17.4143C50.0268 20.4581 50.6839 23.7582 50.6885 27.0583C50.6839 30.3585 50.0268 33.6586 48.7545 36.7024C47.4869 39.7461 45.5901 42.5242 43.2507 44.8362C40.9065 47.1481 38.101 48.9753 35.0578 50.1966C32.0193 51.4225 28.7384 52.0284 25.4762 51.9958C22.214 51.9585 18.9611 51.2826 15.9738 50.0008C12.9819 48.7283 10.265 46.8498 7.99073 44.5472C5.71649 42.2445 3.90829 39.4898 2.68263 36.5019C1.45231 33.5094 0.827824 30.2792 0.832484 27.0537ZM0.832484 27.0537C0.841805 30.2792 1.48027 33.5048 2.72457 36.4786C3.96888 39.4525 5.81902 42.1653 8.10723 44.426C10.4001 46.6867 13.145 48.4673 16.1137 49.6652C19.0869 50.8631 22.2886 51.4551 25.4762 51.4178C28.6685 51.3805 31.8422 50.7186 34.7596 49.4694C37.6816 48.2249 40.338 46.3884 42.5609 44.137C44.7839 41.8856 46.5502 39.1961 47.7479 36.2782C48.9502 33.3603 49.5654 30.2046 49.5607 27.0537C49.5654 23.898 48.9549 20.7424 47.7479 17.8291C46.5502 14.9112 44.7839 12.2171 42.5609 9.96569C40.3426 7.71433 37.6816 5.87781 34.7596 4.63327C31.8422 3.38407 28.6639 2.72218 25.4762 2.68489C22.2839 2.65226 19.0823 3.24423 16.109 4.44216C13.1357 5.63543 10.3908 7.42067 8.10257 9.68136C5.81436 11.942 3.96422 14.6549 2.71991 17.6287C1.48493 20.6026 0.841805 23.8235 0.832484 27.0537Z" fill="#38795F"/>
<path d="M1.7648 26.2617C1.76014 23.0361 2.38462 19.8059 3.6196 16.8181C4.84526 13.8302 6.65346 11.0755 8.92769 8.77283C11.2019 6.4702 13.9189 4.59173 16.9108 3.31922C19.8981 2.03739 23.1463 1.36152 26.4132 1.32889C29.6754 1.29626 32.9516 1.90222 35.9948 3.12811C39.0333 4.34935 41.8388 6.17654 44.1829 8.4885C46.5224 10.8005 48.4145 13.5739 49.6868 16.6223C50.959 19.6661 51.6161 22.9662 51.6208 26.2663C51.6161 29.5665 50.959 32.8666 49.6868 35.9104C48.4192 38.9541 46.5224 41.7322 44.1829 44.0442C41.8388 46.3561 39.0333 48.1833 35.9901 49.4046C32.9516 50.6305 29.6707 51.2364 26.4085 51.2038C23.1463 51.1665 19.8934 50.4906 16.9061 49.2088C13.9142 47.9363 11.1973 46.0578 8.92303 43.7552C6.6488 41.4526 4.8406 38.6978 3.61494 35.7099C2.38928 32.7221 1.76014 29.4919 1.7648 26.2617ZM1.7648 26.2617C1.77412 29.4872 2.41258 32.7128 3.65688 35.6866C4.90119 38.6605 6.75133 41.3733 9.03954 43.634C11.3324 45.8947 14.0773 47.6753 17.046 48.8732C20.0192 50.0711 23.2209 50.6631 26.4085 50.6258C29.6008 50.5885 32.7745 49.9266 35.6919 48.6774C38.6139 47.4329 41.2703 45.5964 43.4932 43.345C45.7162 41.0936 47.4824 38.4041 48.6801 35.4862C49.8825 32.5683 50.4977 29.4127 50.493 26.2617C50.4977 23.106 49.8872 19.9504 48.6801 17.0371C47.4824 14.1192 45.7162 11.4251 43.4932 9.1737C41.2796 6.92234 38.6232 5.08582 35.6965 3.84128C32.7792 2.59207 29.6008 1.93019 26.4132 1.8929C23.2209 1.86027 20.0192 2.45224 17.046 3.65017C14.0727 4.84343 11.3278 6.62868 9.03954 8.88936C6.75133 11.15 4.90119 13.8629 3.65688 16.8367C2.41724 19.8106 1.77412 23.0361 1.7648 26.2617Z" fill="#38795F"/>
<path d="M24.7356 42.5337C24.456 42.5337 24.1903 42.4638 23.9573 42.3286C23.454 42.0303 23.2396 41.4896 23.1091 41.0468C22.6851 39.6391 22.6851 38.2966 22.6851 36.875V36.8004C22.7037 33.2905 22.727 29.7853 22.741 26.2754C22.7456 25.7254 22.7456 25.1707 22.7503 24.6207C22.7503 24.616 22.7503 24.6113 22.7503 24.6113C22.7596 23.1011 22.7643 21.5909 22.7689 20.076C22.7736 19.3209 22.7596 18.5471 22.7456 17.7967C22.7177 16.0394 22.6851 14.2262 22.8575 12.4549C22.9321 11.6672 23.1418 10.5485 24.0971 9.86795C24.5958 9.5137 25.2482 9.35988 25.7935 9.47175C26.2409 9.56498 26.6044 9.81202 26.8421 10.1989C27.117 10.6417 27.1729 11.1358 27.2102 11.5973C27.4572 14.7622 27.3407 20.654 23.8781 24.8258C23.8734 25.3105 23.8734 25.7953 23.8688 26.2801C23.8641 27.5619 23.8548 28.8437 23.8501 30.1302C23.9806 30.0696 24.1298 30.0137 24.2975 29.9531C24.4187 29.9111 24.5678 29.8552 24.6191 29.8272C25.0292 29.5988 25.4253 29.3378 25.7888 29.0395C26.8327 28.2005 27.5644 27.0958 28.3334 25.9258C28.585 25.5436 28.846 25.152 29.1163 24.7698C29.298 24.5135 29.6476 24.4575 29.9039 24.6346C30.1602 24.8164 30.2161 25.166 30.039 25.4224C29.778 25.7906 29.5264 26.1728 29.2794 26.5457C28.4918 27.7344 27.6809 28.9649 26.4972 29.9158C26.0824 30.2514 25.6304 30.5497 25.1643 30.8107C25.0339 30.8807 24.8754 30.9413 24.6843 31.0112C24.647 31.0252 24.6051 31.0391 24.5585 31.0578C25.8168 32.9968 26.8327 36.0266 26.9399 38.2873L26.9492 38.4365C27.0098 39.681 27.1124 41.7692 25.3601 42.4125C25.1504 42.4964 24.9406 42.5337 24.7356 42.5337ZM23.8408 32.046C23.8315 33.6308 23.8222 35.2202 23.8129 36.8051V36.875C23.8129 38.2081 23.8129 39.4713 24.1903 40.7205C24.2649 40.9628 24.3674 41.2565 24.5352 41.3544C24.6377 41.415 24.8102 41.415 24.9686 41.3591C25.868 41.0281 25.8867 39.8675 25.8168 38.4971L25.8075 38.3433C25.7236 36.4322 24.8847 33.8219 23.8408 32.046ZM25.4207 10.5671C25.2016 10.5671 24.95 10.651 24.7496 10.7909C24.3022 11.1078 24.0645 11.6532 23.9806 12.5668C23.8175 14.2728 23.8455 16.058 23.8781 17.7827C23.8921 18.5378 23.9061 19.3209 23.9014 20.0853C23.8967 21.0222 23.8921 21.9545 23.8874 22.8914C26.2362 19.1484 26.2921 14.38 26.0824 11.6905C26.0545 11.3502 26.0218 11.0239 25.8774 10.7955C25.8075 10.679 25.7049 10.6091 25.5651 10.5811C25.5232 10.5718 25.4719 10.5671 25.4207 10.5671Z" fill="#38795F"/>
<path d="M61.2587 22.1088C61.2587 21.7313 61.5523 21.4609 61.9065 21.4609C62.2607 21.4609 62.5543 21.7313 62.5543 22.1088V29.2964C62.5543 31.5571 64.3578 33.361 66.5901 33.389C68.8504 33.361 70.6819 31.5571 70.6819 29.2964V22.1088C70.6819 21.7313 71.0035 21.4609 71.3297 21.4609C71.7072 21.4609 72.0008 21.7313 72.0008 22.1088V29.2964C72.0008 32.2563 69.6054 34.6801 66.5901 34.6801C63.6308 34.6801 61.2587 32.2563 61.2587 29.2964V22.1088Z" fill="#38795F"/>
<path d="M86.8013 26.8723C86.8013 24.6396 84.9977 22.8078 82.7375 22.8078C80.5052 22.8078 78.7016 24.6396 78.6457 26.8723V34.0319V34.1391C78.6177 34.2464 78.5898 34.3536 78.5106 34.4375C78.4034 34.6006 78.2123 34.6798 78.0259 34.6798H77.8628C77.6764 34.6239 77.5133 34.4934 77.434 34.3303C77.4061 34.3023 77.4061 34.2743 77.4061 34.251C77.4061 34.2277 77.3781 34.1951 77.3781 34.1951V34.0319V26.8723V26.6579V22.1645C77.3781 21.8149 77.6484 21.5166 78.0259 21.5166C78.3754 21.5166 78.6457 21.8149 78.6457 22.1645V23.4277C79.6151 22.2717 81.0924 21.5166 82.7375 21.5166C85.6968 21.5166 88.0922 23.9404 88.0922 26.8723V34.0319C88.0922 34.4095 87.7986 34.6798 87.4444 34.6798C87.0902 34.6798 86.7966 34.4095 86.7966 34.0319V26.8723H86.8013Z" fill="#38795F"/>
<path d="M103.895 32.1256C102.739 33.6871 100.908 34.6846 98.8338 34.6846C95.2827 34.6846 92.4539 31.7248 92.4539 28.117C92.4539 24.458 95.278 21.4934 98.8338 21.4934C100.908 21.4934 102.735 22.5142 103.895 24.0757V16.4826C103.895 16.133 104.193 15.8347 104.566 15.8347C104.916 15.8347 105.214 16.1284 105.214 16.4826V27.842V28.1123V34.0367C105.214 34.3863 104.92 34.6846 104.566 34.6846C104.189 34.6846 103.895 34.3863 103.895 34.0367V32.1256ZM103.895 28.3268V27.8979C103.788 25.0732 101.555 22.8079 98.8338 22.8079C96.0609 22.8079 93.7727 25.1758 93.7727 28.1123C93.7727 31.0209 96.0609 33.3609 98.8338 33.3609C101.555 33.3609 103.788 31.1281 103.895 28.3268Z" fill="#38795F"/>
<path d="M109.762 28.1126C109.762 24.4535 112.615 21.489 116.17 21.489C119.563 21.489 122.252 24.1832 122.522 27.6278V27.6558V27.735C122.522 28.0846 122.224 28.327 121.875 28.327H111.053C111.188 31.2076 113.449 33.3891 116.166 33.3891C117.913 33.3891 119.53 32.4755 120.421 30.9932C120.607 30.6716 121.012 30.6157 121.283 30.7788C121.581 30.9932 121.688 31.3708 121.497 31.6924C120.369 33.4963 118.403 34.6802 116.17 34.6802C112.615 34.6802 109.762 31.7204 109.762 28.1126ZM111.137 27.0638H121.124C120.695 24.5887 118.594 22.7848 116.17 22.7848C113.691 22.7802 111.622 24.5608 111.137 27.0638Z" fill="#38795F"/>
<path d="M126.535 22.1645C126.535 21.787 126.833 21.5166 127.206 21.5166C127.528 21.5166 127.826 21.787 127.826 22.1645V25.0731C127.882 24.9659 127.933 24.8587 128.012 24.7515C129.01 23.19 130.757 21.5213 133.288 21.5213C133.637 21.5213 133.936 21.7916 133.936 22.1692C133.936 22.5188 133.637 22.8171 133.288 22.8171C131.564 22.8171 130.38 23.7866 129.466 24.9706C128.576 26.1545 128.068 27.5016 127.877 28.0376C127.821 28.1448 127.821 28.2008 127.821 28.252V34.0413C127.821 34.4188 127.523 34.6892 127.201 34.6892C126.824 34.6892 126.53 34.4188 126.53 34.0413V22.1645H126.535Z" fill="#38795F"/>
<path d="M136.981 31.9905C137.736 31.9905 138.327 32.5825 138.327 33.3376C138.327 34.0927 137.736 34.6847 136.981 34.6847C136.226 34.6847 135.634 34.0927 135.634 33.3376C135.634 32.5825 136.226 31.9905 136.981 31.9905Z" fill="#38795F"/>
<path d="M153.178 22.1365V34.0365C153.178 34.3861 152.88 34.6844 152.53 34.6844C152.181 34.6844 151.883 34.3861 151.883 34.0365V32.0695C150.75 33.631 148.951 34.6798 146.929 34.6798C143.457 34.6798 140.684 31.6919 140.684 28.0841C140.684 24.4764 143.457 21.4885 146.929 21.4885C148.947 21.4885 150.75 22.5093 151.883 24.0708V22.1318C151.883 21.7542 152.181 21.4839 152.53 21.4839C152.885 21.4885 153.178 21.7589 153.178 22.1365ZM151.887 28.0841C151.887 25.1243 149.655 22.7517 146.933 22.7517C144.24 22.7517 141.979 25.1196 141.979 28.0841C141.979 31.044 144.24 33.3886 146.933 33.3886C149.655 33.3886 151.887 31.0487 151.887 28.0841Z" fill="#38795F"/>
<path d="M158.809 17.83C158.809 17.4804 159.107 17.1821 159.457 17.1821C159.834 17.1821 160.128 17.4758 160.128 17.83V18.45C160.128 18.8275 159.834 19.1492 159.457 19.1492C159.107 19.1492 158.809 18.8275 158.809 18.45V17.83ZM158.809 22.137C158.809 21.7594 159.107 21.4891 159.457 21.4891C159.834 21.4891 160.128 21.7594 160.128 22.137V34.037C160.128 34.3866 159.834 34.685 159.457 34.685C159.107 34.685 158.809 34.3866 158.809 34.037V22.137Z" fill="#38795F"/>
</svg>
