<svg width="263" height="239" viewBox="0 0 263 239" fill="none" xmlns="http://www.w3.org/2000/svg">
<path d="M7.13559 209.902H2.71176V188.765H7.13559V209.902ZM10.285 209.902V194.199H14.4159V196.997H14.5038C14.9334 196.001 15.5584 195.239 16.3788 194.712C17.2088 194.175 18.2196 193.906 19.411 193.906C21.1493 193.906 22.492 194.424 23.4393 195.459C24.3866 196.494 24.8602 197.935 24.8602 199.78V209.902H20.5829V200.674C20.5829 199.639 20.3387 198.843 19.8504 198.286C19.3622 197.729 18.6444 197.451 17.6971 197.451C16.7498 197.451 15.9881 197.769 15.412 198.403C14.8456 199.038 14.5623 199.868 14.5623 200.894V209.902H10.285ZM28.7127 190.581H32.9901V194.199H35.8905V197.422H32.9901V204.937C32.9901 206.118 33.6053 206.709 34.8358 206.709C35.2362 206.709 35.5829 206.685 35.8758 206.636V209.785C35.3778 209.902 34.6991 209.961 33.8397 209.961C31.994 209.961 30.6756 209.629 29.8846 208.965C29.1034 208.301 28.7127 207.202 28.7127 205.669V197.422H26.5008V194.199H28.7127V190.581ZM45.0457 197.026C44.118 197.026 43.3416 197.344 42.7166 197.979C42.1014 198.613 41.7547 199.424 41.6766 200.41H48.3416C48.2928 199.404 47.9657 198.589 47.3602 197.964C46.7645 197.339 45.993 197.026 45.0457 197.026ZM48.4002 205.098H52.326C52.0916 206.641 51.3202 207.886 50.0116 208.833C48.7127 209.771 47.0965 210.239 45.1629 210.239C42.7508 210.239 40.8563 209.517 39.4793 208.071C38.1122 206.626 37.4286 204.644 37.4286 202.124C37.4286 199.614 38.1122 197.612 39.4793 196.118C40.8465 194.614 42.6873 193.862 45.0018 193.862C47.2772 193.862 49.0887 194.575 50.4364 196.001C51.784 197.427 52.4579 199.336 52.4579 201.729V203.032H41.6327V203.296C41.6327 204.419 41.9598 205.332 42.6141 206.035C43.2782 206.729 44.1522 207.075 45.2362 207.075C46.0174 207.075 46.6913 206.899 47.2577 206.548C47.8241 206.187 48.2049 205.703 48.4002 205.098ZM61.9207 206.562C62.995 206.562 63.8446 206.162 64.4696 205.361C65.1043 204.551 65.4217 203.438 65.4217 202.021C65.4217 200.605 65.1043 199.478 64.4696 198.638C63.8348 197.798 62.9852 197.378 61.9207 197.378C60.8661 197.378 60.0262 197.798 59.4012 198.638C58.786 199.468 58.4784 200.596 58.4784 202.021C58.4784 203.447 58.786 204.561 59.4012 205.361C60.0164 206.162 60.8563 206.562 61.9207 206.562ZM61.8475 215.82C59.8065 215.82 58.1268 215.371 56.8084 214.473C55.4998 213.584 54.7577 212.432 54.5819 211.016H58.7713C58.9373 211.562 59.3084 212.002 59.8846 212.334C60.4706 212.676 61.1639 212.847 61.9647 212.847C63.0487 212.847 63.8934 212.568 64.4989 212.012C65.1043 211.465 65.4071 210.728 65.4071 209.8V207.046H65.3192C64.9481 207.896 64.328 208.579 63.4588 209.097C62.5897 209.604 61.5936 209.858 60.4706 209.858C58.537 209.858 56.9891 209.155 55.827 207.749C54.6747 206.343 54.0985 204.424 54.0985 201.992C54.0985 199.502 54.6747 197.539 55.827 196.104C56.9793 194.668 58.5516 193.95 60.5438 193.95C61.6571 193.95 62.6385 194.219 63.4881 194.756C64.3377 195.293 64.9725 196.021 65.3924 196.938H65.4657V194.199H69.6844V209.683C69.6844 211.548 68.9666 213.037 67.5311 214.15C66.1053 215.264 64.2108 215.82 61.8475 215.82ZM72.4823 209.902V194.199H76.6131V197.026H76.701C76.9745 196.03 77.4334 195.269 78.078 194.741C78.7225 194.214 79.5086 193.95 80.4364 193.95C80.8856 193.95 81.2909 194.004 81.6522 194.111V197.876C81.2518 197.71 80.7342 197.627 80.0995 197.627C79.0448 197.627 78.2245 197.935 77.6385 198.55C77.0526 199.165 76.7596 200.024 76.7596 201.128V209.902H72.4823ZM89.0936 207.061C90.0409 207.061 90.8416 206.787 91.4959 206.24C92.16 205.684 92.492 204.985 92.492 204.146V203.003L89.1815 203.208C88.3807 203.267 87.7606 203.467 87.3211 203.809C86.8914 204.15 86.6766 204.6 86.6766 205.156C86.6766 205.742 86.8963 206.206 87.3358 206.548C87.7752 206.89 88.3612 207.061 89.0936 207.061ZM87.6873 210.151C86.1737 210.151 84.9188 209.707 83.9227 208.818C82.9266 207.93 82.4286 206.787 82.4286 205.391C82.4286 203.965 82.9559 202.847 84.0106 202.036C85.0653 201.226 86.5741 200.762 88.537 200.645L92.492 200.41V199.37C92.492 198.647 92.2528 198.081 91.7743 197.671C91.3055 197.261 90.6659 197.056 89.8553 197.056C89.0741 197.056 88.4344 197.231 87.9364 197.583C87.4481 197.935 87.1502 198.408 87.0428 199.004H83.1317C83.2098 197.461 83.869 196.221 85.1092 195.283C86.3495 194.336 87.995 193.862 90.0457 193.862C92.0575 193.862 93.6688 194.341 94.8797 195.298C96.0907 196.255 96.6961 197.524 96.6961 199.106V209.902H92.5653V207.5H92.4774C92.0477 208.32 91.3934 208.97 90.5145 209.448C89.6356 209.917 88.6932 210.151 87.6873 210.151ZM100.607 190.581H104.885V194.199H107.785V197.422H104.885V204.937C104.885 206.118 105.5 206.709 106.73 206.709C107.131 206.709 107.477 206.685 107.77 206.636V209.785C107.272 209.902 106.594 209.961 105.734 209.961C103.889 209.961 102.57 209.629 101.779 208.965C100.998 208.301 100.607 207.202 100.607 205.669V197.422H98.3954V194.199H100.607V190.581ZM116.94 197.026C116.013 197.026 115.236 197.344 114.611 197.979C113.996 198.613 113.649 199.424 113.571 200.41H120.236C120.187 199.404 119.86 198.589 119.255 197.964C118.659 197.339 117.888 197.026 116.94 197.026ZM120.295 205.098H124.221C123.986 206.641 123.215 207.886 121.906 208.833C120.607 209.771 118.991 210.239 117.057 210.239C114.645 210.239 112.751 209.517 111.374 208.071C110.007 206.626 109.323 204.644 109.323 202.124C109.323 199.614 110.007 197.612 111.374 196.118C112.741 194.614 114.582 193.862 116.896 193.862C119.172 193.862 120.983 194.575 122.331 196.001C123.679 197.427 124.352 199.336 124.352 201.729V203.032H113.527V203.296C113.527 204.419 113.854 205.332 114.509 206.035C115.173 206.729 116.047 207.075 117.131 207.075C117.912 207.075 118.586 206.899 119.152 206.548C119.719 206.187 120.099 205.703 120.295 205.098ZM132.394 210.151C130.431 210.151 128.874 209.424 127.722 207.969C126.569 206.514 125.993 204.531 125.993 202.021C125.993 199.531 126.569 197.563 127.722 196.118C128.884 194.673 130.451 193.95 132.424 193.95C133.537 193.95 134.514 194.219 135.353 194.756C136.203 195.293 136.823 196.006 137.214 196.895H137.302V188.765H141.579V209.902H137.36V207.207H137.287C136.896 208.096 136.266 208.809 135.397 209.346C134.528 209.883 133.527 210.151 132.394 210.151ZM133.845 197.378C132.77 197.378 131.921 197.798 131.296 198.638C130.681 199.478 130.373 200.615 130.373 202.051C130.373 203.496 130.681 204.634 131.296 205.464C131.921 206.294 132.77 206.709 133.845 206.709C134.909 206.709 135.754 206.294 136.379 205.464C137.014 204.624 137.331 203.486 137.331 202.051C137.331 200.625 137.014 199.492 136.379 198.652C135.754 197.803 134.909 197.378 133.845 197.378ZM149.958 203.882H154.221C154.318 204.741 154.772 205.439 155.583 205.977C156.403 206.504 157.404 206.768 158.586 206.768C159.758 206.768 160.71 206.519 161.442 206.021C162.184 205.513 162.556 204.868 162.556 204.087C162.556 203.403 162.282 202.852 161.735 202.432C161.188 202.012 160.275 201.66 158.996 201.377L156.242 200.776C152.365 199.946 150.427 197.979 150.427 194.873C150.427 192.939 151.179 191.377 152.682 190.186C154.196 188.994 156.139 188.398 158.513 188.398C160.954 188.398 162.902 188.979 164.357 190.142C165.812 191.294 166.559 192.832 166.598 194.756H162.453C162.385 193.867 161.989 193.169 161.266 192.661C160.554 192.144 159.64 191.885 158.527 191.885C157.433 191.885 156.55 192.124 155.876 192.603C155.212 193.081 154.88 193.711 154.88 194.492C154.88 195.137 155.148 195.659 155.685 196.06C156.232 196.46 157.116 196.802 158.337 197.085L160.9 197.627C163.019 198.076 164.562 198.779 165.529 199.736C166.496 200.684 166.979 201.963 166.979 203.574C166.979 205.625 166.208 207.256 164.665 208.467C163.122 209.668 161.037 210.269 158.41 210.269C155.861 210.269 153.83 209.702 152.316 208.569C150.812 207.427 150.026 205.864 149.958 203.882ZM182.228 208.071C180.832 209.517 178.937 210.239 176.545 210.239C174.152 210.239 172.258 209.512 170.861 208.057C169.465 206.602 168.766 204.595 168.766 202.036C168.766 199.507 169.47 197.515 170.876 196.06C172.292 194.595 174.181 193.862 176.545 193.862C178.918 193.862 180.807 194.595 182.214 196.06C183.62 197.515 184.323 199.507 184.323 202.036C184.323 204.604 183.625 206.616 182.228 208.071ZM176.545 206.973C177.599 206.973 178.434 206.543 179.05 205.684C179.665 204.824 179.973 203.613 179.973 202.051C179.973 200.508 179.665 199.302 179.05 198.433C178.434 197.563 177.599 197.129 176.545 197.129C175.49 197.129 174.65 197.563 174.025 198.433C173.41 199.302 173.102 200.508 173.102 202.051C173.102 203.613 173.41 204.824 174.025 205.684C174.64 206.543 175.48 206.973 176.545 206.973ZM186.638 209.902V188.765H190.915V209.902H186.638ZM208.303 194.199V209.902H204.172V207.075H204.084C203.264 209.155 201.696 210.195 199.382 210.195C197.663 210.195 196.291 209.673 195.265 208.628C194.24 207.573 193.727 206.138 193.727 204.321V194.199H198.005V203.428C198.005 204.473 198.254 205.269 198.752 205.815C199.26 206.362 199.987 206.636 200.934 206.636C201.882 206.636 202.634 206.323 203.19 205.698C203.747 205.073 204.025 204.238 204.025 203.193V194.199H208.303ZM212.228 190.581H216.506V194.199H219.406V197.422H216.506V204.937C216.506 206.118 217.121 206.709 218.351 206.709C218.752 206.709 219.098 206.685 219.391 206.636V209.785C218.893 209.902 218.215 209.961 217.355 209.961C215.51 209.961 214.191 209.629 213.4 208.965C212.619 208.301 212.228 207.202 212.228 205.669V197.422H210.016V194.199H212.228V190.581ZM221.823 209.902V194.199H226.1V209.902H221.823ZM225.588 191.826C225.148 192.256 224.606 192.471 223.962 192.471C223.317 192.471 222.775 192.256 222.336 191.826C221.896 191.396 221.677 190.874 221.677 190.259C221.677 189.634 221.896 189.111 222.336 188.691C222.775 188.262 223.317 188.047 223.962 188.047C224.606 188.047 225.148 188.262 225.588 188.691C226.027 189.111 226.247 189.634 226.247 190.259C226.247 190.874 226.027 191.396 225.588 191.826ZM241.848 208.071C240.451 209.517 238.556 210.239 236.164 210.239C233.771 210.239 231.877 209.512 230.48 208.057C229.084 206.602 228.386 204.595 228.386 202.036C228.386 199.507 229.089 197.515 230.495 196.06C231.911 194.595 233.801 193.862 236.164 193.862C238.537 193.862 240.427 194.595 241.833 196.06C243.239 197.515 243.942 199.507 243.942 202.036C243.942 204.604 243.244 206.616 241.848 208.071ZM236.164 206.973C237.219 206.973 238.054 206.543 238.669 205.684C239.284 204.824 239.592 203.613 239.592 202.051C239.592 200.508 239.284 199.302 238.669 198.433C238.054 197.563 237.219 197.129 236.164 197.129C235.109 197.129 234.269 197.563 233.644 198.433C233.029 199.302 232.722 200.508 232.722 202.051C232.722 203.613 233.029 204.824 233.644 205.684C234.26 206.543 235.099 206.973 236.164 206.973ZM246.154 209.902V194.199H250.285V196.997H250.373C250.803 196.001 251.428 195.239 252.248 194.712C253.078 194.175 254.089 193.906 255.28 193.906C257.018 193.906 258.361 194.424 259.308 195.459C260.256 196.494 260.729 197.935 260.729 199.78V209.902H256.452V200.674C256.452 199.639 256.208 198.843 255.72 198.286C255.231 197.729 254.514 197.451 253.566 197.451C252.619 197.451 251.857 197.769 251.281 198.403C250.715 199.038 250.431 199.868 250.431 200.894V209.902H246.154Z" fill="#313236"/>
<rect x="92.5293" y="235.9" width="79.9432" height="3" fill="#FFC747"/>
<path d="M200.451 72.9052C200.451 111.014 169.579 141.903 131.502 141.903C93.4242 141.903 62.5527 111.014 62.5527 72.9052C62.5527 34.7968 93.4242 3.90723 131.502 3.90723C169.579 3.90723 200.451 34.7968 200.451 72.9052Z" fill="white" stroke="#159E99" stroke-width="6"/>
<path d="M165.229 35.4062H97.7766C96.7837 35.4092 95.8323 35.8052 95.1301 36.5078C94.428 37.2104 94.0323 38.1625 94.0293 39.1561V85.4049C94.0323 86.3985 94.428 87.3506 95.1301 88.0532C95.8323 88.7558 96.7837 89.1518 97.7766 89.1548H110.78C110.828 89.3175 110.81 89.4926 110.73 89.6423L107.582 94.8796C107.152 95.5985 106.975 96.441 107.079 97.2724C107.183 98.1039 107.563 98.8765 108.157 99.467L112.454 103.767C113.044 104.361 113.816 104.741 114.647 104.845C115.478 104.95 116.32 104.772 117.038 104.342L122.272 101.192C122.372 101.14 122.482 101.112 122.595 101.11C122.708 101.107 122.819 101.131 122.921 101.179C123.023 101.219 123.114 101.281 123.188 101.361C123.261 101.441 123.316 101.537 123.346 101.642L124.82 107.567C125.023 108.377 125.491 109.097 126.15 109.611C126.808 110.125 127.62 110.404 128.455 110.404H134.551C135.386 110.404 136.197 110.125 136.856 109.611C137.514 109.097 137.982 108.377 138.185 107.567L139.659 101.642C139.692 101.533 139.75 101.434 139.828 101.351C139.906 101.269 140.002 101.206 140.109 101.167C140.208 101.124 140.316 101.104 140.424 101.108C140.532 101.113 140.638 101.141 140.734 101.192L145.967 104.342C146.687 104.77 147.528 104.945 148.358 104.841C149.188 104.737 149.96 104.359 150.552 103.767L154.849 99.467C155.443 98.8765 155.822 98.1039 155.926 97.2724C156.031 96.441 155.853 95.5985 155.423 94.8796L152.275 89.6423C152.202 89.4908 152.184 89.3181 152.225 89.1548H165.229C166.222 89.1518 167.173 88.7558 167.875 88.0532C168.577 87.3506 168.973 86.3985 168.976 85.4049V39.1561C168.973 38.1625 168.577 37.2104 167.875 36.5078C167.173 35.8052 166.222 35.4092 165.229 35.4062ZM158.983 83.4549C158.983 83.7341 158.889 84.0051 158.717 84.2249C158.545 84.4446 158.305 84.6004 158.034 84.6674L152.113 86.1423C151.626 86.272 151.176 86.5135 150.799 86.8477C150.422 87.1818 150.127 87.5994 149.94 88.0673C149.748 88.5272 149.667 89.0253 149.702 89.5221C149.736 90.019 149.886 90.5009 150.139 90.9297L153.275 96.1671C153.421 96.4049 153.482 96.6853 153.448 96.9624C153.414 97.2395 153.287 97.4968 153.087 97.692L148.778 102.004C148.583 102.204 148.326 102.331 148.049 102.365C147.772 102.399 147.492 102.338 147.254 102.192L142.02 99.0545C141.587 98.8043 141.102 98.657 140.604 98.6239C140.105 98.5908 139.605 98.6728 139.142 98.8637C138.68 99.0545 138.268 99.349 137.937 99.7245C137.607 100.1 137.367 100.546 137.236 101.029L135.762 106.954C135.695 107.225 135.54 107.466 135.32 107.638C135.1 107.81 134.829 107.904 134.551 107.904H128.455C128.176 107.904 127.905 107.81 127.685 107.638C127.466 107.466 127.31 107.225 127.243 106.954L125.769 101.029C125.64 100.542 125.398 100.092 125.064 99.7144C124.73 99.3368 124.313 99.0424 123.846 98.8545C123.449 98.6914 123.025 98.6065 122.597 98.6045C122.028 98.6027 121.47 98.7585 120.985 99.0545L115.751 102.192C115.514 102.338 115.233 102.399 114.957 102.365C114.68 102.331 114.423 102.204 114.227 102.004L109.918 97.692C109.719 97.4968 109.592 97.2395 109.557 96.9624C109.523 96.6853 109.584 96.4049 109.731 96.1671L112.866 90.9297C113.116 90.4964 113.263 90.0113 113.296 89.512C113.329 89.0127 113.247 88.5125 113.057 88.0499C112.866 87.5874 112.572 87.1748 112.196 86.8441C111.821 86.5133 111.375 86.2732 110.892 86.1423L104.972 84.6674C104.701 84.6004 104.46 84.4446 104.288 84.2249C104.116 84.0051 104.022 83.7341 104.022 83.4549V77.3551C104.022 77.0759 104.116 76.8049 104.288 76.5851C104.46 76.3654 104.701 76.2096 104.972 76.1426L110.892 74.6677C111.379 74.538 111.829 74.2965 112.206 73.9623C112.584 73.6282 112.878 73.2106 113.066 72.7427C113.257 72.2829 113.338 71.7847 113.304 71.2879C113.269 70.791 113.119 70.3091 112.866 69.8803L109.731 64.6429C109.584 64.4052 109.523 64.1247 109.557 63.8476C109.592 63.5705 109.719 63.3133 109.918 63.118L114.227 58.8056C114.423 58.6061 114.68 58.4789 114.957 58.4448C115.233 58.4107 115.514 58.4718 115.751 58.6181L120.985 61.7555C121.418 62.0057 121.903 62.153 122.402 62.1861C122.901 62.2192 123.401 62.1372 123.863 61.9464C124.325 61.7555 124.738 61.461 125.068 61.0855C125.399 60.71 125.638 60.2635 125.769 59.7806L127.243 53.8557C127.31 53.5847 127.466 53.344 127.685 53.1718C127.905 52.9996 128.176 52.906 128.455 52.9058H134.551C134.829 52.906 135.1 52.9996 135.32 53.1718C135.54 53.344 135.695 53.5847 135.762 53.8557L137.236 59.7806C137.366 60.2678 137.607 60.7181 137.941 61.0956C138.275 61.4732 138.692 61.7676 139.16 61.9555C139.619 62.1468 140.117 62.2283 140.614 62.1936C141.11 62.1589 141.592 62.0089 142.02 61.7555L147.254 58.6181C147.493 58.4751 147.772 58.4159 148.048 58.4499C148.324 58.4839 148.581 58.609 148.778 58.8056L153.087 63.118C153.287 63.3133 153.414 63.5705 153.448 63.8476C153.482 64.1247 153.421 64.4052 153.275 64.6429L150.139 69.8803C149.889 70.3136 149.742 70.7987 149.709 71.298C149.676 71.7973 149.758 72.2975 149.949 72.7601C150.139 73.2226 150.434 73.6352 150.809 73.966C151.184 74.2967 151.63 74.5368 152.113 74.6677L158.034 76.1426C158.305 76.2096 158.545 76.3654 158.717 76.5851C158.889 76.8049 158.983 77.0759 158.983 77.3551V83.4549ZM166.478 85.4049C166.478 85.7364 166.346 86.0543 166.112 86.2887C165.878 86.5231 165.56 86.6548 165.229 86.6548H159.67C160.222 86.323 160.679 85.8539 160.996 85.2932C161.314 84.7326 161.481 84.0993 161.481 83.4549V77.3551C161.481 76.5193 161.202 75.7074 160.689 75.0484C160.175 74.3894 159.456 73.9211 158.646 73.7177L152.725 72.2427C152.55 72.1951 152.398 72.0837 152.3 71.9302C152.288 71.8927 152.263 71.8302 152.25 71.7927C152.208 71.6934 152.188 71.5856 152.192 71.4774C152.196 71.3692 152.225 71.2634 152.275 71.1678L155.423 65.9304C155.853 65.2115 156.031 64.369 155.926 63.5376C155.822 62.7061 155.443 61.9335 154.849 61.343L150.552 57.0432C149.962 56.4485 149.19 56.0688 148.359 55.9646C147.528 55.8604 146.686 56.0377 145.967 56.4682L140.734 59.6181C140.634 59.6701 140.523 59.6982 140.41 59.7004C140.298 59.7026 140.186 59.6787 140.084 59.6306C139.982 59.5914 139.891 59.5293 139.818 59.4491C139.744 59.3689 139.69 59.2727 139.659 59.1681L138.185 53.2433C137.982 52.4326 137.514 51.7131 136.856 51.199C136.197 50.685 135.386 50.4058 134.551 50.4058H128.455C127.62 50.4058 126.808 50.685 126.15 51.199C125.491 51.7131 125.023 52.4326 124.82 53.2433L123.346 59.1681C123.313 59.2767 123.255 59.3762 123.177 59.4586C123.099 59.5411 123.003 59.6042 122.896 59.6431C122.797 59.686 122.689 59.706 122.581 59.7017C122.473 59.6974 122.367 59.6688 122.272 59.6181L117.038 56.4682C116.319 56.0405 115.477 55.8648 114.647 55.9689C113.817 56.073 113.045 56.451 112.454 57.0432L108.157 61.343C107.563 61.9335 107.183 62.7061 107.079 63.5376C106.975 64.369 107.152 65.2115 107.582 65.9304L110.73 71.1678C110.782 71.2678 110.81 71.3785 110.812 71.4913C110.814 71.604 110.79 71.7157 110.742 71.8177C110.703 71.9194 110.641 72.0107 110.561 72.0844C110.481 72.1581 110.385 72.2123 110.28 72.2427L104.359 73.7177C103.549 73.9211 102.83 74.3894 102.317 75.0484C101.803 75.7074 101.524 76.5193 101.524 77.3551V83.4549C101.525 84.0993 101.692 84.7326 102.009 85.2932C102.326 85.8539 102.783 86.323 103.335 86.6548H97.7766C97.4454 86.6548 97.1276 86.5231 96.8934 86.2887C96.6591 86.0543 96.5275 85.7364 96.5275 85.4049V47.9059H166.478V85.4049ZM166.478 45.406H96.5275V39.1561C96.5275 38.8246 96.6591 38.5067 96.8934 38.2723C97.1276 38.0379 97.4454 37.9062 97.7766 37.9062H165.229C165.56 37.9062 165.878 38.0379 166.112 38.2723C166.346 38.5067 166.478 38.8246 166.478 39.1561V45.406Z" fill="#159E99"/>
<path d="M99.0281 40.4062H101.526V42.9061H99.0281V40.4062Z" fill="#159E99"/>
<path d="M104.021 40.4062H106.52V42.9061H104.021V40.4062Z" fill="#159E99"/>
<path d="M109.02 40.4062H111.519V42.9061H109.02V40.4062Z" fill="#159E99"/>
<path d="M131.501 65.4053C128.536 65.4053 125.638 66.285 123.173 67.9332C120.708 69.5813 118.787 71.9239 117.652 74.6648C116.518 77.4056 116.221 80.4215 116.799 83.3311C117.378 86.2407 118.805 88.9134 120.902 91.0111C122.998 93.1089 125.669 94.5374 128.576 95.1162C131.484 95.695 134.498 95.3979 137.237 94.2626C139.976 93.1274 142.317 91.2048 143.964 88.7382C145.611 86.2715 146.49 83.3715 146.49 80.4048C146.486 76.428 144.905 72.6153 142.095 69.8033C139.285 66.9913 135.475 65.4096 131.501 65.4053ZM131.501 92.9045C129.03 92.9045 126.615 92.1714 124.561 90.7979C122.507 89.4244 120.906 87.4723 119.96 85.1882C119.015 82.9042 118.768 80.391 119.25 77.9663C119.732 75.5416 120.921 73.3144 122.668 71.5663C124.415 69.8182 126.641 68.6277 129.064 68.1454C131.487 67.6631 133.998 67.9106 136.281 68.8567C138.563 69.8027 140.514 71.4049 141.887 73.4604C143.259 75.516 143.992 77.9326 143.992 80.4048C143.988 83.7188 142.671 86.8961 140.329 89.2394C137.988 91.5828 134.812 92.9008 131.501 92.9045Z" fill="#159E99"/>
<path d="M130.255 79.1553H132.753V81.6553H130.255V79.1553Z" fill="#159E99"/>
<path d="M135.248 79.1553H137.746V81.6553H135.248V79.1553Z" fill="#159E99"/>
<path d="M125.256 79.1553H127.754V81.6553H125.256V79.1553Z" fill="#159E99"/>
</svg>
