<svg width="370" height="369" viewBox="0 0 370 369" fill="none" xmlns="http://www.w3.org/2000/svg">
<path d="M60.1356 209.902H55.7118V188.765H60.1356V209.902ZM63.285 209.902V194.199H67.4159V196.997H67.5038C67.9334 196.001 68.5584 195.239 69.3788 194.712C70.2088 194.175 71.2196 193.906 72.411 193.906C74.1493 193.906 75.492 194.424 76.4393 195.459C77.3866 196.494 77.8602 197.935 77.8602 199.78V209.902H73.5829V200.674C73.5829 199.639 73.3387 198.843 72.8504 198.286C72.3622 197.729 71.6444 197.451 70.6971 197.451C69.7498 197.451 68.9881 197.769 68.412 198.403C67.8456 199.038 67.5623 199.868 67.5623 200.894V209.902H63.285ZM81.7127 190.581H85.9901V194.199H88.8905V197.422H85.9901V204.937C85.9901 206.118 86.6053 206.709 87.8358 206.709C88.2362 206.709 88.5829 206.685 88.8758 206.636V209.785C88.3778 209.902 87.6991 209.961 86.8397 209.961C84.994 209.961 83.6756 209.629 82.8846 208.965C82.1034 208.301 81.7127 207.202 81.7127 205.669V197.422H79.5008V194.199H81.7127V190.581ZM98.0457 197.026C97.118 197.026 96.3416 197.344 95.7166 197.979C95.1014 198.613 94.7547 199.424 94.6766 200.41H101.342C101.293 199.404 100.966 198.589 100.36 197.964C99.7645 197.339 98.993 197.026 98.0457 197.026ZM101.4 205.098H105.326C105.092 206.641 104.32 207.886 103.012 208.833C101.713 209.771 100.097 210.239 98.1629 210.239C95.7508 210.239 93.8563 209.517 92.4793 208.071C91.1122 206.626 90.4286 204.644 90.4286 202.124C90.4286 199.614 91.1122 197.612 92.4793 196.118C93.8465 194.614 95.6873 193.862 98.0018 193.862C100.277 193.862 102.089 194.575 103.436 196.001C104.784 197.427 105.458 199.336 105.458 201.729V203.032H94.6327V203.296C94.6327 204.419 94.9598 205.332 95.6141 206.035C96.2782 206.729 97.1522 207.075 98.2362 207.075C99.0174 207.075 99.6913 206.899 100.258 206.548C100.824 206.187 101.205 205.703 101.4 205.098ZM114.921 206.562C115.995 206.562 116.845 206.162 117.47 205.361C118.104 204.551 118.422 203.438 118.422 202.021C118.422 200.605 118.104 199.478 117.47 198.638C116.835 197.798 115.985 197.378 114.921 197.378C113.866 197.378 113.026 197.798 112.401 198.638C111.786 199.468 111.478 200.596 111.478 202.021C111.478 203.447 111.786 204.561 112.401 205.361C113.016 206.162 113.856 206.562 114.921 206.562ZM114.848 215.82C112.806 215.82 111.127 215.371 109.808 214.473C108.5 213.584 107.758 212.432 107.582 211.016H111.771C111.937 211.562 112.308 212.002 112.885 212.334C113.471 212.676 114.164 212.847 114.965 212.847C116.049 212.847 116.893 212.568 117.499 212.012C118.104 211.465 118.407 210.728 118.407 209.8V207.046H118.319C117.948 207.896 117.328 208.579 116.459 209.097C115.59 209.604 114.594 209.858 113.471 209.858C111.537 209.858 109.989 209.155 108.827 207.749C107.675 206.343 107.098 204.424 107.098 201.992C107.098 199.502 107.675 197.539 108.827 196.104C109.979 194.668 111.552 193.95 113.544 193.95C114.657 193.95 115.639 194.219 116.488 194.756C117.338 195.293 117.973 196.021 118.392 196.938H118.466V194.199H122.684V209.683C122.684 211.548 121.967 213.037 120.531 214.15C119.105 215.264 117.211 215.82 114.848 215.82ZM125.482 209.902V194.199H129.613V197.026H129.701C129.974 196.03 130.433 195.269 131.078 194.741C131.723 194.214 132.509 193.95 133.436 193.95C133.886 193.95 134.291 194.004 134.652 194.111V197.876C134.252 197.71 133.734 197.627 133.099 197.627C132.045 197.627 131.224 197.935 130.639 198.55C130.053 199.165 129.76 200.024 129.76 201.128V209.902H125.482ZM142.094 207.061C143.041 207.061 143.842 206.787 144.496 206.24C145.16 205.684 145.492 204.985 145.492 204.146V203.003L142.181 203.208C141.381 203.267 140.761 203.467 140.321 203.809C139.891 204.15 139.677 204.6 139.677 205.156C139.677 205.742 139.896 206.206 140.336 206.548C140.775 206.89 141.361 207.061 142.094 207.061ZM140.687 210.151C139.174 210.151 137.919 209.707 136.923 208.818C135.927 207.93 135.429 206.787 135.429 205.391C135.429 203.965 135.956 202.847 137.011 202.036C138.065 201.226 139.574 200.762 141.537 200.645L145.492 200.41V199.37C145.492 198.647 145.253 198.081 144.774 197.671C144.306 197.261 143.666 197.056 142.855 197.056C142.074 197.056 141.434 197.231 140.936 197.583C140.448 197.935 140.15 198.408 140.043 199.004H136.132C136.21 197.461 136.869 196.221 138.109 195.283C139.349 194.336 140.995 193.862 143.046 193.862C145.057 193.862 146.669 194.341 147.88 195.298C149.091 196.255 149.696 197.524 149.696 199.106V209.902H145.565V207.5H145.477C145.048 208.32 144.393 208.97 143.514 209.448C142.636 209.917 141.693 210.151 140.687 210.151ZM153.607 190.581H157.885V194.199H160.785V197.422H157.885V204.937C157.885 206.118 158.5 206.709 159.73 206.709C160.131 206.709 160.477 206.685 160.77 206.636V209.785C160.272 209.902 159.594 209.961 158.734 209.961C156.889 209.961 155.57 209.629 154.779 208.965C153.998 208.301 153.607 207.202 153.607 205.669V197.422H151.395V194.199H153.607V190.581ZM169.94 197.026C169.013 197.026 168.236 197.344 167.611 197.979C166.996 198.613 166.649 199.424 166.571 200.41H173.236C173.187 199.404 172.86 198.589 172.255 197.964C171.659 197.339 170.888 197.026 169.94 197.026ZM173.295 205.098H177.221C176.986 206.641 176.215 207.886 174.906 208.833C173.607 209.771 171.991 210.239 170.057 210.239C167.645 210.239 165.751 209.517 164.374 208.071C163.007 206.626 162.323 204.644 162.323 202.124C162.323 199.614 163.007 197.612 164.374 196.118C165.741 194.614 167.582 193.862 169.896 193.862C172.172 193.862 173.983 194.575 175.331 196.001C176.679 197.427 177.352 199.336 177.352 201.729V203.032H166.527V203.296C166.527 204.419 166.854 205.332 167.509 206.035C168.173 206.729 169.047 207.075 170.131 207.075C170.912 207.075 171.586 206.899 172.152 206.548C172.719 206.187 173.099 205.703 173.295 205.098ZM185.394 210.151C183.431 210.151 181.874 209.424 180.722 207.969C179.569 206.514 178.993 204.531 178.993 202.021C178.993 199.531 179.569 197.563 180.722 196.118C181.884 194.673 183.451 193.95 185.424 193.95C186.537 193.95 187.514 194.219 188.353 194.756C189.203 195.293 189.823 196.006 190.214 196.895H190.302V188.765H194.579V209.902H190.36V207.207H190.287C189.896 208.096 189.266 208.809 188.397 209.346C187.528 209.883 186.527 210.151 185.394 210.151ZM186.845 197.378C185.77 197.378 184.921 197.798 184.296 198.638C183.681 199.478 183.373 200.615 183.373 202.051C183.373 203.496 183.681 204.634 184.296 205.464C184.921 206.294 185.77 206.709 186.845 206.709C187.909 206.709 188.754 206.294 189.379 205.464C190.014 204.624 190.331 203.486 190.331 202.051C190.331 200.625 190.014 199.492 189.379 198.652C188.754 197.803 187.909 197.378 186.845 197.378ZM202.958 203.882H207.221C207.318 204.741 207.772 205.439 208.583 205.977C209.403 206.504 210.404 206.768 211.586 206.768C212.758 206.768 213.71 206.519 214.442 206.021C215.184 205.513 215.556 204.868 215.556 204.087C215.556 203.403 215.282 202.852 214.735 202.432C214.188 202.012 213.275 201.66 211.996 201.377L209.242 200.776C205.365 199.946 203.427 197.979 203.427 194.873C203.427 192.939 204.179 191.377 205.682 190.186C207.196 188.994 209.139 188.398 211.513 188.398C213.954 188.398 215.902 188.979 217.357 190.142C218.812 191.294 219.559 192.832 219.598 194.756H215.453C215.385 193.867 214.989 193.169 214.266 192.661C213.554 192.144 212.64 191.885 211.527 191.885C210.433 191.885 209.55 192.124 208.876 192.603C208.212 193.081 207.88 193.711 207.88 194.492C207.88 195.137 208.148 195.659 208.685 196.06C209.232 196.46 210.116 196.802 211.337 197.085L213.9 197.627C216.019 198.076 217.562 198.779 218.529 199.736C219.496 200.684 219.979 201.963 219.979 203.574C219.979 205.625 219.208 207.256 217.665 208.467C216.122 209.668 214.037 210.269 211.41 210.269C208.861 210.269 206.83 209.702 205.316 208.569C203.812 207.427 203.026 205.864 202.958 203.882ZM235.228 208.071C233.832 209.517 231.937 210.239 229.545 210.239C227.152 210.239 225.258 209.512 223.861 208.057C222.465 206.602 221.766 204.595 221.766 202.036C221.766 199.507 222.47 197.515 223.876 196.06C225.292 194.595 227.181 193.862 229.545 193.862C231.918 193.862 233.807 194.595 235.214 196.06C236.62 197.515 237.323 199.507 237.323 202.036C237.323 204.604 236.625 206.616 235.228 208.071ZM229.545 206.973C230.599 206.973 231.434 206.543 232.05 205.684C232.665 204.824 232.973 203.613 232.973 202.051C232.973 200.508 232.665 199.302 232.05 198.433C231.434 197.563 230.599 197.129 229.545 197.129C228.49 197.129 227.65 197.563 227.025 198.433C226.41 199.302 226.102 200.508 226.102 202.051C226.102 203.613 226.41 204.824 227.025 205.684C227.64 206.543 228.48 206.973 229.545 206.973ZM239.638 209.902V188.765H243.915V209.902H239.638ZM261.303 194.199V209.902H257.172V207.075H257.084C256.264 209.155 254.696 210.195 252.382 210.195C250.663 210.195 249.291 209.673 248.265 208.628C247.24 207.573 246.727 206.138 246.727 204.321V194.199H251.005V203.428C251.005 204.473 251.254 205.269 251.752 205.815C252.26 206.362 252.987 206.636 253.934 206.636C254.882 206.636 255.634 206.323 256.19 205.698C256.747 205.073 257.025 204.238 257.025 203.193V194.199H261.303ZM265.228 190.581H269.506V194.199H272.406V197.422H269.506V204.937C269.506 206.118 270.121 206.709 271.351 206.709C271.752 206.709 272.098 206.685 272.391 206.636V209.785C271.893 209.902 271.215 209.961 270.355 209.961C268.51 209.961 267.191 209.629 266.4 208.965C265.619 208.301 265.228 207.202 265.228 205.669V197.422H263.016V194.199H265.228V190.581ZM274.823 209.902V194.199H279.1V209.902H274.823ZM278.588 191.826C278.148 192.256 277.606 192.471 276.962 192.471C276.317 192.471 275.775 192.256 275.336 191.826C274.896 191.396 274.677 190.874 274.677 190.259C274.677 189.634 274.896 189.111 275.336 188.691C275.775 188.262 276.317 188.047 276.962 188.047C277.606 188.047 278.148 188.262 278.588 188.691C279.027 189.111 279.247 189.634 279.247 190.259C279.247 190.874 279.027 191.396 278.588 191.826ZM294.848 208.071C293.451 209.517 291.556 210.239 289.164 210.239C286.771 210.239 284.877 209.512 283.48 208.057C282.084 206.602 281.386 204.595 281.386 202.036C281.386 199.507 282.089 197.515 283.495 196.06C284.911 194.595 286.801 193.862 289.164 193.862C291.537 193.862 293.427 194.595 294.833 196.06C296.239 197.515 296.942 199.507 296.942 202.036C296.942 204.604 296.244 206.616 294.848 208.071ZM289.164 206.973C290.219 206.973 291.054 206.543 291.669 205.684C292.284 204.824 292.592 203.613 292.592 202.051C292.592 200.508 292.284 199.302 291.669 198.433C291.054 197.563 290.219 197.129 289.164 197.129C288.109 197.129 287.269 197.563 286.644 198.433C286.029 199.302 285.722 200.508 285.722 202.051C285.722 203.613 286.029 204.824 286.644 205.684C287.26 206.543 288.099 206.973 289.164 206.973ZM299.154 209.902V194.199H303.285V196.997H303.373C303.803 196.001 304.428 195.239 305.248 194.712C306.078 194.175 307.089 193.906 308.28 193.906C310.018 193.906 311.361 194.424 312.308 195.459C313.256 196.494 313.729 197.935 313.729 199.78V209.902H309.452V200.674C309.452 199.639 309.208 198.843 308.72 198.286C308.231 197.729 307.514 197.451 306.566 197.451C305.619 197.451 304.857 197.769 304.281 198.403C303.715 199.038 303.431 199.868 303.431 200.894V209.902H299.154Z" fill="#313236"/>
<path d="M11.9103 295.899L10.6359 292.27H5.59094L4.31653 295.899H2.6554L7.33118 283.217H8.89563L13.5714 295.899H11.9103ZM8.08704 285.142L6.05676 290.925H10.17L8.13977 285.142H8.08704ZM18.3263 294.625C19.1232 294.625 19.7648 294.32 20.2511 293.711C20.7374 293.102 20.9806 292.296 20.9806 291.294C20.9806 290.286 20.7374 289.478 20.2511 288.868C19.7648 288.253 19.1232 287.945 18.3263 287.945C17.5353 287.945 16.9025 288.25 16.4279 288.859C15.9591 289.463 15.7247 290.274 15.7247 291.294C15.7247 292.313 15.9591 293.125 16.4279 293.729C16.9025 294.326 17.5353 294.625 18.3263 294.625ZM18.379 299.345C17.3771 299.345 16.5157 299.09 15.795 298.58C15.0743 298.076 14.6495 297.435 14.5206 296.655H16.0939C16.2462 297.077 16.5333 297.414 16.9552 297.666C17.3771 297.918 17.8722 298.044 18.4406 298.044C19.2257 298.044 19.8439 297.836 20.295 297.42C20.7521 297.004 20.9806 296.453 20.9806 295.768V294.326H20.9454C20.6583 294.83 20.257 295.231 19.7413 295.53C19.2257 295.823 18.6515 295.97 18.0187 295.97C16.8527 295.97 15.9181 295.545 15.215 294.695C14.5118 293.846 14.1603 292.712 14.1603 291.294C14.1603 289.864 14.5118 288.725 15.215 287.875C15.924 287.025 16.8702 286.601 18.0538 286.601C18.6984 286.601 19.2784 286.75 19.7941 287.049C20.3097 287.348 20.7198 287.764 21.0245 288.297H21.0509V286.759H22.5099V295.715C22.5099 296.811 22.1349 297.689 21.3849 298.352C20.6349 299.014 19.6329 299.345 18.379 299.345ZM28.2228 294.625C29.0197 294.625 29.6613 294.32 30.1476 293.711C30.6339 293.102 30.8771 292.296 30.8771 291.294C30.8771 290.286 30.6339 289.478 30.1476 288.868C29.6613 288.253 29.0197 287.945 28.2228 287.945C27.4318 287.945 26.799 288.25 26.3243 288.859C25.8556 289.463 25.6212 290.274 25.6212 291.294C25.6212 292.313 25.8556 293.125 26.3243 293.729C26.799 294.326 27.4318 294.625 28.2228 294.625ZM28.2755 299.345C27.2736 299.345 26.4122 299.09 25.6915 298.58C24.9708 298.076 24.546 297.435 24.4171 296.655H25.9904C26.1427 297.077 26.4298 297.414 26.8517 297.666C27.2736 297.918 27.7687 298.044 28.337 298.044C29.1222 298.044 29.7404 297.836 30.1915 297.42C30.6486 297.004 30.8771 296.453 30.8771 295.768V294.326H30.8419C30.5548 294.83 30.1534 295.231 29.6378 295.53C29.1222 295.823 28.548 295.97 27.9152 295.97C26.7491 295.97 25.8146 295.545 25.1115 294.695C24.4083 293.846 24.0568 292.712 24.0568 291.294C24.0568 289.864 24.4083 288.725 25.1115 287.875C25.8204 287.025 26.7667 286.601 27.9503 286.601C28.5948 286.601 29.1749 286.75 29.6906 287.049C30.2062 287.348 30.6163 287.764 30.921 288.297H30.9474V286.759H32.4064V295.715C32.4064 296.811 32.0314 297.689 31.2814 298.352C30.5314 299.014 29.5294 299.345 28.2755 299.345ZM34.4015 295.899V286.759H35.8429V288.253H35.8781C36.0304 287.743 36.3029 287.342 36.6954 287.049C37.0939 286.75 37.5597 286.601 38.0929 286.601C38.2159 286.601 38.421 286.621 38.7081 286.662V288.147C38.5441 288.089 38.2716 288.06 37.8907 288.06C37.299 288.06 36.8243 288.256 36.4669 288.648C36.1095 289.041 35.9308 289.56 35.9308 290.204V295.899H34.4015ZM43.1818 287.928C42.4728 287.928 41.8839 288.174 41.4152 288.666C40.9523 289.152 40.6974 289.779 40.6505 290.547H45.6163C45.5988 289.773 45.3673 289.144 44.922 288.657C44.4767 288.171 43.8966 287.928 43.1818 287.928ZM45.5812 293.28H47.0841C46.9493 294.089 46.5275 294.754 45.8185 295.275C45.1154 295.797 44.2687 296.058 43.2784 296.058C41.9718 296.058 40.9435 295.636 40.1935 294.792C39.4435 293.948 39.0685 292.806 39.0685 291.364C39.0685 289.935 39.4435 288.783 40.1935 287.91C40.9493 287.037 41.9542 286.601 43.2081 286.601C44.4386 286.601 45.4113 287.014 46.1261 287.84C46.8409 288.666 47.1984 289.773 47.1984 291.162V291.742H40.6417V291.83C40.6417 292.709 40.882 293.412 41.3624 293.939C41.8429 294.467 42.4933 294.73 43.3136 294.73C43.8878 294.73 44.3771 294.599 44.7814 294.335C45.1857 294.071 45.4523 293.72 45.5812 293.28ZM52.463 294.625C53.2599 294.625 53.9015 294.32 54.3878 293.711C54.8741 293.102 55.1173 292.296 55.1173 291.294C55.1173 290.286 54.8741 289.478 54.3878 288.868C53.9015 288.253 53.2599 287.945 52.463 287.945C51.672 287.945 51.0392 288.25 50.5646 288.859C50.0958 289.463 49.8615 290.274 49.8615 291.294C49.8615 292.313 50.0958 293.125 50.5646 293.729C51.0392 294.326 51.672 294.625 52.463 294.625ZM52.5157 299.345C51.5138 299.345 50.6525 299.09 49.9318 298.58C49.2111 298.076 48.7863 297.435 48.6573 296.655H50.2306C50.3829 297.077 50.67 297.414 51.0919 297.666C51.5138 297.918 52.0089 298.044 52.5773 298.044C53.3624 298.044 53.9806 297.836 54.4318 297.42C54.8888 297.004 55.1173 296.453 55.1173 295.768V294.326H55.0822C54.795 294.83 54.3937 295.231 53.8781 295.53C53.3624 295.823 52.7882 295.97 52.1554 295.97C50.9894 295.97 50.0548 295.545 49.3517 294.695C48.6486 293.846 48.297 292.712 48.297 291.294C48.297 289.864 48.6486 288.725 49.3517 287.875C50.0607 287.025 51.007 286.601 52.1906 286.601C52.8351 286.601 53.4152 286.75 53.9308 287.049C54.4464 287.348 54.8566 287.764 55.1613 288.297H55.1876V286.759H56.6466V295.715C56.6466 296.811 56.2716 297.689 55.5216 298.352C54.7716 299.014 53.7697 299.345 52.5157 299.345ZM61.6564 294.757C62.3771 294.757 62.9806 294.534 63.4669 294.089C63.9591 293.638 64.2052 293.084 64.2052 292.428V291.681L61.7618 291.83C61.1466 291.871 60.6691 292.021 60.3292 292.278C59.9952 292.536 59.8282 292.882 59.8282 293.315C59.8282 293.749 59.9952 294.098 60.3292 294.361C60.6632 294.625 61.1056 294.757 61.6564 294.757ZM61.3136 296.058C60.4054 296.058 59.67 295.806 59.1075 295.302C58.5509 294.798 58.2726 294.136 58.2726 293.315C58.2726 292.53 58.5597 291.903 59.1339 291.435C59.714 290.966 60.5314 290.702 61.5861 290.644L64.2052 290.494V289.729C64.2052 289.173 64.0294 288.736 63.6779 288.42C63.3263 288.104 62.8341 287.945 62.2013 287.945C61.6212 287.945 61.1495 288.074 60.7863 288.332C60.423 288.584 60.1915 288.938 60.0919 289.396H58.6154C58.6681 288.581 59.0197 287.913 59.67 287.392C60.3263 286.864 61.1818 286.601 62.2365 286.601C63.3087 286.601 64.1583 286.87 64.7853 287.409C65.4181 287.948 65.7345 288.672 65.7345 289.58V295.899H64.2843V294.326H64.2491C63.9738 294.848 63.5695 295.267 63.0363 295.583C62.5031 295.899 61.9288 296.058 61.3136 296.058ZM68.1691 284.553H69.6984V286.759H71.4738V288.016H69.6984V293.447C69.6984 293.863 69.7892 294.171 69.9708 294.37C70.1525 294.563 70.4396 294.66 70.8322 294.66C71.0782 294.66 71.2892 294.646 71.465 294.616V295.899C71.2657 295.946 70.9435 295.97 70.4982 295.97C69.6603 295.97 69.0626 295.782 68.7052 295.407C68.3478 295.032 68.1691 294.405 68.1691 293.526V288.016H66.8068V286.759H68.1691V284.553ZM76.5099 287.928C75.8009 287.928 75.212 288.174 74.7433 288.666C74.2804 289.152 74.0255 289.779 73.9786 290.547H78.9445C78.9269 289.773 78.6954 289.144 78.2501 288.657C77.8048 288.171 77.2247 287.928 76.5099 287.928ZM78.9093 293.28H80.4122C80.2775 294.089 79.8556 294.754 79.1466 295.275C78.4435 295.797 77.5968 296.058 76.6066 296.058C75.2999 296.058 74.2716 295.636 73.5216 294.792C72.7716 293.948 72.3966 292.806 72.3966 291.364C72.3966 289.935 72.7716 288.783 73.5216 287.91C74.2775 287.037 75.2823 286.601 76.5363 286.601C77.7667 286.601 78.7394 287.014 79.4542 287.84C80.1691 288.666 80.5265 289.773 80.5265 291.162V291.742H73.9698V291.83C73.9698 292.709 74.2101 293.412 74.6906 293.939C75.171 294.467 75.8214 294.73 76.6417 294.73C77.2159 294.73 77.7052 294.599 78.1095 294.335C78.5138 294.071 78.7804 293.72 78.9093 293.28ZM86.5206 299.318C86.2511 299.318 86.0314 299.301 85.8615 299.266V297.982C86.0021 298.012 86.2013 298.026 86.4591 298.026C86.8868 298.026 87.2296 297.912 87.4874 297.684C87.7452 297.461 87.962 297.083 88.1378 296.55L88.3488 295.908L84.9738 286.759H86.6085L89.1398 294.37H89.1661L91.6974 286.759H93.3058L89.7111 296.541C89.3185 297.607 88.8937 298.337 88.4366 298.729C87.9855 299.122 87.3468 299.318 86.5206 299.318ZM98.0431 296.058C96.7657 296.058 95.7404 295.633 94.9669 294.783C94.1935 293.928 93.8068 292.776 93.8068 291.329C93.8068 289.882 94.1935 288.733 94.9669 287.884C95.7404 287.028 96.7657 286.601 98.0431 286.601C99.3146 286.601 100.337 287.028 101.11 287.884C101.884 288.733 102.271 289.882 102.271 291.329C102.271 292.771 101.884 293.919 101.11 294.774C100.337 295.63 99.3146 296.058 98.0431 296.058ZM96.0831 293.816C96.5695 294.414 97.2228 294.713 98.0431 294.713C98.8634 294.713 99.5138 294.417 99.9943 293.825C100.475 293.228 100.715 292.396 100.715 291.329C100.715 290.263 100.475 289.434 99.9943 288.842C99.5138 288.244 98.8634 287.945 98.0431 287.945C97.2228 287.945 96.5695 288.244 96.0831 288.842C95.6027 289.439 95.3624 290.269 95.3624 291.329C95.3624 292.39 95.6027 293.219 96.0831 293.816ZM111.323 286.759V295.899H109.873V294.414H109.838C109.27 295.51 108.303 296.058 106.938 296.058C105.947 296.058 105.171 295.759 104.609 295.161C104.052 294.558 103.774 293.734 103.774 292.691V286.759H105.303V292.419C105.303 293.942 106.006 294.704 107.412 294.704C108.151 294.704 108.731 294.473 109.152 294.01C109.58 293.541 109.794 292.914 109.794 292.129V286.759H111.323ZM113.31 295.899V286.759H114.751V288.253H114.786C114.939 287.743 115.211 287.342 115.604 287.049C116.002 286.75 116.468 286.601 117.001 286.601C117.124 286.601 117.329 286.621 117.616 286.662V288.147C117.452 288.089 117.18 288.06 116.799 288.06C116.207 288.06 115.733 288.256 115.375 288.648C115.018 289.041 114.839 289.56 114.839 290.204V295.899H113.31ZM122.556 295.899V286.759H123.997V288.253H124.032C124.185 287.743 124.457 287.342 124.85 287.049C125.248 286.75 125.714 286.601 126.247 286.601C126.37 286.601 126.575 286.621 126.862 286.662V288.147C126.698 288.089 126.426 288.06 126.045 288.06C125.453 288.06 124.979 288.256 124.621 288.648C124.264 289.041 124.085 289.56 124.085 290.204V295.899H122.556ZM131.336 287.928C130.627 287.928 130.038 288.174 129.569 288.666C129.107 289.152 128.852 289.779 128.805 290.547H133.771C133.753 289.773 133.522 289.144 133.076 288.657C132.631 288.171 132.051 287.928 131.336 287.928ZM133.735 293.28H135.238C135.104 294.089 134.682 294.754 133.973 295.275C133.27 295.797 132.423 296.058 131.433 296.058C130.126 296.058 129.098 295.636 128.348 294.792C127.598 293.948 127.223 292.806 127.223 291.364C127.223 289.935 127.598 288.783 128.348 287.91C129.104 287.037 130.109 286.601 131.362 286.601C132.593 286.601 133.566 287.014 134.28 287.84C134.995 288.666 135.353 289.773 135.353 291.162V291.742H128.796V291.83C128.796 292.709 129.036 293.412 129.517 293.939C129.997 294.467 130.648 294.73 131.468 294.73C132.042 294.73 132.531 294.599 132.936 294.335C133.34 294.071 133.607 293.72 133.735 293.28ZM144.493 289.756H142.999C142.882 289.229 142.621 288.795 142.217 288.455C141.818 288.115 141.3 287.945 140.661 287.945C139.864 287.945 139.223 288.253 138.736 288.868C138.25 289.478 138.007 290.298 138.007 291.329C138.007 292.378 138.25 293.204 138.736 293.808C139.229 294.411 139.876 294.713 140.679 294.713C141.294 294.713 141.801 294.561 142.199 294.256C142.604 293.945 142.873 293.512 143.008 292.955H144.511C144.394 293.869 143.981 294.616 143.272 295.196C142.568 295.771 141.701 296.058 140.67 296.058C139.393 296.058 138.37 295.636 137.603 294.792C136.835 293.942 136.451 292.788 136.451 291.329C136.451 289.894 136.835 288.748 137.603 287.893C138.37 287.031 139.387 286.601 140.652 286.601C141.742 286.601 142.627 286.908 143.307 287.523C143.992 288.139 144.388 288.883 144.493 289.756ZM149.582 287.928C148.873 287.928 148.284 288.174 147.816 288.666C147.353 289.152 147.098 289.779 147.051 290.547H152.017C151.999 289.773 151.768 289.144 151.322 288.657C150.877 288.171 150.297 287.928 149.582 287.928ZM151.982 293.28H153.484C153.35 294.089 152.928 294.754 152.219 295.275C151.516 295.797 150.669 296.058 149.679 296.058C148.372 296.058 147.344 295.636 146.594 294.792C145.844 293.948 145.469 292.806 145.469 291.364C145.469 289.935 145.844 288.783 146.594 287.91C147.35 287.037 148.355 286.601 149.609 286.601C150.839 286.601 151.812 287.014 152.526 287.84C153.241 288.666 153.599 289.773 153.599 291.162V291.742H147.042V291.83C147.042 292.709 147.282 293.412 147.763 293.939C148.243 294.467 148.894 294.73 149.714 294.73C150.288 294.73 150.777 294.599 151.182 294.335C151.586 294.071 151.853 293.72 151.982 293.28ZM155.225 295.899V286.759H156.754V295.899H155.225ZM155.989 285.221C155.732 285.221 155.509 285.127 155.321 284.939C155.134 284.752 155.04 284.529 155.04 284.271C155.04 284.008 155.134 283.785 155.321 283.604C155.509 283.416 155.732 283.322 155.989 283.322C156.253 283.322 156.479 283.416 156.666 283.604C156.854 283.785 156.947 284.008 156.947 284.271C156.947 284.529 156.854 284.752 156.666 284.939C156.479 285.127 156.253 285.221 155.989 285.221ZM166.317 286.759L162.959 295.899H161.395L158.028 286.759H159.637L162.159 294.273H162.194L164.726 286.759H166.317ZM170.359 294.757C171.08 294.757 171.684 294.534 172.17 294.089C172.662 293.638 172.908 293.084 172.908 292.428V291.681L170.465 291.83C169.85 291.871 169.372 292.021 169.032 292.278C168.698 292.536 168.531 292.882 168.531 293.315C168.531 293.749 168.698 294.098 169.032 294.361C169.366 294.625 169.809 294.757 170.359 294.757ZM170.017 296.058C169.109 296.058 168.373 295.806 167.811 295.302C167.254 294.798 166.976 294.136 166.976 293.315C166.976 292.53 167.263 291.903 167.837 291.435C168.417 290.966 169.234 290.702 170.289 290.644L172.908 290.494V289.729C172.908 289.173 172.733 288.736 172.381 288.42C172.029 288.104 171.537 287.945 170.904 287.945C170.324 287.945 169.853 288.074 169.489 288.332C169.126 288.584 168.895 288.938 168.795 289.396H167.318C167.371 288.581 167.723 287.913 168.373 287.392C169.029 286.864 169.885 286.601 170.94 286.601C172.012 286.601 172.861 286.87 173.488 287.409C174.121 287.948 174.438 288.672 174.438 289.58V295.899H172.987V294.326H172.952C172.677 294.848 172.273 295.267 171.739 295.583C171.206 295.899 170.632 296.058 170.017 296.058ZM180.924 296.058C180.268 296.058 179.682 295.908 179.166 295.609C178.656 295.311 178.252 294.892 177.953 294.353H177.918V295.899H176.459V283.217H177.988V288.288H178.024C178.311 287.761 178.709 287.348 179.219 287.049C179.734 286.75 180.312 286.601 180.95 286.601C182.105 286.601 183.036 287.031 183.745 287.893C184.454 288.754 184.809 289.899 184.809 291.329C184.809 292.765 184.454 293.913 183.745 294.774C183.036 295.63 182.096 296.058 180.924 296.058ZM180.625 287.945C179.846 287.945 179.21 288.259 178.718 288.886C178.226 289.507 177.98 290.321 177.98 291.329C177.98 292.343 178.226 293.16 178.718 293.781C179.21 294.402 179.846 294.713 180.625 294.713C181.434 294.713 182.072 294.411 182.541 293.808C183.01 293.198 183.244 292.372 183.244 291.329C183.244 290.292 183.01 289.469 182.541 288.859C182.072 288.25 181.434 287.945 180.625 287.945ZM186.443 295.899V283.217H187.973V295.899H186.443ZM193.703 287.928C192.994 287.928 192.405 288.174 191.937 288.666C191.474 289.152 191.219 289.779 191.172 290.547H196.138C196.12 289.773 195.889 289.144 195.443 288.657C194.998 288.171 194.418 287.928 193.703 287.928ZM196.103 293.28H197.606C197.471 294.089 197.049 294.754 196.34 295.275C195.637 295.797 194.79 296.058 193.8 296.058C192.493 296.058 191.465 295.636 190.715 294.792C189.965 293.948 189.59 292.806 189.59 291.364C189.59 289.935 189.965 288.783 190.715 287.91C191.471 287.037 192.476 286.601 193.73 286.601C194.96 286.601 195.933 287.014 196.648 287.84C197.362 288.666 197.72 289.773 197.72 291.162V291.742H191.163V291.83C191.163 292.709 191.403 293.412 191.884 293.939C192.364 294.467 193.015 294.73 193.835 294.73C194.409 294.73 194.899 294.599 195.303 294.335C195.707 294.071 195.974 293.72 196.103 293.28ZM199.109 289.281C199.109 288.496 199.425 287.854 200.058 287.356C200.696 286.853 201.517 286.601 202.519 286.601C203.462 286.601 204.247 286.853 204.874 287.356C205.501 287.86 205.832 288.499 205.867 289.272H204.408C204.356 288.827 204.156 288.479 203.811 288.227C203.471 287.975 203.023 287.849 202.466 287.849C201.909 287.849 201.461 287.975 201.121 288.227C200.781 288.473 200.611 288.798 200.611 289.202C200.611 289.823 201.118 290.263 202.132 290.521L203.547 290.863C204.467 291.098 205.114 291.402 205.489 291.777C205.87 292.146 206.061 292.668 206.061 293.342C206.061 294.139 205.721 294.792 205.041 295.302C204.361 295.806 203.488 296.058 202.422 296.058C201.426 296.058 200.603 295.812 199.952 295.319C199.308 294.821 198.944 294.165 198.862 293.351H200.392C200.562 294.323 201.271 294.81 202.519 294.81C203.134 294.81 203.62 294.689 203.978 294.449C204.341 294.203 204.523 293.872 204.523 293.456C204.523 293.128 204.414 292.867 204.197 292.674C203.986 292.48 203.626 292.316 203.116 292.182L201.508 291.769C199.908 291.358 199.109 290.529 199.109 289.281ZM211.835 284.553H213.364V286.759H215.14V288.016H213.364V293.447C213.364 293.863 213.455 294.171 213.637 294.37C213.818 294.563 214.106 294.66 214.498 294.66C214.744 294.66 214.955 294.646 215.131 294.616V295.899C214.932 295.946 214.609 295.97 214.164 295.97C213.326 295.97 212.729 295.782 212.371 295.407C212.014 295.032 211.835 294.405 211.835 293.526V288.016H210.473V286.759H211.835V284.553ZM216.854 295.899V283.217H218.383V288.218H218.418C218.676 287.702 219.051 287.304 219.543 287.022C220.041 286.741 220.633 286.601 221.318 286.601C222.315 286.601 223.1 286.908 223.674 287.523C224.248 288.139 224.535 288.962 224.535 289.993V295.899H223.006V290.274C223.006 289.536 222.821 288.965 222.452 288.561C222.089 288.156 221.553 287.954 220.844 287.954C220.088 287.954 219.487 288.191 219.042 288.666C218.603 289.141 218.383 289.776 218.383 290.573V295.899H216.854ZM226.478 295.899V286.759H227.919V288.253H227.954C228.107 287.743 228.379 287.342 228.772 287.049C229.17 286.75 229.636 286.601 230.169 286.601C230.292 286.601 230.497 286.621 230.784 286.662V288.147C230.62 288.089 230.348 288.06 229.967 288.06C229.375 288.06 228.901 288.256 228.543 288.648C228.186 289.041 228.007 289.56 228.007 290.204V295.899H226.478ZM235.381 296.058C234.104 296.058 233.078 295.633 232.305 294.783C231.531 293.928 231.145 292.776 231.145 291.329C231.145 289.882 231.531 288.733 232.305 287.884C233.078 287.028 234.104 286.601 235.381 286.601C236.652 286.601 237.675 287.028 238.448 287.884C239.222 288.733 239.609 289.882 239.609 291.329C239.609 292.771 239.222 293.919 238.448 294.774C237.675 295.63 236.652 296.058 235.381 296.058ZM233.421 293.816C233.907 294.414 234.561 294.713 235.381 294.713C236.201 294.713 236.852 294.417 237.332 293.825C237.813 293.228 238.053 292.396 238.053 291.329C238.053 290.263 237.813 289.434 237.332 288.842C236.852 288.244 236.201 287.945 235.381 287.945C234.561 287.945 233.907 288.244 233.421 288.842C232.941 289.439 232.7 290.269 232.7 291.329C232.7 292.39 232.941 293.219 233.421 293.816ZM248.661 286.759V295.899H247.211V294.414H247.176C246.608 295.51 245.641 296.058 244.276 296.058C243.285 296.058 242.509 295.759 241.946 295.161C241.39 294.558 241.111 293.734 241.111 292.691V286.759H242.641V292.419C242.641 293.942 243.344 294.704 244.75 294.704C245.488 294.704 246.068 294.473 246.49 294.01C246.918 293.541 247.132 292.914 247.132 292.129V286.759H248.661ZM254.365 294.625C255.162 294.625 255.804 294.32 256.29 293.711C256.776 293.102 257.02 292.296 257.02 291.294C257.02 290.286 256.776 289.478 256.29 288.868C255.804 288.253 255.162 287.945 254.365 287.945C253.574 287.945 252.942 288.25 252.467 288.859C251.998 289.463 251.764 290.274 251.764 291.294C251.764 292.313 251.998 293.125 252.467 293.729C252.942 294.326 253.574 294.625 254.365 294.625ZM254.418 299.345C253.416 299.345 252.555 299.09 251.834 298.58C251.113 298.076 250.689 297.435 250.56 296.655H252.133C252.285 297.077 252.572 297.414 252.994 297.666C253.416 297.918 253.911 298.044 254.48 298.044C255.265 298.044 255.883 297.836 256.334 297.42C256.791 297.004 257.02 296.453 257.02 295.768V294.326H256.984C256.697 294.83 256.296 295.231 255.78 295.53C255.265 295.823 254.691 295.97 254.058 295.97C252.892 295.97 251.957 295.545 251.254 294.695C250.551 293.846 250.199 292.712 250.199 291.294C250.199 289.864 250.551 288.725 251.254 287.875C251.963 287.025 252.909 286.601 254.093 286.601C254.737 286.601 255.318 286.75 255.833 287.049C256.349 287.348 256.759 287.764 257.064 288.297H257.09V286.759H258.549V295.715C258.549 296.811 258.174 297.689 257.424 298.352C256.674 299.014 255.672 299.345 254.418 299.345ZM260.623 295.899V283.217H262.152V288.218H262.188C262.445 287.702 262.82 287.304 263.313 287.022C263.811 286.741 264.402 286.601 265.088 286.601C266.084 286.601 266.869 286.908 267.443 287.523C268.018 288.139 268.305 288.962 268.305 289.993V295.899H266.776V290.274C266.776 289.536 266.591 288.965 266.222 288.561C265.859 288.156 265.322 287.954 264.613 287.954C263.858 287.954 263.257 288.191 262.812 288.666C262.372 289.141 262.152 289.776 262.152 290.573V295.899H260.623ZM277.727 296.058C276.449 296.058 275.424 295.633 274.651 294.783C273.877 293.928 273.49 292.776 273.49 291.329C273.49 289.882 273.877 288.733 274.651 287.884C275.424 287.028 276.449 286.601 277.727 286.601C278.998 286.601 280.021 287.028 280.794 287.884C281.568 288.733 281.954 289.882 281.954 291.329C281.954 292.771 281.568 293.919 280.794 294.774C280.021 295.63 278.998 296.058 277.727 296.058ZM275.767 293.816C276.253 294.414 276.906 294.713 277.727 294.713C278.547 294.713 279.197 294.417 279.678 293.825C280.158 293.228 280.399 292.396 280.399 291.329C280.399 290.263 280.158 289.434 279.678 288.842C279.197 288.244 278.547 287.945 277.727 287.945C276.906 287.945 276.253 288.244 275.767 288.842C275.286 289.439 275.046 290.269 275.046 291.329C275.046 292.39 275.286 293.219 275.767 293.816ZM283.501 295.899V286.759H284.943V288.218H284.978C285.241 287.708 285.619 287.312 286.111 287.031C286.604 286.744 287.193 286.601 287.878 286.601C288.874 286.601 289.651 286.902 290.207 287.506C290.764 288.104 291.042 288.924 291.042 289.967V295.899H289.513V290.239C289.513 289.495 289.337 288.93 288.985 288.543C288.634 288.15 288.109 287.954 287.412 287.954C286.692 287.954 286.114 288.188 285.681 288.657C285.247 289.126 285.03 289.747 285.03 290.521V295.899H283.501ZM296.658 287.928C295.949 287.928 295.36 288.174 294.892 288.666C294.429 289.152 294.174 289.779 294.127 290.547H299.093C299.075 289.773 298.844 289.144 298.399 288.657C297.953 288.171 297.373 287.928 296.658 287.928ZM299.058 293.28H300.561C300.426 294.089 300.004 294.754 299.295 295.275C298.592 295.797 297.745 296.058 296.755 296.058C295.448 296.058 294.42 295.636 293.67 294.792C292.92 293.948 292.545 292.806 292.545 291.364C292.545 289.935 292.92 288.783 293.67 287.91C294.426 287.037 295.431 286.601 296.685 286.601C297.915 286.601 298.888 287.014 299.603 287.84C300.318 288.666 300.675 289.773 300.675 291.162V291.742H294.118V291.83C294.118 292.709 294.359 293.412 294.839 293.939C295.319 294.467 295.97 294.73 296.79 294.73C297.364 294.73 297.854 294.599 298.258 294.335C298.662 294.071 298.929 293.72 299.058 293.28ZM310.352 286.601C311.524 286.601 312.467 287.031 313.182 287.893C313.902 288.754 314.263 289.899 314.263 291.329C314.263 292.753 313.905 293.898 313.191 294.766C312.476 295.627 311.541 296.058 310.387 296.058C309.742 296.058 309.165 295.911 308.655 295.618C308.146 295.325 307.753 294.924 307.478 294.414H307.443V298.949H305.913V286.759H307.363V288.306H307.399C307.686 287.778 308.087 287.362 308.603 287.058C309.118 286.753 309.701 286.601 310.352 286.601ZM310.053 294.713C310.867 294.713 311.512 294.408 311.986 293.799C312.461 293.189 312.698 292.366 312.698 291.329C312.698 290.292 312.461 289.469 311.986 288.859C311.512 288.25 310.867 287.945 310.053 287.945C309.268 287.945 308.635 288.256 308.154 288.877C307.674 289.498 307.434 290.315 307.434 291.329C307.434 292.349 307.674 293.169 308.154 293.79C308.635 294.405 309.268 294.713 310.053 294.713ZM315.889 295.899V283.217H317.418V295.899H315.889ZM322.498 294.757C323.219 294.757 323.822 294.534 324.309 294.089C324.801 293.638 325.047 293.084 325.047 292.428V291.681L322.604 291.83C321.988 291.871 321.511 292.021 321.171 292.278C320.837 292.536 320.67 292.882 320.67 293.315C320.67 293.749 320.837 294.098 321.171 294.361C321.505 294.625 321.947 294.757 322.498 294.757ZM322.155 296.058C321.247 296.058 320.512 295.806 319.949 295.302C319.393 294.798 319.114 294.136 319.114 293.315C319.114 292.53 319.401 291.903 319.976 291.435C320.556 290.966 321.373 290.702 322.428 290.644L325.047 290.494V289.729C325.047 289.173 324.871 288.736 324.52 288.42C324.168 288.104 323.676 287.945 323.043 287.945C322.463 287.945 321.991 288.074 321.628 288.332C321.265 288.584 321.033 288.938 320.934 289.396H319.457C319.51 288.581 319.861 287.913 320.512 287.392C321.168 286.864 322.024 286.601 323.078 286.601C324.151 286.601 325 286.87 325.627 287.409C326.26 287.948 326.576 288.672 326.576 289.58V295.899H325.126V294.326H325.091C324.816 294.848 324.411 295.267 323.878 295.583C323.345 295.899 322.771 296.058 322.155 296.058ZM329.011 284.553H330.54V286.759H332.316V288.016H330.54V293.447C330.54 293.863 330.631 294.171 330.813 294.37C330.994 294.563 331.281 294.66 331.674 294.66C331.92 294.66 332.131 294.646 332.307 294.616V295.899C332.108 295.946 331.785 295.97 331.34 295.97C330.502 295.97 329.904 295.782 329.547 295.407C329.19 295.032 329.011 294.405 329.011 293.526V288.016H327.649V286.759H329.011V284.553ZM334.443 295.899V288.016H333.168V286.759H334.443V285.739C334.443 284.86 334.648 284.21 335.058 283.788C335.474 283.36 336.104 283.146 336.947 283.146C337.276 283.146 337.586 283.17 337.879 283.217V284.456C337.633 284.421 337.401 284.403 337.185 284.403C336.37 284.403 335.963 284.852 335.963 285.748V286.759H337.835V288.016H335.972V295.899H334.443ZM342.766 296.058C341.488 296.058 340.463 295.633 339.69 294.783C338.916 293.928 338.529 292.776 338.529 291.329C338.529 289.882 338.916 288.733 339.69 287.884C340.463 287.028 341.488 286.601 342.766 286.601C344.037 286.601 345.06 287.028 345.833 287.884C346.607 288.733 346.993 289.882 346.993 291.329C346.993 292.771 346.607 293.919 345.833 294.774C345.06 295.63 344.037 296.058 342.766 296.058ZM340.806 293.816C341.292 294.414 341.945 294.713 342.766 294.713C343.586 294.713 344.236 294.417 344.717 293.825C345.197 293.228 345.438 292.396 345.438 291.329C345.438 290.263 345.197 289.434 344.717 288.842C344.236 288.244 343.586 287.945 342.766 287.945C341.945 287.945 341.292 288.244 340.806 288.842C340.325 289.439 340.085 290.269 340.085 291.329C340.085 292.39 340.325 293.219 340.806 293.816ZM348.54 295.899V286.759H349.982V288.253H350.017C350.169 287.743 350.442 287.342 350.834 287.049C351.233 286.75 351.698 286.601 352.232 286.601C352.355 286.601 352.56 286.621 352.847 286.662V288.147C352.683 288.089 352.41 288.06 352.029 288.06C351.438 288.06 350.963 288.256 350.606 288.648C350.248 289.041 350.069 289.56 350.069 290.204V295.899H348.54ZM354.095 295.899V286.759H355.536V288.218H355.571C355.794 287.72 356.131 287.327 356.582 287.04C357.033 286.747 357.561 286.601 358.164 286.601C358.785 286.601 359.318 286.753 359.764 287.058C360.209 287.356 360.531 287.784 360.731 288.341H360.766C361.018 287.796 361.396 287.371 361.9 287.066C362.409 286.756 362.986 286.601 363.631 286.601C364.533 286.601 365.254 286.873 365.793 287.418C366.338 287.957 366.61 288.681 366.61 289.589V295.899H365.081V289.94C365.081 289.313 364.914 288.827 364.58 288.481C364.252 288.13 363.786 287.954 363.183 287.954C362.579 287.954 362.084 288.156 361.697 288.561C361.311 288.959 361.117 289.469 361.117 290.09V295.899H359.588V289.773C359.588 289.223 359.418 288.783 359.078 288.455C358.738 288.121 358.284 287.954 357.716 287.954C357.112 287.954 356.611 288.165 356.213 288.587C355.82 289.009 355.624 289.536 355.624 290.169V295.899H354.095ZM70.4454 324.757C71.1661 324.757 71.7697 324.534 72.256 324.089C72.7482 323.638 72.9943 323.084 72.9943 322.428V321.681L70.5509 321.83C69.9357 321.871 69.4581 322.021 69.1183 322.278C68.7843 322.536 68.6173 322.882 68.6173 323.315C68.6173 323.749 68.7843 324.098 69.1183 324.361C69.4523 324.625 69.8947 324.757 70.4454 324.757ZM70.1027 326.058C69.1945 326.058 68.4591 325.806 67.8966 325.302C67.34 324.798 67.0616 324.136 67.0616 323.315C67.0616 322.53 67.3488 321.903 67.923 321.435C68.5031 320.966 69.3204 320.702 70.3751 320.644L72.9943 320.494V319.729C72.9943 319.173 72.8185 318.736 72.4669 318.42C72.1154 318.104 71.6232 317.945 70.9904 317.945C70.4103 317.945 69.9386 318.074 69.5753 318.332C69.212 318.584 68.9806 318.938 68.881 319.396H67.4044C67.4572 318.581 67.8087 317.913 68.4591 317.392C69.1154 316.864 69.9708 316.601 71.0255 316.601C72.0978 316.601 72.9474 316.87 73.5743 317.409C74.2072 317.948 74.5236 318.672 74.5236 319.58V325.899H73.0734V324.326H73.0382C72.7628 324.848 72.3585 325.267 71.8253 325.583C71.2921 325.899 70.7179 326.058 70.1027 326.058ZM76.4659 325.899V316.759H77.9073V318.218H77.9425C78.2062 317.708 78.5841 317.312 79.0763 317.031C79.5685 316.744 80.1573 316.601 80.8429 316.601C81.839 316.601 82.6154 316.902 83.172 317.506C83.7286 318.104 84.007 318.924 84.007 319.967V325.899H82.4777V320.239C82.4777 319.495 82.3019 318.93 81.9503 318.543C81.5988 318.15 81.0743 317.954 80.3771 317.954C79.6564 317.954 79.0792 318.188 78.6456 318.657C78.212 319.126 77.9952 319.747 77.9952 320.521V325.899H76.4659ZM89.421 326.058C88.2491 326.058 87.3029 325.627 86.5822 324.766C85.8673 323.904 85.5099 322.759 85.5099 321.329C85.5099 319.905 85.8673 318.763 86.5822 317.901C87.297 317.034 88.2316 316.601 89.3859 316.601C90.0304 316.601 90.6075 316.747 91.1173 317.04C91.6271 317.333 92.0197 317.734 92.295 318.244H92.3302V313.217H93.8595V325.899H92.4005V324.353H92.3741C92.0753 324.886 91.671 325.305 91.1613 325.609C90.6515 325.908 90.0714 326.058 89.421 326.058ZM89.7111 317.945C88.9025 317.945 88.2609 318.253 87.7863 318.868C87.3116 319.478 87.0743 320.298 87.0743 321.329C87.0743 322.366 87.3116 323.189 87.7863 323.799C88.2609 324.408 88.9025 324.713 89.7111 324.713C90.5021 324.713 91.1378 324.405 91.6183 323.79C92.0988 323.169 92.339 322.349 92.339 321.329C92.339 320.31 92.0958 319.492 91.6095 318.877C91.129 318.256 90.4962 317.945 89.7111 317.945ZM99.6163 325.899V316.759H101.058V318.218H101.093C101.357 317.708 101.734 317.312 102.227 317.031C102.719 316.744 103.308 316.601 103.993 316.601C104.989 316.601 105.766 316.902 106.322 317.506C106.879 318.104 107.157 318.924 107.157 319.967V325.899H105.628V320.239C105.628 319.495 105.452 318.93 105.101 318.543C104.749 318.15 104.225 317.954 103.527 317.954C102.807 317.954 102.23 318.188 101.796 318.657C101.362 319.126 101.146 319.747 101.146 320.521V325.899H99.6163ZM112.897 326.058C111.619 326.058 110.594 325.633 109.82 324.783C109.047 323.928 108.66 322.776 108.66 321.329C108.66 319.882 109.047 318.733 109.82 317.884C110.594 317.028 111.619 316.601 112.897 316.601C114.168 316.601 115.191 317.028 115.964 317.884C116.737 318.733 117.124 319.882 117.124 321.329C117.124 322.771 116.737 323.919 115.964 324.774C115.191 325.63 114.168 326.058 112.897 326.058ZM110.937 323.816C111.423 324.414 112.076 324.713 112.897 324.713C113.717 324.713 114.367 324.417 114.848 323.825C115.328 323.228 115.568 322.396 115.568 321.329C115.568 320.263 115.328 319.434 114.848 318.842C114.367 318.244 113.717 317.945 112.897 317.945C112.076 317.945 111.423 318.244 110.937 318.842C110.456 319.439 110.216 320.269 110.216 321.329C110.216 322.39 110.456 323.219 110.937 323.816ZM122.442 325.899V316.759H123.971V325.899H122.442ZM123.206 315.221C122.948 315.221 122.726 315.127 122.538 314.939C122.351 314.752 122.257 314.529 122.257 314.271C122.257 314.008 122.351 313.785 122.538 313.604C122.726 313.416 122.948 313.322 123.206 313.322C123.47 313.322 123.695 313.416 123.883 313.604C124.07 313.785 124.164 314.008 124.164 314.271C124.164 314.529 124.07 314.752 123.883 314.939C123.695 315.127 123.47 315.221 123.206 315.221ZM126.036 325.899V316.759H127.478V318.218H127.513C127.776 317.708 128.154 317.312 128.647 317.031C129.139 316.744 129.728 316.601 130.413 316.601C131.409 316.601 132.186 316.902 132.742 317.506C133.299 318.104 133.577 318.924 133.577 319.967V325.899H132.048V320.239C132.048 319.495 131.872 318.93 131.521 318.543C131.169 318.15 130.645 317.954 129.947 317.954C129.227 317.954 128.65 318.188 128.216 318.657C127.782 319.126 127.566 319.747 127.566 320.521V325.899H126.036ZM143.026 316.759L139.668 325.899H138.104L134.737 316.759H136.346L138.868 324.273H138.903L141.435 316.759H143.026ZM147.754 326.058C146.477 326.058 145.451 325.633 144.678 324.783C143.904 323.928 143.518 322.776 143.518 321.329C143.518 319.882 143.904 318.733 144.678 317.884C145.451 317.028 146.477 316.601 147.754 316.601C149.026 316.601 150.048 317.028 150.821 317.884C151.595 318.733 151.982 319.882 151.982 321.329C151.982 322.771 151.595 323.919 150.821 324.774C150.048 325.63 149.026 326.058 147.754 326.058ZM145.794 323.816C146.28 324.414 146.934 324.713 147.754 324.713C148.574 324.713 149.225 324.417 149.705 323.825C150.186 323.228 150.426 322.396 150.426 321.329C150.426 320.263 150.186 319.434 149.705 318.842C149.225 318.244 148.574 317.945 147.754 317.945C146.934 317.945 146.28 318.244 145.794 318.842C145.314 319.439 145.073 320.269 145.073 321.329C145.073 322.39 145.314 323.219 145.794 323.816ZM153.608 325.899V316.759H155.137V325.899H153.608ZM154.372 315.221C154.114 315.221 153.892 315.127 153.704 314.939C153.517 314.752 153.423 314.529 153.423 314.271C153.423 314.008 153.517 313.785 153.704 313.604C153.892 313.416 154.114 313.322 154.372 313.322C154.636 313.322 154.861 313.416 155.049 313.604C155.236 313.785 155.33 314.008 155.33 314.271C155.33 314.529 155.236 314.752 155.049 314.939C154.861 315.127 154.636 315.221 154.372 315.221ZM164.796 319.756H163.302C163.185 319.229 162.924 318.795 162.52 318.455C162.121 318.115 161.603 317.945 160.964 317.945C160.167 317.945 159.526 318.253 159.039 318.868C158.553 319.478 158.31 320.298 158.31 321.329C158.31 322.378 158.553 323.204 159.039 323.808C159.531 324.411 160.179 324.713 160.982 324.713C161.597 324.713 162.104 324.561 162.502 324.256C162.906 323.945 163.176 323.512 163.311 322.955H164.814C164.696 323.869 164.283 324.616 163.574 325.196C162.871 325.771 162.004 326.058 160.973 326.058C159.695 326.058 158.673 325.636 157.905 324.792C157.138 323.942 156.754 322.788 156.754 321.329C156.754 319.894 157.138 318.748 157.905 317.893C158.673 317.031 159.69 316.601 160.955 316.601C162.045 316.601 162.93 316.908 163.609 317.523C164.295 318.139 164.691 318.883 164.796 319.756ZM169.885 317.928C169.176 317.928 168.587 318.174 168.118 318.666C167.655 319.152 167.401 319.779 167.354 320.547H172.319C172.302 319.773 172.07 319.144 171.625 318.657C171.18 318.171 170.6 317.928 169.885 317.928ZM172.284 323.28H173.787C173.652 324.089 173.231 324.754 172.522 325.275C171.818 325.797 170.972 326.058 169.982 326.058C168.675 326.058 167.647 325.636 166.897 324.792C166.147 323.948 165.772 322.806 165.772 321.364C165.772 319.935 166.147 318.783 166.897 317.91C167.652 317.037 168.657 316.601 169.911 316.601C171.142 316.601 172.114 317.014 172.829 317.84C173.544 318.666 173.901 319.773 173.901 321.162V321.742H167.345V321.83C167.345 322.709 167.585 323.412 168.066 323.939C168.546 324.467 169.196 324.73 170.017 324.73C170.591 324.73 171.08 324.599 171.484 324.335C171.889 324.071 172.155 323.72 172.284 323.28ZM186.646 316.759V325.899H185.195V324.414H185.16C184.592 325.51 183.625 326.058 182.26 326.058C181.27 326.058 180.493 325.759 179.931 325.161C179.374 324.558 179.096 323.734 179.096 322.691V316.759H180.625V322.419C180.625 323.942 181.328 324.704 182.734 324.704C183.473 324.704 184.053 324.473 184.475 324.01C184.902 323.541 185.116 322.914 185.116 322.129V316.759H186.646ZM193.07 316.601C194.242 316.601 195.186 317.031 195.901 317.893C196.621 318.754 196.982 319.899 196.982 321.329C196.982 322.753 196.624 323.898 195.909 324.766C195.194 325.627 194.26 326.058 193.106 326.058C192.461 326.058 191.884 325.911 191.374 325.618C190.864 325.325 190.472 324.924 190.196 324.414H190.161V328.949H188.632V316.759H190.082V318.306H190.117C190.404 317.778 190.806 317.362 191.321 317.058C191.837 316.753 192.42 316.601 193.07 316.601ZM192.772 324.713C193.586 324.713 194.231 324.408 194.705 323.799C195.18 323.189 195.417 322.366 195.417 321.329C195.417 320.292 195.18 319.469 194.705 318.859C194.231 318.25 193.586 317.945 192.772 317.945C191.986 317.945 191.354 318.256 190.873 318.877C190.393 319.498 190.152 320.315 190.152 321.329C190.152 322.349 190.393 323.169 190.873 323.79C191.354 324.405 191.986 324.713 192.772 324.713ZM198.608 325.899V313.217H200.137V325.899H198.608ZM205.99 326.058C204.713 326.058 203.688 325.633 202.914 324.783C202.141 323.928 201.754 322.776 201.754 321.329C201.754 319.882 202.141 318.733 202.914 317.884C203.688 317.028 204.713 316.601 205.99 316.601C207.262 316.601 208.284 317.028 209.058 317.884C209.831 318.733 210.218 319.882 210.218 321.329C210.218 322.771 209.831 323.919 209.058 324.774C208.284 325.63 207.262 326.058 205.99 326.058ZM204.03 323.816C204.517 324.414 205.17 324.713 205.99 324.713C206.811 324.713 207.461 324.417 207.942 323.825C208.422 323.228 208.662 322.396 208.662 321.329C208.662 320.263 208.422 319.434 207.942 318.842C207.461 318.244 206.811 317.945 205.99 317.945C205.17 317.945 204.517 318.244 204.03 318.842C203.55 319.439 203.31 320.269 203.31 321.329C203.31 322.39 203.55 323.219 204.03 323.816ZM214.779 324.757C215.5 324.757 216.104 324.534 216.59 324.089C217.082 323.638 217.328 323.084 217.328 322.428V321.681L214.885 321.83C214.27 321.871 213.792 322.021 213.452 322.278C213.118 322.536 212.951 322.882 212.951 323.315C212.951 323.749 213.118 324.098 213.452 324.361C213.786 324.625 214.229 324.757 214.779 324.757ZM214.437 326.058C213.528 326.058 212.793 325.806 212.231 325.302C211.674 324.798 211.396 324.136 211.396 323.315C211.396 322.53 211.683 321.903 212.257 321.435C212.837 320.966 213.654 320.702 214.709 320.644L217.328 320.494V319.729C217.328 319.173 217.152 318.736 216.801 318.42C216.449 318.104 215.957 317.945 215.324 317.945C214.744 317.945 214.273 318.074 213.909 318.332C213.546 318.584 213.315 318.938 213.215 319.396H211.738C211.791 318.581 212.143 317.913 212.793 317.392C213.449 316.864 214.305 316.601 215.359 316.601C216.432 316.601 217.281 316.87 217.908 317.409C218.541 317.948 218.858 318.672 218.858 319.58V325.899H217.407V324.326H217.372C217.097 324.848 216.693 325.267 216.159 325.583C215.626 325.899 215.052 326.058 214.437 326.058ZM224.263 326.058C223.091 326.058 222.145 325.627 221.424 324.766C220.709 323.904 220.352 322.759 220.352 321.329C220.352 319.905 220.709 318.763 221.424 317.901C222.139 317.034 223.073 316.601 224.228 316.601C224.872 316.601 225.449 316.747 225.959 317.04C226.469 317.333 226.861 317.734 227.137 318.244H227.172V313.217H228.701V325.899H227.242V324.353H227.216C226.917 324.886 226.513 325.305 226.003 325.609C225.493 325.908 224.913 326.058 224.263 326.058ZM224.553 317.945C223.744 317.945 223.103 318.253 222.628 318.868C222.153 319.478 221.916 320.298 221.916 321.329C221.916 322.366 222.153 323.189 222.628 323.799C223.103 324.408 223.744 324.713 224.553 324.713C225.344 324.713 225.98 324.405 226.46 323.79C226.941 323.169 227.181 322.349 227.181 321.329C227.181 320.31 226.938 319.492 226.451 318.877C225.971 318.256 225.338 317.945 224.553 317.945ZM230.609 319.281C230.609 318.496 230.925 317.854 231.558 317.356C232.196 316.853 233.017 316.601 234.019 316.601C234.962 316.601 235.747 316.853 236.374 317.356C237.001 317.86 237.332 318.499 237.367 319.272H235.908C235.856 318.827 235.656 318.479 235.311 318.227C234.971 317.975 234.523 317.849 233.966 317.849C233.409 317.849 232.961 317.975 232.621 318.227C232.281 318.473 232.111 318.798 232.111 319.202C232.111 319.823 232.618 320.263 233.632 320.521L235.047 320.863C235.967 321.098 236.614 321.402 236.989 321.777C237.37 322.146 237.561 322.668 237.561 323.342C237.561 324.139 237.221 324.792 236.541 325.302C235.861 325.806 234.988 326.058 233.922 326.058C232.926 326.058 232.103 325.812 231.452 325.319C230.808 324.821 230.444 324.165 230.362 323.351H231.892C232.062 324.323 232.771 324.81 234.019 324.81C234.634 324.81 235.12 324.689 235.478 324.449C235.841 324.203 236.023 323.872 236.023 323.456C236.023 323.128 235.914 322.867 235.697 322.674C235.486 322.48 235.126 322.316 234.616 322.182L233.008 321.769C231.408 321.358 230.609 320.529 230.609 319.281ZM242.843 325.899V316.759H244.284V318.253H244.319C244.472 317.743 244.744 317.342 245.137 317.049C245.535 316.75 246.001 316.601 246.534 316.601C246.657 316.601 246.862 316.621 247.15 316.662V318.147C246.985 318.089 246.713 318.06 246.332 318.06C245.74 318.06 245.266 318.256 244.908 318.648C244.551 319.041 244.372 319.56 244.372 320.204V325.899H242.843ZM251.623 317.928C250.914 317.928 250.325 318.174 249.857 318.666C249.394 319.152 249.139 319.779 249.092 320.547H254.058C254.04 319.773 253.809 319.144 253.363 318.657C252.918 318.171 252.338 317.928 251.623 317.928ZM254.023 323.28H255.526C255.391 324.089 254.969 324.754 254.26 325.275C253.557 325.797 252.71 326.058 251.72 326.058C250.413 326.058 249.385 325.636 248.635 324.792C247.885 323.948 247.51 322.806 247.51 321.364C247.51 319.935 247.885 318.783 248.635 317.91C249.391 317.037 250.396 316.601 251.65 316.601C252.88 316.601 253.853 317.014 254.568 317.84C255.282 318.666 255.64 319.773 255.64 321.162V321.742H249.083V321.83C249.083 322.709 249.323 323.412 249.804 323.939C250.284 324.467 250.935 324.73 251.755 324.73C252.329 324.73 252.818 324.599 253.223 324.335C253.627 324.071 253.894 323.72 254.023 323.28ZM260.632 316.601C261.288 316.601 261.871 316.75 262.381 317.049C262.891 317.348 263.295 317.767 263.594 318.306H263.629V316.759H265.088V328.949H263.559V324.37H263.524C263.236 324.897 262.835 325.311 262.319 325.609C261.81 325.908 261.235 326.058 260.597 326.058C259.437 326.058 258.502 325.627 257.793 324.766C257.09 323.904 256.738 322.759 256.738 321.329C256.738 319.894 257.093 318.748 257.802 317.893C258.511 317.031 259.454 316.601 260.632 316.601ZM260.904 324.713C261.69 324.713 262.328 324.402 262.82 323.781C263.313 323.16 263.559 322.343 263.559 321.329C263.559 320.315 263.313 319.498 262.82 318.877C262.328 318.256 261.69 317.945 260.904 317.945C260.102 317.945 259.466 318.25 258.997 318.859C258.534 319.463 258.303 320.286 258.303 321.329C258.303 322.372 258.534 323.198 258.997 323.808C259.466 324.411 260.102 324.713 260.904 324.713ZM274.589 316.759V325.899H273.139V324.414H273.104C272.535 325.51 271.568 326.058 270.203 326.058C269.213 326.058 268.437 325.759 267.874 325.161C267.318 324.558 267.039 323.734 267.039 322.691V316.759H268.568V322.419C268.568 323.942 269.272 324.704 270.678 324.704C271.416 324.704 271.996 324.473 272.418 324.01C272.846 323.541 273.06 322.914 273.06 322.129V316.759H274.589ZM276.654 325.899V316.759H278.184V325.899H276.654ZM277.419 315.221C277.161 315.221 276.939 315.127 276.751 314.939C276.564 314.752 276.47 314.529 276.47 314.271C276.47 314.008 276.564 313.785 276.751 313.604C276.939 313.416 277.161 313.322 277.419 313.322C277.683 313.322 277.908 313.416 278.096 313.604C278.283 313.785 278.377 314.008 278.377 314.271C278.377 314.529 278.283 314.752 278.096 314.939C277.908 315.127 277.683 315.221 277.419 315.221ZM280.249 325.899V316.759H281.691V318.253H281.726C281.878 317.743 282.151 317.342 282.543 317.049C282.942 316.75 283.407 316.601 283.941 316.601C284.064 316.601 284.269 316.621 284.556 316.662V318.147C284.392 318.089 284.119 318.06 283.738 318.06C283.147 318.06 282.672 318.256 282.315 318.648C281.957 319.041 281.778 319.56 281.778 320.204V325.899H280.249ZM289.029 317.928C288.32 317.928 287.732 318.174 287.263 318.666C286.8 319.152 286.545 319.779 286.498 320.547H291.464C291.446 319.773 291.215 319.144 290.77 318.657C290.324 318.171 289.744 317.928 289.029 317.928ZM291.429 323.28H292.932C292.797 324.089 292.375 324.754 291.666 325.275C290.963 325.797 290.116 326.058 289.126 326.058C287.819 326.058 286.791 325.636 286.041 324.792C285.291 323.948 284.916 322.806 284.916 321.364C284.916 319.935 285.291 318.783 286.041 317.91C286.797 317.037 287.802 316.601 289.056 316.601C290.286 316.601 291.259 317.014 291.974 317.84C292.689 318.666 293.046 319.773 293.046 321.162V321.742H286.489V321.83C286.489 322.709 286.73 323.412 287.21 323.939C287.691 324.467 288.341 324.73 289.161 324.73C289.735 324.73 290.225 324.599 290.629 324.335C291.033 324.071 291.3 323.72 291.429 323.28ZM298.056 326.058C296.884 326.058 295.938 325.627 295.217 324.766C294.502 323.904 294.145 322.759 294.145 321.329C294.145 319.905 294.502 318.763 295.217 317.901C295.932 317.034 296.866 316.601 298.021 316.601C298.665 316.601 299.242 316.747 299.752 317.04C300.262 317.333 300.654 317.734 300.93 318.244H300.965V313.217H302.494V325.899H301.035V324.353H301.009C300.71 324.886 300.306 325.305 299.796 325.609C299.286 325.908 298.706 326.058 298.056 326.058ZM298.346 317.945C297.537 317.945 296.896 318.253 296.421 318.868C295.946 319.478 295.709 320.298 295.709 321.329C295.709 322.366 295.946 323.189 296.421 323.799C296.896 324.408 297.537 324.713 298.346 324.713C299.137 324.713 299.773 324.405 300.253 323.79C300.734 323.169 300.974 322.349 300.974 321.329C300.974 320.31 300.731 319.492 300.244 318.877C299.764 318.256 299.131 317.945 298.346 317.945Z" fill="#7C7D8D"/>
<rect x="145.529" y="235.9" width="79.9432" height="3" fill="#FFC747"/>
<path d="M253.451 72.9052C253.451 111.014 222.579 141.903 184.502 141.903C146.424 141.903 115.553 111.014 115.553 72.9052C115.553 34.7968 146.424 3.90723 184.502 3.90723C222.579 3.90723 253.451 34.7968 253.451 72.9052Z" fill="white" stroke="#159E99" stroke-width="6"/>
<path d="M218.229 35.4062H150.777C149.784 35.4092 148.832 35.8052 148.13 36.5078C147.428 37.2104 147.032 38.1625 147.029 39.1561V85.4049C147.032 86.3985 147.428 87.3506 148.13 88.0532C148.832 88.7558 149.784 89.1518 150.777 89.1548H163.78C163.828 89.3175 163.81 89.4926 163.73 89.6423L160.582 94.8796C160.152 95.5985 159.975 96.441 160.079 97.2724C160.183 98.1039 160.563 98.8765 161.157 99.467L165.454 103.767C166.044 104.361 166.816 104.741 167.647 104.845C168.478 104.95 169.32 104.772 170.038 104.342L175.272 101.192C175.372 101.14 175.482 101.112 175.595 101.11C175.708 101.107 175.819 101.131 175.921 101.179C176.023 101.219 176.114 101.281 176.188 101.361C176.261 101.441 176.316 101.537 176.346 101.642L177.82 107.567C178.023 108.377 178.491 109.097 179.15 109.611C179.808 110.125 180.62 110.404 181.455 110.404H187.551C188.386 110.404 189.197 110.125 189.856 109.611C190.514 109.097 190.982 108.377 191.185 107.567L192.659 101.642C192.692 101.533 192.75 101.434 192.828 101.351C192.906 101.269 193.002 101.206 193.109 101.167C193.208 101.124 193.316 101.104 193.424 101.108C193.532 101.113 193.638 101.141 193.734 101.192L198.967 104.342C199.687 104.77 200.528 104.945 201.358 104.841C202.188 104.737 202.96 104.359 203.552 103.767L207.849 99.467C208.443 98.8765 208.822 98.1039 208.926 97.2724C209.031 96.441 208.853 95.5985 208.423 94.8796L205.275 89.6423C205.202 89.4908 205.184 89.3181 205.225 89.1548H218.229C219.222 89.1518 220.173 88.7558 220.875 88.0532C221.577 87.3506 221.973 86.3985 221.976 85.4049V39.1561C221.973 38.1625 221.577 37.2104 220.875 36.5078C220.173 35.8052 219.222 35.4092 218.229 35.4062ZM211.983 83.4549C211.983 83.7341 211.889 84.0051 211.717 84.2249C211.545 84.4446 211.305 84.6004 211.034 84.6674L205.113 86.1423C204.626 86.272 204.176 86.5135 203.799 86.8477C203.422 87.1818 203.127 87.5994 202.94 88.0673C202.748 88.5272 202.667 89.0253 202.702 89.5221C202.736 90.019 202.886 90.5009 203.139 90.9297L206.275 96.1671C206.421 96.4049 206.482 96.6853 206.448 96.9624C206.414 97.2395 206.287 97.4968 206.087 97.692L201.778 102.004C201.583 102.204 201.326 102.331 201.049 102.365C200.772 102.399 200.492 102.338 200.254 102.192L195.02 99.0545C194.587 98.8043 194.102 98.657 193.604 98.6239C193.105 98.5908 192.605 98.6728 192.142 98.8637C191.68 99.0545 191.268 99.349 190.937 99.7245C190.607 100.1 190.367 100.546 190.236 101.029L188.762 106.954C188.695 107.225 188.54 107.466 188.32 107.638C188.1 107.81 187.829 107.904 187.551 107.904H181.455C181.176 107.904 180.905 107.81 180.685 107.638C180.466 107.466 180.31 107.225 180.243 106.954L178.769 101.029C178.64 100.542 178.398 100.092 178.064 99.7144C177.73 99.3368 177.313 99.0424 176.846 98.8545C176.449 98.6914 176.025 98.6065 175.597 98.6045C175.028 98.6027 174.47 98.7585 173.985 99.0545L168.751 102.192C168.514 102.338 168.233 102.399 167.957 102.365C167.68 102.331 167.423 102.204 167.227 102.004L162.918 97.692C162.719 97.4968 162.592 97.2395 162.557 96.9624C162.523 96.6853 162.584 96.4049 162.731 96.1671L165.866 90.9297C166.116 90.4964 166.263 90.0113 166.296 89.512C166.329 89.0127 166.247 88.5125 166.057 88.0499C165.866 87.5874 165.572 87.1748 165.196 86.8441C164.821 86.5133 164.375 86.2732 163.892 86.1423L157.972 84.6674C157.701 84.6004 157.46 84.4446 157.288 84.2249C157.116 84.0051 157.022 83.7341 157.022 83.4549V77.3551C157.022 77.0759 157.116 76.8049 157.288 76.5851C157.46 76.3654 157.701 76.2096 157.972 76.1426L163.892 74.6677C164.379 74.538 164.829 74.2965 165.206 73.9623C165.584 73.6282 165.878 73.2106 166.066 72.7427C166.257 72.2829 166.338 71.7847 166.304 71.2879C166.269 70.791 166.119 70.3091 165.866 69.8803L162.731 64.6429C162.584 64.4052 162.523 64.1247 162.557 63.8476C162.592 63.5705 162.719 63.3133 162.918 63.118L167.227 58.8056C167.423 58.6061 167.68 58.4789 167.957 58.4448C168.233 58.4107 168.514 58.4718 168.751 58.6181L173.985 61.7555C174.418 62.0057 174.903 62.153 175.402 62.1861C175.901 62.2192 176.401 62.1372 176.863 61.9464C177.325 61.7555 177.738 61.461 178.068 61.0855C178.399 60.71 178.638 60.2635 178.769 59.7806L180.243 53.8557C180.31 53.5847 180.466 53.344 180.685 53.1718C180.905 52.9996 181.176 52.906 181.455 52.9058H187.551C187.829 52.906 188.1 52.9996 188.32 53.1718C188.54 53.344 188.695 53.5847 188.762 53.8557L190.236 59.7806C190.366 60.2678 190.607 60.7181 190.941 61.0956C191.275 61.4732 191.692 61.7676 192.16 61.9555C192.619 62.1468 193.117 62.2283 193.614 62.1936C194.11 62.1589 194.592 62.0089 195.02 61.7555L200.254 58.6181C200.493 58.4751 200.772 58.4159 201.048 58.4499C201.324 58.4839 201.581 58.609 201.778 58.8056L206.087 63.118C206.287 63.3133 206.414 63.5705 206.448 63.8476C206.482 64.1247 206.421 64.4052 206.275 64.6429L203.139 69.8803C202.889 70.3136 202.742 70.7987 202.709 71.298C202.676 71.7973 202.758 72.2975 202.949 72.7601C203.139 73.2226 203.434 73.6352 203.809 73.966C204.184 74.2967 204.63 74.5368 205.113 74.6677L211.034 76.1426C211.305 76.2096 211.545 76.3654 211.717 76.5851C211.889 76.8049 211.983 77.0759 211.983 77.3551V83.4549ZM219.478 85.4049C219.478 85.7364 219.346 86.0543 219.112 86.2887C218.878 86.5231 218.56 86.6548 218.229 86.6548H212.67C213.222 86.323 213.679 85.8539 213.996 85.2932C214.314 84.7326 214.481 84.0993 214.481 83.4549V77.3551C214.481 76.5193 214.202 75.7074 213.689 75.0484C213.175 74.3894 212.456 73.9211 211.646 73.7177L205.725 72.2427C205.55 72.1951 205.398 72.0837 205.3 71.9302C205.288 71.8927 205.263 71.8302 205.25 71.7927C205.208 71.6934 205.188 71.5856 205.192 71.4774C205.196 71.3692 205.225 71.2634 205.275 71.1678L208.423 65.9304C208.853 65.2115 209.031 64.369 208.926 63.5376C208.822 62.7061 208.443 61.9335 207.849 61.343L203.552 57.0432C202.962 56.4485 202.19 56.0688 201.359 55.9646C200.528 55.8604 199.686 56.0377 198.967 56.4682L193.734 59.6181C193.634 59.6701 193.523 59.6982 193.41 59.7004C193.298 59.7026 193.186 59.6787 193.084 59.6306C192.982 59.5914 192.891 59.5293 192.818 59.4491C192.744 59.3689 192.69 59.2727 192.659 59.1681L191.185 53.2433C190.982 52.4326 190.514 51.7131 189.856 51.199C189.197 50.685 188.386 50.4058 187.551 50.4058H181.455C180.62 50.4058 179.808 50.685 179.15 51.199C178.491 51.7131 178.023 52.4326 177.82 53.2433L176.346 59.1681C176.313 59.2767 176.255 59.3762 176.177 59.4586C176.099 59.5411 176.003 59.6042 175.896 59.6431C175.797 59.686 175.689 59.706 175.581 59.7017C175.473 59.6974 175.367 59.6688 175.272 59.6181L170.038 56.4682C169.319 56.0405 168.477 55.8648 167.647 55.9689C166.817 56.073 166.045 56.451 165.454 57.0432L161.157 61.343C160.563 61.9335 160.183 62.7061 160.079 63.5376C159.975 64.369 160.152 65.2115 160.582 65.9304L163.73 71.1678C163.782 71.2678 163.81 71.3785 163.812 71.4913C163.814 71.604 163.79 71.7157 163.742 71.8177C163.703 71.9194 163.641 72.0107 163.561 72.0844C163.481 72.1581 163.385 72.2123 163.28 72.2427L157.359 73.7177C156.549 73.9211 155.83 74.3894 155.317 75.0484C154.803 75.7074 154.524 76.5193 154.524 77.3551V83.4549C154.525 84.0993 154.692 84.7326 155.009 85.2932C155.326 85.8539 155.783 86.323 156.335 86.6548H150.777C150.445 86.6548 150.128 86.5231 149.893 86.2887C149.659 86.0543 149.528 85.7364 149.528 85.4049V47.9059H219.478V85.4049ZM219.478 45.406H149.528V39.1561C149.528 38.8246 149.659 38.5067 149.893 38.2723C150.128 38.0379 150.445 37.9062 150.777 37.9062H218.229C218.56 37.9062 218.878 38.0379 219.112 38.2723C219.346 38.5067 219.478 38.8246 219.478 39.1561V45.406Z" fill="#159E99"/>
<path d="M152.028 40.4062H154.526V42.9061H152.028V40.4062Z" fill="#159E99"/>
<path d="M157.021 40.4062H159.52V42.9061H157.021V40.4062Z" fill="#159E99"/>
<path d="M162.02 40.4062H164.519V42.9061H162.02V40.4062Z" fill="#159E99"/>
<path d="M184.501 65.4054C181.536 65.4054 178.638 66.2851 176.173 67.9333C173.708 69.5815 171.787 71.9241 170.652 74.6649C169.518 77.4057 169.221 80.4216 169.799 83.3312C170.378 86.2409 171.805 88.9135 173.902 91.0113C175.998 93.109 178.669 94.5376 181.576 95.1163C184.484 95.6951 187.498 95.398 190.237 94.2628C192.976 93.1275 195.317 91.2049 196.964 88.7383C198.611 86.2716 199.49 83.3716 199.49 80.405C199.486 76.4282 197.905 72.6155 195.095 69.8034C192.285 66.9914 188.475 65.4097 184.501 65.4054ZM184.501 92.9046C182.03 92.9046 179.615 92.1715 177.561 90.798C175.507 89.4246 173.906 87.4724 172.96 85.1884C172.015 82.9044 171.768 80.3911 172.25 77.9664C172.732 75.5417 173.921 73.3145 175.668 71.5664C177.415 69.8183 179.641 68.6278 182.064 68.1455C184.487 67.6632 186.998 67.9107 189.281 68.8568C191.563 69.8029 193.514 71.405 194.887 73.4605C196.259 75.5161 196.992 77.9328 196.992 80.405C196.988 83.719 195.671 86.8962 193.329 89.2395C190.988 91.5829 187.812 92.901 184.501 92.9046Z" fill="#159E99"/>
<path d="M183.255 79.1553H185.753V81.6553H183.255V79.1553Z" fill="#159E99"/>
<path d="M188.248 79.1553H190.746V81.6553H188.248V79.1553Z" fill="#159E99"/>
<path d="M178.256 79.1553H180.754V81.6553H178.256V79.1553Z" fill="#159E99"/>
</svg>
