<svg width="20" height="20" viewBox="0 0 20 20" fill="none" xmlns="http://www.w3.org/2000/svg">
<path d="M19.803 19.8265V19.8257H19.8077V12.8939C19.8077 9.50284 19.0777 6.89062 15.1133 6.89062C13.2075 6.89062 11.9286 7.93646 11.4064 8.92795H11.3513V7.20721H7.59247V19.8257H11.5065V13.5775C11.5065 11.9324 11.8183 10.3416 13.8556 10.3416C15.863 10.3416 15.893 12.219 15.893 13.683V19.8265H19.803Z" fill="#159E99"/>
<path d="M1.21906 7.20776H5.13778V19.8263H1.21906V7.20776Z" fill="#159E99"/>
<path d="M3.17589 0.925781C1.92294 0.925781 0.90625 1.94247 0.90625 3.19543C0.90625 4.44838 1.92294 5.48633 3.17589 5.48633C4.42885 5.48633 5.44554 4.44838 5.44554 3.19543C5.44475 1.94247 4.42806 0.925781 3.17589 0.925781V0.925781Z" fill="#159E99"/>
</svg>
