<svg width="145" height="239" viewBox="0 0 145 239" fill="none" xmlns="http://www.w3.org/2000/svg">
<g filter="url(#filter0_d)">
<path d="M32.1063 188.06C32.9463 187.96 33.8463 187.89 34.8063 187.85C35.7863 187.79 36.8163 187.76 37.8963 187.76C39.1963 187.76 40.3563 187.92 41.3763 188.24C42.3963 188.56 43.2563 189 43.9563 189.56C44.6563 190.12 45.1863 190.8 45.5463 191.6C45.9063 192.38 46.0863 193.23 46.0863 194.15C46.0863 195.27 45.8663 196.27 45.4263 197.15C45.0063 198.01 44.4063 198.74 43.6263 199.34C42.8663 199.94 41.9463 200.4 40.8663 200.72C39.7863 201.02 38.5963 201.17 37.2963 201.17C36.4563 201.17 35.6763 201.14 34.9563 201.08V209H32.1063V188.06ZM37.6563 198.8C39.4563 198.8 40.8363 198.41 41.7963 197.63C42.7763 196.83 43.2663 195.75 43.2663 194.39C43.2663 193.09 42.7963 192.06 41.8563 191.3C40.9363 190.54 39.5963 190.16 37.8363 190.16C37.2963 190.16 36.7863 190.17 36.3063 190.19C35.8263 190.21 35.3763 190.24 34.9563 190.28V198.65C35.2763 198.69 35.6563 198.73 36.0963 198.77C36.5563 198.79 37.0763 198.8 37.6563 198.8ZM51.9379 195.89C52.4979 195.07 53.1979 194.39 54.0379 193.85C54.8979 193.31 55.9179 193.04 57.0979 193.04C58.8579 193.04 60.1679 193.57 61.0279 194.63C61.9079 195.69 62.3479 197.09 62.3479 198.83V209H59.6479V199.13C59.6479 197.99 59.3879 197.09 58.8679 196.43C58.3679 195.75 57.6379 195.41 56.6779 195.41C56.2179 195.41 55.7579 195.5 55.2979 195.68C54.8579 195.84 54.4379 196.07 54.0379 196.37C53.6379 196.67 53.2579 197.02 52.8979 197.42C52.5379 197.82 52.2179 198.24 51.9379 198.68V209H49.2379V186.8H51.9379V195.89ZM78.5718 201.2C78.5718 200.42 78.4418 199.68 78.1818 198.98C77.9418 198.28 77.5918 197.67 77.1318 197.15C76.6918 196.63 76.1618 196.22 75.5418 195.92C74.9418 195.6 74.2818 195.44 73.5618 195.44C71.9818 195.44 70.7518 195.96 69.8718 197C68.9918 198.04 68.5518 199.42 68.5518 201.14C68.5518 201.92 68.6718 202.67 68.9118 203.39C69.1718 204.09 69.5218 204.71 69.9618 205.25C70.4218 205.77 70.9518 206.19 71.5518 206.51C72.1718 206.81 72.8418 206.96 73.5618 206.96C74.3418 206.96 75.0418 206.82 75.6618 206.54C76.2818 206.26 76.8018 205.87 77.2218 205.37C77.6618 204.85 77.9918 204.24 78.2118 203.54C78.4518 202.84 78.5718 202.06 78.5718 201.2ZM65.7918 201.2C65.7918 199.94 65.9918 198.81 66.3918 197.81C66.7918 196.79 67.3318 195.93 68.0118 195.23C68.7118 194.53 69.5318 193.99 70.4718 193.61C71.4318 193.23 72.4618 193.04 73.5618 193.04C74.6418 193.04 75.6518 193.23 76.5918 193.61C77.5518 193.99 78.3818 194.53 79.0818 195.23C79.7818 195.93 80.3318 196.78 80.7318 197.78C81.1318 198.78 81.3318 199.9 81.3318 201.14C81.3318 202.38 81.1318 203.51 80.7318 204.53C80.3518 205.53 79.8118 206.39 79.1118 207.11C78.4118 207.83 77.5818 208.39 76.6218 208.79C75.6818 209.17 74.6618 209.36 73.5618 209.36C72.4418 209.36 71.4018 209.16 70.4418 208.76C69.5018 208.36 68.6818 207.8 67.9818 207.08C67.3018 206.36 66.7618 205.5 66.3618 204.5C65.9818 203.5 65.7918 202.4 65.7918 201.2ZM87.5315 196.01C88.0915 195.17 88.8015 194.47 89.6615 193.91C90.5415 193.33 91.5815 193.04 92.7815 193.04C94.5415 193.04 95.8515 193.57 96.7115 194.63C97.5915 195.69 98.0315 197.09 98.0315 198.83V209H95.3315V199.13C95.3315 197.99 95.0715 197.09 94.5515 196.43C94.0315 195.75 93.2915 195.41 92.3315 195.41C91.8715 195.41 91.4215 195.5 90.9815 195.68C90.5415 195.84 90.1115 196.07 89.6915 196.37C89.2915 196.67 88.9115 197.02 88.5515 197.42C88.2115 197.82 87.9015 198.24 87.6215 198.68V209H84.9215V193.4H87.5315V196.01ZM104.385 202.31C104.565 203.77 105.075 204.91 105.915 205.73C106.755 206.55 107.865 206.96 109.245 206.96C110.145 206.96 110.955 206.87 111.675 206.69C112.395 206.49 113.085 206.24 113.745 205.94L114.375 208.25C113.655 208.59 112.845 208.86 111.945 209.06C111.045 209.26 110.035 209.36 108.915 209.36C107.795 209.36 106.785 209.18 105.885 208.82C104.985 208.44 104.215 207.91 103.575 207.23C102.955 206.53 102.475 205.68 102.135 204.68C101.795 203.66 101.625 202.5 101.625 201.2C101.625 200.04 101.795 198.96 102.135 197.96C102.475 196.96 102.955 196.1 103.575 195.38C104.195 194.64 104.935 194.07 105.795 193.67C106.655 193.25 107.615 193.04 108.675 193.04C109.795 193.04 110.775 193.23 111.615 193.61C112.455 193.99 113.155 194.51 113.715 195.17C114.275 195.83 114.695 196.6 114.975 197.48C115.255 198.36 115.395 199.29 115.395 200.27C115.395 200.97 115.365 201.65 115.305 202.31H104.385ZM108.615 195.38C107.435 195.38 106.465 195.78 105.705 196.58C104.965 197.38 104.515 198.56 104.355 200.12H112.905C112.905 198.6 112.525 197.43 111.765 196.61C111.005 195.79 109.955 195.38 108.615 195.38Z" fill="#313236"/>
<path d="M32.1063 188.06L32.0471 187.564L31.6063 187.616V188.06H32.1063ZM34.8063 187.85L34.8271 188.35L34.8368 188.349L34.8063 187.85ZM43.9563 189.56L43.6439 189.95L43.6439 189.95L43.9563 189.56ZM45.5463 191.6L45.0903 191.805L45.0923 191.81L45.5463 191.6ZM45.4263 197.15L44.979 196.926L44.977 196.931L45.4263 197.15ZM43.6263 199.34L43.3214 198.944L43.3164 198.948L43.6263 199.34ZM40.8663 200.72L41.0001 201.202L41.0083 201.199L40.8663 200.72ZM34.9563 201.08L34.9978 200.582L34.4563 200.537V201.08H34.9563ZM34.9563 209V209.5H35.4563V209H34.9563ZM32.1063 209H31.6063V209.5H32.1063V209ZM41.7963 197.63L42.1115 198.018L42.1124 198.017L41.7963 197.63ZM41.8563 191.3L41.5378 191.686L41.5419 191.689L41.8563 191.3ZM36.3063 190.19L36.2854 189.69L36.2854 189.69L36.3063 190.19ZM34.9563 190.28L34.9088 189.782L34.4563 189.825V190.28H34.9563ZM34.9563 198.65H34.4563V199.091L34.8942 199.146L34.9563 198.65ZM36.0963 198.77L36.051 199.268L36.0627 199.269L36.0745 199.27L36.0963 198.77ZM32.1654 188.556C32.9911 188.458 33.8782 188.389 34.8271 188.35L34.7854 187.35C33.8143 187.391 32.9014 187.462 32.0471 187.564L32.1654 188.556ZM34.8368 188.349C35.8057 188.29 36.8254 188.26 37.8963 188.26V187.26C36.8071 187.26 35.7668 187.29 34.7757 187.351L34.8368 188.349ZM37.8963 188.26C39.156 188.26 40.2642 188.415 41.2266 188.717L41.5259 187.763C40.4483 187.425 39.2365 187.26 37.8963 187.26V188.26ZM41.2266 188.717C42.1986 189.022 43.0006 189.436 43.6439 189.95L44.2686 189.17C43.5119 188.564 42.5939 188.098 41.5259 187.763L41.2266 188.717ZM43.6439 189.95C44.2834 190.462 44.7635 191.079 45.0903 191.805L46.0022 191.395C45.609 190.521 45.0291 189.778 44.2686 189.17L43.6439 189.95ZM45.0923 191.81C45.4198 192.519 45.5863 193.297 45.5863 194.15H46.5863C46.5863 193.163 46.3927 192.241 46.0002 191.39L45.0923 191.81ZM45.5863 194.15C45.5863 195.203 45.3798 196.125 44.979 196.926L45.8735 197.374C46.3527 196.415 46.5863 195.337 46.5863 194.15H45.5863ZM44.977 196.931C44.5918 197.719 44.042 198.389 43.3214 198.944L43.9311 199.736C44.7705 199.091 45.4207 198.301 45.8755 197.369L44.977 196.931ZM43.3164 198.948C42.6138 199.502 41.7531 199.936 40.7242 200.241L41.0083 201.199C42.1394 200.864 43.1187 200.378 43.9361 199.732L43.3164 198.948ZM40.7324 200.238C39.7023 200.524 38.5581 200.67 37.2963 200.67V201.67C38.6344 201.67 39.8702 201.516 41.0001 201.202L40.7324 200.238ZM37.2963 200.67C36.4679 200.67 35.702 200.64 34.9978 200.582L34.9147 201.578C35.6505 201.64 36.4446 201.67 37.2963 201.67V200.67ZM34.4563 201.08V209H35.4563V201.08H34.4563ZM34.9563 208.5H32.1063V209.5H34.9563V208.5ZM32.6063 209V188.06H31.6063V209H32.6063ZM37.6563 199.3C39.5203 199.3 41.0297 198.897 42.1115 198.018L41.481 197.242C40.6428 197.923 39.3922 198.3 37.6563 198.3V199.3ZM42.1124 198.017C43.2184 197.115 43.7663 195.887 43.7663 194.39H42.7663C42.7663 195.613 42.3341 196.545 41.4801 197.243L42.1124 198.017ZM43.7663 194.39C43.7663 192.952 43.2378 191.774 42.1706 190.911L41.5419 191.689C42.3547 192.346 42.7663 193.228 42.7663 194.39H43.7663ZM42.1747 190.915C41.1311 190.052 39.659 189.66 37.8363 189.66V190.66C39.5335 190.66 40.7414 191.028 41.5378 191.685L42.1747 190.915ZM37.8363 189.66C37.2901 189.66 36.7732 189.67 36.2854 189.69L36.3271 190.69C36.7993 190.67 37.3024 190.66 37.8363 190.66V189.66ZM36.2854 189.69C35.7977 189.711 35.3388 189.741 34.9088 189.782L35.0037 190.778C35.4137 190.739 35.8548 190.709 36.3271 190.69L36.2854 189.69ZM34.4563 190.28V198.65H35.4563V190.28H34.4563ZM34.8942 199.146C35.2214 199.187 35.6073 199.228 36.051 199.268L36.1415 198.272C35.7052 198.232 35.3311 198.193 35.0183 198.154L34.8942 199.146ZM36.0745 199.27C36.5433 199.29 37.0708 199.3 37.6563 199.3V198.3C37.0817 198.3 36.5692 198.29 36.118 198.27L36.0745 199.27ZM51.9379 195.89H51.4379V197.509L52.3508 196.172L51.9379 195.89ZM54.0379 193.85L53.772 193.427L53.7675 193.429L54.0379 193.85ZM61.0279 194.63L60.6396 194.945L60.6432 194.949L61.0279 194.63ZM62.3479 209V209.5H62.8479V209H62.3479ZM59.6479 209H59.1479V209.5H59.6479V209ZM58.8679 196.43L58.4651 196.726L58.47 196.733L58.4751 196.739L58.8679 196.43ZM55.2979 195.68L55.4688 196.15L55.4801 196.146L55.2979 195.68ZM54.0379 196.37L53.7379 195.97L53.7379 195.97L54.0379 196.37ZM52.8979 197.42L53.2695 197.754L53.2695 197.754L52.8979 197.42ZM51.9379 198.68L51.5161 198.412L51.4379 198.534V198.68H51.9379ZM51.9379 209V209.5H52.4379V209H51.9379ZM49.2379 209H48.7379V209.5H49.2379V209ZM49.2379 186.8V186.3H48.7379V186.8H49.2379ZM51.9379 186.8H52.4379V186.3H51.9379V186.8ZM52.3508 196.172C52.8728 195.408 53.5242 194.775 54.3083 194.271L53.7675 193.429C52.8715 194.005 52.123 194.732 51.525 195.608L52.3508 196.172ZM54.3038 194.273C55.0719 193.791 55.9964 193.54 57.0979 193.54V192.54C55.8394 192.54 54.7239 192.829 53.772 193.427L54.3038 194.273ZM57.0979 193.54C58.7544 193.54 59.9008 194.034 60.6396 194.945L61.4162 194.315C60.435 193.106 58.9614 192.54 57.0979 192.54V193.54ZM60.6432 194.949C61.4308 195.898 61.8479 197.175 61.8479 198.83H62.8479C62.8479 197.005 62.385 195.482 61.4126 194.311L60.6432 194.949ZM61.8479 198.83V209H62.8479V198.83H61.8479ZM62.3479 208.5H59.6479V209.5H62.3479V208.5ZM60.1479 209V199.13H59.1479V209H60.1479ZM60.1479 199.13C60.1479 197.918 59.8713 196.896 59.2606 196.121L58.4751 196.739C58.9045 197.284 59.1479 198.062 59.1479 199.13H60.1479ZM59.2707 196.134C58.6626 195.307 57.7719 194.91 56.6779 194.91V195.91C57.5039 195.91 58.0732 196.193 58.4651 196.726L59.2707 196.134ZM56.6779 194.91C56.1511 194.91 55.6294 195.013 55.1157 195.214L55.4801 196.146C55.8864 195.987 56.2847 195.91 56.6779 195.91V194.91ZM55.127 195.21C54.6377 195.388 54.1746 195.642 53.7379 195.97L54.3379 196.77C54.7012 196.498 55.078 196.292 55.4688 196.15L55.127 195.21ZM53.7379 195.97C53.3101 196.291 52.9063 196.663 52.5262 197.086L53.2695 197.754C53.6095 197.377 53.9657 197.049 54.3379 196.77L53.7379 195.97ZM52.5262 197.086C52.1483 197.505 51.8114 197.947 51.5161 198.412L52.3597 198.948C52.6244 198.533 52.9275 198.135 53.2695 197.754L52.5262 197.086ZM51.4379 198.68V209H52.4379V198.68H51.4379ZM51.9379 208.5H49.2379V209.5H51.9379V208.5ZM49.7379 209V186.8H48.7379V209H49.7379ZM49.2379 187.3H51.9379V186.3H49.2379V187.3ZM51.4379 186.8V195.89H52.4379V186.8H51.4379ZM78.1818 198.98L77.7087 199.142L77.7131 199.154L78.1818 198.98ZM77.1318 197.15L76.75 197.473L76.7573 197.481L77.1318 197.15ZM75.5418 195.92L75.3065 196.361L75.3152 196.366L75.324 196.37L75.5418 195.92ZM69.8718 197L70.2535 197.323L70.2535 197.323L69.8718 197ZM68.9118 203.39L68.4375 203.548L68.4401 203.556L68.4431 203.564L68.9118 203.39ZM69.9618 205.25L69.5742 205.566L69.5806 205.574L69.5873 205.581L69.9618 205.25ZM71.5518 206.51L71.3165 206.951L71.3252 206.956L71.334 206.96L71.5518 206.51ZM77.2218 205.37L76.8401 205.047L76.8389 205.048L77.2218 205.37ZM78.2118 203.54L77.7387 203.378L77.7348 203.39L78.2118 203.54ZM66.3918 197.81L66.856 197.996L66.8573 197.993L66.3918 197.81ZM68.0118 195.23L67.6582 194.876L67.6532 194.882L68.0118 195.23ZM70.4718 193.61L70.2878 193.145L70.2844 193.146L70.4718 193.61ZM76.5918 193.61L76.4044 194.074L76.4078 194.075L76.5918 193.61ZM79.0818 195.23L78.7282 195.584L79.0818 195.23ZM80.7318 197.78L81.196 197.594L81.196 197.594L80.7318 197.78ZM80.7318 204.53L80.2663 204.347L80.2644 204.352L80.7318 204.53ZM79.1118 207.11L78.7533 206.761L78.7533 206.761L79.1118 207.11ZM76.6218 208.79L76.8092 209.254L76.8141 209.252L76.6218 208.79ZM70.4418 208.76L70.246 209.22L70.2495 209.222L70.4418 208.76ZM67.9818 207.08L67.6183 207.423L67.6233 207.429L67.9818 207.08ZM66.3618 204.5L65.8943 204.678L65.8976 204.686L66.3618 204.5ZM79.0718 201.2C79.0718 200.363 78.9321 199.564 78.6505 198.806L77.7131 199.154C77.9515 199.796 78.0718 200.477 78.0718 201.2H79.0718ZM78.6548 198.818C78.3948 198.06 78.0128 197.391 77.5063 196.819L76.7573 197.481C77.1708 197.949 77.4888 198.5 77.7088 199.142L78.6548 198.818ZM77.5135 196.827C77.0278 196.253 76.4418 195.8 75.7596 195.47L75.324 196.37C75.8818 196.64 76.3558 197.007 76.7501 197.473L77.5135 196.827ZM75.7771 195.479C75.1004 195.118 74.3589 194.94 73.5618 194.94V195.94C74.2047 195.94 74.7832 196.082 75.3065 196.361L75.7771 195.479ZM73.5618 194.94C71.8609 194.94 70.4808 195.506 69.4901 196.677L70.2535 197.323C71.0228 196.414 72.1027 195.94 73.5618 195.94V194.94ZM69.4901 196.677C68.5154 197.829 68.0518 199.334 68.0518 201.14H69.0518C69.0518 199.506 69.4682 198.251 70.2535 197.323L69.4901 196.677ZM68.0518 201.14C68.0518 201.972 68.18 202.776 68.4375 203.548L69.3861 203.232C69.1636 202.564 69.0518 201.868 69.0518 201.14H68.0518ZM68.4431 203.564C68.7208 204.312 69.0971 204.98 69.5742 205.566L70.3494 204.934C69.9464 204.44 69.6228 203.868 69.3805 203.216L68.4431 203.564ZM69.5873 205.581C70.0859 206.145 70.6628 206.603 71.3165 206.951L71.7871 206.069C71.2408 205.777 70.7577 205.395 70.3363 204.919L69.5873 205.581ZM71.334 206.96C72.025 207.294 72.7699 207.46 73.5618 207.46V206.46C72.9137 206.46 72.3186 206.326 71.7696 206.06L71.334 206.96ZM73.5618 207.46C74.4024 207.46 75.1741 207.309 75.8676 206.996L75.456 206.084C74.9095 206.331 74.2812 206.46 73.5618 206.46V207.46ZM75.8676 206.996C76.553 206.686 77.1344 206.251 77.6047 205.692L76.8389 205.048C76.4692 205.489 76.0106 205.834 75.456 206.084L75.8676 206.996ZM77.6035 205.693C78.0897 205.118 78.4504 204.448 78.6888 203.69L77.7348 203.39C77.5332 204.032 77.2339 204.582 76.8401 205.047L77.6035 205.693ZM78.6848 203.702C78.9453 202.942 79.0718 202.106 79.0718 201.2H78.0718C78.0718 202.014 77.9583 202.738 77.7388 203.378L78.6848 203.702ZM66.2918 201.2C66.2918 199.993 66.4833 198.928 66.856 197.996L65.9276 197.624C65.5003 198.692 65.2918 199.887 65.2918 201.2H66.2918ZM66.8573 197.993C67.236 197.027 67.7421 196.225 68.3704 195.578L67.6532 194.882C66.9215 195.635 66.3476 196.553 65.9263 197.627L66.8573 197.993ZM68.3654 195.584C69.0167 194.932 69.7799 194.429 70.6592 194.074L70.2844 193.146C69.2837 193.551 68.4069 194.128 67.6582 194.876L68.3654 195.584ZM70.6558 194.075C71.5535 193.72 72.5206 193.54 73.5618 193.54V192.54C72.403 192.54 71.3101 192.74 70.2878 193.145L70.6558 194.075ZM73.5618 193.54C74.5818 193.54 75.5278 193.719 76.4044 194.074L76.7792 193.146C75.7758 192.741 74.7018 192.54 73.5618 192.54V193.54ZM76.4078 194.075C77.307 194.431 78.0786 194.934 78.7282 195.584L79.4354 194.876C78.685 194.126 77.7966 193.549 76.7758 193.145L76.4078 194.075ZM78.7282 195.584C79.3763 196.232 79.8905 197.023 80.2676 197.966L81.196 197.594C80.7731 196.537 80.1873 195.628 79.4354 194.876L78.7282 195.584ZM80.2676 197.966C80.6406 198.898 80.8318 199.954 80.8318 201.14H81.8318C81.8318 199.846 81.623 198.662 81.196 197.594L80.2676 197.966ZM80.8318 201.14C80.8318 202.326 80.6407 203.393 80.2663 204.347L81.1973 204.713C81.6229 203.627 81.8318 202.434 81.8318 201.14H80.8318ZM80.2644 204.352C79.907 205.293 79.4027 206.094 78.7533 206.761L79.4703 207.459C80.2209 206.686 80.7965 205.767 81.1992 204.708L80.2644 204.352ZM78.7533 206.761C78.1022 207.431 77.3293 207.954 76.4295 208.328L76.8141 209.252C77.8343 208.826 78.7214 208.229 79.4703 207.459L78.7533 206.761ZM76.4344 208.326C75.5588 208.68 74.6031 208.86 73.5618 208.86V209.86C74.7205 209.86 75.8048 209.66 76.8092 209.254L76.4344 208.326ZM73.5618 208.86C72.5027 208.86 71.5286 208.671 70.6341 208.298L70.2495 209.222C71.275 209.649 72.3809 209.86 73.5618 209.86V208.86ZM70.6376 208.3C69.7576 207.925 68.9932 207.403 68.3403 206.731L67.6233 207.429C68.3704 208.197 69.246 208.795 70.246 209.22L70.6376 208.3ZM68.3453 206.737C67.7121 206.066 67.2047 205.261 66.826 204.314L65.8976 204.686C66.3189 205.739 66.8915 206.654 67.6183 207.423L68.3453 206.737ZM66.8292 204.322C66.4732 203.386 66.2918 202.347 66.2918 201.2H65.2918C65.2918 202.453 65.4904 203.614 65.8944 204.678L66.8292 204.322ZM87.5315 196.01H87.0315V197.661L87.9475 196.287L87.5315 196.01ZM89.6615 193.91L89.9343 194.329L89.9366 194.327L89.6615 193.91ZM96.7115 194.63L96.3232 194.945L96.3268 194.949L96.7115 194.63ZM98.0315 209V209.5H98.5315V209H98.0315ZM95.3315 209H94.8315V209.5H95.3315V209ZM94.5515 196.43L94.1543 196.734L94.1587 196.739L94.5515 196.43ZM90.9815 195.68L91.1524 196.15L91.1616 196.147L91.1708 196.143L90.9815 195.68ZM89.6915 196.37L89.4008 195.963L89.3915 195.97L89.6915 196.37ZM88.5515 197.42L88.1798 197.086L88.1751 197.091L88.1705 197.096L88.5515 197.42ZM87.6215 198.68L87.1997 198.412L87.1215 198.534V198.68H87.6215ZM87.6215 209V209.5H88.1215V209H87.6215ZM84.9215 209H84.4215V209.5H84.9215V209ZM84.9215 193.4V192.9H84.4215V193.4H84.9215ZM87.5315 193.4H88.0315V192.9H87.5315V193.4ZM87.9475 196.287C88.4692 195.505 89.1302 194.853 89.9343 194.329L89.3886 193.491C88.4728 194.087 87.7137 194.835 87.1155 195.733L87.9475 196.287ZM89.9366 194.327C90.724 193.809 91.6653 193.54 92.7815 193.54V192.54C91.4976 192.54 90.3589 192.851 89.3863 193.493L89.9366 194.327ZM92.7815 193.54C94.438 193.54 95.5843 194.034 96.3232 194.945L97.0998 194.315C96.1186 193.106 94.645 192.54 92.7815 192.54V193.54ZM96.3268 194.949C97.1144 195.898 97.5315 197.175 97.5315 198.83H98.5315C98.5315 197.005 98.0686 195.482 97.0962 194.311L96.3268 194.949ZM97.5315 198.83V209H98.5315V198.83H97.5315ZM98.0315 208.5H95.3315V209.5H98.0315V208.5ZM95.8315 209V199.13H94.8315V209H95.8315ZM95.8315 199.13C95.8315 197.918 95.5549 196.896 94.9442 196.121L94.1587 196.739C94.5881 197.284 94.8315 198.062 94.8315 199.13H95.8315ZM94.9487 196.126C94.3217 195.306 93.4256 194.91 92.3315 194.91V195.91C93.1574 195.91 93.7413 196.194 94.1543 196.734L94.9487 196.126ZM92.3315 194.91C91.8044 194.91 91.2902 195.013 90.7922 195.217L91.1708 196.143C91.5528 195.987 91.9386 195.91 92.3315 195.91V194.91ZM90.8106 195.21C90.3239 195.387 89.854 195.639 89.4009 195.963L89.9821 196.777C90.369 196.501 90.759 196.293 91.1524 196.15L90.8106 195.21ZM89.3915 195.97C88.9636 196.291 88.5599 196.663 88.1798 197.086L88.9231 197.754C89.2631 197.377 89.6193 197.049 89.9915 196.77L89.3915 195.97ZM88.1705 197.096C87.8157 197.514 87.4921 197.952 87.1997 198.412L88.0433 198.948C88.3109 198.528 88.6072 198.126 88.9325 197.744L88.1705 197.096ZM87.1215 198.68V209H88.1215V198.68H87.1215ZM87.6215 208.5H84.9215V209.5H87.6215V208.5ZM85.4215 209V193.4H84.4215V209H85.4215ZM84.9215 193.9H87.5315V192.9H84.9215V193.9ZM87.0315 193.4V196.01H88.0315V193.4H87.0315ZM104.385 202.31V201.81H103.82L103.889 202.371L104.385 202.31ZM111.675 206.69L111.797 207.175L111.809 207.172L111.675 206.69ZM113.745 205.94L114.228 205.808L114.073 205.242L113.538 205.485L113.745 205.94ZM114.375 208.25L114.589 208.702L114.968 208.523L114.858 208.118L114.375 208.25ZM111.945 209.06L112.054 209.548L112.054 209.548L111.945 209.06ZM105.885 208.82L105.691 209.281L105.7 209.284L105.885 208.82ZM103.575 207.23L103.201 207.562L103.206 207.567L103.211 207.573L103.575 207.23ZM102.135 204.68L101.661 204.838L101.662 204.841L102.135 204.68ZM102.135 197.96L101.662 197.799L101.662 197.799L102.135 197.96ZM103.575 195.38L103.954 195.706L103.959 195.701L103.575 195.38ZM105.795 193.67L106.006 194.123L106.015 194.119L105.795 193.67ZM114.975 197.48L114.499 197.632L114.499 197.632L114.975 197.48ZM115.305 202.31V202.81H115.762L115.803 202.355L115.305 202.31ZM105.705 196.58L105.343 196.236L105.338 196.24L105.705 196.58ZM104.355 200.12L103.858 200.069L103.801 200.62H104.355V200.12ZM112.905 200.12V200.62H113.405V200.12H112.905ZM111.765 196.61L111.399 196.95L111.399 196.95L111.765 196.61ZM103.889 202.371C104.079 203.915 104.626 205.17 105.566 206.088L106.265 205.372C105.525 204.65 105.051 203.625 104.882 202.249L103.889 202.371ZM105.566 206.088C106.516 207.015 107.759 207.46 109.245 207.46V206.46C107.971 206.46 106.995 206.085 106.265 205.372L105.566 206.088ZM109.245 207.46C110.178 207.46 111.03 207.367 111.797 207.175L111.554 206.205C110.881 206.373 110.113 206.46 109.245 206.46V207.46ZM111.809 207.172C112.553 206.965 113.268 206.706 113.952 206.395L113.538 205.485C112.903 205.774 112.237 206.015 111.542 206.208L111.809 207.172ZM113.263 206.072L113.893 208.382L114.858 208.118L114.228 205.808L113.263 206.072ZM114.162 207.798C113.48 208.12 112.706 208.379 111.837 208.572L112.054 209.548C112.985 209.341 113.831 209.06 114.589 208.702L114.162 207.798ZM111.837 208.572C110.979 208.763 110.006 208.86 108.915 208.86V209.86C110.064 209.86 111.112 209.757 112.054 209.548L111.837 208.572ZM108.915 208.86C107.849 208.86 106.904 208.689 106.071 208.356L105.7 209.284C106.667 209.671 107.742 209.86 108.915 209.86V208.86ZM106.08 208.359C105.241 208.005 104.53 207.514 103.939 206.887L103.211 207.573C103.901 208.306 104.73 208.875 105.691 209.281L106.08 208.359ZM103.95 206.898C103.379 206.254 102.93 205.464 102.609 204.519L101.662 204.841C102.021 205.896 102.532 206.806 103.201 207.562L103.95 206.898ZM102.61 204.522C102.29 203.562 102.125 202.457 102.125 201.2H101.125C101.125 202.543 101.301 203.758 101.661 204.838L102.61 204.522ZM102.125 201.2C102.125 200.089 102.288 199.064 102.609 198.121L101.662 197.799C101.303 198.856 101.125 199.991 101.125 201.2H102.125ZM102.609 198.121C102.93 197.175 103.38 196.373 103.954 195.706L103.197 195.054C102.53 195.827 102.02 196.745 101.662 197.799L102.609 198.121ZM103.959 195.701C104.532 195.016 105.214 194.492 106.006 194.123L105.585 193.217C104.657 193.648 103.858 194.264 103.192 195.059L103.959 195.701ZM106.015 194.119C106.799 193.736 107.683 193.54 108.675 193.54V192.54C107.548 192.54 106.511 192.764 105.576 193.221L106.015 194.119ZM108.675 193.54C109.739 193.54 110.646 193.72 111.409 194.066L111.821 193.154C110.904 192.74 109.852 192.54 108.675 192.54V193.54ZM111.409 194.066C112.186 194.417 112.825 194.894 113.334 195.493L114.097 194.847C113.486 194.126 112.724 193.563 111.821 193.154L111.409 194.066ZM113.334 195.493C113.849 196.1 114.238 196.81 114.499 197.632L115.452 197.328C115.153 196.39 114.702 195.56 114.097 194.847L113.334 195.493ZM114.499 197.632C114.762 198.46 114.895 199.338 114.895 200.27H115.895C115.895 199.242 115.748 198.26 115.452 197.328L114.499 197.632ZM114.895 200.27C114.895 200.956 114.866 201.621 114.807 202.265L115.803 202.355C115.865 201.679 115.895 200.984 115.895 200.27H114.895ZM115.305 201.81H104.385V202.81H115.305V201.81ZM108.615 194.88C107.309 194.88 106.204 195.329 105.343 196.236L106.068 196.924C106.726 196.231 107.562 195.88 108.615 195.88V194.88ZM105.338 196.24C104.499 197.148 104.024 198.447 103.858 200.069L104.853 200.171C105.006 198.673 105.432 197.612 106.072 196.92L105.338 196.24ZM104.355 200.62H112.905V199.62H104.355V200.62ZM113.405 200.12C113.405 198.52 113.005 197.212 112.132 196.27L111.399 196.95C112.046 197.648 112.405 198.68 112.405 200.12H113.405ZM112.132 196.27C111.259 195.328 110.065 194.88 108.615 194.88V195.88C109.846 195.88 110.752 196.252 111.399 196.95L112.132 196.27Z" fill="black"/>
</g>
<rect x="32.4531" y="235.005" width="79.9431" height="3" fill="#FFC747"/>
<path d="M141.375 72.0095C141.375 110.118 110.503 141.008 72.4256 141.008C34.348 141.008 3.47656 110.118 3.47656 72.0095C3.47656 33.9009 34.348 3.01123 72.4256 3.01123C110.503 3.01123 141.375 33.9009 141.375 72.0095Z" fill="white" stroke="#159E99" stroke-width="6"/>
<g clip-path="url(#clip0)">
<path d="M106.046 94.5095L91.878 85.0609C90.08 83.8715 87.6699 84.2629 86.3406 85.9603L82.2136 91.2666C81.6832 91.966 80.719 92.1688 79.9518 91.7426L79.1667 91.3098C76.5642 89.8913 73.3261 88.1253 66.8019 81.5988C60.2777 75.0722 58.5081 71.8317 57.0896 69.234L56.6592 68.4489C56.2271 67.6818 56.4261 66.7135 57.1257 66.1789L62.4285 62.0531C64.1252 60.7237 64.5171 58.3142 63.3291 56.5157L53.8805 42.3474C52.6629 40.5159 50.2201 39.9661 48.3352 41.0992L42.4105 44.6582C40.549 45.7526 39.1832 47.525 38.5996 49.6041C36.4662 57.3776 38.0712 70.7934 57.8339 90.5585C73.5548 106.278 85.2583 110.506 93.3024 110.506C95.1537 110.513 96.9978 110.273 98.785 109.789C100.864 109.207 102.637 107.841 103.731 105.979L107.293 100.057C108.428 98.1721 107.879 95.7278 106.046 94.5095ZM105.283 98.8605L101.729 104.785C100.944 106.129 99.6687 107.117 98.1712 107.543C90.9949 109.513 78.4575 107.881 59.4844 88.908C40.5114 69.935 38.8796 57.3986 40.8498 50.2213C41.2758 48.722 42.2652 47.4453 43.6109 46.6588L49.5355 43.1045C50.3534 42.6124 51.4136 42.8509 51.942 43.6457L57.0746 51.3515L61.3825 57.8127C61.8984 58.5928 61.7289 59.6384 60.9929 60.2157L55.6889 64.3415C54.0747 65.5758 53.6138 67.809 54.6076 69.5815L55.0288 70.3467C56.5196 73.0809 58.3731 76.4824 65.1399 83.2482C71.9068 90.0138 75.3072 91.8674 78.0402 93.3581L78.8065 93.7804C80.5788 94.774 82.8122 94.3132 84.0464 92.6991L88.1723 87.395C88.7497 86.6595 89.7949 86.4901 90.5753 87.0055L104.742 96.4541C105.538 96.982 105.776 98.0428 105.283 98.8605Z" fill="#159E99"/>
<path d="M77.5483 52.181C88.4952 52.1932 97.3664 61.0645 97.3787 72.0115C97.3787 72.6557 97.9009 73.1779 98.5452 73.1779C99.1894 73.1779 99.7116 72.6557 99.7116 72.0115C99.6981 59.7766 89.7832 49.8615 77.5483 49.8481C76.904 49.8481 76.3818 50.3703 76.3818 51.0146C76.3818 51.6589 76.904 52.181 77.5483 52.181Z" fill="#159E99"/>
<path d="M77.5483 59.1801C84.6315 59.1884 90.3714 64.9284 90.3798 72.0115C90.3798 72.6558 90.9021 73.178 91.5462 73.178C92.1905 73.178 92.7127 72.6558 92.7127 72.0115C92.7029 63.6404 85.9193 56.8567 77.5483 56.8472C76.904 56.8472 76.3818 57.3694 76.3818 58.0136C76.3818 58.6579 76.904 59.1801 77.5483 59.1801Z" fill="#159E99"/>
<path d="M77.5483 66.1788C80.7678 66.1827 83.3768 68.7917 83.3808 72.0114C83.3808 72.6556 83.9031 73.1778 84.5472 73.1778C85.1914 73.1778 85.7137 72.6556 85.7137 72.0114C85.7085 67.5039 82.0558 63.851 77.5483 63.8459C76.904 63.8459 76.3818 64.3681 76.3818 65.0124C76.3818 65.6567 76.904 66.1788 77.5483 66.1788Z" fill="#159E99"/>
</g>
<defs>
<filter id="filter0_d" x="27.6063" y="186.3" width="92.2891" height="31.56" filterUnits="userSpaceOnUse" color-interpolation-filters="sRGB">
<feFlood flood-opacity="0" result="BackgroundImageFix"/>
<feColorMatrix in="SourceAlpha" type="matrix" values="0 0 0 0 0 0 0 0 0 0 0 0 0 0 0 0 0 0 127 0"/>
<feOffset dy="4"/>
<feGaussianBlur stdDeviation="2"/>
<feColorMatrix type="matrix" values="0 0 0 0 0 0 0 0 0 0 0 0 0 0 0 0 0 0 0.25 0"/>
<feBlend mode="normal" in2="BackgroundImageFix" result="effect1_dropShadow"/>
<feBlend mode="normal" in="SourceGraphic" in2="effect1_dropShadow" result="shape"/>
</filter>
<clipPath id="clip0">
<rect width="70" height="70" fill="white" transform="translate(37.8828 40.5083)"/>
</clipPath>
</defs>
</svg>
