<svg width="411" height="239" viewBox="0 0 411 239" fill="none" xmlns="http://www.w3.org/2000/svg">
<path d="M164.061 187.869H172.659C174.837 187.869 176.6 188.533 177.948 189.861C179.305 191.189 179.984 192.937 179.984 195.105C179.984 197.263 179.285 199.011 177.889 200.349C176.492 201.677 174.676 202.341 172.44 202.341H168.485V209.006H164.061V187.869ZM168.485 191.37V198.884H171.473C172.742 198.884 173.729 198.557 174.432 197.903C175.135 197.249 175.487 196.321 175.487 195.12C175.487 193.918 175.135 192.996 174.432 192.351C173.739 191.697 172.757 191.37 171.488 191.37H168.485ZM182.342 209.006V187.869H186.546V196.101H186.634C187.054 195.105 187.684 194.343 188.524 193.816C189.373 193.279 190.389 193.01 191.571 193.01C193.299 193.01 194.642 193.538 195.599 194.592C196.566 195.637 197.049 197.073 197.049 198.899V209.006H192.772V199.807C192.772 198.782 192.518 197.986 192.01 197.419C191.512 196.843 190.784 196.555 189.827 196.555C188.831 196.555 188.045 196.877 187.469 197.522C186.903 198.157 186.619 198.997 186.619 200.042V209.006H182.342ZM212.679 207.175C211.282 208.621 209.388 209.343 206.995 209.343C204.603 209.343 202.708 208.616 201.312 207.161C199.915 205.706 199.217 203.699 199.217 201.14C199.217 198.611 199.92 196.619 201.326 195.164C202.742 193.699 204.632 192.966 206.995 192.966C209.368 192.966 211.258 193.699 212.664 195.164C214.071 196.619 214.774 198.611 214.774 201.14C214.774 203.708 214.075 205.72 212.679 207.175ZM206.995 206.077C208.05 206.077 208.885 205.647 209.5 204.788C210.115 203.928 210.423 202.717 210.423 201.155C210.423 199.612 210.115 198.406 209.5 197.537C208.885 196.667 208.05 196.233 206.995 196.233C205.941 196.233 205.101 196.667 204.476 197.537C203.861 198.406 203.553 199.612 203.553 201.155C203.553 202.717 203.861 203.928 204.476 204.788C205.091 205.647 205.931 206.077 206.995 206.077ZM216.986 209.006V193.303H221.116V196.101H221.204C221.634 195.105 222.259 194.343 223.079 193.816C223.909 193.279 224.92 193.01 226.112 193.01C227.85 193.01 229.193 193.528 230.14 194.563C231.087 195.598 231.561 197.039 231.561 198.884V209.006H227.283V199.778C227.283 198.743 227.039 197.947 226.551 197.39C226.063 196.833 225.345 196.555 224.398 196.555C223.45 196.555 222.689 196.873 222.113 197.507C221.546 198.142 221.263 198.972 221.263 199.998V209.006H216.986ZM241.317 196.13C240.389 196.13 239.613 196.448 238.988 197.083C238.372 197.717 238.026 198.528 237.948 199.514H244.613C244.564 198.508 244.237 197.693 243.631 197.068C243.035 196.443 242.264 196.13 241.317 196.13ZM244.671 204.202H248.597C248.363 205.745 247.591 206.99 246.282 207.937C244.984 208.875 243.367 209.343 241.434 209.343C239.022 209.343 237.127 208.621 235.75 207.175C234.383 205.73 233.699 203.748 233.699 201.228C233.699 198.718 234.383 196.716 235.75 195.222C237.117 193.718 238.958 192.966 241.273 192.966C243.548 192.966 245.36 193.679 246.707 195.105C248.055 196.531 248.729 198.44 248.729 200.833V202.136H237.904V202.4C237.904 203.523 238.231 204.436 238.885 205.139C239.549 205.833 240.423 206.179 241.507 206.179C242.288 206.179 242.962 206.003 243.529 205.652C244.095 205.291 244.476 204.807 244.671 204.202Z" fill="#313236"/>
<rect x="166.453" y="235.005" width="79.9431" height="3" fill="#FFC747"/>
<path d="M275.375 72.0095C275.375 110.118 244.503 141.008 206.426 141.008C168.348 141.008 137.477 110.118 137.477 72.0095C137.477 33.9009 168.348 3.01123 206.426 3.01123C244.503 3.01123 275.375 33.9009 275.375 72.0095Z" fill="white" stroke="#159E99" stroke-width="6"/>
<g clip-path="url(#clip0)">
<path d="M240.046 94.5095L225.878 85.0609C224.08 83.8715 221.67 84.2629 220.341 85.9603L216.214 91.2666C215.683 91.966 214.719 92.1688 213.952 91.7426L213.167 91.3098C210.564 89.8913 207.326 88.1253 200.802 81.5988C194.278 75.0722 192.508 71.8317 191.09 69.234L190.659 68.4489C190.227 67.6818 190.426 66.7135 191.126 66.1789L196.429 62.0531C198.125 60.7237 198.517 58.3142 197.329 56.5157L187.881 42.3474C186.663 40.5159 184.22 39.9661 182.335 41.0992L176.411 44.6582C174.549 45.7526 173.183 47.525 172.6 49.6041C170.466 57.3776 172.071 70.7934 191.834 90.5585C207.555 106.278 219.258 110.506 227.302 110.506C229.154 110.513 230.998 110.273 232.785 109.789C234.864 109.207 236.637 107.841 237.731 105.979L241.293 100.057C242.428 98.1721 241.879 95.7278 240.046 94.5095ZM239.283 98.8605L235.729 104.785C234.944 106.129 233.669 107.117 232.171 107.543C224.995 109.513 212.458 107.881 193.484 88.908C174.511 69.935 172.88 57.3986 174.85 50.2213C175.276 48.722 176.265 47.4453 177.611 46.6588L183.536 43.1045C184.353 42.6124 185.414 42.8509 185.942 43.6457L191.075 51.3515L195.383 57.8127C195.898 58.5928 195.729 59.6384 194.993 60.2157L189.689 64.3415C188.075 65.5758 187.614 67.809 188.608 69.5815L189.029 70.3467C190.52 73.0809 192.373 76.4824 199.14 83.2482C205.907 90.0138 209.307 91.8674 212.04 93.3581L212.807 93.7804C214.579 94.774 216.812 94.3132 218.046 92.6991L222.172 87.395C222.75 86.6595 223.795 86.4901 224.575 87.0055L238.742 96.4541C239.538 96.982 239.776 98.0428 239.283 98.8605Z" fill="#159E99"/>
<path d="M211.548 52.181C222.495 52.1932 231.366 61.0645 231.379 72.0115C231.379 72.6557 231.901 73.1779 232.545 73.1779C233.189 73.1779 233.712 72.6557 233.712 72.0115C233.698 59.7766 223.783 49.8615 211.548 49.8481C210.904 49.8481 210.382 50.3703 210.382 51.0146C210.382 51.6589 210.904 52.181 211.548 52.181Z" fill="#159E99"/>
<path d="M211.548 59.1801C218.631 59.1884 224.371 64.9284 224.38 72.0115C224.38 72.6558 224.902 73.178 225.546 73.178C226.19 73.178 226.713 72.6558 226.713 72.0115C226.703 63.6404 219.919 56.8567 211.548 56.8472C210.904 56.8472 210.382 57.3694 210.382 58.0136C210.382 58.6579 210.904 59.1801 211.548 59.1801Z" fill="#159E99"/>
<path d="M211.548 66.1788C214.768 66.1827 217.377 68.7917 217.381 72.0114C217.381 72.6556 217.903 73.1778 218.547 73.1778C219.191 73.1778 219.714 72.6556 219.714 72.0114C219.709 67.5039 216.056 63.851 211.548 63.8459C210.904 63.8459 210.382 64.3681 210.382 65.0124C210.382 65.6567 210.904 66.1788 211.548 66.1788Z" fill="#159E99"/>
</g>
<defs>
<clipPath id="clip0">
<rect width="70" height="70" fill="white" transform="translate(171.883 40.5083)"/>
</clipPath>
</defs>
</svg>
