<svg width="825" height="519" viewBox="0 0 825 519" fill="none" xmlns="http://www.w3.org/2000/svg">
<path d="M121.486 483.335C282.491 530.846 543.399 530.846 704.223 483.335C865.227 435.824 865.227 358.802 704.223 311.395C543.218 263.884 282.31 263.884 121.486 311.395C-39.5188 358.802 -39.5188 435.824 121.486 483.335Z" fill="#F5F5F5"/>
<path d="M592.663 410.773C599.466 414.663 612.657 413.274 622.376 407.716L677.776 375.482C687.357 369.924 689.717 362.283 682.913 358.392C676.11 354.502 662.919 355.752 653.2 361.449L597.8 393.683C588.359 399.102 585.998 406.883 592.663 410.773Z" fill="#EBEBEB"/>
<path d="M258.875 440.506L202.503 407.855L258.875 375.342V440.506Z" fill="#EBEBEB"/>
<path d="M418.273 459.959L327.467 407.439L418.273 354.918V459.959Z" fill="#EBEBEB"/>
<path d="M182.647 364.228C182.786 351.028 173.622 323.518 160.154 306.289C146.686 288.921 125.303 276.138 109.891 281.279C95.5901 286.003 96.9785 304.76 114.057 317.265C131.135 329.909 156.96 345.748 164.319 367.285L180.009 393.684L182.647 364.228Z" fill="#9EEBEB"/>
<path opacity="0.1" d="M182.647 364.228C182.786 351.028 173.622 323.518 160.154 306.289C146.686 288.921 125.303 276.138 109.891 281.279C95.5901 286.003 96.9785 304.76 114.057 317.265C131.135 329.909 156.96 345.748 164.319 367.285L180.009 393.684L182.647 364.228Z" fill="black"/>
<path d="M183.344 382.29C182.927 382.29 182.511 381.873 182.511 381.456C174.18 336.3 138.219 299.203 116.558 290.867C116.003 290.728 115.864 290.172 116.003 289.616C116.142 289.06 116.697 288.921 117.253 289.06C139.329 297.536 175.985 335.189 184.455 381.04C184.593 381.595 184.177 382.012 183.621 382.151C183.483 382.29 183.483 382.29 183.344 382.29Z" fill="white"/>
<path d="M176.26 411.051C174.177 403.548 165.291 391.183 150.851 380.901C134.745 369.647 114.334 364.228 109.752 355.475C104.198 344.915 113.085 335.189 129.746 337.412C146.408 339.635 175.427 362.699 179.592 397.018L176.26 411.051Z" fill="#9EEBEB"/>
<path d="M179.593 403.41C179.176 403.41 178.899 403.132 178.76 402.715C165.431 363.95 136.134 350.056 122.527 348.111C121.971 347.972 121.694 347.555 121.694 346.999C121.833 346.443 122.249 346.166 122.805 346.166C137.8 348.25 166.958 362.422 180.565 402.02C180.704 402.576 180.426 403.132 180.01 403.271C179.871 403.41 179.732 403.41 179.593 403.41Z" fill="white"/>
<path d="M674.862 326.714C674.862 326.714 676.667 298.925 693.052 278.223C709.436 257.52 708.464 249.045 697.078 244.877C685.831 240.708 659.589 265.579 665.421 298.925C671.252 332.271 674.862 326.714 674.862 326.714Z" fill="#159E99"/>
<path opacity="0.1" d="M674.862 326.714C674.862 326.714 676.667 298.925 693.052 278.223C709.436 257.52 708.464 249.045 697.078 244.877C685.831 240.708 659.589 265.579 665.421 298.925C671.252 332.271 674.862 326.714 674.862 326.714Z" fill="black"/>
<path d="M669.862 310.735C669.584 310.735 669.306 310.457 669.167 310.179C667.224 279.473 688.884 254.325 696.937 248.628C697.215 248.489 697.631 248.489 697.77 248.767C697.909 249.045 697.909 249.462 697.631 249.601C689.717 255.159 668.473 279.89 670.417 309.901C670.556 310.457 670.278 310.735 669.862 310.735C670 310.735 669.862 310.735 669.862 310.735Z" fill="white"/>
<path d="M670.418 349.638C670.418 349.638 680.276 353.112 693.05 355.057C705.685 357.002 711.377 351.028 711.377 351.028C711.377 351.028 706.379 339.079 699.159 335.744C699.159 335.744 711.377 338.245 721.235 344.775C721.235 344.775 729.011 344.914 732.066 333.104C732.066 333.104 727.484 326.018 712.072 322.128C712.072 322.128 721.513 319.766 734.981 323.239C735.953 323.656 740.258 308.372 741.646 301.286C742.896 294.2 740.119 294.339 734.565 292.811C729.011 291.283 710.822 287.253 707.351 290.31C703.88 293.367 702.213 303.648 702.213 303.648C702.213 303.648 699.992 297.535 701.658 290.588C701.658 290.588 696.66 288.643 689.023 290.866C682.775 292.672 682.497 296.979 682.775 301.842C682.914 305.316 683.886 309.206 685.552 314.069C685.552 314.069 680.692 307.817 680.553 294.2C680.553 294.2 667.641 300.592 665.558 313.374C664.031 320.183 662.364 340.468 670.418 349.638Z" fill="#159E99"/>
<path d="M672.918 347.138C673.196 347.138 673.474 346.999 673.613 346.721C683.887 325.463 721.931 300.731 735.538 298.092C735.955 297.953 736.233 297.675 736.094 297.258C735.955 296.841 735.677 296.563 735.261 296.702C721.376 299.342 682.638 324.491 672.224 346.166C672.085 346.582 672.224 346.999 672.502 347.138C672.641 347.138 672.78 347.138 672.918 347.138Z" fill="white"/>
<path d="M177.649 420.916C176.122 420.916 175.15 419.666 175.15 417.442V183.743L461.175 18.541V251.268C461.175 254.881 458.675 259.188 455.621 260.994L179.871 420.221C179.177 420.638 178.343 420.916 177.649 420.916Z" fill="#FAFAFA"/>
<path d="M460.341 19.9307V251.269C460.341 254.465 457.98 258.633 455.203 260.3L179.453 419.527C178.759 419.944 178.065 420.083 177.648 420.083C176.121 420.083 175.982 418.277 175.982 417.443V184.16L460.341 19.9307ZM462.007 17.1519L174.316 183.326V417.443C174.316 420.222 175.704 421.75 177.648 421.75C178.481 421.75 179.314 421.473 180.286 420.917L455.898 261.69C459.23 259.744 461.868 255.159 461.868 251.269L462.007 17.1519Z" fill="#E0E0E0"/>
<path d="M174.316 183.326V222.369L462.007 56.1945V17.1519L174.316 183.326Z" fill="#159E99"/>
<path d="M196.81 185.41V190.967C196.81 192.079 197.643 192.635 198.615 192.079L287.06 140.948V131.222L198.615 182.214C197.643 182.77 196.81 184.159 196.81 185.41Z" fill="#FAFAFA"/>
<path d="M296.643 125.665C297.615 125.109 298.448 125.526 298.448 126.776V132.334C298.448 133.446 297.615 134.835 296.643 135.391L287.201 140.81V131.084L296.643 125.665Z" fill="#455A64"/>
<path d="M174.316 170.682C174.316 166.792 176.954 162.207 180.287 160.261L455.898 1.0341C459.23 -0.911085 461.868 0.617275 461.868 4.50764V17.1513L174.316 183.326V170.682Z" fill="#455A64"/>
<path d="M429.931 22.57C428.404 23.4036 427.155 25.6267 427.155 27.4329C427.155 29.2391 428.404 29.9338 429.931 29.1002C431.459 28.2665 432.708 26.0435 432.708 24.2373C432.847 22.431 431.598 21.5974 429.931 22.57Z" fill="#159E99"/>
<path d="M438.956 17.4293C437.429 18.2629 436.179 20.4858 436.179 22.2919C436.179 24.098 437.429 24.7927 438.956 23.9591C440.483 23.1255 441.733 20.9026 441.733 19.0965C441.733 17.2904 440.483 16.4568 438.956 17.4293Z" fill="#159E99"/>
<path d="M447.843 12.288C446.316 13.1217 445.066 15.3448 445.066 17.1511C445.066 18.9574 446.316 19.6521 447.843 18.8184C449.37 17.9848 450.62 15.7617 450.62 13.9554C450.62 12.0101 449.37 11.3154 447.843 12.288Z" fill="#159E99"/>
<g opacity="0.1">
<path opacity="0.1" d="M371.759 81.6202C368.288 83.5654 365.65 88.4283 365.65 92.3186C365.65 96.209 368.427 97.8762 371.759 95.9311C375.23 93.9859 377.868 89.123 377.868 85.2327C377.868 81.3423 375.091 79.675 371.759 81.6202Z" fill="black"/>
<path opacity="0.1" d="M343.571 98.015C340.1 99.9603 337.462 104.823 337.462 108.714C337.462 112.604 340.239 114.272 343.571 112.327C347.042 110.381 349.681 105.518 349.681 101.628C349.681 97.5982 346.904 95.9308 343.571 98.015Z" fill="black"/>
<path opacity="0.1" d="M399.943 65.3639C396.472 67.3091 393.834 72.1722 393.834 76.0626C393.834 79.9531 396.611 81.6204 399.943 79.6752C403.276 77.73 406.053 72.8669 406.053 68.9764C406.053 65.086 403.276 63.4186 399.943 65.3639Z" fill="black"/>
<path opacity="0.1" d="M428.129 49.1082C424.658 51.0534 422.02 55.9162 422.02 59.8065C422.02 63.6968 424.797 65.364 428.129 63.4189C431.6 61.4737 434.239 56.6109 434.239 52.7206C434.239 48.6914 431.462 47.0242 428.129 49.1082Z" fill="black"/>
</g>
<path d="M202.919 225.425L269.843 186.799C273.176 184.854 275.814 186.382 275.814 190.273V254.603C275.814 258.493 273.176 263.078 269.843 265.023L202.919 303.649C199.587 305.594 196.949 304.066 196.949 300.175V235.846C196.81 231.955 199.587 227.37 202.919 225.425Z" fill="#E0E0E0"/>
<path d="M298.724 169.987L438.96 88.9843C442.292 87.0391 444.93 88.5675 444.93 92.4578V156.788C444.93 160.678 442.292 165.263 438.96 167.208L298.724 248.212C295.392 250.157 292.754 248.628 292.754 244.738V180.408C292.754 176.657 295.392 171.932 298.724 169.987Z" fill="#E0E0E0"/>
<path d="M202.919 323.24L309.276 261.828C312.608 259.882 315.246 261.272 315.246 264.884C315.246 268.497 312.608 272.943 309.276 274.888L202.919 336.3C199.587 338.246 196.949 336.856 196.949 333.244C196.81 329.631 199.587 325.046 202.919 323.24Z" fill="#E0E0E0"/>
<path d="M202.919 346.027L309.276 284.615C312.608 282.669 315.246 284.059 315.246 287.671C315.246 291.284 312.608 295.73 309.276 297.675L202.919 359.088C199.586 361.033 196.948 359.644 196.948 356.031C196.81 352.419 199.586 347.972 202.919 346.027Z" fill="#E0E0E0"/>
<path d="M202.919 368.814L309.276 307.402C312.608 305.457 315.246 306.846 315.246 310.458C315.246 314.071 312.608 318.517 309.276 320.462L202.919 381.874C199.586 383.82 196.948 382.43 196.948 378.818C196.81 375.205 199.586 370.759 202.919 368.814Z" fill="#E0E0E0"/>
<path d="M253.32 291.422C253.32 289.06 254.987 286.281 256.93 285.17L441.458 178.602C443.402 177.49 446.734 177.49 448.678 178.602L452.705 180.964C454.649 182.075 456.315 184.854 456.315 187.216V328.797C456.315 331.021 454.649 333.938 452.705 335.05L268.177 441.618C266.233 442.73 262.901 442.73 260.957 441.618L256.93 439.256C254.987 438.144 253.32 435.227 253.32 433.004V291.422Z" fill="#159E99"/>
<path opacity="0.4" d="M254.292 287.948L264.567 293.923L455.203 183.604C454.509 182.492 453.676 181.519 452.704 180.964L448.678 178.602C446.734 177.49 443.401 177.49 441.457 178.602L256.93 285.17C255.819 285.725 254.986 286.837 254.292 287.948Z" fill="white"/>
<path opacity="0.1" d="M253.321 291.423V433.004C253.321 435.366 254.987 438.145 256.931 439.256L260.958 441.618C261.236 441.757 261.652 441.896 261.93 442.035C262.346 442.174 262.902 442.313 263.457 442.313C264.429 442.452 265.401 442.452 266.373 442.174C266.651 442.174 266.789 442.035 267.067 442.035C267.206 442.035 267.345 441.896 267.484 441.896C266.789 442.174 266.234 442.035 265.817 441.896C265.123 441.479 264.707 440.785 264.707 439.534V297.953C264.707 296.424 265.401 295.313 266.651 294.896L264.707 293.785L254.432 287.81C253.738 289.061 253.321 290.311 253.321 291.423Z" fill="black"/>
<path opacity="0.2" d="M264.568 293.784L350.098 325.741C356.207 327.964 363.011 325.741 366.621 320.322L380.366 299.342L456.038 183.326L383.143 300.175L456.455 328.936C456.455 330.048 456.038 331.437 455.344 332.549L382.866 300.592L366.898 326.158C363.288 331.993 355.791 334.355 349.542 331.437L338.157 326.435L265.818 442.035C265.123 441.618 264.707 440.923 264.707 439.673V437.311L337.879 326.296L264.568 293.784Z" fill="black"/>
<path d="M416.88 131.362V456.346C416.88 460.236 419.518 461.765 422.851 459.819L568.779 375.482C572.111 373.537 574.749 368.952 574.749 365.061V40.077C574.749 36.1866 572.111 34.6583 568.779 36.6034L422.851 120.941C419.518 122.747 416.88 127.471 416.88 131.362Z" fill="#FAFAFA" stroke="#E0E0E0" stroke-width="1.1698" stroke-miterlimit="10"/>
<path d="M425.35 137.336C425.35 136.502 426.045 135.252 426.878 134.835L443.539 125.248C444.372 124.692 445.067 125.109 445.067 125.943C445.067 126.777 444.372 128.027 443.539 128.444L426.878 138.031C426.045 138.586 425.35 138.309 425.35 137.336Z" fill="#455A64"/>
<path d="M425.35 143.866C425.35 143.033 426.045 141.782 426.878 141.365L443.539 131.778C444.372 131.222 445.067 131.639 445.067 132.473C445.067 133.306 444.372 134.557 443.539 134.974L426.878 144.561C426.045 145.117 425.35 144.7 425.35 143.866Z" fill="#455A64"/>
<path d="M425.35 150.257C425.35 149.424 426.045 148.173 426.878 147.756L443.539 138.17C444.372 137.614 445.067 138.031 445.067 138.864C445.067 139.698 444.372 140.948 443.539 141.365L426.878 150.952C426.045 151.508 425.35 151.23 425.35 150.257Z" fill="#455A64"/>
<path d="M563.503 67.0313V64.3914C563.503 64.2525 563.365 64.1135 563.226 64.2525L561.282 65.0861C561.143 65.0861 561.004 65.0861 561.004 64.9472C560.865 64.5304 560.727 64.2525 560.588 63.9746C560.449 63.8357 560.449 63.6967 560.588 63.5578L561.976 60.9179C561.976 60.7789 561.976 60.64 561.837 60.5011L560.449 59.6674C560.31 59.5285 560.171 59.6674 560.032 59.8064L558.366 62.3073C558.227 62.4462 558.089 62.5852 557.95 62.5852C557.672 62.5852 557.255 62.5852 556.839 62.7241C556.7 62.7241 556.561 62.7241 556.561 62.4462L556.284 60.2232C556.284 60.0842 556.145 59.9453 556.006 60.0842L553.784 61.3347C553.645 61.4737 553.507 61.6126 553.507 61.7515L553.229 64.2525C553.229 64.3914 553.09 64.6693 552.951 64.6693C552.535 65.0861 552.118 65.503 551.702 66.0587C551.563 66.1977 551.424 66.1977 551.285 66.1977L549.897 65.6419C549.758 65.6419 549.619 65.6419 549.48 65.7808L547.814 68.6986C547.675 68.8375 547.814 68.9765 547.953 69.1154L549.064 70.088C549.202 70.2269 549.202 70.3659 549.202 70.5048C548.925 71.0606 548.786 71.6164 548.647 72.3111C548.647 72.45 548.508 72.589 548.369 72.7279L546.287 74.1173C546.148 74.2562 546.009 74.3952 546.009 74.5341V77.174C546.009 77.313 546.148 77.4519 546.287 77.313L548.23 76.4793C548.369 76.4793 548.508 76.4793 548.508 76.6182C548.647 77.0351 548.786 77.313 548.925 77.5908C549.064 77.7298 549.064 77.8687 548.925 78.0077L547.536 80.6475C547.536 80.7865 547.536 80.9254 547.675 81.0644L549.064 81.898C549.202 82.037 549.341 81.898 549.48 81.7591L551.285 79.3971C551.424 79.2581 551.563 79.1192 551.702 79.1192C551.979 79.1192 552.396 79.1192 552.812 78.9803C552.951 78.9803 553.09 78.9803 553.09 79.2581L553.368 81.4812C553.368 81.6201 553.507 81.7591 553.645 81.6201L555.867 80.3697C556.006 80.2307 556.145 80.0918 556.145 79.9528L556.422 77.4519C556.422 77.313 556.561 77.0351 556.7 77.0351C557.117 76.6182 557.533 76.2014 557.95 75.6457C558.089 75.5067 558.227 75.5067 558.366 75.5067L559.755 76.0625C559.894 76.0625 560.032 76.0625 560.171 75.9235L561.837 73.0058C561.976 72.8668 561.837 72.7279 561.699 72.589L560.588 71.6164C560.449 71.4774 560.449 71.3385 560.449 71.1995C560.727 70.6438 560.865 70.088 561.004 69.3933C561.004 69.2544 561.143 69.1154 561.282 68.9765L563.365 67.5871C563.365 67.3092 563.503 67.1702 563.503 67.0313ZM554.756 75.0899C552.674 76.3404 551.007 75.3678 551.007 72.8668C551.007 70.5048 552.674 67.4481 554.756 66.3366C556.839 65.0861 558.505 66.0587 558.505 68.5597C558.505 70.9217 556.839 73.9784 554.756 75.0899Z" fill="#37474F"/>
<path d="M495.745 131.084C512.823 121.219 526.569 129.278 526.569 148.868C526.569 168.459 512.684 192.496 495.745 202.36C478.667 212.225 464.921 204.167 464.921 184.576C464.921 164.846 478.806 140.81 495.745 131.084Z" fill="#455A64"/>
<path d="M495.607 146.506C501.161 143.31 505.604 145.95 505.604 152.341C505.604 158.733 501.161 166.513 495.607 169.709C490.054 172.905 485.611 170.265 485.611 163.874C485.611 157.482 490.054 149.701 495.607 146.506Z" fill="#159E99"/>
<path d="M515.324 180.547C515.324 169.987 507.965 165.819 498.94 171.099L493.247 174.433C484.222 179.713 476.864 192.496 476.864 202.916V205.834C478.53 206.39 480.335 206.667 482.14 206.667C486.305 206.667 490.887 205.278 495.886 202.499C503.244 198.192 510.048 191.245 515.463 183.187V180.547H515.324Z" fill="#159E99"/>
<path d="M467.976 231.677L523.653 199.443C525.32 198.47 526.708 199.165 526.708 200.971C526.708 202.777 525.32 205.001 523.653 205.973L467.976 238.208C466.31 239.18 464.921 238.485 464.921 236.679C464.921 234.873 466.31 232.65 467.976 231.677Z" fill="#159E99"/>
<path d="M462.008 254.741L529.626 215.56C531.292 214.587 532.681 215.282 532.681 217.088C532.681 218.895 531.292 221.118 529.626 222.09L462.008 261.271C460.341 262.244 458.953 261.549 458.953 259.743C458.953 257.937 460.341 255.714 462.008 254.741Z" fill="#455A64"/>
<path d="M531.43 247.1L550.313 236.124C551.285 235.568 552.118 235.846 552.118 236.679C552.118 237.513 551.285 238.763 550.313 239.319L531.43 250.295C530.458 250.851 529.625 250.573 529.625 249.74C529.625 248.906 530.458 247.655 531.43 247.1Z" fill="#37474F"/>
<path d="M436.737 295.313L464.506 279.195C466.172 278.223 467.561 279.057 467.561 280.863V300.037C467.561 301.982 466.172 304.344 464.506 305.316L436.737 321.433C435.071 322.406 433.682 321.572 433.682 319.766V300.592C433.821 298.647 435.071 296.285 436.737 295.313Z" fill="#159E99"/>
<path d="M441.177 297.952L460.06 286.976C461.032 286.42 461.865 286.698 461.865 287.532C461.865 288.366 461.032 289.616 460.06 290.172L441.177 301.148C440.205 301.704 439.372 301.426 439.372 300.592C439.372 299.758 440.205 298.508 441.177 297.952Z" fill="#FAFAFA"/>
<path d="M439.372 307.678V313.236C439.372 314.347 440.205 314.903 441.177 314.208L460.06 303.232C461.032 302.676 461.865 301.287 461.865 300.176V294.618C461.865 293.507 461.032 292.951 460.06 293.507L441.177 304.483C440.205 305.038 439.372 306.428 439.372 307.678Z" fill="#FAFAFA"/>
<path d="M481.862 269.192L509.631 253.074C511.297 252.102 512.686 252.935 512.686 254.742V273.915C512.686 275.861 511.297 278.223 509.631 279.195L481.862 295.312C480.196 296.285 478.807 295.451 478.807 293.645V274.471C478.807 272.526 480.196 270.164 481.862 269.192Z" fill="#159E99"/>
<path d="M486.305 271.97L505.188 260.994C506.16 260.438 506.993 260.716 506.993 261.55C506.993 262.384 506.16 263.634 505.188 264.19L486.305 275.166C485.333 275.722 484.5 275.444 484.5 274.61C484.5 273.638 485.333 272.526 486.305 271.97Z" fill="#FAFAFA"/>
<path d="M484.5 281.557V287.115C484.5 288.227 485.333 288.782 486.305 288.088L505.188 277.111C506.16 276.556 506.993 275.166 506.993 274.055V268.497C506.993 267.386 506.16 266.83 505.188 267.386L486.305 278.362C485.333 279.057 484.5 280.446 484.5 281.557Z" fill="#FAFAFA"/>
<path d="M526.987 243.209L554.756 227.092C556.423 226.119 557.811 226.953 557.811 228.759V247.933C557.811 249.878 556.423 252.241 554.756 253.213L526.987 269.33C525.321 270.303 523.932 269.469 523.932 267.663V248.489C523.932 246.405 525.321 244.182 526.987 243.209Z" fill="#159E99"/>
<path d="M531.429 245.849L550.312 234.873C551.284 234.317 552.117 234.595 552.117 235.429C552.117 236.263 551.284 237.513 550.312 238.069L531.429 249.045C530.457 249.601 529.624 249.323 529.624 248.489C529.624 247.655 530.457 246.405 531.429 245.849Z" fill="#FAFAFA"/>
<path d="M529.624 255.437V260.995C529.624 262.106 530.457 262.662 531.429 261.968L550.312 250.991C551.284 250.435 552.117 249.045 552.117 247.934V242.376C552.117 241.264 551.284 240.709 550.312 241.264L531.429 252.241C530.457 252.936 529.624 254.325 529.624 255.437Z" fill="#FAFAFA"/>
<path d="M439.791 339.218L551.84 274.472C555.172 272.526 557.81 273.916 557.81 277.528C557.81 281.141 555.172 285.587 551.84 287.532L439.791 352.278C436.458 354.224 433.82 352.834 433.82 349.222C433.82 345.609 436.458 341.163 439.791 339.218Z" fill="#E0E0E0"/>
<path d="M439.791 365.2L551.84 300.453C555.172 298.508 557.81 299.897 557.81 303.51C557.81 307.122 555.172 311.568 551.84 313.514L439.791 378.261C436.458 380.206 433.82 378.817 433.82 375.204C433.82 371.592 436.458 367.145 439.791 365.2Z" fill="#E0E0E0"/>
<path d="M476.308 376.732L515.462 354.085C517.128 353.112 518.517 353.946 518.517 355.891V368.535C518.517 370.48 517.128 372.842 515.462 373.815L476.308 396.323C474.641 397.296 473.253 396.462 473.253 394.656V382.012C473.253 380.067 474.641 377.705 476.308 376.732Z" fill="#159E99"/>
<path d="M442.152 341.025C440.625 341.858 439.375 344.082 439.375 345.888C439.375 347.694 440.625 348.389 442.152 347.555C443.679 346.722 444.929 344.498 444.929 342.692C445.068 340.886 443.818 340.191 442.152 341.025Z" fill="#FAFAFA"/>
<path d="M451.177 335.884C449.649 336.717 448.4 338.941 448.4 340.747C448.4 342.553 449.649 343.248 451.177 342.414C452.704 341.58 453.954 339.357 453.954 337.551C453.954 335.745 452.704 335.05 451.177 335.884Z" fill="#FAFAFA"/>
<path d="M460.063 330.743C458.536 331.576 457.286 333.799 457.286 335.606C457.286 337.412 458.536 338.107 460.063 337.273C461.591 336.439 462.84 334.216 462.84 332.41C462.84 330.604 461.591 329.909 460.063 330.743Z" fill="#FAFAFA"/>
<path d="M468.95 325.602C467.423 326.435 466.173 328.659 466.173 330.465C466.173 332.271 467.423 332.966 468.95 332.132C470.478 331.299 471.727 329.075 471.727 327.269C471.866 325.463 470.616 324.629 468.95 325.602Z" fill="#FAFAFA"/>
<path d="M477.975 320.461C476.448 321.294 475.198 323.517 475.198 325.324C475.198 327.13 476.448 327.824 477.975 326.991C479.502 326.157 480.752 323.934 480.752 322.128C480.752 320.183 479.502 319.488 477.975 320.461Z" fill="#FAFAFA"/>
<path d="M486.86 315.181C485.332 316.015 484.083 318.238 484.083 320.044C484.083 321.85 485.332 322.545 486.86 321.712C488.387 320.878 489.637 318.655 489.637 316.848C489.637 315.042 488.387 314.347 486.86 315.181Z" fill="#FAFAFA"/>
<path d="M495.885 310.04C494.357 310.874 493.108 313.097 493.108 314.903C493.108 316.709 494.357 317.404 495.885 316.57C497.412 315.737 498.661 313.514 498.661 311.707C498.661 309.901 497.412 309.206 495.885 310.04Z" fill="#FAFAFA"/>
<path d="M442.152 367.146C440.625 367.98 439.375 370.203 439.375 372.01C439.375 373.816 440.625 374.511 442.152 373.677C443.679 372.843 444.929 370.62 444.929 368.814C445.068 367.007 443.818 366.313 442.152 367.146Z" fill="#FAFAFA"/>
<path d="M451.177 362.005C449.649 362.838 448.4 365.061 448.4 366.868C448.4 368.674 449.649 369.368 451.177 368.535C452.704 367.701 453.954 365.478 453.954 363.672C453.954 361.866 452.704 361.171 451.177 362.005Z" fill="#FAFAFA"/>
<path d="M460.063 356.864C458.536 357.697 457.286 359.92 457.286 361.727C457.286 363.533 458.536 364.227 460.063 363.394C461.591 362.56 462.84 360.337 462.84 358.531C462.84 356.725 461.591 355.891 460.063 356.864Z" fill="#FAFAFA"/>
<path d="M468.95 351.723C467.423 352.557 466.173 354.78 466.173 356.586C466.173 358.392 467.423 359.087 468.95 358.254C470.478 357.42 471.727 355.197 471.727 353.39C471.866 351.445 470.616 350.75 468.95 351.723Z" fill="#FAFAFA"/>
<path d="M477.975 346.582C476.448 347.416 475.198 349.639 475.198 351.445C475.198 353.251 476.448 353.946 477.975 353.112C479.502 352.278 480.752 350.055 480.752 348.249C480.752 346.304 479.502 345.609 477.975 346.582Z" fill="#FAFAFA"/>
<path d="M486.86 341.302C485.332 342.136 484.083 344.359 484.083 346.165C484.083 347.972 485.332 348.666 486.86 347.833C488.387 346.999 489.637 344.776 489.637 342.97C489.637 341.163 488.387 340.468 486.86 341.302Z" fill="#FAFAFA"/>
<path d="M495.885 336.162C494.357 336.995 493.108 339.218 493.108 341.025C493.108 342.831 494.357 343.526 495.885 342.692C497.412 341.858 498.661 339.635 498.661 337.829C498.661 336.023 497.412 335.328 495.885 336.162Z" fill="#FAFAFA"/>
<path d="M621.125 394.934C616.265 394.934 611.683 393.683 607.518 391.321C597.521 385.486 591.828 373.398 591.828 358.114C591.828 331.159 608.906 300.175 630.705 287.532C642.507 280.723 654.171 280.029 663.612 285.447C673.609 291.283 679.302 303.371 679.302 318.655C679.302 345.609 662.224 376.593 640.425 389.237C633.76 392.988 627.234 394.934 621.125 394.934ZM649.866 301.287C646.395 301.287 642.646 303.093 640.425 304.344C624.596 313.514 611.128 338.106 611.128 358.114C611.128 366.173 613.35 372.286 617.237 374.509C621.542 377.01 627.512 374.231 630.705 372.425C646.534 363.255 660.002 338.662 660.002 318.655C660.002 310.596 657.781 304.482 653.893 302.259C652.643 301.565 651.255 301.287 649.866 301.287Z" fill="#455A64"/>
<path d="M663.334 322.962C663.334 307.817 653.753 302.26 653.753 302.26C657.502 304.483 659.863 310.596 659.863 318.655C659.863 338.663 646.533 363.255 630.566 372.425C627.373 374.232 621.402 377.01 617.098 374.509C617.098 374.509 625.151 379.511 636.259 373.398C652.365 364.645 663.334 342.97 663.334 322.962Z" fill="#37474F"/>
<path d="M648.061 134.001C648.061 128.444 643.618 123.998 638.064 123.998C632.51 123.998 628.067 128.444 628.067 134.001V293.367C628.067 294.896 629.039 296.285 630.983 297.397C634.87 299.62 641.257 299.62 645.145 297.397C647.089 296.285 648.061 294.757 648.061 293.367V134.001Z" fill="#37474F"/>
<path d="M640.146 169.57C640.146 165.819 637.508 161.373 634.314 159.567C632.648 158.594 631.259 158.594 630.149 159.15L605.434 173.461L604.879 173.878C604.74 173.878 604.74 174.016 604.601 174.016C604.184 174.294 603.768 174.572 603.351 174.989C601.824 176.517 600.991 178.601 600.991 180.825C600.991 183.881 602.657 186.66 605.295 188.049C606.406 188.744 607.794 189.022 609.183 189.022C610.571 189.022 611.96 188.605 613.071 188.049C613.209 187.91 613.348 187.91 613.487 187.772L638.341 173.461C639.451 172.627 640.146 171.377 640.146 169.57Z" fill="#455A64"/>
<path d="M640.147 209.447C640.147 205.696 637.509 201.249 634.316 199.443C632.649 198.471 631.261 198.471 630.15 199.026L601.131 215.699L600.576 216.116C600.437 216.116 600.437 216.255 600.298 216.255C599.881 216.533 599.465 216.811 599.048 217.228C597.521 218.756 596.688 220.84 596.688 223.063C596.688 226.12 598.354 228.899 600.992 230.288C602.103 230.983 603.492 231.261 604.88 231.261C606.268 231.261 607.657 230.844 608.768 230.288C608.907 230.149 609.045 230.149 609.184 230.01L638.342 213.337C639.453 212.643 640.147 211.253 640.147 209.447Z" fill="#455A64"/>
<path d="M410.579 505.214C410.743 507.311 413.702 507.331 417.071 506.941C420.441 506.55 419.537 507.393 424.262 507.475C428.988 507.537 430.611 505.974 430.837 505.317C431.043 504.72 428.762 504.206 426.338 503.631C426.029 503.548 425.721 503.487 425.413 503.404C422.68 502.705 420.852 500.649 418.51 498.861C416.291 497.154 413.435 491.028 413.435 491.028L406.983 490.74C406.983 490.74 409.695 496.25 410.723 498.614C411.318 500.012 411.072 501.719 410.805 503.034C410.661 503.754 410.517 504.474 410.579 505.214Z" fill="#FFB27D"/>
<path d="M417.072 506.962C420.442 506.571 419.538 507.414 424.263 507.497C428.989 507.558 430.612 505.996 430.838 505.338C431.043 504.742 428.763 504.228 426.338 503.652L426.318 503.693C426.318 503.693 423.277 505.317 419.394 504.927C416.23 504.618 413.004 503.282 410.806 503.056C410.662 503.775 410.518 504.495 410.58 505.256C410.723 507.332 413.703 507.353 417.072 506.962Z" fill="#233862"/>
<path d="M366.078 505.666C366.221 507.763 369.2 507.804 372.57 507.414C375.94 507.023 375.036 507.887 379.761 507.948C384.487 508.01 386.11 506.468 386.336 505.79C386.541 505.193 384.261 504.679 381.836 504.083C381.528 504.001 381.22 503.939 380.912 503.857C378.179 503.158 376.35 501.102 374.008 499.313C371.789 497.607 374.008 487.553 374.008 487.553L366.92 486.854C366.92 486.854 367.269 495.324 367.249 499.169C367.249 500.691 366.55 502.15 366.283 503.466C366.18 504.186 366.036 504.926 366.078 505.666Z" fill="#FFB27D"/>
<path d="M372.57 507.393C375.94 507.003 375.036 507.866 379.761 507.928C384.487 507.99 386.11 506.448 386.336 505.769C386.541 505.173 384.261 504.659 381.836 504.063L381.816 504.104C381.816 504.104 378.775 505.728 374.892 505.337C371.728 505.008 368.502 503.693 366.324 503.446C366.18 504.166 366.037 504.885 366.098 505.625C366.242 507.764 369.201 507.784 372.57 507.393Z" fill="#233862"/>
<path d="M386.766 331.77C387.978 326.753 386.211 324.409 384.629 323.176C383.869 321.325 383.006 319.989 382.123 319.495C380.52 318.57 378.589 318.488 377.233 318.55C377.582 318.2 378.26 318.056 378.26 318.056C377.418 317.933 375.548 318.755 375.548 318.755C363.898 314.273 362.07 331.42 362.316 335.409C362.563 339.398 362.522 344.085 356.461 347.231C344.893 353.214 360.303 375.81 360.303 375.81C360.015 372.582 374.849 355.599 382.616 350.5C384.506 347.724 385.164 342.811 385.225 342.42C384.896 346.306 384.239 348.485 383.643 349.719C387.177 346.47 387.691 338.657 386.766 331.77Z" fill="#A9453D"/>
<path d="M382.164 350.746C382.205 350.767 378.425 352.72 375.589 351.959C372.918 351.24 371.172 347.765 371.213 347.745C372.343 347.519 372.672 345.956 372.651 339.274L373.165 339.377L381.774 341.084C381.774 341.084 381.568 343.797 381.568 346.347C381.548 348.485 381.671 350.52 382.164 350.746Z" fill="#FFB27D"/>
<path d="M381.753 341.084C381.753 341.084 381.547 343.798 381.547 346.348C376.74 346.204 374.192 341.824 373.144 339.377L381.753 341.084Z" fill="#ED975D"/>
<path d="M416.784 494.42C417.216 495.736 416.25 497.113 414.873 497.175L411.504 497.339L407.949 497.442C407.066 497.463 406.203 497.072 405.648 496.394C402.813 492.898 394.06 481.282 388.76 464.402C388.616 463.929 388.451 463.456 388.287 462.963C384.794 452.745 377.521 439.915 373.699 428.299C373.083 426.448 372.549 424.701 372.056 423.056C371.891 422.521 371.747 422.007 371.604 421.493C368.789 411.686 367.967 405.251 367.207 398.384L394.821 398.61C394.821 398.61 400.635 443.863 416.784 494.42Z" fill="#2A4E96"/>
<path d="M390.958 382.738C390.897 395.897 392.89 401.53 392.89 401.53C392.89 401.53 381.055 407.555 367.002 403.114C366.837 403.052 356.934 400.256 356.934 400.256C357.16 399.721 359.133 390.921 359.359 390.428C362.317 384.054 363.139 381.361 363.488 379.408C364.146 375.748 364.146 371.965 363.838 368.387C362.975 358.93 360.427 351.076 360.427 351.076C364.248 350.212 367.844 348.67 371.83 347.169C372.755 348.321 375.549 349.513 377.973 349.451C380.767 349.39 381.692 348.197 381.528 346.881C384.507 348.547 386.89 350.109 386.89 350.109C389.417 354.509 394.574 358.806 394.944 365.571C395.047 367.257 390.958 382.368 390.958 382.738Z" fill="white"/>
<path d="M367.206 384.198C365.994 385.904 363.693 396.308 357.92 397.603C360.878 390.201 363.138 386.953 363.487 384.671C364.145 380.415 364.145 376.015 363.837 371.862C365.768 368.47 367.206 366.167 367.206 366.167C367.35 365.612 370.268 356.607 371.213 364.666C372.137 372.726 368.542 382.286 367.206 384.198Z" fill="#5F9AA8"/>
<path d="M383.356 343.489C383.356 343.489 371.953 343.674 371.953 336.581C371.953 329.467 370.473 324.718 377.747 324.286C385.02 323.875 386.438 326.568 387.013 328.953C387.609 331.317 386.335 343.263 383.356 343.489Z" fill="#FFB27D"/>
<path d="M382.945 324.122C382.945 324.122 379.822 332.449 375.035 333.683C370.248 334.916 368.173 333.621 368.173 333.621C368.173 333.621 371.85 330.701 372.611 325.602C372.59 325.623 380.582 320.153 382.945 324.122Z" fill="#A9453D"/>
<path d="M382.165 324.8C382.165 324.8 384.486 326.671 385.062 328.48C385.637 330.29 385.883 334.011 386.972 333.888C386.972 333.888 389.315 328.213 386.685 325.026C383.89 321.613 382.165 324.8 382.165 324.8Z" fill="#A9453D"/>
<path d="M401.292 391.867L406.675 408.294L403.614 409.507L394.697 395.012L401.292 391.867Z" fill="#FFB27D"/>
<path d="M386.786 349.164C386.786 349.164 393.135 351.692 394.964 355.619C396.792 359.546 399.587 385.904 400.696 388.618C401.806 391.332 402.627 393.471 402.627 393.471C402.627 393.471 399.422 396.164 396.217 396.37C392.991 396.555 386.786 349.164 386.786 349.164Z" fill="#18CBC7"/>
<path d="M381.548 346.902C381.548 346.902 388.143 363.206 388.328 366.496C388.513 369.786 389.109 420.445 389.109 420.445C389.109 420.445 388.718 422.769 393.177 421.802C397.635 420.836 398.806 419.87 398.806 419.87C398.806 419.87 394.533 388.619 395.704 377.763C396.875 366.887 386.787 349.164 386.787 349.164L381.548 346.902Z" fill="#9EEBEB"/>
<path d="M411.504 497.339L407.641 497.463C406.942 497.483 406.285 497.196 405.853 496.661C403.265 493.515 394.204 481.734 388.759 464.423C388.615 463.95 388.451 463.477 388.287 462.983C384.794 452.765 377.52 439.936 373.699 428.319C373.083 426.469 372.548 424.721 372.055 423.076C371.891 422.542 371.747 422.028 371.603 421.514L375.671 418.43C375.671 418.43 387.896 438.229 391.677 456.857C394.943 473.037 408.093 492.508 411.504 497.339Z" fill="#1E3D70"/>
<path d="M376.082 458.584C376.144 467.157 375.733 486.258 374.706 495.592C374.603 496.455 373.884 497.093 373.021 497.093H370.145C368.932 497.093 368.028 497.093 367.412 497.072C366.898 497.072 366.446 496.682 366.344 496.168C363.467 481.57 361.433 469.44 359.933 458.954C358.68 450.175 357.55 442.671 356.708 436.194C355.845 429.677 355.249 424.228 355.023 419.623C354.982 418.903 354.961 418.184 354.961 417.505C354.941 416.806 354.941 416.148 354.941 415.49L378.794 413.167C378.486 429.039 376.041 453.321 376.082 458.584Z" fill="#2A4E96"/>
<path d="M370.145 497.093C369.056 497.093 368.214 497.093 367.618 497.072C366.981 497.072 366.447 496.599 366.323 495.983C363.468 481.467 361.434 469.398 359.934 458.974C358.68 450.195 357.55 442.691 356.708 436.214C355.845 429.697 355.249 424.249 355.023 419.643L363.776 424.804C363.776 424.804 358.187 426.777 360.324 441.725C362.461 456.672 367.166 494.975 370.145 497.093Z" fill="#1E3D70"/>
<path d="M371.274 419.479C371.274 419.479 369.59 425.565 363.775 424.783C357.961 424.002 349.681 420.507 349.681 420.507C349.681 420.507 352.167 412.653 355.249 402.311C358.988 389.811 363.631 373.692 365.809 363.515C366.426 360.657 366.836 358.292 367.001 356.586L371.829 347.21C371.829 347.21 379.02 363.371 379.411 367.441C379.801 371.553 371.274 419.479 371.274 419.479Z" fill="#9EEBEB"/>
<path d="M365.46 366.866L371.83 347.231C371.809 347.231 363.776 349.616 359.749 351.672C359.749 351.672 357.221 354.921 355.66 362.446C355.66 362.446 354.016 380.477 357.694 387.076C357.694 387.076 369.323 389.4 387.938 383.005V378.729C387.938 378.729 367.577 379.798 363.406 380.292L365.46 366.866Z" fill="#FFB27D"/>
<path d="M371.008 376.015C370.741 382.615 369.2 395.423 355.373 402.27C355.332 402.29 355.291 402.311 355.27 402.332C359.009 389.831 363.653 373.712 365.831 363.535C368.358 367.339 371.152 372.376 371.008 376.015Z" fill="#9EEBEB"/>
<path d="M371.829 347.231C371.829 347.231 360.015 348.054 357.18 354.407C354.345 360.739 353.441 381.833 357.057 388.042C357.057 388.042 362.049 389.461 370.864 387.816C370.966 387.796 371.09 387.775 371.192 387.755C371.192 387.755 374.007 380.867 371.48 379.51C371.48 379.51 364.042 379.901 364.823 377.434C365.583 374.966 371.829 347.231 371.829 347.231Z" fill="#18CBC7"/>
<path d="M401.437 381.361L401.087 382.471L381.713 376.447C381.713 376.447 381.445 376.159 381.589 375.768C381.733 375.336 382.062 375.336 382.062 375.336L401.437 381.361Z" fill="#38795F"/>
<path d="M402.834 382.43L401.437 381.361L401.087 382.492L402.834 382.43Z" fill="#38795F"/>
<path d="M405.915 407.842C405.915 407.842 410.825 410.556 411.483 412.632C412.12 414.709 411.688 419.047 410.908 418.985C410.127 418.924 408.956 414.318 408.319 414.01C407.682 413.681 406.757 412.714 406.757 413.434C406.757 414.154 407.394 415.449 407.086 415.634C406.757 415.819 405.73 413.825 405.011 413.434C404.292 413.043 404.004 409.836 403.306 408.993C402.607 408.089 405.915 407.842 405.915 407.842Z" fill="#FFB27D"/>
<path d="M387.937 378.729C387.937 378.729 392.334 376.015 394.183 376.447C396.032 376.858 400.737 380.271 398.457 381.011C396.197 381.751 394.368 380.97 393.505 381.504C392.642 382.039 391.985 383.026 387.937 383.005C383.89 382.984 387.937 378.729 387.937 378.729Z" fill="#FFB27D"/>
<path d="M515.654 336.28C515.25 335.986 514.919 335.342 514.497 334.864C514.184 334.496 513.578 334.165 513.578 334.165C513.578 334.165 513.523 335.011 513.449 335.691C512.2 335.232 510.325 334.79 507.311 335.379C506.705 335.489 506.172 335.838 505.841 336.353C505.529 336.831 505.419 337.42 506.191 337.898C507.716 338.854 507.275 338.284 509.406 339.663C511.538 341.043 514.148 341.41 515.691 340.436L517.786 340.086L518.043 336.648C518.043 336.629 516.867 336.482 515.654 336.28Z" fill="#FFB27D"/>
<path d="M570.399 307.446C570.399 307.446 565.474 313.294 559.207 310.848C559.207 310.848 557.866 307.575 557.848 305.184C557.848 304.89 557.848 304.596 557.829 304.32C557.793 301.617 557.701 300.09 557.701 300.09C557.995 299.98 567.293 296.155 567.275 296.468C567.128 303.787 570.399 307.446 570.399 307.446Z" fill="#FFB27D"/>
<path d="M566.337 298.196C565.436 299.851 562.367 303.106 557.81 304.302C557.773 301.598 557.681 300.072 557.681 300.072C557.957 300.017 566.612 297.718 566.337 298.196Z" fill="#ED975D"/>
<path d="M555.752 299.796C555.752 299.796 566.208 302.26 567.641 295.714C569.074 289.167 571.39 285.085 564.774 283.228C558.159 281.371 556.303 283.596 555.292 285.655C554.282 287.733 553.05 298.987 555.752 299.796Z" fill="#FFB27D"/>
<path d="M567.275 297.497C567.422 297.589 569.664 298.288 573.927 289.774C574.589 288.432 575.048 285.563 573.486 283.007C571.924 280.451 566.393 278.446 561.799 277.582C557.205 276.718 556.102 279.292 555.018 281.903C553.878 284.625 550.607 286.887 550.607 286.887C554.577 289.094 559.336 285.931 560.99 286.446C562.644 286.96 563.232 289.572 563.361 290.418C563.489 291.245 563.673 291.944 565.75 291.208C567.826 290.454 566.687 294.151 566.356 294.868C566.374 294.849 566.08 296.743 567.275 297.497Z" fill="#A9453D"/>
<path d="M594.233 460.663H600.555C601.878 460.663 603.366 459.339 603.734 456.893C604.102 454.447 606.84 453.123 607.428 451.137C608.016 449.151 604.984 446.338 604.984 446.338L604.469 445.694L603.936 445.014L598.919 446.191C598.919 446.191 598.791 447.386 598.717 448.912C598.662 450.015 598.625 451.284 598.699 452.406C598.846 455.072 597.945 457.923 595.593 458.438C593.259 458.952 594.233 460.663 594.233 460.663Z" fill="#2C3A64"/>
<path d="M550.13 460.663H566.926C567.091 460.626 567.202 460.589 567.275 460.552C568.396 459.982 568.047 455.698 567.918 454.374C567.9 454.135 567.882 453.987 567.882 453.987C567.882 453.987 561.983 449.262 561.156 452.884C561.137 452.994 561.101 453.105 561.064 453.215C560.035 456.599 555.459 458.143 552.813 458.566C550.791 458.897 550.258 460.074 550.13 460.663Z" fill="#2C3A64"/>
<path d="M553.512 363.772C553.512 363.772 554.412 374.97 555.46 388.431C556.893 406.709 558.62 429.162 558.786 433.41C559.08 440.802 560.256 452.608 560.256 452.608C560.256 452.608 563.067 455.421 568.672 454.226C568.672 454.226 573.671 437.364 575.104 419.508C575.122 419.214 575.141 418.92 575.177 418.625C576.501 400.457 578.577 362.208 578.577 362.208L553.512 363.772Z" fill="#18CBC7"/>
<path d="M553.512 363.772C553.512 363.772 554.412 374.97 555.46 388.431L575.104 419.526C575.122 419.232 575.141 418.938 575.177 418.644C576.501 400.476 578.577 362.227 578.577 362.227L553.512 363.772Z" fill="#159E99"/>
<path d="M557.61 365.096C557.61 365.096 573.781 405.643 584.402 424.694C595.024 443.745 598.35 449.059 598.35 449.059C598.35 449.059 604.433 446.613 604.984 444.958C604.984 444.958 600.923 408.181 593.811 399.207C589.787 394.132 585.064 378.942 584.844 373.61C584.623 368.295 583.41 357.777 583.41 357.777L557.61 365.096Z" fill="#18CBC7"/>
<path d="M594.471 357.74L594.636 360.333C594.636 360.333 592.909 364.967 597.742 367.339C597.742 367.339 599.8 368.166 599.892 366.566C599.984 364.967 599.708 365.573 599.873 363.312C600.039 361.05 599.157 358.917 597.65 358.2L596.419 356.784L594.471 357.74Z" fill="#FFB27D"/>
<path d="M596.345 359.634C594.563 360.204 594.269 360.075 594.269 360.075C594.269 360.075 585.558 344.206 584.676 342.753C583.794 341.3 566.19 324.971 566.19 324.971L570.71 308.09C570.71 308.09 590.741 334.037 592.891 337.751C596.474 343.912 598.569 358.2 598.569 358.2C598.569 358.2 597.76 359.174 596.345 359.634Z" fill="#2B3649"/>
<path d="M550.112 331.591C550.167 335.066 550.369 338.946 550.644 342.918C550.663 343.157 550.681 343.397 550.7 343.617C550.865 346.063 551.618 354.614 551.655 354.963C552.537 363.937 553.456 371.035 553.64 371.145C553.842 371.274 554.081 371.348 554.32 371.329C556.672 371.035 563.692 371.568 569.444 370.318C574.295 369.288 578.466 367.357 582.895 364.746C583.483 364.397 584.825 363.477 584.714 362.797C584.604 362.043 584.402 360.958 584.163 359.579C583.299 354.798 581.793 346.596 581.278 336.979C581.186 335.195 581.039 333.411 580.837 331.683C580.341 327.159 579.551 322.856 578.485 319.031C576.518 311.933 573.615 306.49 569.995 304.375C569.517 304.118 566.963 305.736 564.629 307.244C562.461 308.642 560.182 309.009 557.958 308.825L556.01 310.977C553.64 313.735 551.122 317.395 550.442 322.599C550.387 322.985 550.35 323.389 550.314 323.831C550.093 325.909 550.056 328.593 550.112 331.591Z" fill="#2B3649"/>
<path d="M550.111 331.59C550.166 335.066 550.368 338.946 550.643 342.918C550.662 343.157 550.68 343.396 550.699 343.617C564.132 335.195 566.208 319.803 566.208 319.803C559.593 320.097 554.337 321.605 550.294 323.794C550.092 325.908 550.055 328.593 550.111 331.59Z" fill="#313236"/>
<path d="M516.152 338.229C516.005 336.243 517.053 335.894 517.053 335.894C517.053 335.894 537.322 332.216 539.031 331.683C540.758 331.15 555.478 315.813 555.478 315.813C555.478 315.813 561.119 309.451 565.75 310.848C569.775 312.062 571.337 315.206 571.869 318.185C572.513 321.753 570.859 325.32 567.79 327.214C560.88 331.462 547.025 339.829 543.772 340.785C536.513 342.918 517.016 340.951 517.016 340.951C517.016 340.951 516.263 339.792 516.152 338.229Z" fill="#2B3649"/>
<path d="M765.594 255.636C765.594 255.636 765.043 250.05 767.946 250.226C770.875 250.426 771.651 251.754 771.325 252.831C771 253.908 768.147 257.464 768.147 257.464L765.594 255.636Z" fill="#FFB27D"/>
<path d="M761.012 285.39C755.907 285.59 745.695 282.61 741.84 281.007C738.186 279.504 735.008 277.901 732.305 276.323C731.579 275.898 730.878 275.472 730.227 275.071C723.269 270.688 720.041 266.881 720.041 266.881C720.041 266.881 733.081 255.611 738.336 258.566C744.519 262.022 755.156 273.243 756.933 272.091C758.96 270.788 764.591 254.909 764.591 254.909C768.321 254.208 769.122 257.013 769.122 257.013C769.122 257.013 768.246 285.089 761.012 285.39Z" fill="#9EEBEB"/>
<path d="M739.488 403.906C739.488 403.906 738.963 410.092 740.264 410.743L756.983 410.718C756.983 410.718 756.983 408.79 754.305 408.364C751.627 407.938 746.897 406.36 746.096 402.854C745.295 399.347 739.488 403.906 739.488 403.906Z" fill="#233862"/>
<path d="M751.752 329.044C751.677 333.101 751.476 337.259 751.101 341.016C749.299 358.823 748.648 380.313 748.398 384.47C747.947 391.658 746.521 403.154 746.521 403.154C746.521 403.154 743.693 405.834 738.211 404.557C738.211 404.557 733.656 388.002 732.655 370.57C732.63 370.294 732.63 369.994 732.605 369.718C732.48 367.414 732.355 364.784 732.229 361.929C731.404 342.894 730.477 314.618 730.477 314.618L751.476 309.684C751.476 309.659 751.977 318.951 751.752 329.044Z" fill="#2A4E96"/>
<path d="M751.752 329.044C746.421 338.236 736.284 355.142 732.229 361.904C731.404 342.869 730.477 314.593 730.477 314.593L751.476 309.659C751.476 309.659 751.977 318.951 751.752 329.044Z" fill="#233862"/>
<path d="M707.977 326.039C707.977 326.039 706.675 331.148 706.876 332.275C707.101 333.402 708.352 337.259 709.153 338.211C709.954 339.163 709.979 334.053 710.505 333.252C711.03 332.451 710.755 335.155 711.181 335.381C711.606 335.606 712.307 333.327 712.632 332.526C712.958 331.724 711.506 328.919 711.381 326.916C711.231 324.912 707.977 326.039 707.977 326.039Z" fill="#FFB27D"/>
<path d="M697.816 396.893C697.816 396.893 694.837 399.622 695.413 401.551C695.988 403.479 698.692 404.782 699.042 407.136C699.417 409.49 700.869 410.792 702.17 410.792C703.472 410.792 708.403 410.792 708.403 410.792C708.403 410.792 709.354 409.14 707.051 408.639C704.723 408.138 703.847 405.358 703.998 402.778C704.148 400.198 703.772 396.767 703.772 396.767L698.842 395.615L697.816 396.893Z" fill="#233862"/>
<path d="M748.173 315.019C748.173 315.019 728.525 357.095 718.064 375.554C707.602 394.012 704.348 399.171 704.348 399.171C704.348 399.171 698.366 396.817 697.816 395.189C697.816 395.189 701.82 359.55 708.828 350.859C712.783 345.95 717.438 331.223 717.638 326.064C717.863 320.905 722.444 308.607 722.444 308.607L748.173 315.019Z" fill="#2A4E96"/>
<path d="M751.827 312.815C751.827 312.815 745.42 319.702 734.558 321.781C729.777 322.683 720.091 323.584 717.688 320.178C717.113 319.377 717.113 318.199 717.238 316.346C717.563 311.562 718.765 302.27 713.333 283.662C712.833 281.933 712.483 280.255 712.282 278.678C711.106 269.135 715.111 262.373 719.816 259.367C731.329 252.004 736.935 257.088 736.935 257.088C736.935 257.088 743.518 260.169 746.521 269.135C752.578 287.118 751.827 312.815 751.827 312.815Z" fill="#9EEBEB"/>
<path d="M723.269 257.464C723.269 257.464 729.851 259.593 735.858 257.138C735.858 257.138 737.009 256.537 736.058 255.235C736.158 253.982 736.133 254.083 736.158 253.181C736.233 251.052 736.133 249.85 736.133 249.85L731.703 246.97L727.498 244.215C728.6 252.906 723.269 257.464 723.269 257.464Z" fill="#FFB27D"/>
<path d="M727.75 247.522C727.75 247.522 730.904 252.231 736.185 253.132C736.26 251.003 736.11 248.824 736.11 248.824L731.729 246.921L727.75 247.522Z" fill="#ED985F"/>
<path d="M740.063 248.698C740.063 248.698 729.401 252.681 727.023 246.119C724.646 239.557 721.667 235.624 728.375 232.819C735.083 229.989 737.31 232.043 738.637 234.046C740.013 236.025 742.791 247.496 740.063 248.698Z" fill="#FFB27D"/>
<path d="M720.391 233.545C720.266 233.445 720.016 233.395 719.49 233.47C719.49 233.47 719.841 233.145 720.391 233.019C720.366 232.293 720.492 230.941 721.668 230.39C721.668 230.39 721.067 230.866 721.142 231.642C722.269 229.889 725.122 228.236 733.682 227.234C744.97 225.906 742.717 233.771 741.441 234.898C740.164 236.025 736.084 234.422 733.431 235.173C730.778 235.925 731.054 239.907 730.253 240.608C729.452 241.31 729.627 240.308 728.275 239.982C726.924 239.657 727.224 241.735 727.85 242.988C728.476 244.24 727.124 246.344 727.124 246.344C727.124 246.344 727.124 246.344 725.047 244.841C722.969 243.338 719.816 235.85 720.266 234.021C720.316 233.871 720.366 233.696 720.391 233.545Z" fill="#2C3A64"/>
<path d="M717.264 316.371C717.589 311.587 718.791 302.296 713.359 283.687C712.859 281.959 712.508 280.281 712.308 278.703C716.363 277.375 723.721 280.331 723.721 280.331C723.721 280.331 725.448 304.95 717.264 316.371Z" fill="#159E99"/>
<path d="M720.34 259.067C720.34 259.067 712.006 263.801 709.128 274.345C706.8 282.986 703.171 295.859 702.745 299.866C702.32 303.899 707.15 327.442 707.15 327.442C707.15 327.442 707.826 327.943 709.503 327.617C711.105 327.291 711.856 326.215 711.856 326.215C711.856 326.215 713.007 310.511 712.707 303.097C712.581 300.017 726.948 280.556 734.707 278.027C737.76 277.075 720.34 259.067 720.34 259.067Z" fill="#9EEBEB"/>
<path d="M726.123 253.482C726.123 253.482 724.722 254.158 722.019 257.765C722.019 257.765 727.049 264.076 734.308 263.25C734.308 263.25 733.407 259.969 733.457 257.89C733.457 257.89 727.4 257.214 726.123 253.482Z" fill="#159E99"/>
<path d="M733.456 257.891C733.456 257.891 737.336 258.893 738.262 261.698C738.262 261.698 739.087 259.294 738.362 257.941C737.636 256.589 736.059 255.211 736.059 255.211C736.059 255.211 736.61 256.915 733.456 257.891Z" fill="#159E99"/>
<path d="M786.866 242.312C786.866 242.312 772.474 241.911 755.88 244.966L754.153 240.583L752.251 235.8C752.251 235.8 768.92 228.612 778.932 218.619L786.866 242.312Z" fill="white"/>
<path d="M778.707 218.393L786.966 242.787C788.168 242.436 788.843 241.134 788.418 239.932L781.16 219.445C780.784 218.443 779.658 217.967 778.707 218.393Z" fill="#9EEBEB"/>
<path d="M786.867 242.312C786.867 242.312 772.475 241.912 755.882 244.967L754.155 240.584C769.747 237.403 786.867 242.312 786.867 242.312Z" fill="#D7E1FF"/>
<path d="M760.486 244.065L755.981 244.866C756.056 244.866 751.801 245.693 750.425 241.936C750.3 241.686 750.225 241.435 750.15 241.135C749.073 236.451 751.651 235.575 751.651 235.575L757.433 233.321L759.26 239.832C759.26 239.832 759.26 239.832 759.26 239.857L760.486 244.065Z" fill="#9EEBEB"/>
<path d="M760.488 244.066L755.983 244.867C756.058 244.867 751.803 245.694 750.426 241.937C752.979 240.083 759.261 239.833 759.261 239.833C759.261 239.833 759.261 239.833 759.261 239.858L760.488 244.066Z" fill="#159E99"/>
<path d="M770.823 260.445C769.221 260.77 767.644 259.718 767.319 258.116L764.466 243.89C764.14 242.287 765.191 240.709 766.793 240.383C768.395 240.058 769.972 241.11 770.297 242.713L773.15 256.938C773.476 258.566 772.424 260.144 770.823 260.445Z" fill="#D7E1FF"/>
<path d="M770.449 246.67C770.449 246.67 768.247 247.547 768.647 248.524C769.048 249.501 771.851 250.828 772.276 250.052C772.727 249.3 771.826 245.869 770.449 246.67Z" fill="#FFB27D"/>
<path d="M765.543 254.759C765.543 254.759 765.117 252.505 765.092 251.478C765.067 250.451 764.767 249.675 765.017 249.625C765.268 249.6 765.393 249.775 765.493 250.101C765.593 250.426 766.194 252.43 766.194 252.43L765.993 254.408L765.543 254.759Z" fill="#FFB27D"/>
</svg>
