<svg width="14" height="11" viewBox="0 0 14 11" fill="none" xmlns="http://www.w3.org/2000/svg">
<path d="M7.33215 0.411665C6.99226 0.753403 6.99357 1.30615 7.33507 1.64627L10.3956 4.6941L1.01866 4.6941C0.536822 4.6941 0.14624 5.08495 0.14624 5.56711C0.14624 6.04927 0.536822 6.44011 1.01866 6.44011L10.3956 6.44011L7.33503 9.48795C6.99352 9.82807 6.99221 10.3808 7.33211 10.7226C7.67205 11.0643 8.22442 11.0656 8.56593 10.7255L13.1245 6.18589L13.1253 6.18506C13.4659 5.84494 13.467 5.29041 13.1253 4.94915L13.1245 4.94832L8.56597 0.408696C8.2245 0.0686607 7.67209 0.0698395 7.33215 0.411665Z" fill="white"/>
</svg>
