<svg width="411" height="239" viewBox="0 0 411 239" fill="none" xmlns="http://www.w3.org/2000/svg">
<path d="M75.7562 209.902H71.3323V192.412H65.2239V188.765H81.8792V192.412H75.7562V209.902ZM81.9671 209.902V194.199H86.098V197.026H86.1859C86.4593 196.03 86.9183 195.269 87.5628 194.741C88.2073 194.214 88.9935 193.95 89.9212 193.95C90.3704 193.95 90.7757 194.004 91.137 194.111V197.876C90.7366 197.71 90.2191 197.627 89.5843 197.627C88.5296 197.627 87.7093 197.935 87.1234 198.55C86.5374 199.165 86.2444 200.024 86.2444 201.128V209.902H81.9671ZM107.397 194.199V209.902H103.266V207.075H103.178C102.358 209.155 100.79 210.195 98.4759 210.195C96.7571 210.195 95.3851 209.673 94.3597 208.628C93.3343 207.573 92.8216 206.138 92.8216 204.321V194.199H97.0989V203.428C97.0989 204.473 97.348 205.269 97.846 205.815C98.3538 206.362 99.0814 206.636 100.029 206.636C100.976 206.636 101.728 206.323 102.284 205.698C102.841 205.073 103.119 204.238 103.119 203.193V194.199H107.397ZM109.916 198.813C109.916 197.319 110.517 196.123 111.718 195.225C112.919 194.316 114.526 193.862 116.537 193.862C118.5 193.862 120.077 194.321 121.269 195.239C122.46 196.157 123.071 197.378 123.1 198.901H119.159C119.111 198.267 118.847 197.769 118.368 197.407C117.9 197.046 117.27 196.865 116.479 196.865C115.737 196.865 115.141 197.021 114.692 197.334C114.252 197.637 114.033 198.042 114.033 198.55C114.033 199.312 114.716 199.854 116.083 200.176L119.086 200.82C120.659 201.172 121.786 201.685 122.47 202.358C123.163 203.022 123.51 203.94 123.51 205.112C123.51 206.655 122.866 207.896 121.576 208.833C120.287 209.771 118.603 210.239 116.523 210.239C114.452 210.239 112.797 209.78 111.557 208.862C110.317 207.944 109.638 206.709 109.521 205.156H113.696C113.803 205.82 114.106 206.333 114.604 206.694C115.112 207.056 115.79 207.236 116.64 207.236C117.451 207.236 118.085 207.09 118.544 206.797C119.013 206.494 119.247 206.084 119.247 205.566C119.247 205.166 119.101 204.849 118.808 204.614C118.515 204.37 118.017 204.165 117.314 203.999L114.413 203.354C111.415 202.671 109.916 201.157 109.916 198.813ZM126.791 190.581H131.069V194.199H133.969V197.422H131.069V204.937C131.069 206.118 131.684 206.709 132.914 206.709C133.315 206.709 133.661 206.685 133.954 206.636V209.785C133.456 209.902 132.778 209.961 131.918 209.961C130.073 209.961 128.754 209.629 127.963 208.965C127.182 208.301 126.791 207.202 126.791 205.669V197.422H124.579V194.199H126.791V190.581ZM143.124 197.026C142.197 197.026 141.42 197.344 140.795 197.979C140.18 198.613 139.833 199.424 139.755 200.41H146.42C146.371 199.404 146.044 198.589 145.439 197.964C144.843 197.339 144.072 197.026 143.124 197.026ZM146.479 205.098H150.405C150.17 206.641 149.399 207.886 148.09 208.833C146.791 209.771 145.175 210.239 143.242 210.239C140.829 210.239 138.935 209.517 137.558 208.071C136.191 206.626 135.507 204.644 135.507 202.124C135.507 199.614 136.191 197.612 137.558 196.118C138.925 194.614 140.766 193.862 143.08 193.862C145.356 193.862 147.167 194.575 148.515 196.001C149.863 197.427 150.536 199.336 150.536 201.729V203.032H139.711V203.296C139.711 204.419 140.038 205.332 140.693 206.035C141.357 206.729 142.231 207.075 143.315 207.075C144.096 207.075 144.77 206.899 145.336 206.548C145.903 206.187 146.284 205.703 146.479 205.098ZM158.578 210.151C156.616 210.151 155.058 209.424 153.906 207.969C152.753 206.514 152.177 204.531 152.177 202.021C152.177 199.531 152.753 197.563 153.906 196.118C155.068 194.673 156.635 193.95 158.608 193.95C159.721 193.95 160.698 194.219 161.537 194.756C162.387 195.293 163.007 196.006 163.398 196.895H163.486V188.765H167.763V209.902H163.544V207.207H163.471C163.08 208.096 162.451 208.809 161.581 209.346C160.712 209.883 159.711 210.151 158.578 210.151ZM160.029 197.378C158.954 197.378 158.105 197.798 157.48 198.638C156.865 199.478 156.557 200.615 156.557 202.051C156.557 203.496 156.865 204.634 157.48 205.464C158.105 206.294 158.954 206.709 160.029 206.709C161.093 206.709 161.938 206.294 162.563 205.464C163.198 204.624 163.515 203.486 163.515 202.051C163.515 200.625 163.198 199.492 162.563 198.652C161.938 197.803 161.093 197.378 160.029 197.378ZM182.631 207.061C183.578 207.061 184.379 206.787 185.034 206.24C185.698 205.684 186.03 204.985 186.03 204.146V203.003L182.719 203.208C181.918 203.267 181.298 203.467 180.859 203.809C180.429 204.15 180.214 204.6 180.214 205.156C180.214 205.742 180.434 206.206 180.873 206.548C181.313 206.89 181.899 207.061 182.631 207.061ZM181.225 210.151C179.711 210.151 178.456 209.707 177.46 208.818C176.464 207.93 175.966 206.787 175.966 205.391C175.966 203.965 176.493 202.847 177.548 202.036C178.603 201.226 180.112 200.762 182.075 200.645L186.03 200.41V199.37C186.03 198.647 185.79 198.081 185.312 197.671C184.843 197.261 184.203 197.056 183.393 197.056C182.612 197.056 181.972 197.231 181.474 197.583C180.986 197.935 180.688 198.408 180.58 199.004H176.669C176.747 197.461 177.407 196.221 178.647 195.283C179.887 194.336 181.533 193.862 183.583 193.862C185.595 193.862 187.206 194.341 188.417 195.298C189.628 196.255 190.234 197.524 190.234 199.106V209.902H186.103V207.5H186.015C185.585 208.32 184.931 208.97 184.052 209.448C183.173 209.917 182.231 210.151 181.225 210.151ZM193.002 209.902V194.199H197.133V196.997H197.221C197.651 196.001 198.276 195.239 199.096 194.712C199.926 194.175 200.937 193.906 202.128 193.906C203.867 193.906 205.209 194.424 206.157 195.459C207.104 196.494 207.577 197.935 207.577 199.78V209.902H203.3V200.674C203.3 199.639 203.056 198.843 202.568 198.286C202.079 197.729 201.362 197.451 200.414 197.451C199.467 197.451 198.705 197.769 198.129 198.403C197.563 199.038 197.28 199.868 197.28 200.894V209.902H193.002ZM216.117 210.151C214.155 210.151 212.597 209.424 211.445 207.969C210.292 206.514 209.716 204.531 209.716 202.021C209.716 199.531 210.292 197.563 211.445 196.118C212.607 194.673 214.174 193.95 216.147 193.95C217.26 193.95 218.237 194.219 219.076 194.756C219.926 195.293 220.546 196.006 220.937 196.895H221.025V188.765H225.302V209.902H221.083V207.207H221.01C220.619 208.096 219.99 208.809 219.12 209.346C218.251 209.883 217.25 210.151 216.117 210.151ZM217.568 197.378C216.493 197.378 215.644 197.798 215.019 198.638C214.404 199.478 214.096 200.615 214.096 202.051C214.096 203.496 214.404 204.634 215.019 205.464C215.644 206.294 216.493 206.709 217.568 206.709C218.632 206.709 219.477 206.294 220.102 205.464C220.737 204.624 221.054 203.486 221.054 202.051C221.054 200.625 220.737 199.492 220.102 198.652C219.477 197.803 218.632 197.378 217.568 197.378ZM233.681 203.882H237.944C238.041 204.741 238.495 205.439 239.306 205.977C240.126 206.504 241.127 206.768 242.309 206.768C243.481 206.768 244.433 206.519 245.165 206.021C245.908 205.513 246.279 204.868 246.279 204.087C246.279 203.403 246.005 202.852 245.458 202.432C244.911 202.012 243.998 201.66 242.719 201.377L239.965 200.776C236.088 199.946 234.15 197.979 234.15 194.873C234.15 192.939 234.902 191.377 236.406 190.186C237.919 188.994 239.863 188.398 242.236 188.398C244.677 188.398 246.625 188.979 248.08 190.142C249.535 191.294 250.283 192.832 250.322 194.756H246.176C246.108 193.867 245.712 193.169 244.99 192.661C244.277 192.144 243.364 191.885 242.25 191.885C241.157 191.885 240.273 192.124 239.599 192.603C238.935 193.081 238.603 193.711 238.603 194.492C238.603 195.137 238.871 195.659 239.409 196.06C239.955 196.46 240.839 196.802 242.06 197.085L244.623 197.627C246.742 198.076 248.285 198.779 249.252 199.736C250.219 200.684 250.702 201.963 250.702 203.574C250.702 205.625 249.931 207.256 248.388 208.467C246.845 209.668 244.76 210.269 242.133 210.269C239.584 210.269 237.553 209.702 236.039 208.569C234.535 207.427 233.749 205.864 233.681 203.882ZM260.107 197.026C259.179 197.026 258.403 197.344 257.778 197.979C257.162 198.613 256.816 199.424 256.738 200.41H263.403C263.354 199.404 263.027 198.589 262.421 197.964C261.826 197.339 261.054 197.026 260.107 197.026ZM263.461 205.098H267.387C267.153 206.641 266.381 207.886 265.073 208.833C263.774 209.771 262.158 210.239 260.224 210.239C257.812 210.239 255.917 209.517 254.54 208.071C253.173 206.626 252.49 204.644 252.49 202.124C252.49 199.614 253.173 197.612 254.54 196.118C255.908 194.614 257.748 193.862 260.063 193.862C262.338 193.862 264.15 194.575 265.497 196.001C266.845 197.427 267.519 199.336 267.519 201.729V203.032H256.694V203.296C256.694 204.419 257.021 205.332 257.675 206.035C258.339 206.729 259.213 207.075 260.297 207.075C261.078 207.075 261.752 206.899 262.319 206.548C262.885 206.187 263.266 205.703 263.461 205.098ZM283.998 200.044H280.029C279.902 199.194 279.565 198.511 279.018 197.993C278.481 197.476 277.783 197.217 276.923 197.217C275.859 197.217 275.019 197.646 274.404 198.506C273.798 199.355 273.495 200.532 273.495 202.036C273.495 203.569 273.798 204.761 274.404 205.61C275.019 206.46 275.864 206.885 276.938 206.885C277.787 206.885 278.481 206.646 279.018 206.167C279.555 205.679 279.892 205.005 280.029 204.146H284.013C283.906 206.001 283.207 207.48 281.918 208.584C280.629 209.688 278.954 210.239 276.894 210.239C274.511 210.239 272.626 209.512 271.24 208.057C269.853 206.592 269.159 204.585 269.159 202.036C269.159 199.526 269.853 197.539 271.24 196.074C272.636 194.6 274.511 193.862 276.865 193.862C278.954 193.862 280.639 194.438 281.918 195.591C283.207 196.743 283.901 198.228 283.998 200.044ZM300.58 194.199V209.902H296.45V207.075H296.362C295.541 209.155 293.974 210.195 291.659 210.195C289.941 210.195 288.569 209.673 287.543 208.628C286.518 207.573 286.005 206.138 286.005 204.321V194.199H290.283V203.428C290.283 204.473 290.532 205.269 291.03 205.815C291.537 206.362 292.265 206.636 293.212 206.636C294.159 206.636 294.911 206.323 295.468 205.698C296.025 205.073 296.303 204.238 296.303 203.193V194.199H300.58ZM303.364 209.902V194.199H307.494V197.026H307.582C307.856 196.03 308.315 195.269 308.959 194.741C309.604 194.214 310.39 193.95 311.318 193.95C311.767 193.95 312.172 194.004 312.534 194.111V197.876C312.133 197.71 311.616 197.627 310.981 197.627C309.926 197.627 309.106 197.935 308.52 198.55C307.934 199.165 307.641 200.024 307.641 201.128V209.902H303.364ZM320.81 197.026C319.882 197.026 319.106 197.344 318.481 197.979C317.866 198.613 317.519 199.424 317.441 200.41H324.106C324.057 199.404 323.73 198.589 323.124 197.964C322.529 197.339 321.757 197.026 320.81 197.026ZM324.164 205.098H328.09C327.856 206.641 327.084 207.886 325.776 208.833C324.477 209.771 322.861 210.239 320.927 210.239C318.515 210.239 316.62 209.517 315.243 208.071C313.876 206.626 313.193 204.644 313.193 202.124C313.193 199.614 313.876 197.612 315.243 196.118C316.611 194.614 318.451 193.862 320.766 193.862C323.041 193.862 324.853 194.575 326.201 196.001C327.548 197.427 328.222 199.336 328.222 201.729V203.032H317.397V203.296C317.397 204.419 317.724 205.332 318.378 206.035C319.042 206.729 319.916 207.075 321 207.075C321.782 207.075 322.455 206.899 323.022 206.548C323.588 206.187 323.969 205.703 324.164 205.098ZM336.264 210.151C334.301 210.151 332.743 209.424 331.591 207.969C330.439 206.514 329.863 204.531 329.863 202.021C329.863 199.531 330.439 197.563 331.591 196.118C332.753 194.673 334.321 193.95 336.293 193.95C337.407 193.95 338.383 194.219 339.223 194.756C340.073 195.293 340.693 196.006 341.083 196.895H341.171V188.765H345.449V209.902H341.23V207.207H341.157C340.766 208.096 340.136 208.809 339.267 209.346C338.398 209.883 337.397 210.151 336.264 210.151ZM337.714 197.378C336.64 197.378 335.79 197.798 335.165 198.638C334.55 199.478 334.242 200.615 334.242 202.051C334.242 203.496 334.55 204.634 335.165 205.464C335.79 206.294 336.64 206.709 337.714 206.709C338.779 206.709 339.623 206.294 340.248 205.464C340.883 204.624 341.201 203.486 341.201 202.051C341.201 200.625 340.883 199.492 340.248 198.652C339.623 197.803 338.779 197.378 337.714 197.378Z" fill="#313236"/>
<rect x="166.246" y="235.9" width="79.9432" height="3" fill="#FFC747"/>
<path d="M275.167 72.9052C275.167 111.014 244.296 141.903 206.218 141.903C168.141 141.903 137.27 111.014 137.27 72.9052C137.27 34.7967 168.141 3.90723 206.218 3.90723C244.296 3.90723 275.167 34.7967 275.167 72.9052Z" fill="white" stroke="#159E99" stroke-width="6"/>
<path d="M245.471 62.4115L224.214 72.3961C224 72.4965 223.761 72.5296 223.528 72.4918L215.769 71.2236C211.335 70.4992 206.803 71.9759 203.645 75.1743L197.152 81.7524C196.754 82.1555 196.554 82.6889 196.59 83.2543C196.626 83.8198 196.891 84.3237 197.337 84.6734C198.014 85.2043 198.976 85.2277 199.678 84.7302L206.009 80.2414C206.908 79.6043 208.105 79.6768 208.92 80.4171L213.547 84.6185C214.026 85.0533 214.062 85.7939 213.627 86.2729C213.193 86.7518 212.453 86.7879 211.974 86.3531L207.363 82.1526L201.031 86.6414C200.291 87.1661 199.419 87.4269 198.547 87.4269C197.605 87.4269 196.664 87.1221 195.892 86.5166C194.929 85.7605 194.332 84.6254 194.254 83.4024C194.176 82.1794 194.626 80.978 195.486 80.1062L200.635 74.891C197.912 74.215 195.03 74.3259 192.355 75.2352L189.612 76.1682C189.312 76.2699 189.001 76.3202 188.691 76.3202C188.204 76.3202 187.72 76.1963 187.287 75.953C187.282 75.9499 187.276 75.9468 187.271 75.9437L167.042 64.1385C166.484 63.8125 166.295 63.0955 166.62 62.5367C166.946 61.9779 167.663 61.7894 168.221 62.115L188.44 73.9141C188.568 73.9842 188.72 73.9972 188.859 73.9503L191.602 73.0174C195.141 71.8144 198.993 71.8147 202.525 73.0038C206.18 69.6322 211.214 68.1064 216.146 68.912L223.548 70.1218L244.477 60.2912C245.062 60.0164 245.759 60.2682 246.033 60.8537C246.308 61.4393 246.056 62.1367 245.471 62.4115Z" fill="#159E99"/>
<path d="M166.411 84.3624C166.694 83.7811 167.395 83.5403 167.976 83.8241L178.273 88.8575C178.449 88.9435 178.601 89.0724 178.714 89.2323L179.543 90.4011C180.539 91.8067 181.829 92.9722 183.316 93.8212C183.432 93.6337 183.563 93.4529 183.712 93.2813L185.758 90.9259C187.248 89.2104 189.854 89.0275 191.569 90.5185L191.737 90.665C192.609 91.4227 193.083 92.4692 193.145 93.5405C193.163 93.5389 193.181 93.5366 193.199 93.5353C194.296 93.4583 195.358 93.8136 196.188 94.5357L196.357 94.6823C197.229 95.4404 197.704 96.4878 197.765 97.5596C198.834 97.4706 199.936 97.7948 200.808 98.553L200.977 98.6997C201.849 99.4579 202.324 100.505 202.385 101.577C203.454 101.488 204.557 101.812 205.428 102.571L205.597 102.717C206.427 103.439 206.927 104.442 207.004 105.54C207.081 106.638 206.726 107.701 206.004 108.532L205.016 109.67L205.41 110.019C205.418 110.026 205.425 110.032 205.432 110.039C206.194 110.748 207.456 110.73 208.2 110.003C208.837 109.302 208.857 108.234 208.243 107.511C207.842 107.038 207.879 106.335 208.327 105.906C208.775 105.478 209.479 105.473 209.933 105.896L210.058 106.013C210.821 106.722 212.083 106.704 212.827 105.977C213.473 105.266 213.486 104.191 212.856 103.466C212.447 102.996 212.477 102.288 212.924 101.855C213.372 101.422 214.08 101.415 214.536 101.839L214.571 101.872C215.333 102.581 216.595 102.563 217.339 101.836C217.977 101.133 217.996 100.065 217.38 99.3408C217.018 98.9162 217.006 98.2951 217.351 97.8568C217.696 97.4185 218.302 97.2845 218.799 97.5362C219.57 97.9266 220.505 97.7444 221.074 97.0935C221.737 96.3362 221.653 95.1394 220.889 94.4195L219.63 93.3041L215.704 89.739C215.225 89.3043 215.189 88.5636 215.624 88.0847C216.058 87.6056 216.798 87.5697 217.277 88.0044L221.193 91.5599L222.453 92.6766C222.46 92.683 222.467 92.6894 222.474 92.6958C223.119 93.2966 223.541 94.057 223.733 94.8624L223.742 94.8574C225.888 93.6404 227.76 92.0479 229.305 90.1244L229.973 89.2939C230.08 89.16 230.216 89.0513 230.37 88.9757L244.459 82.0787C245.04 81.7948 245.741 82.0351 246.025 82.6161C246.309 83.1971 246.069 83.8986 245.488 84.1828L231.633 90.965L231.129 91.5921C229.398 93.7472 227.301 95.5315 224.896 96.895L223.438 97.7221C223.282 98.0465 223.082 98.3546 222.836 98.6359C222.124 99.4496 221.156 99.9359 220.14 100.054C220.285 101.255 219.915 102.503 219.038 103.447C219.028 103.457 219.018 103.467 219.009 103.477C218.104 104.383 216.871 104.802 215.662 104.728C215.657 105.755 215.277 106.78 214.526 107.588C214.516 107.598 214.507 107.608 214.497 107.618C213.562 108.554 212.276 108.97 211.03 108.86C211 109.854 210.621 110.837 209.9 111.614C209.89 111.624 209.88 111.634 209.87 111.644C209.033 112.482 207.915 112.903 206.795 112.903C205.735 112.903 204.673 112.525 203.85 111.764L203.432 111.395C202.782 111.92 201.989 112.235 201.138 112.295C201.04 112.302 200.942 112.305 200.844 112.305C199.852 112.305 198.904 111.952 198.149 111.294L197.98 111.148C197.108 110.389 196.633 109.342 196.572 108.27C196.457 108.28 196.343 108.286 196.227 108.286C195.269 108.286 194.307 107.954 193.528 107.277L193.36 107.13C192.488 106.372 192.013 105.325 191.952 104.253C191.838 104.262 191.723 104.268 191.607 104.268C190.649 104.268 189.687 103.936 188.908 103.26L188.74 103.113C187.909 102.391 187.41 101.388 187.333 100.29C187.331 100.272 187.331 100.254 187.33 100.235C187.216 100.245 187.102 100.251 186.987 100.251C186.029 100.251 185.067 99.919 184.289 99.2422L184.12 99.0956C183.231 98.3223 182.755 97.2484 182.709 96.1542C180.693 95.1192 178.949 93.6123 177.633 91.7558L176.978 90.8307L166.949 85.9283C166.368 85.6449 166.127 84.9436 166.411 84.3624ZM199.514 109.38L199.683 109.527C200.042 109.838 200.499 109.992 200.974 109.959C201.448 109.925 201.88 109.709 202.192 109.351L204.237 106.995C204.549 106.637 204.702 106.178 204.669 105.704C204.636 105.23 204.42 104.797 204.061 104.485L203.893 104.339C203.557 104.046 203.141 103.903 202.728 103.903C202.23 103.903 201.735 104.11 201.384 104.515L199.339 106.87C198.696 107.61 198.775 108.736 199.514 109.38ZM194.895 105.363L195.063 105.509C195.803 106.153 196.929 106.074 197.572 105.333L199.617 102.978C200.261 102.237 200.182 101.111 199.442 100.468L199.273 100.321C198.533 99.6775 197.408 99.7563 196.764 100.497L194.719 102.852C194.076 103.593 194.155 104.719 194.895 105.363ZM189.667 100.127C189.701 100.601 189.917 101.034 190.275 101.346L190.444 101.492C191.184 102.136 192.309 102.057 192.952 101.316L194.998 98.9605C195.641 98.2199 195.562 97.0937 194.822 96.4502L194.653 96.3035C194.327 96.0198 193.918 95.8672 193.489 95.8672C193.447 95.8672 193.405 95.8686 193.362 95.8716C192.889 95.9049 192.456 96.1208 192.144 96.4795L190.099 98.8348C189.787 99.1938 189.634 99.6525 189.667 100.127ZM185.655 97.3279L185.824 97.4745C186.564 98.1181 187.689 98.0392 188.332 97.2986L190.378 94.9432C190.689 94.5845 190.843 94.1258 190.809 93.6517C190.776 93.1776 190.56 92.7447 190.202 92.4329L190.033 92.2864C189.293 91.6429 188.168 91.7217 187.525 92.4624L185.479 94.8177C184.836 95.5582 184.915 96.6844 185.655 97.3279Z" fill="#159E99"/>
<path d="M210.451 65.6798L207.212 66.8687C206.914 66.9778 206.602 67.0325 206.289 67.0325C205.976 67.0325 205.664 66.9778 205.366 66.8687L202.127 65.6798C199.195 64.6039 196.576 62.7784 194.553 60.4006C192.554 58.0493 191.177 55.2092 190.572 52.187C190.446 51.5527 190.856 50.9357 191.49 50.8088C192.125 50.6815 192.741 51.0931 192.868 51.7273C193.941 57.0926 197.797 61.5962 202.933 63.4805L206.172 64.6693C206.247 64.697 206.33 64.697 206.406 64.6693L209.645 63.4805C215.85 61.2036 220.019 55.2304 220.019 48.6171V38.4378C220.019 38.1613 219.822 37.9222 219.55 37.8694L206.217 35.2708L193.026 37.8669C192.756 37.9202 192.559 38.1592 192.559 38.4352V46.9653C192.559 47.6121 192.035 48.1365 191.389 48.1365C190.742 48.1365 190.218 47.6121 190.218 46.9653V38.435C190.218 37.0427 191.209 35.8372 192.574 35.5686L205.99 32.9283C206.138 32.8991 206.291 32.8989 206.439 32.9278L219.998 35.5701C221.366 35.8369 222.359 37.0429 222.359 38.4378V48.6174C222.359 56.209 217.574 63.0661 210.451 65.6798Z" fill="#159E99"/>
<path d="M205.993 37.702C206.142 37.6727 206.294 37.6727 206.443 37.7015L216.73 39.7063C217.28 39.8134 217.677 40.2953 217.677 40.8559V48.6174C217.677 54.2521 214.125 59.3414 208.838 61.2815L206.691 62.0695C206.561 62.1173 206.424 62.141 206.288 62.141C206.151 62.141 206.015 62.1171 205.885 62.0695L203.738 61.2815C198.451 59.3416 194.899 54.2521 194.899 48.6174V40.8487C194.899 40.2891 195.295 39.8076 195.844 39.6996L205.993 37.702ZM197.24 48.6174C197.24 53.2736 200.175 57.4792 204.543 59.0824L206.288 59.7226L208.032 59.0825C212.401 57.4792 215.336 53.2738 215.336 48.6175V41.8211L206.22 40.0447L197.24 41.8121V48.6174Z" fill="#159E99"/>
<path d="M209.293 50.7874C209.764 50.3442 210.504 50.3671 210.947 50.8383C211.39 51.3095 211.367 52.0507 210.896 52.4938L209.007 54.2715C208.79 54.4764 208.503 54.5895 208.206 54.5895C208.181 54.5895 208.156 54.5887 208.131 54.5871C207.808 54.5665 207.508 54.4127 207.302 54.1625L201.183 46.7226C200.772 46.2232 200.844 45.485 201.343 45.074C201.842 44.663 202.579 44.7347 202.99 45.2341L208.315 51.7079L209.293 50.7874Z" fill="#159E99"/>
</svg>
