<svg width="411" height="369" viewBox="0 0 411 369" fill="none" xmlns="http://www.w3.org/2000/svg">
<path d="M75.7562 209.902H71.3323V192.412H65.2239V188.765H81.8792V192.412H75.7562V209.902ZM81.9671 209.902V194.199H86.098V197.026H86.1859C86.4593 196.03 86.9183 195.269 87.5628 194.741C88.2073 194.214 88.9935 193.95 89.9212 193.95C90.3704 193.95 90.7757 194.004 91.137 194.111V197.876C90.7366 197.71 90.2191 197.627 89.5843 197.627C88.5296 197.627 87.7093 197.935 87.1234 198.55C86.5374 199.165 86.2444 200.024 86.2444 201.128V209.902H81.9671ZM107.397 194.199V209.902H103.266V207.075H103.178C102.358 209.155 100.79 210.195 98.4759 210.195C96.7571 210.195 95.3851 209.673 94.3597 208.628C93.3343 207.573 92.8216 206.138 92.8216 204.321V194.199H97.0989V203.428C97.0989 204.473 97.348 205.269 97.846 205.815C98.3538 206.362 99.0814 206.636 100.029 206.636C100.976 206.636 101.728 206.323 102.284 205.698C102.841 205.073 103.119 204.238 103.119 203.193V194.199H107.397ZM109.916 198.813C109.916 197.319 110.517 196.123 111.718 195.225C112.919 194.316 114.526 193.862 116.537 193.862C118.5 193.862 120.077 194.321 121.269 195.239C122.46 196.157 123.071 197.378 123.1 198.901H119.159C119.111 198.267 118.847 197.769 118.368 197.407C117.9 197.046 117.27 196.865 116.479 196.865C115.737 196.865 115.141 197.021 114.692 197.334C114.252 197.637 114.033 198.042 114.033 198.55C114.033 199.312 114.716 199.854 116.083 200.176L119.086 200.82C120.659 201.172 121.786 201.685 122.47 202.358C123.163 203.022 123.51 203.94 123.51 205.112C123.51 206.655 122.866 207.896 121.576 208.833C120.287 209.771 118.603 210.239 116.523 210.239C114.452 210.239 112.797 209.78 111.557 208.862C110.317 207.944 109.638 206.709 109.521 205.156H113.696C113.803 205.82 114.106 206.333 114.604 206.694C115.112 207.056 115.79 207.236 116.64 207.236C117.451 207.236 118.085 207.09 118.544 206.797C119.013 206.494 119.247 206.084 119.247 205.566C119.247 205.166 119.101 204.849 118.808 204.614C118.515 204.37 118.017 204.165 117.314 203.999L114.413 203.354C111.415 202.671 109.916 201.157 109.916 198.813ZM126.791 190.581H131.069V194.199H133.969V197.422H131.069V204.937C131.069 206.118 131.684 206.709 132.914 206.709C133.315 206.709 133.661 206.685 133.954 206.636V209.785C133.456 209.902 132.778 209.961 131.918 209.961C130.073 209.961 128.754 209.629 127.963 208.965C127.182 208.301 126.791 207.202 126.791 205.669V197.422H124.579V194.199H126.791V190.581ZM143.124 197.026C142.197 197.026 141.42 197.344 140.795 197.979C140.18 198.613 139.833 199.424 139.755 200.41H146.42C146.371 199.404 146.044 198.589 145.439 197.964C144.843 197.339 144.072 197.026 143.124 197.026ZM146.479 205.098H150.405C150.17 206.641 149.399 207.886 148.09 208.833C146.791 209.771 145.175 210.239 143.242 210.239C140.829 210.239 138.935 209.517 137.558 208.071C136.191 206.626 135.507 204.644 135.507 202.124C135.507 199.614 136.191 197.612 137.558 196.118C138.925 194.614 140.766 193.862 143.08 193.862C145.356 193.862 147.167 194.575 148.515 196.001C149.863 197.427 150.536 199.336 150.536 201.729V203.032H139.711V203.296C139.711 204.419 140.038 205.332 140.693 206.035C141.357 206.729 142.231 207.075 143.315 207.075C144.096 207.075 144.77 206.899 145.336 206.548C145.903 206.187 146.284 205.703 146.479 205.098ZM158.578 210.151C156.616 210.151 155.058 209.424 153.906 207.969C152.753 206.514 152.177 204.531 152.177 202.021C152.177 199.531 152.753 197.563 153.906 196.118C155.068 194.673 156.635 193.95 158.608 193.95C159.721 193.95 160.698 194.219 161.537 194.756C162.387 195.293 163.007 196.006 163.398 196.895H163.486V188.765H167.763V209.902H163.544V207.207H163.471C163.08 208.096 162.451 208.809 161.581 209.346C160.712 209.883 159.711 210.151 158.578 210.151ZM160.029 197.378C158.954 197.378 158.105 197.798 157.48 198.638C156.865 199.478 156.557 200.615 156.557 202.051C156.557 203.496 156.865 204.634 157.48 205.464C158.105 206.294 158.954 206.709 160.029 206.709C161.093 206.709 161.938 206.294 162.563 205.464C163.198 204.624 163.515 203.486 163.515 202.051C163.515 200.625 163.198 199.492 162.563 198.652C161.938 197.803 161.093 197.378 160.029 197.378ZM182.631 207.061C183.578 207.061 184.379 206.787 185.034 206.24C185.698 205.684 186.03 204.985 186.03 204.146V203.003L182.719 203.208C181.918 203.267 181.298 203.467 180.859 203.809C180.429 204.15 180.214 204.6 180.214 205.156C180.214 205.742 180.434 206.206 180.873 206.548C181.313 206.89 181.899 207.061 182.631 207.061ZM181.225 210.151C179.711 210.151 178.456 209.707 177.46 208.818C176.464 207.93 175.966 206.787 175.966 205.391C175.966 203.965 176.493 202.847 177.548 202.036C178.603 201.226 180.112 200.762 182.075 200.645L186.03 200.41V199.37C186.03 198.647 185.79 198.081 185.312 197.671C184.843 197.261 184.203 197.056 183.393 197.056C182.612 197.056 181.972 197.231 181.474 197.583C180.986 197.935 180.688 198.408 180.58 199.004H176.669C176.747 197.461 177.407 196.221 178.647 195.283C179.887 194.336 181.533 193.862 183.583 193.862C185.595 193.862 187.206 194.341 188.417 195.298C189.628 196.255 190.234 197.524 190.234 199.106V209.902H186.103V207.5H186.015C185.585 208.32 184.931 208.97 184.052 209.448C183.173 209.917 182.231 210.151 181.225 210.151ZM193.002 209.902V194.199H197.133V196.997H197.221C197.651 196.001 198.276 195.239 199.096 194.712C199.926 194.175 200.937 193.906 202.128 193.906C203.867 193.906 205.209 194.424 206.157 195.459C207.104 196.494 207.577 197.935 207.577 199.78V209.902H203.3V200.674C203.3 199.639 203.056 198.843 202.568 198.286C202.079 197.729 201.362 197.451 200.414 197.451C199.467 197.451 198.705 197.769 198.129 198.403C197.563 199.038 197.28 199.868 197.28 200.894V209.902H193.002ZM216.117 210.151C214.155 210.151 212.597 209.424 211.445 207.969C210.292 206.514 209.716 204.531 209.716 202.021C209.716 199.531 210.292 197.563 211.445 196.118C212.607 194.673 214.174 193.95 216.147 193.95C217.26 193.95 218.237 194.219 219.076 194.756C219.926 195.293 220.546 196.006 220.937 196.895H221.025V188.765H225.302V209.902H221.083V207.207H221.01C220.619 208.096 219.99 208.809 219.12 209.346C218.251 209.883 217.25 210.151 216.117 210.151ZM217.568 197.378C216.493 197.378 215.644 197.798 215.019 198.638C214.404 199.478 214.096 200.615 214.096 202.051C214.096 203.496 214.404 204.634 215.019 205.464C215.644 206.294 216.493 206.709 217.568 206.709C218.632 206.709 219.477 206.294 220.102 205.464C220.737 204.624 221.054 203.486 221.054 202.051C221.054 200.625 220.737 199.492 220.102 198.652C219.477 197.803 218.632 197.378 217.568 197.378ZM233.681 203.882H237.944C238.041 204.741 238.495 205.439 239.306 205.977C240.126 206.504 241.127 206.768 242.309 206.768C243.481 206.768 244.433 206.519 245.165 206.021C245.908 205.513 246.279 204.868 246.279 204.087C246.279 203.403 246.005 202.852 245.458 202.432C244.911 202.012 243.998 201.66 242.719 201.377L239.965 200.776C236.088 199.946 234.15 197.979 234.15 194.873C234.15 192.939 234.902 191.377 236.406 190.186C237.919 188.994 239.863 188.398 242.236 188.398C244.677 188.398 246.625 188.979 248.08 190.142C249.535 191.294 250.283 192.832 250.322 194.756H246.176C246.108 193.867 245.712 193.169 244.99 192.661C244.277 192.144 243.364 191.885 242.25 191.885C241.157 191.885 240.273 192.124 239.599 192.603C238.935 193.081 238.603 193.711 238.603 194.492C238.603 195.137 238.871 195.659 239.409 196.06C239.955 196.46 240.839 196.802 242.06 197.085L244.623 197.627C246.742 198.076 248.285 198.779 249.252 199.736C250.219 200.684 250.702 201.963 250.702 203.574C250.702 205.625 249.931 207.256 248.388 208.467C246.845 209.668 244.76 210.269 242.133 210.269C239.584 210.269 237.553 209.702 236.039 208.569C234.535 207.427 233.749 205.864 233.681 203.882ZM260.107 197.026C259.179 197.026 258.403 197.344 257.778 197.979C257.162 198.613 256.816 199.424 256.738 200.41H263.403C263.354 199.404 263.027 198.589 262.421 197.964C261.826 197.339 261.054 197.026 260.107 197.026ZM263.461 205.098H267.387C267.153 206.641 266.381 207.886 265.073 208.833C263.774 209.771 262.158 210.239 260.224 210.239C257.812 210.239 255.917 209.517 254.54 208.071C253.173 206.626 252.49 204.644 252.49 202.124C252.49 199.614 253.173 197.612 254.54 196.118C255.908 194.614 257.748 193.862 260.063 193.862C262.338 193.862 264.15 194.575 265.497 196.001C266.845 197.427 267.519 199.336 267.519 201.729V203.032H256.694V203.296C256.694 204.419 257.021 205.332 257.675 206.035C258.339 206.729 259.213 207.075 260.297 207.075C261.078 207.075 261.752 206.899 262.319 206.548C262.885 206.187 263.266 205.703 263.461 205.098ZM283.998 200.044H280.029C279.902 199.194 279.565 198.511 279.018 197.993C278.481 197.476 277.783 197.217 276.923 197.217C275.859 197.217 275.019 197.646 274.404 198.506C273.798 199.355 273.495 200.532 273.495 202.036C273.495 203.569 273.798 204.761 274.404 205.61C275.019 206.46 275.864 206.885 276.938 206.885C277.787 206.885 278.481 206.646 279.018 206.167C279.555 205.679 279.892 205.005 280.029 204.146H284.013C283.906 206.001 283.207 207.48 281.918 208.584C280.629 209.688 278.954 210.239 276.894 210.239C274.511 210.239 272.626 209.512 271.24 208.057C269.853 206.592 269.159 204.585 269.159 202.036C269.159 199.526 269.853 197.539 271.24 196.074C272.636 194.6 274.511 193.862 276.865 193.862C278.954 193.862 280.639 194.438 281.918 195.591C283.207 196.743 283.901 198.228 283.998 200.044ZM300.58 194.199V209.902H296.45V207.075H296.362C295.541 209.155 293.974 210.195 291.659 210.195C289.941 210.195 288.569 209.673 287.543 208.628C286.518 207.573 286.005 206.138 286.005 204.321V194.199H290.283V203.428C290.283 204.473 290.532 205.269 291.03 205.815C291.537 206.362 292.265 206.636 293.212 206.636C294.159 206.636 294.911 206.323 295.468 205.698C296.025 205.073 296.303 204.238 296.303 203.193V194.199H300.58ZM303.364 209.902V194.199H307.494V197.026H307.582C307.856 196.03 308.315 195.269 308.959 194.741C309.604 194.214 310.39 193.95 311.318 193.95C311.767 193.95 312.172 194.004 312.534 194.111V197.876C312.133 197.71 311.616 197.627 310.981 197.627C309.926 197.627 309.106 197.935 308.52 198.55C307.934 199.165 307.641 200.024 307.641 201.128V209.902H303.364ZM320.81 197.026C319.882 197.026 319.106 197.344 318.481 197.979C317.866 198.613 317.519 199.424 317.441 200.41H324.106C324.057 199.404 323.73 198.589 323.124 197.964C322.529 197.339 321.757 197.026 320.81 197.026ZM324.164 205.098H328.09C327.856 206.641 327.084 207.886 325.776 208.833C324.477 209.771 322.861 210.239 320.927 210.239C318.515 210.239 316.62 209.517 315.243 208.071C313.876 206.626 313.193 204.644 313.193 202.124C313.193 199.614 313.876 197.612 315.243 196.118C316.611 194.614 318.451 193.862 320.766 193.862C323.041 193.862 324.853 194.575 326.201 196.001C327.548 197.427 328.222 199.336 328.222 201.729V203.032H317.397V203.296C317.397 204.419 317.724 205.332 318.378 206.035C319.042 206.729 319.916 207.075 321 207.075C321.782 207.075 322.455 206.899 323.022 206.548C323.588 206.187 323.969 205.703 324.164 205.098ZM336.264 210.151C334.301 210.151 332.743 209.424 331.591 207.969C330.439 206.514 329.863 204.531 329.863 202.021C329.863 199.531 330.439 197.563 331.591 196.118C332.753 194.673 334.321 193.95 336.293 193.95C337.407 193.95 338.383 194.219 339.223 194.756C340.073 195.293 340.693 196.006 341.083 196.895H341.171V188.765H345.449V209.902H341.23V207.207H341.157C340.766 208.096 340.136 208.809 339.267 209.346C338.398 209.883 337.397 210.151 336.264 210.151ZM337.714 197.378C336.64 197.378 335.79 197.798 335.165 198.638C334.55 199.478 334.242 200.615 334.242 202.051C334.242 203.496 334.55 204.634 335.165 205.464C335.79 206.294 336.64 206.709 337.714 206.709C338.779 206.709 339.623 206.294 340.248 205.464C340.883 204.624 341.201 203.486 341.201 202.051C341.201 200.625 340.883 199.492 340.248 198.652C339.623 197.803 338.779 197.378 337.714 197.378Z" fill="#313236"/>
<path d="M57.8058 294.476V295.899H49.9484V283.217H57.8058V284.641H51.5304V288.71H57.4806V290.116H51.5304V294.476H57.8058ZM59.6603 295.899V286.759H61.1017V288.218H61.1368C61.4005 287.708 61.7784 287.312 62.2706 287.031C62.7628 286.744 63.3517 286.601 64.0372 286.601C65.0333 286.601 65.8097 286.902 66.3663 287.506C66.923 288.104 67.2013 288.924 67.2013 289.967V295.899H65.672V290.239C65.672 289.495 65.4962 288.93 65.1447 288.543C64.7931 288.15 64.2687 287.954 63.5714 287.954C62.8507 287.954 62.2736 288.188 61.84 288.657C61.4064 289.126 61.1896 289.747 61.1896 290.521V295.899H59.6603ZM72.6154 296.058C71.4435 296.058 70.4972 295.627 69.7765 294.766C69.0616 293.904 68.7042 292.759 68.7042 291.329C68.7042 289.905 69.0616 288.763 69.7765 287.901C70.4913 287.034 71.4259 286.601 72.5802 286.601C73.2247 286.601 73.8019 286.747 74.3116 287.04C74.8214 287.333 75.214 287.734 75.4894 288.244H75.5245V283.217H77.0538V295.899H75.5948V294.353H75.5685C75.2697 294.886 74.8654 295.305 74.3556 295.609C73.8458 295.908 73.2657 296.058 72.6154 296.058ZM72.9054 287.945C72.0968 287.945 71.4552 288.253 70.9806 288.868C70.506 289.478 70.2687 290.298 70.2687 291.329C70.2687 292.366 70.506 293.189 70.9806 293.799C71.4552 294.408 72.0968 294.713 72.9054 294.713C73.6964 294.713 74.3322 294.405 74.8126 293.79C75.2931 293.169 75.5333 292.349 75.5333 291.329C75.5333 290.31 75.2902 289.492 74.8038 288.877C74.3234 288.256 73.6906 287.945 72.9054 287.945ZM83.3029 284.553H84.8322V286.759H86.6075V288.016H84.8322V293.447C84.8322 293.863 84.923 294.171 85.1046 294.37C85.2863 294.563 85.5734 294.66 85.9659 294.66C86.212 294.66 86.423 294.646 86.5988 294.616V295.899C86.3995 295.946 86.0773 295.97 85.632 295.97C84.7941 295.97 84.1964 295.782 83.839 295.407C83.4816 295.032 83.3029 294.405 83.3029 293.526V288.016H81.9406V286.759H83.3029V284.553ZM91.7667 296.058C90.4894 296.058 89.464 295.633 88.6906 294.783C87.9171 293.928 87.5304 292.776 87.5304 291.329C87.5304 289.882 87.9171 288.733 88.6906 287.884C89.464 287.028 90.4894 286.601 91.7667 286.601C93.0382 286.601 94.0607 287.028 94.8341 287.884C95.6075 288.733 95.9943 289.882 95.9943 291.329C95.9943 292.771 95.6075 293.919 94.8341 294.774C94.0607 295.63 93.0382 296.058 91.7667 296.058ZM89.8068 293.816C90.2931 294.414 90.9464 294.713 91.7667 294.713C92.587 294.713 93.2374 294.417 93.7179 293.825C94.1984 293.228 94.4386 292.396 94.4386 291.329C94.4386 290.263 94.1984 289.434 93.7179 288.842C93.2374 288.244 92.587 287.945 91.7667 287.945C90.9464 287.945 90.2931 288.244 89.8068 288.842C89.3263 289.439 89.0861 290.269 89.0861 291.329C89.0861 292.39 89.3263 293.219 89.8068 293.816ZM104.898 287.928C104.189 287.928 103.6 288.174 103.131 288.666C102.668 289.152 102.413 289.779 102.366 290.547H107.332C107.315 289.773 107.083 289.144 106.638 288.657C106.193 288.171 105.612 287.928 104.898 287.928ZM107.297 293.28H108.8C108.665 294.089 108.243 294.754 107.534 295.275C106.831 295.797 105.984 296.058 104.994 296.058C103.688 296.058 102.659 295.636 101.909 294.792C101.159 293.948 100.784 292.806 100.784 291.364C100.784 289.935 101.159 288.783 101.909 287.91C102.665 287.037 103.67 286.601 104.924 286.601C106.154 286.601 107.127 287.014 107.842 287.84C108.557 288.666 108.914 289.773 108.914 291.162V291.742H102.358V291.83C102.358 292.709 102.598 293.412 103.078 293.939C103.559 294.467 104.209 294.73 105.029 294.73C105.604 294.73 106.093 294.599 106.497 294.335C106.901 294.071 107.168 293.72 107.297 293.28ZM110.461 295.899V286.759H111.902V288.218H111.938C112.201 287.708 112.579 287.312 113.071 287.031C113.564 286.744 114.152 286.601 114.838 286.601C115.834 286.601 116.61 286.902 117.167 287.506C117.724 288.104 118.002 288.924 118.002 289.967V295.899H116.473V290.239C116.473 289.495 116.297 288.93 115.945 288.543C115.594 288.15 115.069 287.954 114.372 287.954C113.651 287.954 113.074 288.188 112.641 288.657C112.207 289.126 111.99 289.747 111.99 290.521V295.899H110.461ZM123.416 296.058C122.244 296.058 121.298 295.627 120.577 294.766C119.862 293.904 119.505 292.759 119.505 291.329C119.505 289.905 119.862 288.763 120.577 287.901C121.292 287.034 122.227 286.601 123.381 286.601C124.026 286.601 124.603 286.747 125.112 287.04C125.622 287.333 126.015 287.734 126.29 288.244H126.325V283.217H127.855V295.899H126.396V294.353H126.369C126.07 294.886 125.666 295.305 125.156 295.609C124.647 295.908 124.067 296.058 123.416 296.058ZM123.706 287.945C122.898 287.945 122.256 288.253 121.781 288.868C121.307 289.478 121.069 290.298 121.069 291.329C121.069 292.366 121.307 293.189 121.781 293.799C122.256 294.408 122.898 294.713 123.706 294.713C124.497 294.713 125.133 294.405 125.613 293.79C126.094 293.169 126.334 292.349 126.334 291.329C126.334 290.31 126.091 289.492 125.605 288.877C125.124 288.256 124.491 287.945 123.706 287.945ZM137.276 287.928C136.568 287.928 135.979 288.174 135.51 288.666C135.047 289.152 134.792 289.779 134.745 290.547H139.711C139.693 289.773 139.462 289.144 139.017 288.657C138.571 288.171 137.991 287.928 137.276 287.928ZM139.676 293.28H141.179C141.044 294.089 140.622 294.754 139.913 295.275C139.21 295.797 138.363 296.058 137.373 296.058C136.067 296.058 135.038 295.636 134.288 294.792C133.538 293.948 133.163 292.806 133.163 291.364C133.163 289.935 133.538 288.783 134.288 287.91C135.044 287.037 136.049 286.601 137.303 286.601C138.533 286.601 139.506 287.014 140.221 287.84C140.936 288.666 141.293 289.773 141.293 291.162V291.742H134.736V291.83C134.736 292.709 134.977 293.412 135.457 293.939C135.938 294.467 136.588 294.73 137.408 294.73C137.983 294.73 138.472 294.599 138.876 294.335C139.28 294.071 139.547 293.72 139.676 293.28ZM142.84 295.899V286.759H144.281V288.218H144.317C144.58 287.708 144.958 287.312 145.45 287.031C145.943 286.744 146.531 286.601 147.217 286.601C148.213 286.601 148.989 286.902 149.546 287.506C150.103 288.104 150.381 288.924 150.381 289.967V295.899H148.852V290.239C148.852 289.495 148.676 288.93 148.324 288.543C147.973 288.15 147.448 287.954 146.751 287.954C146.03 287.954 145.453 288.188 145.02 288.657C144.586 289.126 144.369 289.747 144.369 290.521V295.899H142.84ZM159.926 289.756H158.432C158.315 289.229 158.054 288.795 157.65 288.455C157.251 288.115 156.733 287.945 156.094 287.945C155.297 287.945 154.655 288.253 154.169 288.868C153.683 289.478 153.44 290.298 153.44 291.329C153.44 292.378 153.683 293.204 154.169 293.808C154.661 294.411 155.309 294.713 156.111 294.713C156.727 294.713 157.234 294.561 157.632 294.256C158.036 293.945 158.306 293.512 158.441 292.955H159.943C159.826 293.869 159.413 294.616 158.704 295.196C158.001 295.771 157.134 296.058 156.103 296.058C154.825 296.058 153.803 295.636 153.035 294.792C152.268 293.942 151.884 292.788 151.884 291.329C151.884 289.894 152.268 288.748 153.035 287.893C153.803 287.031 154.819 286.601 156.085 286.601C157.175 286.601 158.06 286.908 158.739 287.523C159.425 288.139 159.82 288.883 159.926 289.756ZM161.35 295.899V286.759H162.791V288.253H162.826C162.979 287.743 163.251 287.342 163.644 287.049C164.042 286.75 164.508 286.601 165.041 286.601C165.164 286.601 165.369 286.621 165.656 286.662V288.147C165.492 288.089 165.22 288.06 164.839 288.06C164.247 288.06 163.773 288.256 163.415 288.648C163.058 289.041 162.879 289.56 162.879 290.204V295.899H161.35ZM167.66 299.318C167.391 299.318 167.171 299.301 167.001 299.266V297.982C167.142 298.012 167.341 298.026 167.599 298.026C168.026 298.026 168.369 297.912 168.627 297.684C168.885 297.461 169.102 297.083 169.277 296.55L169.488 295.908L166.113 286.759H167.748L170.279 294.37H170.306L172.837 286.759H174.445L170.851 296.541C170.458 297.607 170.033 298.337 169.576 298.729C169.125 299.122 168.486 299.318 167.66 299.318ZM180.097 286.601C181.269 286.601 182.212 287.031 182.927 287.893C183.648 288.754 184.008 289.899 184.008 291.329C184.008 292.753 183.651 293.898 182.936 294.766C182.221 295.627 181.286 296.058 180.132 296.058C179.487 296.058 178.91 295.911 178.401 295.618C177.891 295.325 177.498 294.924 177.223 294.414H177.188V298.949H175.658V286.759H177.109V288.306H177.144C177.431 287.778 177.832 287.362 178.348 287.058C178.863 286.753 179.446 286.601 180.097 286.601ZM179.798 294.713C180.612 294.713 181.257 294.408 181.732 293.799C182.206 293.189 182.443 292.366 182.443 291.329C182.443 290.292 182.206 289.469 181.732 288.859C181.257 288.25 180.612 287.945 179.798 287.945C179.013 287.945 178.38 288.256 177.9 288.877C177.419 289.498 177.179 290.315 177.179 291.329C177.179 292.349 177.419 293.169 177.9 293.79C178.38 294.405 179.013 294.713 179.798 294.713ZM186.047 284.553H187.576V286.759H189.352V288.016H187.576V293.447C187.576 293.863 187.667 294.171 187.849 294.37C188.03 294.563 188.318 294.66 188.71 294.66C188.956 294.66 189.167 294.646 189.343 294.616V295.899C189.144 295.946 188.821 295.97 188.376 295.97C187.538 295.97 186.941 295.782 186.583 295.407C186.226 295.032 186.047 294.405 186.047 293.526V288.016H184.685V286.759H186.047V284.553ZM194.388 287.928C193.679 287.928 193.09 288.174 192.621 288.666C192.158 289.152 191.903 289.779 191.857 290.547H196.822C196.805 289.773 196.573 289.144 196.128 288.657C195.683 288.171 195.103 287.928 194.388 287.928ZM196.787 293.28H198.29C198.155 294.089 197.734 294.754 197.025 295.275C196.321 295.797 195.475 296.058 194.484 296.058C193.178 296.058 192.15 295.636 191.4 294.792C190.65 293.948 190.275 292.806 190.275 291.364C190.275 289.935 190.65 288.783 191.4 287.91C192.155 287.037 193.16 286.601 194.414 286.601C195.645 286.601 196.617 287.014 197.332 287.84C198.047 288.666 198.404 289.773 198.404 291.162V291.742H191.848V291.83C191.848 292.709 192.088 293.412 192.568 293.939C193.049 294.467 193.699 294.73 194.52 294.73C195.094 294.73 195.583 294.599 195.987 294.335C196.392 294.071 196.658 293.72 196.787 293.28ZM203.414 296.058C202.242 296.058 201.296 295.627 200.575 294.766C199.86 293.904 199.503 292.759 199.503 291.329C199.503 289.905 199.86 288.763 200.575 287.901C201.29 287.034 202.225 286.601 203.379 286.601C204.024 286.601 204.601 286.747 205.11 287.04C205.62 287.333 206.013 287.734 206.288 288.244H206.323V283.217H207.853V295.899H206.394V294.353H206.367C206.068 294.886 205.664 295.305 205.154 295.609C204.645 295.908 204.065 296.058 203.414 296.058ZM203.704 287.945C202.896 287.945 202.254 288.253 201.779 288.868C201.305 289.478 201.068 290.298 201.068 291.329C201.068 292.366 201.305 293.189 201.779 293.799C202.254 294.408 202.896 294.713 203.704 294.713C204.495 294.713 205.131 294.405 205.611 293.79C206.092 293.169 206.332 292.349 206.332 291.329C206.332 290.31 206.089 289.492 205.603 288.877C205.122 288.256 204.489 287.945 203.704 287.945ZM213.451 289.281C213.451 288.496 213.768 287.854 214.401 287.356C215.039 286.853 215.859 286.601 216.861 286.601C217.805 286.601 218.59 286.853 219.217 287.356C219.844 287.86 220.175 288.499 220.21 289.272H218.751C218.698 288.827 218.499 288.479 218.153 288.227C217.814 287.975 217.365 287.849 216.809 287.849C216.252 287.849 215.804 287.975 215.464 288.227C215.124 288.473 214.954 288.798 214.954 289.202C214.954 289.823 215.461 290.263 216.475 290.521L217.89 290.863C218.81 291.098 219.457 291.402 219.832 291.777C220.213 292.146 220.403 292.668 220.403 293.342C220.403 294.139 220.064 294.792 219.384 295.302C218.704 295.806 217.831 296.058 216.765 296.058C215.769 296.058 214.945 295.812 214.295 295.319C213.651 294.821 213.287 294.165 213.205 293.351H214.734C214.904 294.323 215.613 294.81 216.861 294.81C217.477 294.81 217.963 294.689 218.32 294.449C218.684 294.203 218.865 293.872 218.865 293.456C218.865 293.128 218.757 292.867 218.54 292.674C218.329 292.48 217.969 292.316 217.459 292.182L215.851 291.769C214.251 291.358 213.451 290.529 213.451 289.281ZM225.659 287.928C224.95 287.928 224.361 288.174 223.893 288.666C223.43 289.152 223.175 289.779 223.128 290.547H228.094C228.076 289.773 227.845 289.144 227.4 288.657C226.954 288.171 226.374 287.928 225.659 287.928ZM228.059 293.28H229.562C229.427 294.089 229.005 294.754 228.296 295.275C227.593 295.797 226.746 296.058 225.756 296.058C224.449 296.058 223.421 295.636 222.671 294.792C221.921 293.948 221.546 292.806 221.546 291.364C221.546 289.935 221.921 288.783 222.671 287.91C223.427 287.037 224.432 286.601 225.686 286.601C226.916 286.601 227.889 287.014 228.604 287.84C229.318 288.666 229.676 289.773 229.676 291.162V291.742H223.119V291.83C223.119 292.709 223.359 293.412 223.84 293.939C224.32 294.467 224.971 294.73 225.791 294.73C226.365 294.73 226.855 294.599 227.259 294.335C227.663 294.071 227.93 293.72 228.059 293.28ZM231.223 295.899V286.759H232.664V288.253H232.699C232.852 287.743 233.124 287.342 233.517 287.049C233.915 286.75 234.381 286.601 234.914 286.601C235.037 286.601 235.242 286.621 235.529 286.662V288.147C235.365 288.089 235.093 288.06 234.712 288.06C234.12 288.06 233.646 288.256 233.288 288.648C232.931 289.041 232.752 289.56 232.752 290.204V295.899H231.223ZM244.275 286.759L240.917 295.899H239.353L235.986 286.759H237.595L240.117 294.273H240.152L242.684 286.759H244.275ZM245.558 295.899V286.759H247.087V295.899H245.558ZM246.322 285.221C246.065 285.221 245.842 285.127 245.654 284.939C245.467 284.752 245.373 284.529 245.373 284.271C245.373 284.008 245.467 283.785 245.654 283.604C245.842 283.416 246.065 283.322 246.322 283.322C246.586 283.322 246.812 283.416 246.999 283.604C247.187 283.785 247.28 284.008 247.28 284.271C247.28 284.529 247.187 284.752 246.999 284.939C246.812 285.127 246.586 285.221 246.322 285.221ZM256.746 289.756H255.252C255.135 289.229 254.874 288.795 254.47 288.455C254.071 288.115 253.553 287.945 252.914 287.945C252.117 287.945 251.476 288.253 250.989 288.868C250.503 289.478 250.26 290.298 250.26 291.329C250.26 292.378 250.503 293.204 250.989 293.808C251.482 294.411 252.129 294.713 252.932 294.713C253.547 294.713 254.054 294.561 254.452 294.256C254.857 293.945 255.126 293.512 255.261 292.955H256.764C256.647 293.869 256.234 294.616 255.525 295.196C254.821 295.771 253.954 296.058 252.923 296.058C251.646 296.058 250.623 295.636 249.856 294.792C249.088 293.942 248.704 292.788 248.704 291.329C248.704 289.894 249.088 288.748 249.856 287.893C250.623 287.031 251.64 286.601 252.905 286.601C253.995 286.601 254.88 286.908 255.56 287.523C256.245 288.139 256.641 288.883 256.746 289.756ZM261.835 287.928C261.126 287.928 260.537 288.174 260.068 288.666C259.606 289.152 259.351 289.779 259.304 290.547H264.27C264.252 289.773 264.021 289.144 263.575 288.657C263.13 288.171 262.55 287.928 261.835 287.928ZM264.234 293.28H265.737C265.603 294.089 265.181 294.754 264.472 295.275C263.769 295.797 262.922 296.058 261.932 296.058C260.625 296.058 259.597 295.636 258.847 294.792C258.097 293.948 257.722 292.806 257.722 291.364C257.722 289.935 258.097 288.783 258.847 287.91C259.603 287.037 260.608 286.601 261.861 286.601C263.092 286.601 264.065 287.014 264.779 287.84C265.494 288.666 265.852 289.773 265.852 291.162V291.742H259.295V291.83C259.295 292.709 259.535 293.412 260.016 293.939C260.496 294.467 261.147 294.73 261.967 294.73C262.541 294.73 263.03 294.599 263.435 294.335C263.839 294.071 264.106 293.72 264.234 293.28ZM274.105 294.757C274.825 294.757 275.429 294.534 275.915 294.089C276.407 293.638 276.653 293.084 276.653 292.428V291.681L274.21 291.83C273.595 291.871 273.117 292.021 272.777 292.278C272.443 292.536 272.276 292.882 272.276 293.315C272.276 293.749 272.443 294.098 272.777 294.361C273.111 294.625 273.554 294.757 274.105 294.757ZM273.762 296.058C272.854 296.058 272.118 295.806 271.556 295.302C270.999 294.798 270.721 294.136 270.721 293.315C270.721 292.53 271.008 291.903 271.582 291.435C272.162 290.966 272.98 290.702 274.034 290.644L276.653 290.494V289.729C276.653 289.173 276.478 288.736 276.126 288.42C275.775 288.104 275.282 287.945 274.65 287.945C274.069 287.945 273.598 288.074 273.234 288.332C272.871 288.584 272.64 288.938 272.54 289.396H271.064C271.116 288.581 271.468 287.913 272.118 287.392C272.775 286.864 273.63 286.601 274.685 286.601C275.757 286.601 276.607 286.87 277.234 287.409C277.866 287.948 278.183 288.672 278.183 289.58V295.899H276.733V294.326H276.697C276.422 294.848 276.018 295.267 275.484 295.583C274.951 295.899 274.377 296.058 273.762 296.058ZM280.125 295.899V286.759H281.567V288.218H281.602C281.865 287.708 282.243 287.312 282.735 287.031C283.228 286.744 283.817 286.601 284.502 286.601C285.498 286.601 286.275 286.902 286.831 287.506C287.388 288.104 287.666 288.924 287.666 289.967V295.899H286.137V290.239C286.137 289.495 285.961 288.93 285.609 288.543C285.258 288.15 284.734 287.954 284.036 287.954C283.316 287.954 282.738 288.188 282.305 288.657C281.871 289.126 281.654 289.747 281.654 290.521V295.899H280.125ZM293.08 296.058C291.908 296.058 290.962 295.627 290.241 294.766C289.526 293.904 289.169 292.759 289.169 291.329C289.169 289.905 289.526 288.763 290.241 287.901C290.956 287.034 291.891 286.601 293.045 286.601C293.69 286.601 294.267 286.747 294.776 287.04C295.286 287.333 295.679 287.734 295.954 288.244H295.989V283.217H297.519V295.899H296.06V294.353H296.033C295.734 294.886 295.33 295.305 294.82 295.609C294.311 295.908 293.731 296.058 293.08 296.058ZM293.37 287.945C292.562 287.945 291.92 288.253 291.445 288.868C290.971 289.478 290.734 290.298 290.734 291.329C290.734 292.366 290.971 293.189 291.445 293.799C291.92 294.408 292.562 294.713 293.37 294.713C294.161 294.713 294.797 294.405 295.277 293.79C295.758 293.169 295.998 292.349 295.998 291.329C295.998 290.31 295.755 289.492 295.269 288.877C294.788 288.256 294.155 287.945 293.37 287.945ZM303.117 289.281C303.117 288.496 303.434 287.854 304.067 287.356C304.705 286.853 305.526 286.601 306.527 286.601C307.471 286.601 308.256 286.853 308.883 287.356C309.51 287.86 309.841 288.499 309.876 289.272H308.417C308.364 288.827 308.165 288.479 307.819 288.227C307.48 287.975 307.031 287.849 306.475 287.849C305.918 287.849 305.47 287.975 305.13 288.227C304.79 288.473 304.62 288.798 304.62 289.202C304.62 289.823 305.127 290.263 306.141 290.521L307.556 290.863C308.476 291.098 309.123 291.402 309.498 291.777C309.879 292.146 310.069 292.668 310.069 293.342C310.069 294.139 309.73 294.792 309.05 295.302C308.37 295.806 307.497 296.058 306.431 296.058C305.435 296.058 304.611 295.812 303.961 295.319C303.317 294.821 302.953 294.165 302.871 293.351H304.401C304.57 294.323 305.279 294.81 306.527 294.81C307.143 294.81 307.629 294.689 307.986 294.449C308.35 294.203 308.531 293.872 308.531 293.456C308.531 293.128 308.423 292.867 308.206 292.674C307.995 292.48 307.635 292.316 307.125 292.182L305.517 291.769C303.917 291.358 303.117 290.529 303.117 289.281ZM315.325 287.928C314.616 287.928 314.027 288.174 313.559 288.666C313.096 289.152 312.841 289.779 312.794 290.547H317.76C317.742 289.773 317.511 289.144 317.066 288.657C316.62 288.171 316.04 287.928 315.325 287.928ZM317.725 293.28H319.228C319.093 294.089 318.671 294.754 317.962 295.275C317.259 295.797 316.412 296.058 315.422 296.058C314.115 296.058 313.087 295.636 312.337 294.792C311.587 293.948 311.212 292.806 311.212 291.364C311.212 289.935 311.587 288.783 312.337 287.91C313.093 287.037 314.098 286.601 315.352 286.601C316.582 286.601 317.555 287.014 318.27 287.84C318.984 288.666 319.342 289.773 319.342 291.162V291.742H312.785V291.83C312.785 292.709 313.026 293.412 313.506 293.939C313.986 294.467 314.637 294.73 315.457 294.73C316.031 294.73 316.521 294.599 316.925 294.335C317.329 294.071 317.596 293.72 317.725 293.28ZM328.483 289.756H326.988C326.871 289.229 326.61 288.795 326.206 288.455C325.808 288.115 325.289 287.945 324.651 287.945C323.854 287.945 323.212 288.253 322.726 288.868C322.239 289.478 321.996 290.298 321.996 291.329C321.996 292.378 322.239 293.204 322.726 293.808C323.218 294.411 323.865 294.713 324.668 294.713C325.283 294.713 325.79 294.561 326.189 294.256C326.593 293.945 326.862 293.512 326.997 292.955H328.5C328.383 293.869 327.97 294.616 327.261 295.196C326.558 295.771 325.691 296.058 324.659 296.058C323.382 296.058 322.359 295.636 321.592 294.792C320.824 293.942 320.441 292.788 320.441 291.329C320.441 289.894 320.824 288.748 321.592 287.893C322.359 287.031 323.376 286.601 324.642 286.601C325.732 286.601 326.616 286.908 327.296 287.523C327.982 288.139 328.377 288.883 328.483 289.756ZM337.412 286.759V295.899H335.962V294.414H335.927C335.359 295.51 334.392 296.058 333.026 296.058C332.036 296.058 331.26 295.759 330.697 295.161C330.141 294.558 329.862 293.734 329.862 292.691V286.759H331.392V292.419C331.392 293.942 332.095 294.704 333.501 294.704C334.239 294.704 334.819 294.473 335.241 294.01C335.669 293.541 335.883 292.914 335.883 292.129V286.759H337.412ZM339.399 295.899V286.759H340.84V288.253H340.875C341.027 287.743 341.3 287.342 341.693 287.049C342.091 286.75 342.557 286.601 343.09 286.601C343.213 286.601 343.418 286.621 343.705 286.662V288.147C343.541 288.089 343.269 288.06 342.888 288.06C342.296 288.06 341.821 288.256 341.464 288.648C341.107 289.041 340.928 289.56 340.928 290.204V295.899H339.399ZM348.179 287.928C347.47 287.928 346.881 288.174 346.412 288.666C345.949 289.152 345.694 289.779 345.648 290.547H350.613C350.596 289.773 350.364 289.144 349.919 288.657C349.474 288.171 348.894 287.928 348.179 287.928ZM350.578 293.28H352.081C351.946 294.089 351.525 294.754 350.816 295.275C350.112 295.797 349.266 296.058 348.276 296.058C346.969 296.058 345.941 295.636 345.191 294.792C344.441 293.948 344.066 292.806 344.066 291.364C344.066 289.935 344.441 288.783 345.191 287.91C345.946 287.037 346.951 286.601 348.205 286.601C349.436 286.601 350.408 287.014 351.123 287.84C351.838 288.666 352.195 289.773 352.195 291.162V291.742H345.639V291.83C345.639 292.709 345.879 293.412 346.359 293.939C346.84 294.467 347.49 294.73 348.311 294.73C348.885 294.73 349.374 294.599 349.778 294.335C350.183 294.071 350.449 293.72 350.578 293.28ZM357.205 296.058C356.033 296.058 355.087 295.627 354.366 294.766C353.651 293.904 353.294 292.759 353.294 291.329C353.294 289.905 353.651 288.763 354.366 287.901C355.081 287.034 356.016 286.601 357.17 286.601C357.815 286.601 358.392 286.747 358.901 287.04C359.411 287.333 359.804 287.734 360.079 288.244H360.114V283.217H361.644V295.899H360.185V294.353H360.158C359.859 294.886 359.455 295.305 358.945 295.609C358.436 295.908 357.856 296.058 357.205 296.058ZM357.495 287.945C356.687 287.945 356.045 288.253 355.57 288.868C355.096 289.478 354.859 290.298 354.859 291.329C354.859 292.366 355.096 293.189 355.57 293.799C356.045 294.408 356.687 294.713 357.495 294.713C358.286 294.713 358.922 294.405 359.402 293.79C359.883 293.169 360.123 292.349 360.123 291.329C360.123 290.31 359.88 289.492 359.394 288.877C358.913 288.256 358.28 287.945 357.495 287.945ZM119.883 314.553H121.412V316.759H123.188V318.016H121.412V323.447C121.412 323.863 121.503 324.171 121.685 324.37C121.866 324.563 122.153 324.66 122.546 324.66C122.792 324.66 123.003 324.646 123.179 324.616V325.899C122.98 325.946 122.657 325.97 122.212 325.97C121.374 325.97 120.776 325.782 120.419 325.407C120.062 325.032 119.883 324.405 119.883 323.526V318.016H118.521V316.759H119.883V314.553ZM124.901 325.899V313.217H126.431V318.218H126.466C126.724 317.702 127.099 317.304 127.591 317.022C128.089 316.741 128.681 316.601 129.366 316.601C130.362 316.601 131.148 316.908 131.722 317.523C132.296 318.139 132.583 318.962 132.583 319.993V325.899H131.054V320.274C131.054 319.536 130.869 318.965 130.5 318.561C130.137 318.156 129.601 317.954 128.892 317.954C128.136 317.954 127.535 318.191 127.09 318.666C126.651 319.141 126.431 319.776 126.431 320.573V325.899H124.901ZM134.526 325.899V316.759H135.967V318.253H136.002C136.154 317.743 136.427 317.342 136.819 317.049C137.218 316.75 137.684 316.601 138.217 316.601C138.34 316.601 138.545 316.621 138.832 316.662V318.147C138.668 318.089 138.396 318.06 138.015 318.06C137.423 318.06 136.948 318.256 136.591 318.648C136.234 319.041 136.055 319.56 136.055 320.204V325.899H134.526ZM143.429 326.058C142.151 326.058 141.126 325.633 140.353 324.783C139.579 323.928 139.193 322.776 139.193 321.329C139.193 319.882 139.579 318.733 140.353 317.884C141.126 317.028 142.151 316.601 143.429 316.601C144.7 316.601 145.723 317.028 146.496 317.884C147.27 318.733 147.656 319.882 147.656 321.329C147.656 322.771 147.27 323.919 146.496 324.774C145.723 325.63 144.7 326.058 143.429 326.058ZM141.469 323.816C141.955 324.414 142.609 324.713 143.429 324.713C144.249 324.713 144.9 324.417 145.38 323.825C145.86 323.228 146.101 322.396 146.101 321.329C146.101 320.263 145.86 319.434 145.38 318.842C144.9 318.244 144.249 317.945 143.429 317.945C142.609 317.945 141.955 318.244 141.469 318.842C140.988 319.439 140.748 320.269 140.748 321.329C140.748 322.39 140.988 323.219 141.469 323.816ZM156.709 316.759V325.899H155.259V324.414H155.224C154.655 325.51 153.689 326.058 152.323 326.058C151.333 326.058 150.557 325.759 149.994 325.161C149.438 324.558 149.159 323.734 149.159 322.691V316.759H150.689V322.419C150.689 323.942 151.392 324.704 152.798 324.704C153.536 324.704 154.116 324.473 154.538 324.01C154.966 323.541 155.18 322.914 155.18 322.129V316.759H156.709ZM162.413 324.625C163.21 324.625 163.852 324.32 164.338 323.711C164.824 323.102 165.068 322.296 165.068 321.294C165.068 320.286 164.824 319.478 164.338 318.868C163.852 318.253 163.21 317.945 162.413 317.945C161.622 317.945 160.989 318.25 160.515 318.859C160.046 319.463 159.812 320.274 159.812 321.294C159.812 322.313 160.046 323.125 160.515 323.729C160.989 324.326 161.622 324.625 162.413 324.625ZM162.466 329.345C161.464 329.345 160.603 329.09 159.882 328.58C159.161 328.076 158.736 327.435 158.608 326.655H160.181C160.333 327.077 160.62 327.414 161.042 327.666C161.464 327.918 161.959 328.044 162.527 328.044C163.313 328.044 163.931 327.836 164.382 327.42C164.839 327.004 165.068 326.453 165.068 325.768V324.326H165.032C164.745 324.83 164.344 325.231 163.828 325.53C163.313 325.823 162.738 325.97 162.106 325.97C160.94 325.97 160.005 325.545 159.302 324.695C158.599 323.846 158.247 322.712 158.247 321.294C158.247 319.864 158.599 318.725 159.302 317.875C160.011 317.025 160.957 316.601 162.141 316.601C162.785 316.601 163.365 316.75 163.881 317.049C164.397 317.348 164.807 317.764 165.111 318.297H165.138V316.759H166.597V325.715C166.597 326.811 166.222 327.689 165.472 328.352C164.722 329.014 163.72 329.345 162.466 329.345ZM168.671 325.899V313.217H170.2V318.218H170.235C170.493 317.702 170.868 317.304 171.36 317.022C171.859 316.741 172.45 316.601 173.136 316.601C174.132 316.601 174.917 316.908 175.491 317.523C176.066 318.139 176.353 318.962 176.353 319.993V325.899H174.823V320.274C174.823 319.536 174.639 318.965 174.27 318.561C173.906 318.156 173.37 317.954 172.661 317.954C171.905 317.954 171.305 318.191 170.859 318.666C170.42 319.141 170.2 319.776 170.2 320.573V325.899H168.671ZM185.449 326.058C184.277 326.058 183.331 325.627 182.61 324.766C181.896 323.904 181.538 322.759 181.538 321.329C181.538 319.905 181.896 318.763 182.61 317.901C183.325 317.034 184.26 316.601 185.414 316.601C186.059 316.601 186.636 316.747 187.146 317.04C187.655 317.333 188.048 317.734 188.323 318.244H188.359V313.217H189.888V325.899H188.429V324.353H188.402C188.104 324.886 187.699 325.305 187.19 325.609C186.68 325.908 186.1 326.058 185.449 326.058ZM185.739 317.945C184.931 317.945 184.289 318.253 183.815 318.868C183.34 319.478 183.103 320.298 183.103 321.329C183.103 322.366 183.34 323.189 183.815 323.799C184.289 324.408 184.931 324.713 185.739 324.713C186.53 324.713 187.166 324.405 187.647 323.79C188.127 323.169 188.367 322.349 188.367 321.329C188.367 320.31 188.124 319.492 187.638 318.877C187.157 318.256 186.525 317.945 185.739 317.945ZM192.032 325.899V316.759H193.562V325.899H192.032ZM192.797 315.221C192.539 315.221 192.317 315.127 192.129 314.939C191.942 314.752 191.848 314.529 191.848 314.271C191.848 314.008 191.942 313.785 192.129 313.604C192.317 313.416 192.539 313.322 192.797 313.322C193.061 313.322 193.286 313.416 193.474 313.604C193.661 313.785 193.755 314.008 193.755 314.271C193.755 314.529 193.661 314.752 193.474 314.939C193.286 315.127 193.061 315.221 192.797 315.221ZM195.627 325.899V316.759H197.068V318.253H197.104C197.256 317.743 197.528 317.342 197.921 317.049C198.319 316.75 198.785 316.601 199.318 316.601C199.442 316.601 199.647 316.621 199.934 316.662V318.147C199.77 318.089 199.497 318.06 199.116 318.06C198.525 318.06 198.05 318.256 197.693 318.648C197.335 319.041 197.156 319.56 197.156 320.204V325.899H195.627ZM204.407 317.928C203.698 317.928 203.109 318.174 202.641 318.666C202.178 319.152 201.923 319.779 201.876 320.547H206.842C206.824 319.773 206.593 319.144 206.148 318.657C205.702 318.171 205.122 317.928 204.407 317.928ZM206.807 323.28H208.31C208.175 324.089 207.753 324.754 207.044 325.275C206.341 325.797 205.494 326.058 204.504 326.058C203.197 326.058 202.169 325.636 201.419 324.792C200.669 323.948 200.294 322.806 200.294 321.364C200.294 319.935 200.669 318.783 201.419 317.91C202.175 317.037 203.18 316.601 204.434 316.601C205.664 316.601 206.637 317.014 207.352 317.84C208.067 318.666 208.424 319.773 208.424 321.162V321.742H201.867V321.83C201.867 322.709 202.108 323.412 202.588 323.939C203.068 324.467 203.719 324.73 204.539 324.73C205.113 324.73 205.603 324.599 206.007 324.335C206.411 324.071 206.678 323.72 206.807 323.28ZM217.565 319.756H216.07C215.953 319.229 215.693 318.795 215.288 318.455C214.89 318.115 214.371 317.945 213.733 317.945C212.936 317.945 212.294 318.253 211.808 318.868C211.321 319.478 211.078 320.298 211.078 321.329C211.078 322.378 211.321 323.204 211.808 323.808C212.3 324.411 212.947 324.713 213.75 324.713C214.365 324.713 214.872 324.561 215.271 324.256C215.675 323.945 215.944 323.512 216.079 322.955H217.582C217.465 323.869 217.052 324.616 216.343 325.196C215.64 325.771 214.773 326.058 213.741 326.058C212.464 326.058 211.442 325.636 210.674 324.792C209.906 323.942 209.523 322.788 209.523 321.329C209.523 319.894 209.906 318.748 210.674 317.893C211.442 317.031 212.458 316.601 213.724 316.601C214.814 316.601 215.698 316.908 216.378 317.523C217.064 318.139 217.459 318.883 217.565 319.756ZM219.481 314.553H221.01V316.759H222.785V318.016H221.01V323.447C221.01 323.863 221.101 324.171 221.282 324.37C221.464 324.563 221.751 324.66 222.144 324.66C222.39 324.66 222.601 324.646 222.776 324.616V325.899C222.577 325.946 222.255 325.97 221.81 325.97C220.972 325.97 220.374 325.782 220.017 325.407C219.659 325.032 219.481 324.405 219.481 323.526V318.016H218.118V316.759H219.481V314.553ZM228.604 314.553H230.133V316.759H231.908V318.016H230.133V323.447C230.133 323.863 230.224 324.171 230.405 324.37C230.587 324.563 230.874 324.66 231.267 324.66C231.513 324.66 231.724 324.646 231.9 324.616V325.899C231.7 325.946 231.378 325.97 230.933 325.97C230.095 325.97 229.497 325.782 229.14 325.407C228.782 325.032 228.604 324.405 228.604 323.526V318.016H227.241V316.759H228.604V314.553ZM233.543 325.899V316.759H234.984V318.253H235.02C235.172 317.743 235.444 317.342 235.837 317.049C236.235 316.75 236.701 316.601 237.234 316.601C237.358 316.601 237.563 316.621 237.85 316.662V318.147C237.686 318.089 237.413 318.06 237.032 318.06C236.441 318.06 235.966 318.256 235.609 318.648C235.251 319.041 235.072 319.56 235.072 320.204V325.899H233.543ZM241.937 324.757C242.657 324.757 243.261 324.534 243.747 324.089C244.239 323.638 244.485 323.084 244.485 322.428V321.681L242.042 321.83C241.427 321.871 240.949 322.021 240.609 322.278C240.276 322.536 240.109 322.882 240.109 323.315C240.109 323.749 240.276 324.098 240.609 324.361C240.943 324.625 241.386 324.757 241.937 324.757ZM241.594 326.058C240.686 326.058 239.95 325.806 239.388 325.302C238.831 324.798 238.553 324.136 238.553 323.315C238.553 322.53 238.84 321.903 239.414 321.435C239.994 320.966 240.812 320.702 241.866 320.644L244.485 320.494V319.729C244.485 319.173 244.31 318.736 243.958 318.42C243.607 318.104 243.114 317.945 242.482 317.945C241.901 317.945 241.43 318.074 241.067 318.332C240.703 318.584 240.472 318.938 240.372 319.396H238.896C238.948 318.581 239.3 317.913 239.95 317.392C240.607 316.864 241.462 316.601 242.517 316.601C243.589 316.601 244.439 316.87 245.066 317.409C245.698 317.948 246.015 318.672 246.015 319.58V325.899H244.565V324.326H244.529C244.254 324.848 243.85 325.267 243.317 325.583C242.783 325.899 242.209 326.058 241.594 326.058ZM247.957 325.899V316.759H249.399V318.218H249.434C249.697 317.708 250.075 317.312 250.568 317.031C251.06 316.744 251.649 316.601 252.334 316.601C253.33 316.601 254.107 316.902 254.663 317.506C255.22 318.104 255.498 318.924 255.498 319.967V325.899H253.969V320.239C253.969 319.495 253.793 318.93 253.442 318.543C253.09 318.15 252.566 317.954 251.868 317.954C251.148 317.954 250.57 318.188 250.137 318.657C249.703 319.126 249.486 319.747 249.486 320.521V325.899H247.957ZM257.291 319.281C257.291 318.496 257.608 317.854 258.24 317.356C258.879 316.853 259.699 316.601 260.701 316.601C261.645 316.601 262.43 316.853 263.057 317.356C263.684 317.86 264.015 318.499 264.05 319.272H262.591C262.538 318.827 262.339 318.479 261.993 318.227C261.653 317.975 261.205 317.849 260.649 317.849C260.092 317.849 259.644 317.975 259.304 318.227C258.964 318.473 258.794 318.798 258.794 319.202C258.794 319.823 259.301 320.263 260.315 320.521L261.73 320.863C262.65 321.098 263.297 321.402 263.672 321.777C264.053 322.146 264.243 322.668 264.243 323.342C264.243 324.139 263.903 324.792 263.224 325.302C262.544 325.806 261.671 326.058 260.605 326.058C259.609 326.058 258.785 325.812 258.135 325.319C257.49 324.821 257.127 324.165 257.045 323.351H258.574C258.744 324.323 259.453 324.81 260.701 324.81C261.317 324.81 261.803 324.689 262.16 324.449C262.524 324.203 262.705 323.872 262.705 323.456C262.705 323.128 262.597 322.867 262.38 322.674C262.169 322.48 261.809 322.316 261.299 322.182L259.691 321.769C258.091 321.358 257.291 320.529 257.291 319.281ZM266.326 325.899V318.016H265.052V316.759H266.326V315.739C266.326 314.86 266.531 314.21 266.942 313.788C267.358 313.36 267.987 313.146 268.831 313.146C269.159 313.146 269.47 313.17 269.763 313.217V314.456C269.517 314.421 269.285 314.403 269.068 314.403C268.254 314.403 267.847 314.852 267.847 315.748V316.759H269.719V318.016H267.856V325.899H266.326ZM274.526 317.928C273.818 317.928 273.229 318.174 272.76 318.666C272.297 319.152 272.042 319.779 271.995 320.547H276.961C276.943 319.773 276.712 319.144 276.267 318.657C275.821 318.171 275.241 317.928 274.526 317.928ZM276.926 323.28H278.429C278.294 324.089 277.872 324.754 277.163 325.275C276.46 325.797 275.613 326.058 274.623 326.058C273.317 326.058 272.288 325.636 271.538 324.792C270.788 323.948 270.413 322.806 270.413 321.364C270.413 319.935 270.788 318.783 271.538 317.91C272.294 317.037 273.299 316.601 274.553 316.601C275.783 316.601 276.756 317.014 277.471 317.84C278.186 318.666 278.543 319.773 278.543 321.162V321.742H271.986V321.83C271.986 322.709 272.227 323.412 272.707 323.939C273.188 324.467 273.838 324.73 274.658 324.73C275.233 324.73 275.722 324.599 276.126 324.335C276.53 324.071 276.797 323.72 276.926 323.28ZM280.09 325.899V316.759H281.531V318.253H281.567C281.719 317.743 281.991 317.342 282.384 317.049C282.782 316.75 283.248 316.601 283.781 316.601C283.904 316.601 284.109 316.621 284.397 316.662V318.147C284.233 318.089 283.96 318.06 283.579 318.06C282.987 318.06 282.513 318.256 282.155 318.648C281.798 319.041 281.619 319.56 281.619 320.204V325.899H280.09ZM285.486 319.281C285.486 318.496 285.803 317.854 286.436 317.356C287.074 316.853 287.895 316.601 288.897 316.601C289.84 316.601 290.625 316.853 291.252 317.356C291.879 317.86 292.21 318.499 292.245 319.272H290.786C290.734 318.827 290.534 318.479 290.189 318.227C289.849 317.975 289.401 317.849 288.844 317.849C288.287 317.849 287.839 317.975 287.499 318.227C287.159 318.473 286.989 318.798 286.989 319.202C286.989 319.823 287.496 320.263 288.51 320.521L289.925 320.863C290.845 321.098 291.492 321.402 291.867 321.777C292.248 322.146 292.439 322.668 292.439 323.342C292.439 324.139 292.099 324.792 291.419 325.302C290.739 325.806 289.866 326.058 288.8 326.058C287.804 326.058 286.981 325.812 286.33 325.319C285.686 324.821 285.322 324.165 285.24 323.351H286.77C286.94 324.323 287.649 324.81 288.897 324.81C289.512 324.81 289.998 324.689 290.356 324.449C290.719 324.203 290.901 323.872 290.901 323.456C290.901 323.128 290.792 322.867 290.575 322.674C290.364 322.48 290.004 322.316 289.494 322.182L287.886 321.769C286.286 321.358 285.486 320.529 285.486 319.281Z" fill="#7C7D8D"/>
<rect x="166.246" y="235.9" width="79.9432" height="3" fill="#FFC747"/>
<path d="M275.167 72.9052C275.167 111.014 244.296 141.903 206.218 141.903C168.141 141.903 137.27 111.014 137.27 72.9052C137.27 34.7967 168.141 3.90723 206.218 3.90723C244.296 3.90723 275.167 34.7967 275.167 72.9052Z" fill="white" stroke="#159E99" stroke-width="6"/>
<path d="M245.471 62.4115L224.214 72.3961C224 72.4965 223.761 72.5296 223.528 72.4918L215.769 71.2236C211.335 70.4992 206.803 71.9759 203.645 75.1743L197.152 81.7524C196.754 82.1555 196.554 82.6889 196.59 83.2543C196.626 83.8198 196.891 84.3237 197.337 84.6734C198.014 85.2043 198.976 85.2277 199.678 84.7302L206.009 80.2414C206.908 79.6043 208.105 79.6768 208.92 80.4171L213.547 84.6185C214.026 85.0533 214.062 85.7939 213.627 86.2729C213.193 86.7518 212.453 86.7879 211.974 86.3531L207.363 82.1526L201.031 86.6414C200.291 87.1661 199.419 87.4269 198.547 87.4269C197.605 87.4269 196.664 87.1221 195.892 86.5166C194.929 85.7605 194.332 84.6254 194.254 83.4024C194.176 82.1794 194.626 80.978 195.486 80.1062L200.635 74.891C197.912 74.215 195.03 74.3259 192.355 75.2352L189.612 76.1682C189.312 76.2699 189.001 76.3202 188.691 76.3202C188.204 76.3202 187.72 76.1963 187.287 75.953C187.282 75.9499 187.276 75.9468 187.271 75.9437L167.042 64.1385C166.484 63.8125 166.295 63.0955 166.62 62.5367C166.946 61.9779 167.663 61.7894 168.221 62.115L188.44 73.9141C188.568 73.9842 188.72 73.9972 188.859 73.9503L191.602 73.0174C195.141 71.8144 198.993 71.8147 202.525 73.0038C206.18 69.6322 211.214 68.1064 216.146 68.912L223.548 70.1218L244.477 60.2912C245.062 60.0164 245.759 60.2682 246.033 60.8537C246.308 61.4393 246.056 62.1367 245.471 62.4115Z" fill="#159E99"/>
<path d="M166.411 84.3625C166.694 83.7813 167.395 83.5405 167.976 83.8242L178.273 88.8576C178.449 88.9437 178.601 89.0725 178.714 89.2324L179.543 90.4012C180.539 91.8068 181.829 92.9723 183.316 93.8214C183.432 93.6338 183.563 93.453 183.712 93.2814L185.758 90.9261C187.248 89.2105 189.854 89.0277 191.569 90.5187L191.737 90.6651C192.609 91.4228 193.083 92.4694 193.145 93.5406C193.163 93.539 193.181 93.5367 193.199 93.5354C194.296 93.4585 195.358 93.8137 196.188 94.5358L196.357 94.6824C197.229 95.4406 197.704 96.4879 197.765 97.5598C198.834 97.4708 199.936 97.7949 200.808 98.5531L200.977 98.6999C201.849 99.458 202.324 100.505 202.385 101.577C203.454 101.488 204.557 101.812 205.428 102.571L205.597 102.717C206.427 103.439 206.927 104.442 207.004 105.54C207.081 106.638 206.726 107.701 206.004 108.532L205.016 109.67L205.41 110.019C205.418 110.026 205.425 110.032 205.432 110.039C206.194 110.748 207.456 110.73 208.2 110.003C208.837 109.302 208.857 108.235 208.243 107.511C207.842 107.038 207.879 106.335 208.327 105.906C208.775 105.478 209.479 105.473 209.933 105.896L210.058 106.013C210.821 106.722 212.083 106.704 212.827 105.977C213.473 105.266 213.486 104.191 212.856 103.466C212.447 102.996 212.477 102.288 212.924 101.855C213.372 101.422 214.08 101.415 214.536 101.839L214.571 101.872C215.333 102.581 216.595 102.563 217.339 101.836C217.977 101.134 217.996 100.065 217.38 99.3409C217.018 98.9163 217.006 98.2953 217.351 97.8569C217.696 97.4186 218.302 97.2846 218.799 97.5363C219.57 97.9267 220.505 97.7445 221.074 97.0936C221.737 96.3363 221.653 95.1395 220.889 94.4196L219.63 93.3042L215.704 89.7391C215.225 89.3044 215.189 88.5637 215.624 88.0848C216.058 87.6057 216.798 87.5698 217.277 88.0045L221.193 91.5601L222.453 92.6767C222.46 92.6831 222.467 92.6895 222.474 92.6959C223.119 93.2967 223.541 94.0572 223.733 94.8625L223.742 94.8575C225.888 93.6405 227.76 92.0481 229.305 90.1245L229.973 89.2941C230.08 89.1601 230.216 89.0514 230.37 88.9758L244.459 82.0788C245.04 81.7949 245.741 82.0353 246.025 82.6162C246.309 83.1972 246.069 83.8987 245.488 84.1829L231.633 90.9651L231.129 91.5922C229.398 93.7474 227.301 95.5316 224.896 96.8952L223.438 97.7222C223.282 98.0467 223.082 98.3548 222.836 98.636C222.124 99.4497 221.156 99.936 220.14 100.054C220.285 101.255 219.915 102.503 219.038 103.447C219.028 103.457 219.018 103.467 219.009 103.477C218.104 104.383 216.871 104.802 215.662 104.728C215.657 105.756 215.277 106.78 214.526 107.588C214.516 107.598 214.507 107.608 214.497 107.618C213.562 108.554 212.276 108.97 211.03 108.86C211 109.854 210.621 110.837 209.9 111.614C209.89 111.624 209.88 111.634 209.87 111.644C209.033 112.482 207.915 112.903 206.795 112.903C205.735 112.903 204.673 112.525 203.85 111.764L203.432 111.395C202.782 111.92 201.989 112.235 201.138 112.295C201.04 112.302 200.942 112.305 200.844 112.305C199.852 112.305 198.904 111.952 198.149 111.295L197.98 111.148C197.108 110.389 196.633 109.342 196.572 108.27C196.457 108.28 196.343 108.286 196.227 108.286C195.269 108.286 194.307 107.954 193.528 107.277L193.36 107.13C192.488 106.372 192.013 105.325 191.952 104.253C191.838 104.262 191.723 104.268 191.607 104.268C190.649 104.268 189.687 103.937 188.908 103.26L188.74 103.113C187.909 102.391 187.41 101.389 187.333 100.29C187.331 100.272 187.331 100.254 187.33 100.236C187.216 100.245 187.102 100.251 186.987 100.251C186.029 100.251 185.067 99.9191 184.289 99.2424L184.12 99.0957C183.231 98.3224 182.755 97.2485 182.709 96.1544C180.693 95.1193 178.949 93.6124 177.633 91.7559L176.978 90.8308L166.949 85.9284C166.368 85.645 166.127 84.9437 166.411 84.3625ZM199.514 109.38L199.683 109.527C200.042 109.839 200.499 109.992 200.974 109.959C201.448 109.926 201.88 109.71 202.192 109.351L204.237 106.996C204.549 106.637 204.702 106.178 204.669 105.704C204.636 105.23 204.42 104.797 204.061 104.485L203.893 104.339C203.557 104.046 203.141 103.903 202.728 103.903C202.23 103.903 201.735 104.11 201.384 104.515L199.339 106.87C198.696 107.611 198.775 108.737 199.514 109.38ZM194.895 105.363L195.063 105.509C195.803 106.153 196.929 106.074 197.572 105.333L199.617 102.978C200.261 102.237 200.182 101.111 199.442 100.468L199.273 100.321C198.533 99.6776 197.408 99.7564 196.764 100.497L194.719 102.852C194.076 103.593 194.155 104.719 194.895 105.363ZM189.667 100.127C189.701 100.601 189.917 101.034 190.275 101.346L190.444 101.492C191.184 102.136 192.309 102.057 192.952 101.316L194.998 98.9607C195.641 98.22 195.562 97.0938 194.822 96.4503L194.653 96.3036C194.327 96.0199 193.918 95.8673 193.489 95.8673C193.447 95.8673 193.405 95.8687 193.362 95.8717C192.889 95.905 192.456 96.1209 192.144 96.4796L190.099 98.8349C189.787 99.194 189.634 99.6526 189.667 100.127ZM185.655 97.328L185.824 97.4747C186.564 98.1182 187.689 98.0393 188.332 97.2987L190.378 94.9434C190.689 94.5847 190.843 94.1259 190.809 93.6518C190.776 93.1777 190.56 92.7448 190.202 92.433L190.033 92.2865C189.293 91.643 188.168 91.7218 187.525 92.4625L185.479 94.8178C184.836 95.5583 184.915 96.6845 185.655 97.328Z" fill="#159E99"/>
<path d="M210.451 65.6798L207.212 66.8687C206.914 66.9778 206.602 67.0325 206.289 67.0325C205.976 67.0325 205.664 66.9778 205.366 66.8687L202.127 65.6798C199.195 64.6039 196.576 62.7784 194.553 60.4006C192.554 58.0493 191.177 55.2092 190.572 52.187C190.446 51.5527 190.856 50.9357 191.49 50.8088C192.125 50.6815 192.741 51.0931 192.868 51.7273C193.941 57.0926 197.797 61.5962 202.933 63.4805L206.172 64.6693C206.247 64.697 206.33 64.697 206.406 64.6693L209.645 63.4805C215.85 61.2036 220.019 55.2304 220.019 48.6171V38.4378C220.019 38.1613 219.822 37.9222 219.55 37.8694L206.217 35.2708L193.026 37.8669C192.756 37.9202 192.559 38.1592 192.559 38.4352V46.9653C192.559 47.6121 192.035 48.1365 191.389 48.1365C190.742 48.1365 190.218 47.6121 190.218 46.9653V38.435C190.218 37.0427 191.209 35.8372 192.574 35.5686L205.99 32.9283C206.138 32.8991 206.291 32.8989 206.439 32.9278L219.998 35.5701C221.366 35.8369 222.359 37.0429 222.359 38.4378V48.6174C222.359 56.209 217.574 63.0661 210.451 65.6798Z" fill="#159E99"/>
<path d="M205.993 37.702C206.142 37.6727 206.294 37.6727 206.443 37.7015L216.73 39.7063C217.28 39.8134 217.677 40.2953 217.677 40.8559V48.6174C217.677 54.2521 214.125 59.3414 208.838 61.2815L206.691 62.0695C206.561 62.1173 206.424 62.141 206.288 62.141C206.151 62.141 206.015 62.1171 205.885 62.0695L203.738 61.2815C198.451 59.3416 194.899 54.2521 194.899 48.6174V40.8487C194.899 40.2891 195.295 39.8076 195.844 39.6996L205.993 37.702ZM197.24 48.6174C197.24 53.2736 200.175 57.4792 204.543 59.0824L206.288 59.7226L208.032 59.0825C212.401 57.4792 215.336 53.2738 215.336 48.6175V41.8211L206.22 40.0447L197.24 41.8121V48.6174Z" fill="#159E99"/>
<path d="M209.293 50.7874C209.764 50.3442 210.504 50.3671 210.947 50.8383C211.39 51.3095 211.367 52.0507 210.896 52.4938L209.007 54.2715C208.79 54.4764 208.503 54.5895 208.206 54.5895C208.181 54.5895 208.156 54.5887 208.131 54.5871C207.808 54.5665 207.508 54.4127 207.302 54.1625L201.183 46.7226C200.772 46.2232 200.844 45.485 201.343 45.074C201.842 44.663 202.579 44.7347 202.99 45.2341L208.315 51.7079L209.293 50.7874Z" fill="#159E99"/>
</svg>
